<svg xmlns="http://www.w3.org/2000/svg" viewBox="0 0 32 32" stroke="currentColor" stroke-width="2" fill="none" stroke-linecap="round" stroke-linejoin="round">
  <path d="M20.5 27.5c0-1.1 0-2.3 0-3.2 0-2.4-1.6-3.1-1.6-3.1m-6.8 6.3c0-1.1 0-2.6 0-3.4 0-2.5 1.6-3.3 1.6-3.3M12 23c-3.5 1-5.5-1.4-5.5-1.4-.9-2.2-2.2-2.8-2.2-2.8-1.8-1.2.1-1.2.1-1.2 2 .2 3 2.1 3 2.1 1.8 3 4.7 2 5.9 1.6 .2-1.3.7-2 1.2-2.4-3.1-.4-6.4-1.6-6.4-7.1 0-1.6.6-2.9 1.6-4-0.2-.4-.7-2.1.2-4.4 0 0 1.3-.4 4.2 1.5a14.1 14.1 0 0 1 7.6 0c2.9-1.9 4.2-1.5 4.2-1.5.9 2.3.4 4 .2 4.4 1 1.1 1.6 2.4 1.6 4 0 5.6-3.3 6.7-6.5 7.1.7.6 1.3 1.8 1.3 3.6 0 1.6 0 3.3 0 4.3"></path>
</svg>
