<svg version="1.1" id="Layer_1" xmlns="http://www.w3.org/2000/svg" xmlns:xlink="http://www.w3.org/1999/xlink" x="0px" y="0px"
	 width="100%" viewBox="0 0 412 306" enable-background="new 0 0 412 306" xml:space="preserve">
<path fill="#C1C0C1" opacity="1.000000" stroke="none" 
	d="
M413.000000,103.000000 
	C413.000000,171.333328 413.000000,239.166672 413.000000,307.000000 
	C275.666687,307.000000 138.333359,307.000000 1.000028,307.000000 
	C1.000018,205.000015 1.000018,103.000038 1.000009,1.000041 
	C138.333298,1.000028 275.666595,1.000028 412.999939,1.000014 
	C413.000000,34.833332 413.000000,68.666664 413.000000,103.000000 
M14.459987,43.352589 
	C13.280212,46.104969 11.076703,48.854710 11.069583,51.610119 
	C10.862940,131.578522 10.861691,211.547501 10.936846,291.516266 
	C10.938671,293.458710 12.183682,295.399963 13.389612,297.920807 
	C16.597809,298.353882 19.805597,299.161346 23.014265,299.164856 
	C90.321083,299.238434 157.628006,299.220398 224.934906,299.222046 
	C281.258514,299.223419 337.582184,299.206360 393.905731,299.253418 
	C401.694611,299.259918 403.398468,297.662231 403.055634,289.068542 
	C403.066681,210.743317 403.017548,132.417953 403.215942,54.093204 
	C403.230103,48.504642 401.297028,44.645420 396.948242,40.811596 
	C386.509796,30.293196 376.157928,19.685789 365.538422,9.353459 
	C363.967010,7.824549 361.135345,6.888325 358.879150,6.873978 
	C335.048309,6.722433 311.215759,6.778418 287.384033,6.870268 
	C283.067719,6.886904 278.702362,6.987984 274.446472,7.627689 
	C257.060272,10.241020 242.746918,18.622320 230.374634,30.956226 
	C224.742416,36.570980 218.262131,41.335014 211.774689,46.815971 
	C209.692123,36.501575 208.219604,27.017920 205.789429,17.786360 
	C203.340820,8.484706 200.765121,7.010799 191.278732,7.017354 
	C189.112122,7.018851 186.945038,7.038148 184.778976,7.001436 
	C180.224167,6.924235 178.052856,9.272840 177.987579,13.696641 
	C177.934570,17.288752 177.976837,20.882267 177.976837,24.552830 
	C171.708267,20.908308 165.851898,17.503441 159.463333,13.652405 
	C157.969040,13.121045 156.474747,12.589686 154.616440,11.609371 
	C154.076065,11.468243 153.535690,11.327114 152.308258,10.866274 
	C145.843750,9.573811 139.398621,7.291859 132.911270,7.164685 
	C108.283081,6.681887 83.640213,7.001034 59.005325,6.762591 
	C53.993458,6.714080 49.998398,7.381909 46.294510,11.376821 
	C37.486965,20.876402 28.153269,29.888161 18.430214,39.288864 
	C17.323088,40.538197 16.215960,41.787533 14.459987,43.352589 
z"/>
<path fill="#393639" opacity="1.000000" stroke="none" 
	d="
M402.913330,289.996033 
	C403.398468,297.662231 401.694611,299.259918 393.905731,299.253418 
	C337.582184,299.206360 281.258514,299.223419 224.934906,299.222046 
	C157.628006,299.220398 90.321083,299.238434 23.014265,299.164856 
	C19.805597,299.161346 16.597809,298.353882 13.298092,297.302551 
	C14.021116,295.028046 15.569953,293.354431 15.531120,291.718475 
	C15.277677,281.041412 14.672846,270.372833 14.238581,259.699219 
	C14.228101,259.441589 14.864873,259.157654 15.419809,258.707458 
	C17.584206,268.985260 13.573643,279.731934 18.958801,289.425293 
	C20.237120,286.912109 20.400084,284.342377 21.059906,281.907288 
	C21.888071,278.851013 23.123432,275.905060 24.419319,272.755188 
	C25.133589,271.809723 25.611603,271.020630 26.398998,270.080841 
	C27.819864,268.674652 28.931349,267.419098 30.197477,266.486694 
	C29.776789,271.759583 31.397623,275.658783 35.780537,278.272003 
	C35.985374,278.394104 35.979862,278.868988 35.990578,279.515198 
	C34.522114,281.730804 33.135384,283.610809 31.529285,285.788208 
	C84.186523,285.788208 135.958023,285.788208 188.927780,285.788208 
	C174.876984,274.449493 163.793182,260.986420 146.948669,255.421066 
	C148.615891,254.723465 150.086716,254.332703 151.076965,254.069611 
	C151.438431,250.505737 151.775482,247.182602 152.490646,243.872406 
	C170.152527,248.989441 181.707916,262.606262 195.843201,272.961029 
	C195.743500,267.862030 194.724533,263.209930 194.257507,258.503052 
	C193.796295,253.854507 191.578262,252.566269 187.079941,252.785812 
	C179.648300,253.148499 177.774475,250.994675 177.770401,243.408997 
	C177.760071,224.089676 177.735077,204.770279 177.779053,185.451065 
	C177.805191,173.969833 177.950821,162.488861 178.427307,151.026733 
	C180.206589,152.748459 182.405380,154.279297 182.814529,156.192780 
	C183.491058,159.357010 182.744843,162.799271 183.124908,166.063034 
	C183.347000,167.970184 184.591461,169.758270 185.375977,171.599930 
	C186.959534,170.711029 188.543091,169.822128 190.488190,169.175934 
	C190.849716,192.645737 190.849716,215.872879 190.849716,238.970871 
	C194.440964,239.480057 197.159256,239.865463 200.304779,240.311447 
	C200.304779,217.365784 200.304779,194.727570 200.655396,172.006470 
	C201.987930,170.166229 203.884552,168.358154 203.790466,166.660400 
	C203.420151,159.978302 206.269775,152.654541 200.376434,146.427429 
	C200.248428,127.828629 199.841965,109.672180 200.287079,91.536636 
	C200.807785,70.320473 199.545486,49.332554 194.900436,28.598377 
	C194.258118,25.731264 193.435089,22.904636 192.695709,20.059269 
	C192.145218,20.162514 191.594727,20.265760 191.044235,20.369007 
	C191.044235,22.112795 191.044205,23.856583 191.044250,25.600370 
	C191.045197,58.067612 191.063171,90.534866 191.033600,123.002075 
	C191.027237,129.987747 190.849182,136.973267 190.384644,144.018616 
	C186.013428,143.718781 182.007767,143.359161 177.901215,142.540344 
	C177.786987,110.764648 177.705139,79.447815 177.850922,48.132042 
	C177.868271,44.407211 176.920074,41.771248 173.880020,39.697945 
	C166.503036,34.666904 159.189011,29.543581 152.093262,24.154278 
	C156.974243,22.237183 163.118378,21.806532 159.995529,14.098576 
	C165.851898,17.503441 171.708267,20.908308 177.976837,24.552830 
	C177.976837,20.882267 177.934570,17.288752 177.987579,13.696641 
	C178.052856,9.272840 180.224167,6.924235 184.778976,7.001436 
	C186.945038,7.038148 189.112122,7.018851 191.278732,7.017354 
	C200.765121,7.010799 203.340820,8.484706 205.789429,17.786360 
	C208.219604,27.017920 209.692123,36.501575 211.774689,46.815971 
	C218.262131,41.335014 224.742416,36.570980 230.374634,30.956226 
	C242.746918,18.622320 257.060272,10.241020 274.446472,7.627689 
	C278.702362,6.987984 283.067719,6.886904 287.384033,6.870268 
	C311.215759,6.778418 335.048309,6.722433 358.879150,6.873978 
	C361.135345,6.888325 363.967010,7.824549 365.538422,9.353459 
	C376.157928,19.685789 386.509796,30.293196 396.934692,41.443420 
	C394.571411,45.397491 392.221619,48.719738 389.564941,51.917637 
	C382.200775,44.458508 375.143585,37.123730 368.086365,29.788950 
	C367.693268,30.099686 367.300201,30.410421 366.907104,30.721157 
	C366.907104,32.698883 366.907104,34.676605 366.907104,36.654331 
	C366.907654,100.975449 367.113220,165.297897 366.695526,229.616302 
	C366.630219,239.673019 368.482422,247.909195 375.527618,255.248764 
	C380.585449,260.517944 384.736267,266.657776 389.291718,272.409210 
	C389.606659,272.253693 389.921570,272.098206 390.236511,271.942688 
	C390.236511,266.292969 390.236511,260.643219 390.641937,254.992935 
	C395.864044,254.544037 399.310486,256.209137 399.609009,261.444916 
	C400.045715,269.104004 400.191010,276.782227 400.321259,284.454681 
	C400.360840,286.786469 398.815216,289.644745 402.913330,289.996033 
M213.792908,172.017471 
	C213.792908,206.924759 213.792908,241.832062 213.792908,277.998627 
	C221.823807,270.974640 228.903183,264.784912 235.980331,258.592682 
	C250.490952,245.896469 267.370209,239.585632 286.666534,239.637695 
	C306.827911,239.692093 326.989532,239.647385 347.151062,239.646042 
	C349.081848,239.645905 351.012634,239.646027 353.210754,239.646027 
	C353.210754,166.073761 353.210754,93.210823 353.210754,19.935017 
	C351.462189,19.935017 349.997040,19.934875 348.531860,19.935038 
	C327.537231,19.937386 306.542450,19.894327 285.547974,19.957329 
	C270.277802,20.003155 256.892517,25.241573 245.357101,35.156406 
	C236.140182,43.078465 227.145035,51.260807 217.849487,59.087761 
	C214.928238,61.547474 213.739807,64.048294 213.751984,67.934570 
	C213.852188,99.921349 213.707535,131.908890 212.924561,163.923401 
	C211.636078,165.358261 210.347580,166.793137 209.059097,168.227997 
	C210.586060,169.186996 212.113007,170.146011 213.792908,172.017471 
M324.500000,252.955734 
	C317.500092,252.955338 310.499390,252.886658 303.500519,252.971924 
	C294.843323,253.077377 286.135223,252.766296 277.541595,253.594742 
	C255.297928,255.739120 241.498535,271.803162 225.317429,285.820923 
	C278.178192,285.820923 329.993713,285.820923 382.709198,285.820923 
	C374.151642,274.918243 366.136139,264.583618 357.911743,254.418015 
	C357.092102,253.404922 355.005798,253.041122 353.498749,253.021072 
	C344.167206,252.896820 334.833191,252.957245 324.500000,252.955734 
z"/>
<path fill="#363536" opacity="1.000000" stroke="none" 
	d="
M36.072311,279.179596 
	C35.979862,278.868988 35.985374,278.394104 35.780537,278.272003 
	C31.397623,275.658783 29.776789,271.759583 30.259331,266.144409 
	C31.469275,263.994049 32.772007,262.509033 34.407410,261.003601 
	C37.481358,260.424683 38.688641,258.852142 38.108768,255.716705 
	C39.987068,253.206787 41.768536,251.014221 43.856155,248.934387 
	C48.180328,248.053787 49.284653,245.879684 47.171421,242.531158 
	C47.109760,176.478378 47.109180,110.889893 47.124722,45.301414 
	C47.125706,41.145866 47.252213,36.990356 47.740326,32.954277 
	C48.779465,35.957897 49.130623,38.938683 50.122089,41.688614 
	C50.682339,43.242527 52.295391,44.416862 53.434227,45.762177 
	C54.950562,44.409088 57.742641,43.069309 57.756927,41.700539 
	C57.811577,36.464405 57.353477,31.144772 56.350521,25.999846 
	C55.508797,21.682014 51.205044,20.318037 46.359531,22.145491 
	C41.892174,23.830326 42.959442,26.600252 44.833546,29.594461 
	C45.070786,29.973492 44.967403,30.565722 44.903816,31.371433 
	C39.394436,37.091198 34.243908,42.771816 28.528500,47.811867 
	C24.604614,51.272079 23.106070,55.033489 24.040386,60.367641 
	C23.885523,61.493034 23.815605,62.247593 23.385471,62.983688 
	C20.178902,62.421009 17.332544,61.876793 13.426767,61.130020 
	C14.312628,58.393883 15.287802,55.381886 16.262976,52.369888 
	C16.417328,52.453732 16.571682,52.537571 16.726036,52.621414 
	C17.150316,49.415047 17.574596,46.208675 18.228756,42.744678 
	C18.649811,41.357040 18.840986,40.227028 19.032162,39.097019 
	C28.153269,29.888161 37.486965,20.876402 46.294510,11.376821 
	C49.998398,7.381909 53.993458,6.714080 59.005325,6.762591 
	C83.640213,7.001034 108.283081,6.681887 132.911270,7.164685 
	C139.398621,7.291859 145.843750,9.573811 152.658234,11.291501 
	C153.245575,12.190582 153.482941,12.664435 153.720306,13.138287 
	C154.140366,12.778297 154.560410,12.418311 154.980453,12.058327 
	C156.474747,12.589686 157.969040,13.121045 159.729431,13.875490 
	C163.118378,21.806532 156.974243,22.237183 151.712250,24.069714 
	C145.551819,22.836069 140.016052,21.383823 134.594482,19.460684 
	C134.326050,15.551929 133.943390,12.114070 133.560730,8.676210 
	C133.095184,8.642733 132.629623,8.609254 132.164062,8.575776 
	C129.440399,12.292954 126.716751,16.010132 123.532196,19.814026 
	C116.383072,19.842485 109.694855,19.784231 102.988678,19.375614 
	C101.344727,17.441137 99.403969,14.337264 98.159431,14.595020 
	C95.705818,15.103189 91.942505,15.578878 91.532196,19.814026 
	C84.383072,19.842485 77.694855,19.784231 70.988724,19.375824 
	C69.373222,17.435730 67.775620,15.845788 66.178017,14.255846 
	C64.443542,16.143671 62.709072,18.031492 60.807835,20.367346 
	C60.608650,60.888439 60.579559,100.961510 60.531940,141.034546 
	C60.529984,142.681824 60.354050,144.328903 59.914658,145.976868 
	C58.181347,145.891693 56.792549,145.805756 54.424347,145.659210 
	C55.160805,148.947510 55.746864,151.564301 56.342850,154.599564 
	C56.713753,157.940552 57.074738,160.863083 57.189430,163.983856 
	C57.466278,164.733841 57.989418,165.285553 58.737938,165.935974 
	C59.450352,166.443558 59.937378,166.852432 60.484886,167.709015 
	C60.546364,190.050262 60.533298,211.943848 60.572346,233.837311 
	C60.575848,235.802856 60.916519,237.767822 61.125717,240.018524 
	C61.428158,240.635727 61.705490,240.967468 61.982822,241.299194 
	C62.321911,240.841583 62.660995,240.383972 63.457100,239.814087 
	C85.984085,239.687622 108.058022,239.437637 130.121536,239.808105 
	C136.442841,239.914246 142.734039,241.815063 149.091339,243.189774 
	C150.137314,243.613098 151.130981,243.739639 152.114471,243.887238 
	C152.104279,243.908295 152.112534,243.859467 152.112534,243.859467 
	C151.775482,247.182602 151.438431,250.505737 151.076965,254.069611 
	C150.086716,254.332703 148.615891,254.723465 146.588684,255.377533 
	C144.686630,255.154068 143.340973,254.667282 141.948349,253.836502 
	C140.350815,249.771988 138.700745,249.073792 136.511612,253.361633 
	C132.823807,253.245590 129.512512,252.977585 126.200195,252.964127 
	C103.467911,252.871719 80.735420,252.832611 57.892799,252.472168 
	C53.642727,250.165344 55.582508,253.789886 55.019943,255.357178 
	C54.855732,255.918045 54.609989,256.088043 53.899170,256.008026 
	C51.352154,254.660233 42.109909,256.449585 40.806824,258.500580 
	C40.428879,259.095459 40.393288,260.069672 40.535347,260.805389 
	C41.189919,264.195435 41.962730,267.562653 42.626900,271.168915 
	C42.383373,271.682526 42.137924,271.880951 41.458683,272.026123 
	C40.440289,273.157593 39.787521,274.257935 39.056839,275.660034 
	C38.010052,277.034393 37.041180,278.106995 36.072311,279.179596 
z"/>
<path fill="#343434" opacity="1.000000" stroke="none" 
	d="
M17.998877,43.002304 
	C17.574596,46.208675 17.150316,49.415047 16.726036,52.621414 
	C16.571682,52.537571 16.417328,52.453732 16.262976,52.369888 
	C15.287802,55.381886 14.312628,58.393883 13.426767,61.130020 
	C17.332544,61.876793 20.178902,62.421009 23.467304,63.445889 
	C23.914747,131.598953 23.917950,199.271347 23.936323,266.943756 
	C23.936863,268.933044 24.097221,270.922241 24.183064,272.911499 
	C23.123432,275.905060 21.888071,278.851013 21.059906,281.907288 
	C20.400084,284.342377 20.237120,286.912109 18.958801,289.425293 
	C13.573643,279.731934 17.584206,268.985260 15.419809,258.707458 
	C14.864873,259.157654 14.228101,259.441589 14.238581,259.699219 
	C14.672846,270.372833 15.277677,281.041412 15.531120,291.718475 
	C15.569953,293.354431 14.021116,295.028046 13.027716,297.013000 
	C12.183682,295.399963 10.938671,293.458710 10.936846,291.516266 
	C10.861691,211.547501 10.862940,131.578522 11.069583,51.610119 
	C11.076703,48.854710 13.280212,46.104969 15.145654,43.188652 
	C16.553839,43.017250 17.276358,43.009777 17.998877,43.002304 
z"/>
<path fill="#333333" opacity="1.000000" stroke="none" 
	d="
M389.871826,52.041988 
	C392.221619,48.719738 394.571411,45.397491 397.087280,41.720051 
	C401.297028,44.645420 403.230103,48.504642 403.215942,54.093204 
	C403.017548,132.417953 403.066681,210.743317 402.984497,289.532288 
	C398.815216,289.644745 400.360840,286.786469 400.321259,284.454681 
	C400.191010,276.782227 400.045715,269.104004 399.609009,261.444916 
	C399.310486,256.209137 395.864044,254.544037 390.557037,254.531525 
	C390.056458,189.384949 390.048096,124.699249 390.029022,60.013542 
	C390.028229,57.356339 389.926514,54.699173 389.871826,52.041988 
z"/>
<path fill="#393639" opacity="1.000000" stroke="none" 
	d="
M18.228756,42.744675 
	C17.276358,43.009777 16.553839,43.017250 15.470077,43.030792 
	C16.215960,41.787533 17.323088,40.538197 18.731188,39.192940 
	C18.840986,40.227028 18.649811,41.357040 18.228756,42.744675 
z"/>
<path fill="#393639" opacity="1.000000" stroke="none" 
	d="
M154.798447,11.833848 
	C154.560410,12.418311 154.140366,12.778297 153.720306,13.138287 
	C153.482941,12.664435 153.245575,12.190582 153.001755,11.451357 
	C153.535690,11.327114 154.076065,11.468243 154.798447,11.833848 
z"/>
<path fill="#FEFEFE" opacity="1.000000" stroke="none" 
	d="
M213.637115,163.896210 
	C213.707535,131.908890 213.852188,99.921349 213.751984,67.934570 
	C213.739807,64.048294 214.928238,61.547474 217.849487,59.087761 
	C227.145035,51.260807 236.140182,43.078465 245.357101,35.156406 
	C256.892517,25.241573 270.277802,20.003155 285.547974,19.957329 
	C306.542450,19.894327 327.537231,19.937386 348.531860,19.935038 
	C349.997040,19.934875 351.462189,19.935017 353.210754,19.935017 
	C353.210754,93.210823 353.210754,166.073761 353.210754,239.646027 
	C351.012634,239.646027 349.081848,239.645905 347.151062,239.646042 
	C326.989532,239.647385 306.827911,239.692093 286.666534,239.637695 
	C267.370209,239.585632 250.490952,245.896469 235.980331,258.592682 
	C228.903183,264.784912 221.823807,270.974640 213.792908,277.998627 
	C213.792908,241.832062 213.792908,206.924759 213.829788,171.120728 
	C213.790146,168.114716 213.713623,166.005463 213.637115,163.896210 
z"/>
<path fill="#FDFDFD" opacity="1.000000" stroke="none" 
	d="
M61.100609,239.733047 
	C60.916519,237.767822 60.575848,235.802856 60.572346,233.837311 
	C60.533298,211.943848 60.546364,190.050262 60.649521,167.247772 
	C60.628395,160.147949 60.503117,153.957077 60.420708,147.463409 
	C60.395439,146.765778 60.327305,146.370926 60.259171,145.976074 
	C60.354050,144.328903 60.529984,142.681824 60.531940,141.034546 
	C60.579559,100.961510 60.608650,60.888439 61.264118,20.380489 
	C64.926987,19.872393 67.966812,19.799185 71.006630,19.725977 
	C77.694855,19.784231 84.383072,19.842485 91.983765,19.902569 
	C96.266357,19.844925 99.636497,19.785452 103.006630,19.725977 
	C109.694855,19.784231 116.383072,19.842485 123.965088,19.902149 
	C128.066010,19.912897 131.273132,19.922239 134.480270,19.931580 
	C140.016052,21.383823 145.551819,22.836069 151.468613,24.372875 
	C159.189011,29.543581 166.503036,34.666904 173.880020,39.697945 
	C176.920074,41.771248 177.868271,44.407211 177.850922,48.132042 
	C177.705139,79.447815 177.786987,110.764648 177.805557,142.869629 
	C177.884171,144.107742 177.957550,144.557373 177.903229,145.392548 
	C177.864471,146.849121 177.953430,147.920166 177.950073,149.323181 
	C177.919403,150.106018 177.981049,150.556900 178.042694,151.007782 
	C177.950821,162.488861 177.805191,173.969833 177.779053,185.451065 
	C177.735077,204.770279 177.760071,224.089676 177.770401,243.408997 
	C177.774475,250.994675 179.648300,253.148499 187.079941,252.785812 
	C191.578262,252.566269 193.796295,253.854507 194.257507,258.503052 
	C194.724533,263.209930 195.743500,267.862030 195.843201,272.961029 
	C181.707916,262.606262 170.152527,248.989441 152.490646,243.872406 
	C152.112534,243.859467 152.104279,243.908295 151.903885,243.620300 
	C150.815338,243.185852 149.927185,243.039413 149.039032,242.892975 
	C142.734039,241.815063 136.442841,239.914246 130.121536,239.808105 
	C108.058022,239.437637 85.984085,239.687622 63.155914,239.689972 
	C61.965347,239.696426 61.532978,239.714737 61.100609,239.733047 
z"/>
<path fill="#FDFDFD" opacity="1.000000" stroke="none" 
	d="
M389.564911,51.917637 
	C389.926514,54.699173 390.028229,57.356339 390.029022,60.013542 
	C390.048096,124.699249 390.056458,189.384949 390.151611,254.532074 
	C390.236511,260.643219 390.236511,266.292969 390.236511,271.942688 
	C389.921570,272.098206 389.606659,272.253693 389.291718,272.409210 
	C384.736267,266.657776 380.585449,260.517944 375.527618,255.248764 
	C368.482422,247.909195 366.630219,239.673019 366.695526,229.616302 
	C367.113220,165.297897 366.907654,100.975449 366.907104,36.654331 
	C366.907104,34.676605 366.907104,32.698883 366.907104,30.721157 
	C367.300201,30.410421 367.693268,30.099686 368.086365,29.788950 
	C375.143585,37.123730 382.200775,44.458508 389.564911,51.917637 
z"/>
<path fill="#FEFEFE" opacity="1.000000" stroke="none" 
	d="
M43.550011,248.821671 
	C41.768536,251.014221 39.987068,253.206787 37.821808,255.865906 
	C36.316929,257.896332 35.195831,259.460205 34.074738,261.024048 
	C32.772007,262.509033 31.469275,263.994049 30.104687,265.821289 
	C28.931349,267.419098 27.819864,268.674652 26.377323,269.597778 
	C26.030611,266.936249 26.001366,264.607117 26.001278,262.278015 
	C25.998833,196.891785 26.016293,131.505524 25.920616,66.119431 
	C25.917627,64.077682 24.750004,62.037640 24.125328,59.996803 
	C23.106070,55.033489 24.604614,51.272079 28.528500,47.811867 
	C34.243908,42.771816 39.394436,37.091198 45.182987,31.278694 
	C46.160221,31.527407 46.740273,32.181118 47.320320,32.834827 
	C47.252213,36.990356 47.125706,41.145866 47.124722,45.301414 
	C47.109180,110.889893 47.109760,176.478378 47.054607,242.859756 
	C45.851723,245.375656 44.700867,247.098663 43.550011,248.821671 
z"/>
<path fill="#FDFDFD" opacity="1.000000" stroke="none" 
	d="
M58.002991,252.776337 
	C80.735420,252.832611 103.467911,252.871719 126.200195,252.964127 
	C129.512512,252.977585 132.823807,253.245590 136.822144,253.570953 
	C139.004242,253.890900 140.499786,254.035706 141.995316,254.180511 
	C143.340973,254.667282 144.686630,255.154068 146.392273,255.684387 
	C163.793182,260.986420 174.876984,274.449493 188.927780,285.788208 
	C135.958023,285.788208 84.186523,285.788208 31.529285,285.788208 
	C33.135384,283.610809 34.522114,281.730804 35.990578,279.515198 
	C37.041180,278.106995 38.010052,277.034393 39.339169,275.515686 
	C40.407719,274.044739 41.116016,273.019897 41.824314,271.995026 
	C42.137924,271.880951 42.383373,271.682526 42.884007,270.946075 
	C46.890087,265.695221 50.572819,260.898071 54.255547,256.100922 
	C54.609989,256.088043 54.855732,255.918045 55.301964,255.204803 
	C56.408432,254.137909 57.205711,253.457123 58.002991,252.776337 
z"/>
<path fill="#FDFDFD" opacity="1.000000" stroke="none" 
	d="
M325.000000,252.956024 
	C334.833191,252.957245 344.167206,252.896820 353.498749,253.021072 
	C355.005798,253.041122 357.092102,253.404922 357.911743,254.418015 
	C366.136139,264.583618 374.151642,274.918243 382.709198,285.820923 
	C329.993713,285.820923 278.178192,285.820923 225.317429,285.820923 
	C241.498535,271.803162 255.297928,255.739120 277.541595,253.594742 
	C286.135223,252.766296 294.843323,253.077377 303.500519,252.971924 
	C310.499390,252.886658 317.500092,252.955338 325.000000,252.956024 
z"/>
<path fill="#FBFBFB" opacity="1.000000" stroke="none" 
	d="
M200.304779,172.089355 
	C200.304779,194.727570 200.304779,217.365784 200.304779,240.311447 
	C197.159256,239.865463 194.440964,239.480057 190.849716,238.970871 
	C190.849716,215.872879 190.849716,192.645737 190.437759,168.714905 
	C189.960693,162.664658 189.895584,157.318130 189.902512,151.590027 
	C190.258072,149.483231 190.541611,147.757996 190.886841,145.687714 
	C190.882416,144.881409 190.816315,144.420120 190.750214,143.958847 
	C190.849182,136.973267 191.027237,129.987747 191.033600,123.002075 
	C191.063171,90.534866 191.045197,58.067612 191.044250,25.600370 
	C191.044205,23.856583 191.044235,22.112795 191.044235,20.369007 
	C191.594727,20.265760 192.145218,20.162514 192.695709,20.059269 
	C193.435089,22.904636 194.258118,25.731264 194.900436,28.598377 
	C199.545486,49.332554 200.807785,70.320473 200.287079,91.536636 
	C199.841965,109.672180 200.248428,127.828629 200.223358,146.882095 
	C200.213943,155.888687 200.259369,163.989029 200.304779,172.089355 
z"/>
<path fill="#FAFAFA" opacity="1.000000" stroke="none" 
	d="
M24.040386,60.367641 
	C24.750004,62.037640 25.917627,64.077682 25.920616,66.119431 
	C26.016293,131.505524 25.998833,196.891785 26.001278,262.278015 
	C26.001366,264.607117 26.030611,266.936249 26.067942,269.748413 
	C25.611603,271.020630 25.133589,271.809723 24.419319,272.755188 
	C24.097221,270.922241 23.936863,268.933044 23.936323,266.943756 
	C23.917950,199.271347 23.914747,131.598953 23.827518,63.464348 
	C23.815605,62.247593 23.885523,61.493034 24.040386,60.367641 
z"/>
<path fill="#514F52" opacity="1.000000" stroke="none" 
	d="
M189.830490,151.971588 
	C189.895584,157.318130 189.960693,162.664658 190.076233,168.472229 
	C188.543091,169.822128 186.959534,170.711029 185.375977,171.599930 
	C184.591461,169.758270 183.347000,167.970184 183.124908,166.063034 
	C182.744843,162.799271 183.491058,159.357010 182.814529,156.192780 
	C182.405380,154.279297 180.206589,152.748459 178.427292,151.026733 
	C177.981049,150.556900 177.919403,150.106018 178.335815,149.331482 
	C183.532623,149.410980 185.403412,152.052261 185.092377,156.669586 
	C184.904037,159.465256 184.975983,162.288284 185.105377,165.090958 
	C185.161575,166.308182 185.656464,167.505142 185.952103,168.711304 
	C186.647919,168.647659 187.343719,168.584030 188.039520,168.520386 
	C188.039520,164.717255 187.857483,160.901489 188.120575,157.116638 
	C188.241959,155.370453 189.233505,153.684723 189.830490,151.971588 
z"/>
<path fill="#676767" opacity="1.000000" stroke="none" 
	d="
M200.655396,172.006470 
	C200.259369,163.989029 200.213943,155.888687 200.321594,147.333679 
	C206.269775,152.654541 203.420151,159.978302 203.790466,166.660400 
	C203.884552,168.358154 201.987930,170.166229 200.655396,172.006470 
z"/>
<path fill="#696669" opacity="1.000000" stroke="none" 
	d="
M213.280838,163.909805 
	C213.713623,166.005463 213.790146,168.114716 213.753326,170.664490 
	C212.113007,170.146011 210.586060,169.186996 209.059097,168.227997 
	C210.347580,166.793137 211.636078,165.358261 213.280838,163.909805 
z"/>
<path fill="#545154" opacity="1.000000" stroke="none" 
	d="
M190.384644,144.018616 
	C190.816315,144.420120 190.882416,144.881409 190.556244,145.742035 
	C187.970825,146.191284 185.761978,146.423264 183.589325,146.235809 
	C181.715149,146.074127 179.882141,145.435043 178.030945,145.007019 
	C177.957550,144.557373 177.884171,144.107742 177.906433,143.328827 
	C182.007767,143.359161 186.013428,143.718781 190.384644,144.018616 
z"/>
<path fill="#393639" opacity="1.000000" stroke="none" 
	d="
M47.740330,32.954277 
	C46.740273,32.181118 46.160221,31.527407 45.301003,30.966436 
	C44.967403,30.565722 45.070786,29.973492 44.833546,29.594461 
	C42.959442,26.600252 41.892174,23.830326 46.359531,22.145491 
	C51.205044,20.318037 55.508797,21.682014 56.350521,25.999846 
	C57.353477,31.144772 57.811577,36.464405 57.756927,41.700539 
	C57.742641,43.069309 54.950562,44.409088 53.434227,45.762177 
	C52.295391,44.416862 50.682339,43.242527 50.122089,41.688614 
	C49.130623,38.938683 48.779465,35.957897 47.740330,32.954277 
z"/>
<path fill="#393639" opacity="1.000000" stroke="none" 
	d="
M53.899174,256.008026 
	C50.572819,260.898071 46.890087,265.695221 42.950249,270.715210 
	C41.962730,267.562653 41.189919,264.195435 40.535347,260.805389 
	C40.393288,260.069672 40.428879,259.095459 40.806824,258.500580 
	C42.109909,256.449585 51.352154,254.660233 53.899174,256.008026 
z"/>
<path fill="#393639" opacity="1.000000" stroke="none" 
	d="
M134.594482,19.460684 
	C131.273132,19.922239 128.066010,19.912897 124.425980,19.815434 
	C126.716751,16.010132 129.440399,12.292954 132.164062,8.575776 
	C132.629623,8.609254 133.095184,8.642733 133.560730,8.676210 
	C133.943390,12.114070 134.326050,15.551929 134.594482,19.460684 
z"/>
<path fill="#89878A" opacity="1.000000" stroke="none" 
	d="
M60.377838,147.766205 
	C60.503117,153.957077 60.628395,160.147949 60.589039,166.800049 
	C59.937378,166.852432 59.450352,166.443558 58.656025,165.650787 
	C58.044388,164.773132 57.740051,164.279373 57.435719,163.785599 
	C57.074738,160.863083 56.713753,157.940552 56.590652,154.373291 
	C58.011639,151.741089 59.194740,149.753647 60.377838,147.766205 
z"/>
<path fill="#393639" opacity="1.000000" stroke="none" 
	d="
M102.988678,19.375614 
	C99.636497,19.785452 96.266357,19.844925 92.444656,19.815855 
	C91.942505,15.578878 95.705818,15.103189 98.159431,14.595020 
	C99.403969,14.337264 101.344727,17.441137 102.988678,19.375614 
z"/>
<path fill="#393639" opacity="1.000000" stroke="none" 
	d="
M70.988724,19.375824 
	C67.966812,19.799185 64.926987,19.872393 61.430882,19.932457 
	C62.709072,18.031492 64.443542,16.143671 66.178017,14.255846 
	C67.775620,15.845788 69.373222,17.435730 70.988724,19.375824 
z"/>
<path fill="#393639" opacity="1.000000" stroke="none" 
	d="
M60.420708,147.463409 
	C59.194740,149.753647 58.011639,151.741089 56.580734,153.954803 
	C55.746864,151.564301 55.160805,148.947510 54.424347,145.659210 
	C56.792549,145.805756 58.181347,145.891693 59.914658,145.976868 
	C60.327305,146.370926 60.395439,146.765778 60.420708,147.463409 
z"/>
<path fill="#393639" opacity="1.000000" stroke="none" 
	d="
M43.856159,248.934387 
	C44.700867,247.098663 45.851723,245.375656 47.119389,243.324066 
	C49.284653,245.879684 48.180328,248.053787 43.856159,248.934387 
z"/>
<path fill="#393639" opacity="1.000000" stroke="none" 
	d="
M141.948349,253.836502 
	C140.499786,254.035706 139.004242,253.890900 137.198181,253.536774 
	C138.700745,249.073792 140.350815,249.771988 141.948349,253.836502 
z"/>
<path fill="#393639" opacity="1.000000" stroke="none" 
	d="
M34.407410,261.003601 
	C35.195831,259.460205 36.316929,257.896332 37.724983,256.183289 
	C38.688641,258.852142 37.481358,260.424683 34.407410,261.003601 
z"/>
<path fill="#393639" opacity="1.000000" stroke="none" 
	d="
M57.892799,252.472168 
	C57.205711,253.457123 56.408432,254.137909 55.329132,254.971069 
	C55.582508,253.789886 53.642727,250.165344 57.892799,252.472168 
z"/>
<path fill="#393639" opacity="1.000000" stroke="none" 
	d="
M41.458687,272.026123 
	C41.116016,273.019897 40.407719,274.044739 39.417084,275.213928 
	C39.787521,274.257935 40.440289,273.157593 41.458687,272.026123 
z"/>
<path fill="#393639" opacity="1.000000" stroke="none" 
	d="
M149.091339,243.189758 
	C149.927185,243.039413 150.815338,243.185852 151.914062,243.599243 
	C151.130981,243.739639 150.137314,243.613098 149.091339,243.189758 
z"/>
<path fill="#393639" opacity="1.000000" stroke="none" 
	d="
M61.125717,240.018524 
	C61.532978,239.714737 61.965347,239.696426 62.698898,239.802246 
	C62.660995,240.383972 62.321911,240.841583 61.982822,241.299194 
	C61.705490,240.967468 61.428158,240.635727 61.125717,240.018524 
z"/>
<path fill="#393639" opacity="1.000000" stroke="none" 
	d="
M57.189426,163.983856 
	C57.740051,164.279373 58.044388,164.773132 58.430641,165.552094 
	C57.989418,165.285553 57.466278,164.733841 57.189426,163.983856 
z"/>
<path fill="#363437" opacity="1.000000" stroke="none" 
	d="
M177.903229,145.392548 
	C179.882141,145.435043 181.715149,146.074127 183.589325,146.235809 
	C185.761978,146.423264 187.970825,146.191284 190.494553,146.087067 
	C190.541611,147.757996 190.258072,149.483231 189.902512,151.590027 
	C189.233505,153.684723 188.241959,155.370453 188.120575,157.116638 
	C187.857483,160.901489 188.039520,164.717255 188.039520,168.520386 
	C187.343719,168.584030 186.647919,168.647659 185.952103,168.711304 
	C185.656464,167.505142 185.161575,166.308182 185.105377,165.090958 
	C184.975983,162.288284 184.904037,159.465256 185.092377,156.669586 
	C185.403412,152.052261 183.532623,149.410980 178.428146,148.999542 
	C177.953430,147.920166 177.864471,146.849121 177.903229,145.392548 
z"/>
</svg>