<?xml version="1.0" encoding="UTF-8"?>
<svg version="1.1" xmlns="http://www.w3.org/2000/svg" width="412" height="306">
<path d="M0 0 C135.96 0 271.92 0 412 0 C412 100.98 412 201.96 412 306 C276.04 306 140.08 306 0 306 C0 205.02 0 104.04 0 0 Z " fill="#393739" transform="translate(0,0)"/>
<path d="M0 0 C0 72.27 0 144.54 0 219 C-23.76 219.33 -47.52 219.66 -72 220 C-96.93152643 224.67466121 -111.27759146 233.42672668 -129.265625 249.99609375 C-129.7709375 250.46104248 -130.27625 250.92599121 -130.796875 251.4050293 C-132.16817212 252.67426247 -133.52972425 253.95400092 -134.890625 255.234375 C-137 257 -137 257 -139 257 C-139.25707981 229.14044476 -139.45099577 201.28106754 -139.56993389 173.42056465 C-139.62662964 160.48407441 -139.70391068 147.54832158 -139.82983398 134.61230469 C-139.93955011 123.33585485 -140.01045832 112.05993908 -140.03497344 100.78297031 C-140.04930201 94.81278222 -140.08291896 88.84412186 -140.16303062 82.87442398 C-140.23787492 77.25151132 -140.26069292 71.63075064 -140.24418449 66.00738716 C-140.24720294 63.94739509 -140.26898325 61.88732874 -140.31126022 59.82776833 C-140.63012354 43.48822328 -140.63012354 43.48822328 -136.65833473 38.64944077 C-133.895264 36.09620294 -131.14617128 34.05197415 -128 32 C-126.17431136 30.53714278 -124.35991379 29.05996251 -122.5625 27.5625 C-121.19738281 26.46808594 -121.19738281 26.46808594 -119.8046875 25.3515625 C-117.32691754 23.27410078 -114.99299241 21.10408457 -112.66796875 18.85888672 C-81.61071962 -10.95894053 -43.78044341 0 0 0 Z " fill="#FEFEFE" transform="translate(352,19)"/>
<path d="M0 0 C86.38808465 0 86.38808465 0 102 10 C102.60864442 10.38791049 103.21728885 10.77582098 103.84437704 11.17548633 C110.05124076 15.30583594 116.6683926 19.83066904 118.367836 27.46770096 C119.04661705 32.75422118 118.89057884 38.02251783 118.74707031 43.33837891 C118.74779157 45.36497237 118.75517377 47.39157263 118.7686615 49.41812134 C118.786787 54.88615431 118.71357128 60.34953563 118.62404346 65.81671953 C118.54688965 71.5460576 118.55760118 77.27521442 118.55950928 83.00497437 C118.55043508 93.8426497 118.4677409 104.67838196 118.35604262 115.51543653 C118.19494804 131.44519128 118.13962891 147.37539697 118.09092331 163.30583763 C118.08363238 165.65460589 118.07633492 168.00337412 118.06903076 170.35214233 C118.06564029 171.4984032 118.06224981 172.64466407 118.05875659 173.82566011 C118.03601082 180.64675607 117.98989393 187.46720093 117.92331076 194.28800702 C117.88364833 198.51855826 117.85518633 202.74914174 117.82867622 206.97979355 C117.81347188 208.94591347 117.79297174 210.91200038 117.76688194 212.87800598 C117.73179189 215.55415291 117.71483322 218.22982576 117.70220947 220.90615845 C117.6871301 221.69008772 117.67205073 222.47401698 117.65651441 223.28170168 C117.63575528 227.36724518 117.63575528 227.36724518 119.34991074 230.97388268 C121.75865682 232.47177503 123.87754114 232.5222083 126.6875 232.6875 C128.17830078 232.78611328 128.17830078 232.78611328 129.69921875 232.88671875 C130.45847656 232.92410156 131.21773437 232.96148437 132 233 C134.57611228 240.32328775 135.61422945 247.25798419 136 255 C131.52555441 251.84156782 127.44377453 248.52793781 123.4987793 244.74145508 C89.02827177 211.75321566 48.87148775 219.66042551 0 219 C0 146.73 0 74.46 0 0 Z " fill="#FDFDFD" transform="translate(60,19)"/>
<path d="M0 0 C135.96 0 271.92 0 412 0 C412 100.98 412 201.96 412 306 C276.04 306 140.08 306 0 306 C0 205.02 0 104.04 0 0 Z M49 6 C48.7525 6.61875 48.505 7.2375 48.25 7.875 C46.75716228 10.41282412 45.6331926 10.80609033 43 12 C41.26952075 13.4382594 41.26952075 13.4382594 39.62426758 15.1328125 C38.98713333 15.76687012 38.34999908 16.40092773 37.69355774 17.05419922 C37.017379 17.73756348 36.34120026 18.42092773 35.64453125 19.125 C34.94228928 19.8277002 34.2400473 20.53040039 33.51652527 21.25439453 C32.03574243 22.73819448 30.55738682 24.22442015 29.08129883 25.71289062 C26.8157949 27.99667851 24.54236337 30.27233549 22.26757812 32.546875 C20.83025577 33.9891117 19.39339091 35.43180452 17.95703125 36.875 C16.9336541 37.90004639 16.9336541 37.90004639 15.88960266 38.94580078 C15.2619249 39.5798584 14.63424713 40.21391602 13.98754883 40.8671875 C13.4333577 41.42519043 12.87916656 41.98319336 12.30818176 42.55810547 C10.02853018 45.07076636 9.87401128 46.83631521 9.86857224 50.126441 C9.86473109 50.9959385 9.86088995 51.865436 9.8569324 52.76128191 C9.85779888 53.72225599 9.85866537 54.68323007 9.85955811 55.67332458 C9.85658698 56.68972127 9.85361586 57.70611796 9.8505547 58.75331455 C9.84183814 62.18117297 9.84035698 65.60899659 9.83886719 69.03686523 C9.83424117 71.48546423 9.82921681 73.93406249 9.82382202 76.38265991 C9.81067671 83.04988699 9.80421276 89.71710036 9.79981136 96.38433719 C9.79705088 100.54497897 9.79281392 104.70561842 9.78830719 108.86625862 C9.77611407 120.37934823 9.76581436 131.89243596 9.7624321 143.40553188 C9.76221253 144.14264216 9.76199297 144.87975243 9.76176675 145.63919938 C9.76154847 146.37809885 9.76133019 147.11699832 9.7611053 147.87828869 C9.76066183 149.37564623 9.76021527 150.87300378 9.75976562 152.37036133 C9.7595442 153.11310647 9.75932277 153.85585162 9.75909463 154.62110419 C9.75514453 166.6628838 9.73768426 178.70460297 9.7144061 190.74635922 C9.69071551 203.10086502 9.67823132 215.45534046 9.67706418 227.80986935 C9.6761462 234.74999823 9.67036308 241.69004833 9.65224457 248.63015556 C9.63527161 255.15457135 9.63357373 261.67886364 9.64238358 268.20330429 C9.64315772 270.60314776 9.638762 273.00299906 9.62892532 275.40282249 C9.61631994 278.66862729 9.62202026 281.93389172 9.63250732 285.19969177 C9.62445092 286.15843513 9.61639452 287.1171785 9.60809398 288.10497469 C9.61468382 288.97707993 9.62127367 289.84918518 9.6280632 290.74771786 C9.62746611 291.50189745 9.62686903 292.25607704 9.62625384 293.03311056 C9.88361411 295.05907342 9.88361411 295.05907342 11.12392926 296.74217242 C13.88943652 298.59633028 16.07695937 298.37614441 19.3890686 298.37752342 C20.04334359 298.38188374 20.69761858 298.38624407 21.37172008 298.39073652 C23.57956348 298.40174625 25.78678933 298.39124476 27.99462891 298.38095093 C29.5872562 298.38440525 31.17988112 298.38916829 32.77250099 298.39513266 C37.16100319 298.40770341 41.54931069 298.40144482 45.93781376 298.39217401 C50.66589263 298.38540861 55.39393715 298.39585223 60.12200928 298.40411377 C69.38906852 298.41748021 78.65605502 298.41456044 87.92311716 298.40587585 C95.4521078 298.39911113 102.981078 298.39817732 110.5100708 298.4014473 C111.5800876 298.401907 112.6501044 298.40236669 113.75254595 298.40284032 C115.92600616 298.40379946 118.09946637 298.4047721 120.27292657 298.4057581 C140.67166775 298.41432052 161.07036854 298.40446451 181.4691031 298.388357 C198.98658376 298.37495305 216.50400479 298.3772809 234.02148438 298.39111328 C254.34534119 298.40715406 274.66916257 298.41349646 294.99302483 298.40427649 C297.15865961 298.4033208 299.3242944 298.40237769 301.4899292 298.4014473 C302.55556866 298.40098447 303.62120813 298.40052164 304.7191397 298.40004479 C312.24239489 298.39745039 319.76562767 298.40183557 327.28887939 298.40888596 C336.45247322 298.41728449 345.61598992 298.4150556 354.77957487 298.39904372 C359.45837622 298.39113876 364.1370488 298.38810711 368.8158493 298.39799118 C373.09415485 298.40689276 377.37221156 298.40208073 381.65049434 298.38605852 C383.20293516 298.38269137 384.75539677 298.38444785 386.30782437 298.39168589 C388.409164 298.40073598 390.50963791 298.39152719 392.6109314 298.37752342 C394.3656479 298.37679284 394.3656479 298.37679284 396.15581322 298.37604749 C398.9762571 298.21736784 398.9762571 298.21736784 400.87432492 296.7404266 C402.26429056 294.59137559 402.38342749 293.32795914 402.39986992 290.77565098 C402.41262675 289.90971272 402.42538358 289.04377446 402.43852699 288.15159565 C402.43729178 287.19967349 402.43605657 286.24775132 402.43478394 285.26698303 C402.45027068 283.7506315 402.45027068 283.7506315 402.46607029 282.2036466 C402.49688624 278.79985298 402.50603439 275.39634771 402.51513672 271.99243164 C402.53229063 269.5582803 402.55060853 267.12413693 402.57000732 264.69000244 C402.62300567 257.37191767 402.65018302 250.05386799 402.67285842 242.73564664 C402.68420612 239.28685986 402.69872935 235.83808672 402.71295547 232.38931084 C402.7591819 220.91911287 402.79846221 209.44892666 402.81632805 197.97864628 C402.82103775 195.00195879 402.82575743 192.02527132 402.83056641 189.04858398 C402.83175532 188.30876514 402.83294423 187.56894629 402.83416916 186.80670869 C402.8546949 174.83539856 402.92277085 162.8648633 403.01108728 150.89388043 C403.10108455 138.59465267 403.14943867 126.29581648 403.15698445 113.99625677 C403.16222124 107.09398306 403.18529263 100.19280329 403.25472641 93.29084969 C403.31993049 86.79229709 403.32835374 80.29519825 403.29906464 73.79637146 C403.29730608 71.41637329 403.31423698 69.03627351 403.35163498 66.65656853 C404.00935135 52.65150066 404.00935135 52.65150066 398.25611532 40.44305706 C395.96083437 38.12699445 393.51360191 36.07796721 391 34 C389.25247765 31.94903851 389.25247765 31.94903851 387.91485596 30.10011292 C379.45184205 18.75330042 369.82182302 6.6395109 355.21805573 4.00665855 C343.46335015 2.51170302 331.62002267 3.11978459 319.8258667 3.78594971 C315.70400705 3.98903687 311.58407214 4.06665617 307.45814133 4.13860226 C302.4656152 4.22760868 297.47512608 4.36856065 292.484375 4.52734375 C291.56179649 4.5564427 290.63921799 4.58554165 289.68868256 4.61552238 C265.89283176 5.48865147 246.02795231 12.61108062 229.0625 29.9375 C228.55847656 30.48277344 228.05445313 31.02804688 227.53515625 31.58984375 C225.81618398 33.16884881 224.08877349 33.98067854 222 35 C221.236875 35.763125 220.47375 36.52625 219.6875 37.3125 C216.6585911 40.3414089 213.52685982 42.579606 210 45 C209.96132813 43.88818359 209.96132813 43.88818359 209.921875 42.75390625 C209.26250426 30.51059051 207.81911232 16.87677346 200 7 C196.59308509 5.29654255 192.81732483 5.77337634 189.0625 5.75 C188.23814453 5.729375 187.41378906 5.70875 186.56445312 5.6875 C185.37432617 5.67976562 185.37432617 5.67976562 184.16015625 5.671875 C183.43449463 5.6625293 182.70883301 5.65318359 181.96118164 5.64355469 C179.40860371 6.10748644 178.54680931 6.94580161 177 9 C176.41781668 12.4223884 176.41781668 12.4223884 176.3125 16.1875 C176.21388672 18.09595703 176.21388672 18.09595703 176.11328125 20.04296875 C176.07589844 21.01878906 176.03851563 21.99460937 176 23 C175.41734375 22.56429688 174.8346875 22.12859375 174.234375 21.6796875 C160.19072724 11.47816979 146.41974089 5.8090301 129.03540039 5.88647461 C128.16631042 5.88632858 127.29722046 5.88618256 126.40179443 5.8860321 C123.55038899 5.88672464 120.69905018 5.894486 117.84765625 5.90234375 C115.86225927 5.90421027 113.87686184 5.90563307 111.89146423 5.90663147 C106.68173945 5.91043819 101.47204281 5.92025265 96.2623291 5.93133545 C90.9398639 5.94158931 85.61739412 5.94613759 80.29492188 5.95117188 C69.86326892 5.96187665 59.43163681 5.97893081 49 6 Z " fill="#E9E9E9" transform="translate(0,0)"/>
<path d="M0 0 C0.21038476 27.84236912 0.36901991 55.68461885 0.46630955 83.52762318 C0.51268673 96.45610462 0.57589826 109.38409173 0.67895508 122.31225586 C0.76875275 133.58248772 0.82674603 144.85236153 0.84679645 156.1229412 C0.85851433 162.0890271 0.88598786 168.05408883 0.95157051 174.01984596 C1.01285208 179.64011217 1.03146571 185.25893657 1.01796913 190.87950516 C1.02043661 192.93742533 1.03822682 194.99539581 1.07284927 197.0530262 C1.35209782 214.51146268 1.35209782 214.51146268 -4.33338928 221.51200867 C-5.86661179 223.03086717 -7.42104941 224.5287361 -9 226 C-10.25921918 227.57407853 -11.49380472 229.16863881 -12.6875 230.79296875 C-13.51701172 231.8902832 -13.51701172 231.8902832 -14.36328125 233.00976562 C-15.48634435 234.50405603 -16.60870351 235.99887567 -17.73046875 237.49414062 C-18.27316406 238.21150391 -18.81585938 238.92886719 -19.375 239.66796875 C-19.85710938 240.31016357 -20.33921875 240.9523584 -20.8359375 241.61401367 C-21.22007813 242.07138916 -21.60421875 242.52876465 -22 243 C-22.33 243 -22.66 243 -23 243 C-23.51544219 214.56614572 -23.90260625 186.13299801 -24.13986778 157.69540215 C-24.25299612 144.4890248 -24.40702427 131.28556087 -24.65966797 118.08105469 C-24.87994285 106.56275888 -25.0211083 95.04657366 -25.06994689 83.52622998 C-25.09847179 77.43294599 -25.16476807 71.3456958 -25.32606125 65.2543602 C-26.41101862 22.70195923 -26.41101862 22.70195923 -15.02741432 10.71599007 C-3.86517293 0 -3.86517293 0 0 0 Z " fill="#FDFDFD" transform="translate(46,29)"/>
<path d="M0 0 C1.64024876 1.41078898 3.28016991 2.82196027 4.91862679 4.2348299 C6.27918999 5.38869576 7.65541119 6.52441286 9.04836845 7.63895702 C16.59811868 13.72544708 23.52868349 19.54660404 24.77266121 29.60369301 C25.04343994 34.4508755 24.95876542 39.25344129 24.81640625 44.10351562 C24.81188349 46.28318445 24.81444513 48.46287758 24.82348633 50.64253235 C24.82804556 56.5134132 24.73452765 62.3789789 24.62230301 68.24863243 C24.52173365 74.3995649 24.51284098 80.55064272 24.49389648 86.70227051 C24.44432411 98.32996514 24.3132495 109.95522979 24.15230465 121.58185816 C23.97296558 134.82709799 23.88537032 148.07245884 23.80517769 161.3186121 C23.63829576 188.54708446 23.35718484 215.7734056 23 243 C19.4089662 239.46491873 16.20406269 235.84270572 13.1875 231.8125 C12.39730469 230.76707031 11.60710937 229.72164062 10.79296875 228.64453125 C10.15502254 227.76587811 10.15502254 227.76587811 9.50418854 226.86947441 C8.01483471 224.91964159 8.01483471 224.91964159 6.00917816 223.1903553 C-0.27771635 216.94280645 -0.88398898 211.36537996 -0.99883461 202.93351007 C-0.99522111 199.99769671 -0.95202632 197.06388606 -0.90820312 194.12841797 C-0.90594429 192.00874416 -0.90721758 189.8890641 -0.91174316 187.76939392 C-0.9140321 182.03614454 -0.8671038 176.3042428 -0.8111515 170.57130575 C-0.76103301 164.57227565 -0.75643314 158.57321229 -0.74694824 152.57400513 C-0.72211496 141.2232237 -0.6565083 129.87306101 -0.57615232 118.52255166 C-0.48663436 105.59641386 -0.44272225 92.67024603 -0.40258884 79.74387527 C-0.31903993 53.1622409 -0.17838772 26.58115517 0 0 Z " fill="#FDFDFD" transform="translate(366,29)"/>
<path d="M0 0 C1.2868057 -0.0202121 1.2868057 -0.0202121 2.59960747 -0.04083252 C7.13154838 -0.10876502 11.66323727 -0.15696012 16.19555664 -0.19042969 C20.84627698 -0.22933592 25.49209516 -0.34315196 30.14103031 -0.47314453 C33.74872586 -0.55945044 37.35526067 -0.58741451 40.9638958 -0.60021973 C42.67726287 -0.61655838 44.3905802 -0.65472331 46.10292244 -0.71618652 C59.03358347 -1.1528397 59.03358347 -1.1528397 63.49588776 2.01397324 C67.20276101 5.49571828 69.93620711 9.51559179 72.71484375 13.75 C73.99347438 15.38991952 75.28410901 17.02072505 76.59765625 18.6328125 C77.68180669 20.04425364 78.76267125 21.45822631 79.83984375 22.875 C80.401875 23.60203125 80.96390625 24.3290625 81.54296875 25.078125 C82.07664062 25.77679688 82.6103125 26.47546875 83.16015625 27.1953125 C83.62953613 27.80906738 84.09891602 28.42282227 84.58251953 29.05517578 C85.71484375 30.75 85.71484375 30.75 86.71484375 33.75 C35.23484375 33.75 -16.24515625 33.75 -69.28515625 33.75 C-65.33233999 29.13838103 -62.47730823 25.83943323 -57.91015625 22.25 C-54.6253125 19.64858011 -51.49505091 17.02389897 -48.47265625 14.125 C-34.73777327 2.04729104 -17.47455884 0.24425996 0 0 Z " fill="#FCFCFD" transform="translate(294.28515625,251.25)"/>
<path d="M0 0 C1.0455455 0.00135956 1.0455455 0.00135956 2.11221313 0.00274658 C2.84758301 -0.00397064 3.58295288 -0.01068787 4.34060669 -0.01760864 C6.78521414 -0.03668205 9.22954747 -0.04051996 11.67422485 -0.04266357 C13.38181672 -0.04909391 15.08940749 -0.05582245 16.79699707 -0.06283569 C20.39005069 -0.07483795 23.98300806 -0.07851439 27.57608032 -0.07733154 C32.13718984 -0.07713021 36.69766315 -0.10422443 41.25862312 -0.13887596 C44.79529528 -0.16135789 48.33182075 -0.16516236 51.86855698 -0.16411209 C53.54675323 -0.1664442 55.22495506 -0.17512971 56.90307999 -0.19077682 C81.08104057 -0.39477088 97.73583002 6.80507349 115.5375061 23.07452393 C118.50224817 25.76888152 121.53386146 28.37971269 124.58047485 30.98077393 C125.27270142 31.63046143 125.27270142 31.63046143 125.97891235 32.29327393 C125.97891235 32.62327393 125.97891235 32.95327393 125.97891235 33.29327393 C74.49891235 33.29327393 23.01891235 33.29327393 -30.02108765 33.29327393 C-28.14735234 29.54580331 -26.1491107 26.7103531 -23.58358765 23.41827393 C-23.14981812 22.86035156 -22.71604858 22.3024292 -22.26913452 21.7276001 C-20.85664521 19.91337746 -19.43891015 18.10333065 -18.02108765 16.29327393 C-17.00922863 14.99520617 -15.9975109 13.69702827 -14.9859314 12.39874268 C-13.99800979 11.13413872 -13.00973749 9.86980864 -12.02108765 8.60577393 C-11.55259399 8.00587646 -11.08410034 7.405979 -10.60140991 6.78790283 C-5.32640577 0.071445 -5.32640577 0.071445 0 0 Z " fill="#FDFDFD" transform="translate(61.021087646484375,251.70672607421875)"/>
<path d="M0 0 C0.66 0 1.32 0 2 0 C7.04403578 18.33263767 9.46737008 36.24626117 9.34057617 55.25292969 C9.33972683 57.0785165 9.34021101 58.90410433 9.34190369 60.72969055 C9.3427531 65.61480733 9.32530128 70.49969633 9.30418181 75.38476086 C9.28523618 80.51628099 9.28365065 85.6478082 9.28010559 90.77935791 C9.27083706 100.46500845 9.24629472 110.15055558 9.21605712 119.8361609 C9.18235 130.87630328 9.16598637 141.91645099 9.15097082 152.95663214 C9.11973964 175.63781175 9.06708185 198.31890004 9 221 C6.03 220.34 3.06 219.68 0 219 C0 146.73 0 74.46 0 0 Z " fill="#FBFAFB" transform="translate(190,19)"/>
<path d="M0 0 C0 3 0 3 -2.3125 5.5 C-3.199375 6.325 -4.08625 7.15 -5 8 C-5.598125 8.598125 -6.19625 9.19625 -6.8125 9.8125 C-7.204375 10.204375 -7.59625 10.59625 -8 11 C-8.66 10.67 -9.32 10.34 -10 10 C-6.7 6.7 -3.4 3.4 0 0 Z " fill="#EFEDEF" transform="translate(43,31)"/>
</svg>
