<svg version="1.1" id="Layer_1" xmlns="http://www.w3.org/2000/svg" xmlns:xlink="http://www.w3.org/1999/xlink" x="0px" y="0px"
	 width="100%" viewBox="0 0 412 306" enable-background="new 0 0 412 306" xml:space="preserve">
<path fill="#EAE9EA" opacity="1.000000" stroke="none" 
	d="
M413.000000,103.000000 
	C413.000000,171.333328 413.000000,239.166672 413.000000,307.000000 
	C275.666687,307.000000 138.333359,307.000000 1.000028,307.000000 
	C1.000018,205.000015 1.000018,103.000038 1.000009,1.000041 
	C138.333298,1.000028 275.666595,1.000028 412.999939,1.000014 
	C413.000000,34.833332 413.000000,68.666664 413.000000,103.000000 
M14.398991,43.314056 
	C10.889674,45.698292 10.727551,49.316807 10.727132,53.049454 
	C10.718198,132.465775 10.679442,211.882095 10.754353,291.298309 
	C10.756165,293.219055 11.990088,295.138641 13.078561,297.784821 
	C14.913841,298.370361 16.747719,299.460419 18.584610,299.465515 
	C44.552620,299.537781 70.521088,299.410370 96.489342,299.435852 
	C133.606339,299.472260 170.723297,299.674347 207.840210,299.662048 
	C269.932281,299.641479 332.024292,299.483063 394.116364,299.453217 
	C401.544434,299.449646 403.592377,297.490204 403.225891,289.080841 
	C403.236176,211.214340 403.168976,133.347595 403.395264,55.481720 
	C403.414581,48.832588 401.197662,44.126698 395.941254,39.718956 
	C385.854034,29.570198 375.850525,19.335335 365.592041,9.362715 
	C363.997009,7.812145 361.242584,6.685711 359.015900,6.671461 
	C334.869598,6.516923 310.721375,6.578842 286.574280,6.701336 
	C282.264130,6.723200 277.904816,6.972671 273.657227,7.664014 
	C257.078918,10.362343 243.277023,18.275869 231.342239,30.011274 
	C225.356750,35.896770 218.587143,40.984837 211.523193,46.984756 
	C210.508957,40.772766 209.846451,35.704197 208.819778,30.710501 
	C207.788345,25.693708 206.710800,20.645309 205.086014,15.801076 
	C202.549225,8.237655 200.500870,7.004529 192.761505,7.019848 
	C190.096756,7.025122 187.431046,7.060148 184.767441,7.003276 
	C180.226501,6.906321 178.028229,9.166021 177.994202,13.627030 
	C177.966080,17.312666 177.988449,20.998688 177.988449,24.407276 
	C171.691956,20.786261 165.844666,17.423571 159.517258,13.518188 
	C151.066223,11.344532 142.674301,7.615029 134.153000,7.291351 
	C109.405693,6.351336 84.604355,6.922859 59.829361,6.554835 
	C54.265484,6.472185 49.884342,7.363548 45.881817,11.674700 
	C37.185867,21.041166 28.002356,29.954979 18.407076,39.237827 
	C17.291695,40.498844 16.176311,41.759861 14.398991,43.314056 
z"/>
<path fill="#393739" opacity="1.000000" stroke="none" 
	d="
M403.033691,290.001617 
	C403.592377,297.490204 401.544434,299.449646 394.116364,299.453217 
	C332.024292,299.483063 269.932281,299.641479 207.840210,299.662048 
	C170.723297,299.674347 133.606339,299.472260 96.489342,299.435852 
	C70.521088,299.410370 44.552620,299.537781 18.584610,299.465515 
	C16.747719,299.460419 14.913841,298.370361 13.285606,297.106323 
	C15.650806,294.674225 16.836050,292.814606 14.819400,290.077332 
	C14.198915,289.235138 14.046841,287.893677 14.039460,286.778442 
	C13.982272,278.136169 13.990189,269.493103 14.057692,260.850922 
	C14.063453,260.113342 14.647359,259.380280 15.436341,257.540833 
	C17.254919,269.306335 13.916237,280.348175 18.956970,290.611237 
	C20.275215,288.379456 20.477755,286.073334 21.036839,283.857147 
	C21.964996,280.178009 23.122269,276.556702 24.419441,272.755005 
	C25.133610,271.809937 25.611376,271.020844 26.399052,270.080017 
	C27.820225,268.673035 28.931488,267.417786 30.200024,266.487061 
	C30.505291,267.912872 31.095510,269.200470 30.723862,270.082947 
	C29.209921,273.677826 31.291687,275.184235 34.006039,276.485077 
	C35.013432,276.967865 36.002106,277.489716 36.900471,278.321136 
	C35.146172,280.940857 33.490723,283.233124 31.711246,285.697144 
	C84.227020,285.697144 136.019669,285.697144 188.692245,285.697144 
	C175.280136,274.511841 164.155289,261.821320 148.063187,255.638306 
	C149.327606,254.851044 150.528671,254.381775 152.112915,253.762787 
	C152.112915,250.560440 152.112915,247.209686 152.491013,243.872009 
	C170.152191,248.990051 181.710800,262.601929 195.842667,272.961365 
	C195.743195,267.861786 194.723618,263.209869 194.256729,258.503082 
	C193.795486,253.853317 191.574738,252.567368 187.078094,252.786469 
	C179.647705,253.148499 177.774918,250.995132 177.770950,243.407623 
	C177.760834,224.088577 177.735794,204.769440 177.779648,185.450500 
	C177.805710,173.969406 177.950897,162.488571 178.429932,151.018463 
	C180.211945,152.736877 182.415222,154.274033 182.819092,156.190399 
	C183.491287,159.380081 182.737778,162.844391 183.118393,166.131241 
	C183.338287,168.030090 184.603912,169.807861 185.398865,171.640121 
	C186.974396,170.737473 188.549942,169.834824 190.487198,169.174500 
	C190.848923,192.642868 190.848923,215.868896 190.848923,238.966568 
	C194.437103,239.474014 197.155685,239.858475 200.304764,240.303818 
	C200.304764,217.360443 200.304764,194.724411 200.659088,172.014114 
	C201.998337,169.850143 203.887283,167.721954 203.800278,165.677902 
	C203.529419,159.314423 206.185440,152.299332 200.375854,146.430298 
	C200.247498,127.830818 199.841629,109.673592 200.286011,91.537193 
	C200.805832,70.320511 199.547195,49.331482 194.899979,28.596752 
	C194.257187,25.728693 193.432938,22.901299 192.692703,20.055080 
	C192.143280,20.165806 191.593857,20.276531 191.044434,20.387259 
	C191.044434,22.123528 191.044388,23.859798 191.044434,25.596067 
	C191.045380,58.064728 191.063370,90.533401 191.033783,123.002029 
	C191.027420,129.987991 190.849289,136.973801 190.382507,144.013855 
	C186.010452,143.711868 182.006180,143.355728 177.901154,142.540253 
	C177.787292,110.765457 177.705765,79.449661 177.851517,48.134930 
	C177.868866,44.410973 176.923416,41.773212 173.882523,39.699612 
	C166.505463,34.669136 159.191376,29.546310 152.066925,24.134371 
	C160.835938,20.708467 160.835938,20.708467 159.997375,14.060883 
	C165.844666,17.423571 171.691956,20.786261 177.988449,24.407276 
	C177.988449,20.998688 177.966080,17.312666 177.994202,13.627030 
	C178.028229,9.166021 180.226501,6.906321 184.767441,7.003276 
	C187.431046,7.060148 190.096756,7.025122 192.761505,7.019848 
	C200.500870,7.004529 202.549225,8.237655 205.086014,15.801076 
	C206.710800,20.645309 207.788345,25.693708 208.819778,30.710501 
	C209.846451,35.704197 210.508957,40.772766 211.523193,46.984756 
	C218.587143,40.984837 225.356750,35.896770 231.342239,30.011274 
	C243.277023,18.275869 257.078918,10.362343 273.657227,7.664014 
	C277.904816,6.972671 282.264130,6.723200 286.574280,6.701336 
	C310.721375,6.578842 334.869598,6.516923 359.015900,6.671461 
	C361.242584,6.685711 363.997009,7.812145 365.592041,9.362715 
	C375.850525,19.335335 385.854034,29.570198 396.026276,40.425369 
	C394.031158,44.768288 391.951019,48.404789 389.564026,51.917206 
	C382.196442,44.455944 375.135681,37.118774 368.074921,29.781601 
	C367.685760,30.092541 367.296600,30.403479 366.907440,30.714418 
	C366.907440,32.691216 366.907440,34.668011 366.907440,36.644806 
	C366.907990,100.811378 367.140991,164.979630 366.679047,229.142868 
	C366.602478,239.776535 368.695526,248.417465 376.142273,256.078735 
	C381.000336,261.076721 384.968445,266.939819 390.236328,273.545319 
	C390.236328,266.304047 390.236328,260.648834 390.643524,254.993408 
	C395.370972,254.872330 398.112762,255.619385 399.468323,261.008820 
	C401.519409,269.163544 401.157440,277.035492 400.194977,285.104218 
	C399.925751,287.361115 399.181244,290.059845 403.033691,290.001617 
M213.793701,172.016388 
	C213.793701,206.922409 213.793701,241.828415 213.793701,277.996643 
	C221.823578,270.973907 228.903961,264.785553 235.979965,258.592224 
	C250.488907,245.893143 267.371948,239.587143 286.663788,239.632202 
	C306.824524,239.679306 326.985474,239.640213 347.146332,239.638824 
	C349.077118,239.638687 351.007904,239.638794 353.203217,239.638794 
	C353.203217,166.068710 353.203217,93.208282 353.203217,19.935291 
	C351.454529,19.935291 349.989349,19.935148 348.524139,19.935312 
	C327.530212,19.937660 306.536133,19.895885 285.542358,19.957287 
	C270.460632,20.001396 257.176331,25.096437 245.740509,34.842621 
	C236.364456,42.833355 227.269302,51.154984 217.848083,59.090649 
	C214.925842,61.552094 213.740753,64.053665 213.752853,67.938400 
	C213.852386,99.924088 213.707809,131.910522 212.920868,163.921265 
	C211.623550,165.359467 210.326233,166.797653 209.028900,168.235840 
	C210.565948,169.191986 212.102997,170.148117 213.793701,172.016388 
M361.996857,259.486115 
	C359.160431,253.897354 354.645233,252.677429 348.522827,252.799545 
	C327.711304,253.214661 306.886475,252.956268 286.066711,252.963013 
	C273.409088,252.967117 261.591888,256.159058 251.442139,263.737976 
	C243.330154,269.795288 235.861191,276.715302 228.137283,283.288177 
	C227.371399,283.939911 226.817886,284.841156 226.112411,285.690918 
	C278.325897,285.690918 330.127228,285.690918 382.606934,285.690918 
	C375.588440,276.735626 369.035187,268.373932 361.996857,259.486115 
z"/>
<path fill="#363536" opacity="1.000000" stroke="none" 
	d="
M152.112915,243.858917 
	C152.112915,247.209686 152.112915,250.560440 152.112915,253.762787 
	C150.528671,254.381775 149.327606,254.851044 147.711105,255.665207 
	C145.528976,255.400482 143.762283,254.790863 141.957230,253.817459 
	C140.328140,249.951004 138.638885,250.408630 136.425751,253.345398 
	C132.803101,253.223343 129.643478,252.975281 126.482918,252.962967 
	C103.656128,252.874146 80.829140,252.833038 57.912209,252.450912 
	C53.380989,249.871521 55.669781,253.844620 55.020203,255.357788 
	C54.856140,255.918259 54.610577,256.088135 53.894669,256.026093 
	C48.620117,251.803162 48.131702,256.095795 47.576752,258.853760 
	C44.961098,258.659882 42.779587,258.498169 40.577663,258.334961 
	C41.400402,263.263123 42.040558,267.097595 42.617287,271.163452 
	C42.379612,271.678650 42.136517,271.879028 41.449272,272.014587 
	C40.427376,273.142303 39.780788,274.251282 39.066498,275.646301 
	C38.332302,276.619446 37.665813,277.306580 36.999321,277.993713 
	C36.002106,277.489716 35.013432,276.967865 34.006039,276.485077 
	C31.291687,275.184235 29.209921,273.677826 30.723862,270.082947 
	C31.095510,269.200470 30.505291,267.912872 30.261509,266.144592 
	C31.468510,263.993103 32.771294,262.508575 34.412338,261.009888 
	C37.585213,260.490082 38.661369,258.828796 38.111778,255.711166 
	C40.268143,252.874313 42.324421,250.359695 44.771614,247.867981 
	C49.257275,246.069656 49.504974,245.484879 47.170761,242.532227 
	C47.108994,176.478683 47.108448,110.889450 47.124062,45.300213 
	C47.125050,41.144627 47.251766,36.989079 47.754890,32.931831 
	C48.803703,35.891190 49.096172,38.880047 50.162304,41.561272 
	C50.725361,42.977310 52.625881,44.721333 53.941910,44.737453 
	C55.270088,44.753727 57.807251,42.767582 57.765450,41.742268 
	C57.545929,36.358234 57.121452,30.896414 55.895271,25.666254 
	C54.876293,21.319899 50.483246,20.118933 45.742687,22.327145 
	C41.722893,24.199619 43.119091,26.899227 44.877708,29.594103 
	C45.115685,29.958778 44.983086,30.565283 44.904194,31.372028 
	C39.395023,37.091625 34.244812,42.772427 28.529165,47.811932 
	C24.604586,51.272247 23.107986,55.034199 24.040802,60.367928 
	C23.885990,61.493259 23.816031,62.247753 23.379272,62.990818 
	C20.127195,62.244450 17.241917,61.509510 13.162012,60.470272 
	C14.361488,57.668606 15.535143,54.927250 16.708797,52.185898 
	C16.890827,52.310806 17.072857,52.435715 17.254885,52.560623 
	C17.502977,49.374252 17.751068,46.187885 18.255379,42.760952 
	C18.680452,41.364872 18.849308,40.209358 19.018164,39.053841 
	C28.002356,29.954979 37.185867,21.041166 45.881817,11.674700 
	C49.884342,7.363548 54.265484,6.472185 59.829361,6.554835 
	C84.604355,6.922859 109.405693,6.351336 134.153000,7.291351 
	C142.674301,7.615029 151.066223,11.344532 159.757324,13.789536 
	C160.835938,20.708467 160.835938,20.708467 151.685760,24.048882 
	C145.393936,22.831068 139.698334,21.372419 134.055573,19.541065 
	C134.108414,15.717820 134.108414,12.267281 134.108414,8.816741 
	C133.590225,8.725292 133.072037,8.633844 132.553848,8.542396 
	C129.700333,12.270868 126.846825,15.999341 123.532486,19.814648 
	C116.383270,19.843149 109.694885,19.784815 102.995995,19.373486 
	C101.422867,17.402430 99.278328,14.162002 98.408043,14.474158 
	C95.917244,15.367575 91.865486,15.346970 91.532486,19.814648 
	C84.383270,19.843147 77.694885,19.784815 70.996017,19.373718 
	C69.381500,17.409210 67.777466,15.797462 66.173431,14.185716 
	C64.440529,16.097116 62.707623,18.008514 60.809868,20.368855 
	C60.613609,60.890369 60.585613,100.962952 60.538666,141.035507 
	C60.536736,142.682358 60.356941,144.329010 59.876724,145.984436 
	C54.457035,146.399994 53.560711,148.699387 56.302307,154.596893 
	C56.199215,159.597168 56.154831,164.153671 60.486877,167.702789 
	C60.549240,191.841385 60.549240,215.532654 60.549240,239.659744 
	C63.139385,239.659744 64.941597,239.659729 66.743805,239.659760 
	C87.359642,239.660004 107.980736,239.397415 128.588364,239.808853 
	C135.423065,239.945297 142.223160,241.814987 149.072556,243.204163 
	C150.111679,243.632568 151.117325,243.749054 152.114944,243.883789 
	C152.106918,243.902054 152.112915,243.858917 152.112915,243.858917 
z"/>
<path fill="#343434" opacity="1.000000" stroke="none" 
	d="
M17.999161,43.001518 
	C17.751068,46.187885 17.502977,49.374252 17.254885,52.560623 
	C17.072857,52.435715 16.890827,52.310806 16.708797,52.185898 
	C15.535143,54.927250 14.361488,57.668606 13.162012,60.470272 
	C17.241917,61.509510 20.127195,62.244450 23.461067,63.453007 
	C23.915007,131.598846 23.918165,199.271072 23.936474,266.943298 
	C23.937014,268.932556 24.097256,270.921783 24.183037,272.911011 
	C23.122269,276.556702 21.964996,280.178009 21.036839,283.857147 
	C20.477755,286.073334 20.275215,288.379456 18.956970,290.611237 
	C13.916237,280.348175 17.254919,269.306335 15.436341,257.540833 
	C14.647359,259.380280 14.063453,260.113342 14.057692,260.850922 
	C13.990189,269.493103 13.982272,278.136169 14.039460,286.778442 
	C14.046841,287.893677 14.198915,289.235138 14.819400,290.077332 
	C16.836050,292.814606 15.650806,294.674225 13.070996,296.743286 
	C11.990088,295.138641 10.756165,293.219055 10.754353,291.298309 
	C10.679442,211.882095 10.718198,132.465775 10.727132,53.049454 
	C10.727551,49.316807 10.889674,45.698292 15.097248,43.164642 
	C16.530056,43.010658 17.264608,43.006088 17.999161,43.001518 
z"/>
<path fill="#333333" opacity="1.000000" stroke="none" 
	d="
M403.129791,289.541229 
	C399.181244,290.059845 399.925751,287.361115 400.194977,285.104218 
	C401.157440,277.035492 401.519409,269.163544 399.468323,261.008820 
	C398.112762,255.619385 395.370972,254.872330 390.558594,254.532013 
	C390.056244,189.052185 390.047699,124.033600 390.028900,59.015018 
	C390.028229,56.690426 389.925842,54.365864 389.870880,52.041290 
	C391.951019,48.404789 394.031158,44.768288 396.167450,40.702705 
	C401.197662,44.126698 403.414581,48.832588 403.395264,55.481720 
	C403.168976,133.347595 403.236176,211.214340 403.129791,289.541229 
z"/>
<path fill="#393739" opacity="1.000000" stroke="none" 
	d="
M18.255379,42.760956 
	C17.264608,43.006088 16.530056,43.010658 15.428217,43.018051 
	C16.176311,41.759861 17.291695,40.498844 18.712620,39.145836 
	C18.849308,40.209358 18.680452,41.364872 18.255379,42.760956 
z"/>
<path fill="#FEFEFE" opacity="1.000000" stroke="none" 
	d="
M213.637238,163.896744 
	C213.707809,131.910522 213.852386,99.924088 213.752853,67.938400 
	C213.740753,64.053665 214.925842,61.552094 217.848083,59.090649 
	C227.269302,51.154984 236.364456,42.833355 245.740509,34.842621 
	C257.176331,25.096437 270.460632,20.001396 285.542358,19.957287 
	C306.536133,19.895885 327.530212,19.937660 348.524139,19.935312 
	C349.989349,19.935148 351.454529,19.935291 353.203217,19.935291 
	C353.203217,93.208282 353.203217,166.068710 353.203217,239.638794 
	C351.007904,239.638794 349.077118,239.638687 347.146332,239.638824 
	C326.985474,239.640213 306.824524,239.679306 286.663788,239.632202 
	C267.371948,239.587143 250.488907,245.893143 235.979965,258.592224 
	C228.903961,264.785553 221.823578,270.973907 213.793701,277.996643 
	C213.793701,241.828415 213.793701,206.922409 213.830627,171.119934 
	C213.790802,168.114578 213.714020,166.005661 213.637238,163.896744 
z"/>
<path fill="#FDFDFD" opacity="1.000000" stroke="none" 
	d="
M60.260017,145.975754 
	C60.356941,144.329010 60.536736,142.682358 60.538666,141.035507 
	C60.585613,100.962952 60.613609,60.890369 61.266159,20.381863 
	C64.927032,19.872780 67.966766,19.799629 71.006500,19.726479 
	C77.694885,19.784815 84.383270,19.843147 91.984016,19.903137 
	C96.266418,19.845356 99.636459,19.785919 103.006500,19.726482 
	C109.694885,19.784815 116.383270,19.843149 123.979797,19.903080 
	C127.926201,19.907711 130.964462,19.910740 134.002716,19.913771 
	C139.698334,21.372419 145.393936,22.831068 151.470734,24.375206 
	C159.191376,29.546310 166.505463,34.669136 173.882523,39.699612 
	C176.923416,41.773212 177.868866,44.410973 177.851517,48.134930 
	C177.705765,79.449661 177.787292,110.765457 177.806137,142.869598 
	C177.884872,144.107834 177.957916,144.557419 177.903458,145.392578 
	C177.864761,146.849213 177.953583,147.920258 177.950500,149.323242 
	C177.919907,150.106003 177.981216,150.556824 178.042542,151.007629 
	C177.950897,162.488571 177.805710,173.969406 177.779648,185.450500 
	C177.735794,204.769440 177.760834,224.088577 177.770950,243.407623 
	C177.774918,250.995132 179.647705,253.148499 187.078094,252.786469 
	C191.574738,252.567368 193.795486,253.853317 194.256729,258.503082 
	C194.723618,263.209869 195.743195,267.861786 195.842667,272.961365 
	C181.710800,262.601929 170.152191,248.990051 152.491013,243.872009 
	C152.112915,243.858917 152.106918,243.902054 151.904846,243.616806 
	C150.814880,243.185120 149.926987,243.038681 149.039078,242.892227 
	C142.223160,241.814987 135.423065,239.945297 128.588364,239.808853 
	C107.980736,239.397415 87.359642,239.660004 66.743805,239.659760 
	C64.941597,239.659729 63.139385,239.659744 60.549240,239.659744 
	C60.549240,215.532654 60.549240,191.841385 60.655365,167.242859 
	C60.633755,160.147522 60.506020,153.959473 60.423477,147.467697 
	C60.399117,146.767914 60.329567,146.371826 60.260017,145.975754 
z"/>
<path fill="#FDFDFD" opacity="1.000000" stroke="none" 
	d="
M389.564026,51.917206 
	C389.925842,54.365864 390.028229,56.690426 390.028900,59.015018 
	C390.047699,124.033600 390.056244,189.052185 390.151428,254.532181 
	C390.236328,260.648834 390.236328,266.304047 390.236328,273.545319 
	C384.968445,266.939819 381.000336,261.076721 376.142273,256.078735 
	C368.695526,248.417465 366.602478,239.776535 366.679047,229.142868 
	C367.140991,164.979630 366.907990,100.811378 366.907440,36.644806 
	C366.907440,34.668011 366.907440,32.691216 366.907440,30.714418 
	C367.296600,30.403479 367.685760,30.092541 368.074921,29.781601 
	C375.135681,37.118774 382.196442,44.455944 389.564026,51.917206 
z"/>
<path fill="#FEFEFE" opacity="1.000000" stroke="none" 
	d="
M24.125652,59.997093 
	C23.107986,55.034199 24.604586,51.272247 28.529165,47.811932 
	C34.244812,42.772427 39.395023,37.091625 45.183304,31.279070 
	C46.160194,31.527100 46.740093,32.180305 47.319992,32.833511 
	C47.251766,36.989079 47.125050,41.144627 47.124062,45.300213 
	C47.108448,110.889450 47.108994,176.478683 47.052486,242.866211 
	C46.126331,245.058029 45.253521,246.451553 44.380707,247.845062 
	C42.324421,250.359695 40.268143,252.874313 37.824890,255.860229 
	C36.316643,257.895691 35.195366,259.459869 34.074085,261.024048 
	C32.771294,262.508575 31.468510,263.993103 30.104239,265.820099 
	C28.931488,267.417786 27.820225,268.673035 26.374643,269.596832 
	C26.026731,252.786545 26.003052,236.307709 26.001415,219.828873 
	C25.996304,168.394455 26.018959,116.959999 25.920546,65.525772 
	C25.917019,63.681740 24.750273,61.839935 24.125652,59.997093 
z"/>
<path fill="#FDFDFD" opacity="1.000000" stroke="none" 
	d="
M58.002220,252.776794 
	C80.829140,252.833038 103.656128,252.874146 126.482918,252.962967 
	C129.643478,252.975281 132.803101,253.223343 136.735687,253.554779 
	C139.003998,253.891922 140.499786,254.036560 141.995590,254.181229 
	C143.762283,254.790863 145.528976,255.400482 147.647751,255.983185 
	C164.155289,261.821320 175.280136,274.511841 188.692245,285.697144 
	C136.019669,285.697144 84.227020,285.697144 31.711246,285.697144 
	C33.490723,283.233124 35.146172,280.940857 36.900475,278.321136 
	C37.665813,277.306580 38.332302,276.619446 39.348854,275.501038 
	C40.407467,274.045135 41.116024,273.020508 41.824577,271.995880 
	C42.136517,271.879028 42.379612,271.678650 42.876793,270.945831 
	C46.885277,265.698242 50.570824,260.899628 54.256374,256.101013 
	C54.610577,256.088135 54.856140,255.918259 55.302078,255.205414 
	C56.408134,254.138596 57.205177,253.457703 58.002220,252.776794 
z"/>
<path fill="#FDFDFD" opacity="1.000000" stroke="none" 
	d="
M362.239380,259.749176 
	C369.035187,268.373932 375.588440,276.735626 382.606934,285.690918 
	C330.127228,285.690918 278.325897,285.690918 226.112411,285.690918 
	C226.817886,284.841156 227.371399,283.939911 228.137283,283.288177 
	C235.861191,276.715302 243.330154,269.795288 251.442139,263.737976 
	C261.591888,256.159058 273.409088,252.967117 286.066711,252.963013 
	C306.886475,252.956268 327.711304,253.214661 348.522827,252.799545 
	C354.645233,252.677429 359.160431,253.897354 362.239380,259.749176 
z"/>
<path fill="#FBFBFB" opacity="1.000000" stroke="none" 
	d="
M200.304764,172.088394 
	C200.304764,194.724411 200.304764,217.360443 200.304764,240.303818 
	C197.155685,239.858475 194.437103,239.474014 190.848923,238.966568 
	C190.848923,215.868896 190.848923,192.642868 190.437210,168.713562 
	C189.960480,162.664337 189.895477,157.318390 189.902466,151.590805 
	C190.258011,149.483536 190.541565,147.757935 190.886871,145.687500 
	C190.882507,144.881668 190.816391,144.420670 190.750275,143.959671 
	C190.849289,136.973801 191.027420,129.987991 191.033783,123.002029 
	C191.063370,90.533401 191.045380,58.064728 191.044434,25.596067 
	C191.044388,23.859798 191.044434,22.123528 191.044434,20.387259 
	C191.593857,20.276531 192.143280,20.165806 192.692703,20.055080 
	C193.432938,22.901299 194.257187,25.728693 194.899979,28.596752 
	C199.547195,49.331482 200.805832,70.320511 200.286011,91.537193 
	C199.841629,109.673592 200.247498,127.830818 200.221619,146.884521 
	C200.212234,155.889587 200.258499,163.988998 200.304764,172.088394 
z"/>
<path fill="#FAFAFA" opacity="1.000000" stroke="none" 
	d="
M24.040802,60.367928 
	C24.750273,61.839935 25.917019,63.681740 25.920546,65.525772 
	C26.018959,116.959999 25.996304,168.394455 26.001415,219.828873 
	C26.003052,236.307709 26.026731,252.786545 26.064735,269.748566 
	C25.611376,271.020844 25.133610,271.809937 24.419439,272.755005 
	C24.097256,270.921783 23.937014,268.932556 23.936474,266.943298 
	C23.918165,199.271072 23.915007,131.598846 23.827866,63.464436 
	C23.816031,62.247753 23.885990,61.493259 24.040802,60.367928 
z"/>
<path fill="#514F52" opacity="1.000000" stroke="none" 
	d="
M189.830475,151.972458 
	C189.895477,157.318390 189.960480,162.664337 190.075485,168.471222 
	C188.549942,169.834824 186.974396,170.737473 185.398865,171.640121 
	C184.603912,169.807861 183.338287,168.030090 183.118393,166.131241 
	C182.737778,162.844391 183.491287,159.380081 182.819092,156.190399 
	C182.415222,154.274033 180.211945,152.736877 178.429947,151.018463 
	C177.981216,150.556824 177.919907,150.106003 178.338348,149.326920 
	C183.919418,149.376221 185.351227,152.400452 185.110458,157.107788 
	C184.911774,160.992081 185.288208,164.905777 185.409805,168.806442 
	C186.283081,168.795639 187.156342,168.784851 188.029617,168.774063 
	C188.029617,165.020126 187.837265,161.252121 188.110413,157.518158 
	C188.247971,155.637726 189.230194,153.819061 189.830475,151.972458 
z"/>
<path fill="#676767" opacity="1.000000" stroke="none" 
	d="
M200.659088,172.014114 
	C200.258499,163.988998 200.212234,155.889587 200.320190,147.335968 
	C206.185440,152.299332 203.529419,159.314423 203.800278,165.677902 
	C203.887283,167.721954 201.998337,169.850143 200.659088,172.014114 
z"/>
<path fill="#696669" opacity="1.000000" stroke="none" 
	d="
M213.279053,163.908997 
	C213.714020,166.005661 213.790802,168.114578 213.753815,170.663879 
	C212.102997,170.148117 210.565948,169.191986 209.028900,168.235840 
	C210.326233,166.797653 211.623550,165.359467 213.279053,163.908997 
z"/>
<path fill="#545154" opacity="1.000000" stroke="none" 
	d="
M190.382507,144.013855 
	C190.816391,144.420670 190.882507,144.881668 190.550934,145.728622 
	C187.971741,146.176071 185.774414,146.424942 183.613525,146.242432 
	C181.731308,146.083481 179.890213,145.437683 178.030945,145.006989 
	C177.957916,144.557419 177.884872,144.107834 177.906860,143.328918 
	C182.006180,143.355728 186.010452,143.711868 190.382507,144.013855 
z"/>
<path fill="#393739" opacity="1.000000" stroke="none" 
	d="
M47.754894,32.931831 
	C46.740093,32.180305 46.160194,31.527100 45.301186,30.966854 
	C44.983086,30.565283 45.115685,29.958778 44.877708,29.594103 
	C43.119091,26.899227 41.722893,24.199619 45.742687,22.327145 
	C50.483246,20.118933 54.876293,21.319899 55.895271,25.666254 
	C57.121452,30.896414 57.545929,36.358234 57.765450,41.742268 
	C57.807251,42.767582 55.270088,44.753727 53.941910,44.737453 
	C52.625881,44.721333 50.725361,42.977310 50.162304,41.561272 
	C49.096172,38.880047 48.803703,35.891190 47.754894,32.931831 
z"/>
<path fill="#393739" opacity="1.000000" stroke="none" 
	d="
M53.894665,256.026093 
	C50.570824,260.899628 46.885277,265.698242 42.940224,270.714478 
	C42.040558,267.097595 41.400402,263.263123 40.577663,258.334961 
	C42.779587,258.498169 44.961098,258.659882 47.576752,258.853760 
	C48.131702,256.095795 48.620117,251.803162 53.894665,256.026093 
z"/>
<path fill="#393739" opacity="1.000000" stroke="none" 
	d="
M134.055573,19.541065 
	C130.964462,19.910740 127.926201,19.907711 124.440628,19.816246 
	C126.846825,15.999341 129.700333,12.270868 132.553848,8.542396 
	C133.072037,8.633844 133.590225,8.725292 134.108414,8.816741 
	C134.108414,12.267281 134.108414,15.717820 134.055573,19.541065 
z"/>
<path fill="#89878A" opacity="1.000000" stroke="none" 
	d="
M60.378284,147.771408 
	C60.506020,153.959473 60.633755,160.147522 60.593002,166.795532 
	C56.154831,164.153671 56.199215,159.597168 56.565723,154.455383 
	C57.389332,153.007523 57.976479,152.143341 58.496235,151.240387 
	C59.152317,150.100601 59.753452,148.929184 60.378284,147.771408 
z"/>
<path fill="#393739" opacity="1.000000" stroke="none" 
	d="
M102.995995,19.373487 
	C99.636459,19.785919 96.266418,19.845356 92.444839,19.816303 
	C91.865486,15.346970 95.917244,15.367575 98.408043,14.474158 
	C99.278328,14.162002 101.422867,17.402430 102.995995,19.373487 
z"/>
<path fill="#393739" opacity="1.000000" stroke="none" 
	d="
M70.996017,19.373718 
	C67.966766,19.799629 64.927032,19.872780 61.431007,19.932920 
	C62.707623,18.008514 64.440529,16.097116 66.173431,14.185716 
	C67.777466,15.797462 69.381500,17.409210 70.996017,19.373718 
z"/>
<path fill="#393739" opacity="1.000000" stroke="none" 
	d="
M60.423477,147.467697 
	C59.753452,148.929184 59.152317,150.100601 58.496235,151.240387 
	C57.976479,152.143341 57.389332,153.007523 56.568687,154.030426 
	C53.560711,148.699387 54.457035,146.399994 59.876728,145.984436 
	C60.329567,146.371826 60.399117,146.767914 60.423477,147.467697 
z"/>
<path fill="#393739" opacity="1.000000" stroke="none" 
	d="
M141.957230,253.817444 
	C140.499786,254.036560 139.003998,253.891922 137.198273,253.537888 
	C138.638885,250.408630 140.328140,249.951004 141.957230,253.817444 
z"/>
<path fill="#393739" opacity="1.000000" stroke="none" 
	d="
M44.771618,247.867996 
	C45.253521,246.451553 46.126331,245.058029 47.117413,243.330521 
	C49.504974,245.484879 49.257275,246.069656 44.771618,247.867996 
z"/>
<path fill="#393739" opacity="1.000000" stroke="none" 
	d="
M34.412342,261.009888 
	C35.195366,259.459869 36.316643,257.895691 37.724808,256.182434 
	C38.661369,258.828796 37.585213,260.490082 34.412342,261.009888 
z"/>
<path fill="#393739" opacity="1.000000" stroke="none" 
	d="
M57.912212,252.450897 
	C57.205177,253.457703 56.408134,254.138596 55.329212,254.971863 
	C55.669781,253.844620 53.380989,249.871521 57.912212,252.450897 
z"/>
<path fill="#393739" opacity="1.000000" stroke="none" 
	d="
M41.449272,272.014587 
	C41.116024,273.020508 40.407467,274.045135 39.416557,275.215027 
	C39.780788,274.251282 40.427376,273.142303 41.449272,272.014587 
z"/>
<path fill="#393739" opacity="1.000000" stroke="none" 
	d="
M149.072556,243.204163 
	C149.926987,243.038681 150.814880,243.185120 151.912872,243.598541 
	C151.117325,243.749054 150.111679,243.632568 149.072556,243.204163 
z"/>
<path fill="#363437" opacity="1.000000" stroke="none" 
	d="
M177.903442,145.392578 
	C179.890213,145.437683 181.731308,146.083481 183.613525,146.242432 
	C185.774414,146.424942 187.971741,146.176071 190.489166,146.073456 
	C190.541565,147.757935 190.258011,149.483536 189.902466,151.590805 
	C189.230194,153.819061 188.247971,155.637726 188.110413,157.518158 
	C187.837265,161.252121 188.029617,165.020126 188.029617,168.774063 
	C187.156342,168.784851 186.283081,168.795639 185.409805,168.806442 
	C185.288208,164.905777 184.911774,160.992081 185.110458,157.107788 
	C185.351227,152.400452 183.919418,149.376221 178.430237,148.994965 
	C177.953583,147.920258 177.864761,146.849213 177.903442,145.392578 
z"/>
</svg>