<svg version="1.1" id="Layer_1" xmlns="http://www.w3.org/2000/svg" xmlns:xlink="http://www.w3.org/1999/xlink" x="0px" y="0px"
	 width="100%" viewBox="0 0 144 144" enable-background="new 0 0 144 144" xml:space="preserve">
<path fill="#000000" opacity="1.000000" stroke="none" 
	d="
M128.993530,143.335083 
	C122.332443,143.323761 116.163673,143.139160 110.010696,143.371994 
	C106.454353,143.506546 104.160500,142.297028 102.137909,139.350983 
	C92.243164,124.938560 82.168831,110.649368 72.141342,96.328262 
	C71.312187,95.144081 70.358849,94.046860 69.060516,92.397728 
	C61.740540,100.730255 54.714058,108.679291 47.743694,116.677238 
	C40.852921,124.583862 34.049671,132.566864 27.145487,140.461655 
	C24.177086,143.855972 20.877670,144.323746 13.775917,142.652908 
	C13.088999,140.205887 15.126234,139.087601 16.359205,137.674759 
	C30.701674,121.239861 44.999790,104.764427 59.533249,88.499519 
	C62.658424,85.002022 62.793510,82.564850 60.016670,78.677017 
	C45.307945,58.083427 30.909548,37.268044 16.433533,16.508656 
	C15.241986,14.799911 13.676936,13.224311 13.447830,11.089210 
	C15.018609,9.470174 16.779140,9.920784 18.370766,9.914085 
	C27.863518,9.874129 37.359867,10.058452 46.847984,9.849083 
	C50.806168,9.761741 53.304909,11.231330 55.501423,14.451968 
	C63.944511,26.831650 72.595001,39.070065 81.192604,51.344021 
	C82.602844,53.357277 84.136040,55.284405 86.055061,57.841080 
	C93.557251,49.367680 100.709137,41.326668 107.818634,33.248356 
	C113.428886,26.873602 118.980782,20.447517 124.570328,14.054497 
	C128.655197,9.382457 132.714386,8.501922 139.178070,10.884605 
	C139.486893,13.079131 137.628860,14.041631 136.492706,15.343734 
	C122.701195,31.149595 108.957741,46.999310 94.973366,62.633301 
	C92.253006,65.674553 92.582832,67.718895 94.732117,70.759827 
	C110.300491,92.786987 125.728325,114.913559 141.165512,137.033173 
	C142.261063,138.602966 143.991180,139.946411 143.593079,142.637466 
	C139.002731,144.023514 134.197723,143.038666 128.993530,143.335083 
M48.375713,22.896231 
	C43.277489,17.280909 37.089130,20.993414 31.546087,20.161276 
	C31.102352,21.829729 31.649097,22.468409 32.130672,23.145052 
	C57.699127,59.070290 83.264420,94.997780 108.827850,130.926590 
	C109.699959,132.152313 110.509254,133.565765 112.222305,133.572800 
	C116.775635,133.591476 121.378006,134.270508 126.667320,132.901840 
	C100.474907,96.110909 74.635117,59.815289 48.375713,22.896231 
z"/>
</svg>