<?xml version="1.0" encoding="UTF-8"?>
<svg version="1.1" xmlns="http://www.w3.org/2000/svg" width="369" height="372">
<path d="M0 0 C121.77 0 243.54 0 369 0 C369 122.76 369 245.52 369 372 C247.23 372 125.46 372 0 372 C0 249.24 0 126.48 0 0 Z " fill="#010101" transform="translate(0,0)"/>
<path d="M0 0 C16.65034175 0.45245494 35.07050715 10.2553381 48.75 19.375 C54.0207956 20.09470703 59.04415775 19.22256153 64.15625 17.97290039 C74.83582997 15.51108833 85.24372103 15.08638164 96.14208984 15.16918945 C98.61436386 15.18742156 101.08625941 15.18969835 103.55859375 15.18945312 C129.96511477 15.24561198 129.96511477 15.24561198 142.5546875 18.75390625 C152.46105228 20.67947104 158.04833784 18.20302231 166.6875 13.125 C193.49437436 -2.28514256 193.49437436 -2.28514256 206.75 0.375 C212.38896585 4.51228472 213.21300046 11.50760169 214.41308594 18.01757812 C215.85236771 28.08837872 215.23651537 38.31554366 213.15234375 48.234375 C211.66808583 56.13120353 217.1461647 62.45616245 221.3046875 68.71484375 C233.44017402 87.60973338 234.24106423 112.06512025 230.75 133.75 C226.03985964 154.59014933 216.96329269 176.15592406 198.87158203 188.67480469 C194.94780185 191.13864403 190.87250953 193.26169335 186.75 195.375 C185.93660156 195.88933594 185.12320313 196.40367187 184.28515625 196.93359375 C175.61638641 201.86237044 164.75758106 203.73391407 155.0625 205.6875 C154.21357178 205.85886475 153.36464355 206.03022949 152.48999023 206.20678711 C148.52819167 206.96853419 144.80559345 207.59801634 140.75 207.375 C141.3275 208.40625 141.905 209.4375 142.5 210.5 C142.82484375 211.08007812 143.1496875 211.66015625 143.484375 212.2578125 C144.79878102 214.5193717 144.79878102 214.5193717 146.69044495 217.10914612 C152.63028028 226.52799329 153.33010199 237.43199154 153.26642036 248.29571724 C153.25354147 250.50395122 153.26529517 252.71098031 153.28245544 254.91917419 C153.30885402 258.80188459 153.31476163 262.68428721 153.31335449 266.56707764 C153.31110379 272.81068472 153.32532483 279.05391713 153.36894035 285.29737663 C153.378731 287.46510383 153.37009634 289.6322279 153.36024475 291.79994202 C153.36712814 293.11578781 153.37401154 294.43163361 153.38110352 295.78735352 C153.38014175 296.94203629 153.37917999 298.09671906 153.37818909 299.28639221 C153.79005238 302.70771239 154.85861126 304.54066233 156.75 307.375 C156.75 308.035 156.75 308.695 156.75 309.375 C157.41 309.705 158.07 310.035 158.75 310.375 C121.13 310.375 83.51 310.375 44.75 310.375 C46.07 309.715 47.39 309.055 48.75 308.375 C50.5634403 305.63083702 51.00859569 303.41083298 51.06884766 300.15722656 C51.08871735 299.33667786 51.10858704 298.51612915 51.12905884 297.67071533 C51.14061005 296.79453552 51.15216125 295.91835571 51.1640625 295.015625 C51.18342865 294.11124695 51.2027948 293.2068689 51.2227478 292.27508545 C51.28243831 289.39181901 51.32888686 286.50851242 51.375 283.625 C51.41318947 281.66795152 51.45224177 279.71091967 51.4921875 277.75390625 C51.58813125 272.96107289 51.67220127 268.16816085 51.75 263.375 C50.47987061 263.61512817 50.47987061 263.61512817 49.18408203 263.86010742 C43.71323452 264.6803845 38.23238306 264.63837206 32.71191406 264.67016602 C31.33127552 264.68163365 29.95067947 264.70200238 28.5703125 264.73168945 C13.97185906 265.0445634 2.85042267 262.1715635 -8.25 252.375 C-14.01238676 246.72740182 -16.93920451 239.9215102 -20.20214844 232.68823242 C-24.40802072 223.55429797 -29.94118493 216.9163605 -38.0625 210.98046875 C-41.28102478 208.61830146 -44.24264326 205.99843886 -47.25 203.375 C-46.875 200.9375 -46.875 200.9375 -46.25 198.375 C-41.41678679 195.9583934 -35.26538808 196.84463472 -30.20703125 198.17578125 C-18.10435682 202.73189801 -10.8546438 211.30555145 -3.62304688 221.61450195 C2.99319668 230.91716853 11.43144529 237.07292108 22.75 239.375 C30.80832589 240.10408663 38.06192323 238.77614719 45.75 236.375 C46.64332031 236.15328125 47.53664063 235.9315625 48.45703125 235.703125 C51.05580058 234.50398646 51.05580058 234.50398646 52.05078125 231.3203125 C52.38464844 230.05960938 52.71851563 228.79890625 53.0625 227.5 C55.31040602 219.70555831 58.86147395 213.88899129 63.75 207.375 C63.09257812 207.34921875 62.43515625 207.3234375 61.7578125 207.296875 C35.37553349 205.7239478 11.44739082 196.00013931 -7.0859375 176.91015625 C-26.1083439 154.62578486 -28.83587521 124.39350178 -27.25 96.375 C-25.51231745 82.20306333 -19.22867937 68.75842271 -10.3125 57.6875 C-7.90806013 54.51178745 -7.90806013 54.51178745 -8.375 50.75 C-8.66375 49.63625 -8.9525 48.5225 -9.25 47.375 C-10.4420285 42.11435203 -10.43390135 37.06028877 -10.4375 31.6875 C-10.44974609 30.74455078 -10.46199219 29.80160156 -10.47460938 28.83007812 C-10.49393414 19.45756864 -8.94516433 10.99705011 -5.25 2.375 C-3.25 0.375 -3.25 0.375 0 0 Z " fill="#FDFDFD" transform="translate(84.25,61.625)"/>
<path d="M0 0 C0.66 0.33 1.32 0.66 2 1 C0.01929563 3.35043586 -1.98581322 5.67822804 -4 8 C-4.70125 8.825 -5.4025 9.65 -6.125 10.5 C-6.74375 10.995 -7.3625 11.49 -8 12 C-10.1171875 11.59375 -10.1171875 11.59375 -12 11 C-11.46890625 10.54109375 -10.9378125 10.0821875 -10.390625 9.609375 C-6.81675301 6.50506283 -3.28145941 3.41818688 0 0 Z " fill="#252525" transform="translate(295,238)"/>
</svg>
