<?xml version="1.0" standalone="no"?>
<!DOCTYPE svg PUBLIC "-//W3C//DTD SVG 20010904//EN"
 "http://www.w3.org/TR/2001/REC-SVG-20010904/DTD/svg10.dtd">
<svg version="1.0" xmlns="http://www.w3.org/2000/svg"
 width="956.000000pt" height="960.000000pt" viewBox="0 0 956.000000 960.000000"
 preserveAspectRatio="xMidYMid meet">

<g transform="translate(0.000000,960.000000) scale(0.100000,-0.100000)"
fill="#000000" stroke="none">
<path d="M0 4800 l0 -4800 4780 0 4780 0 0 4800 0 4800 -4780 0 -4780 0 0
-4800z m5205 3921 c575 -88 1067 -303 1510 -657 134 -107 363 -335 467 -464
562 -699 800 -1599 658 -2487 -66 -408 -204 -785 -422 -1145 -346 -570 -892
-1030 -1518 -1278 -196 -78 -275 -77 -334 3 -20 28 -21 42 -26 590 l-6 562
-27 90 c-32 102 -72 179 -128 247 -46 55 -54 48 86 68 290 41 541 129 740 258
84 55 247 215 298 294 107 164 181 354 218 564 31 173 38 506 14 641 -36 199
-107 365 -225 522 l-70 93 27 107 c48 189 36 427 -33 638 -14 43 -31 81 -37
85 -33 21 -183 0 -317 -43 -93 -30 -308 -137 -428 -213 l-103 -65 -82 19
c-460 108 -926 108 -1394 -1 l-83 -19 -87 58 c-115 75 -329 182 -429 216 -143
47 -297 70 -330 48 -15 -10 -60 -151 -78 -247 -34 -179 -29 -343 15 -507 l21
-77 -66 -88 c-172 -229 -246 -463 -246 -780 0 -772 322 -1251 965 -1438 75
-22 268 -60 413 -81 l33 -5 -41 -46 c-55 -63 -106 -169 -134 -283 l-23 -95
-99 -34 c-85 -29 -116 -34 -219 -38 -93 -4 -135 -1 -185 12 -156 40 -280 139
-394 312 -115 176 -264 292 -413 323 -104 22 -213 -4 -213 -50 0 -28 52 -83
118 -126 137 -89 242 -222 329 -417 65 -145 93 -187 180 -266 78 -72 190 -131
308 -163 67 -18 107 -21 245 -21 106 0 194 5 245 15 44 9 81 15 82 14 1 -1 3
-143 5 -316 3 -300 2 -317 -17 -349 -25 -43 -78 -71 -132 -71 -117 0 -520 186
-788 365 -313 207 -626 514 -837 820 -281 406 -456 854 -534 1367 -21 141 -30
570 -15 724 105 1049 690 1948 1601 2459 372 209 783 332 1265 379 22 2 153 3
290 1 187 -3 283 -8 380 -24z m-1830 -6765 c87 -27 88 -28 63 -126 -11 -47
-24 -89 -28 -93 -3 -4 -35 -1 -71 8 -76 17 -183 19 -244 4 -56 -14 -117 -66
-144 -124 -33 -70 -46 -190 -32 -296 24 -187 93 -259 250 -259 105 0 101 -4
101 116 l0 103 -77 3 -78 3 -3 91 c-2 69 1 94 11 103 10 8 67 11 193 9 l179
-3 3 -282 2 -282 -41 -21 c-147 -75 -394 -79 -543 -9 -111 52 -190 165 -222
319 -20 95 -14 335 10 425 49 177 146 280 304 320 73 19 295 13 367 -9z m1380
-36 c4 -12 5 -100 4 -198 l-3 -177 152 -3 152 -3 2 198 3 198 113 3 112 3 0
-536 0 -536 -112 3 -113 3 -3 228 -2 228 -152 -3 -151 -3 2 -203 c0 -112 -2
-215 -5 -228 -6 -24 -7 -25 -118 -22 l-111 3 -3 520 c-1 286 0 526 3 533 3 8
36 12 114 12 101 0 110 -2 116 -20z m1635 -160 c0 -99 3 -180 8 -180 4 1 32 9
62 20 128 45 267 15 330 -71 112 -155 83 -548 -47 -633 -88 -57 -224 -61 -336
-8 l-65 30 -6 -24 c-6 -24 -9 -25 -89 -22 l-82 3 -3 520 c-1 286 0 526 3 533
3 8 36 12 115 12 l110 0 0 -180z m-2613 145 c31 -9 71 -59 78 -99 20 -104
-116 -190 -199 -125 -85 67 -63 199 39 228 30 9 40 8 82 -4z m483 -200 l0
-104 83 -3 82 -3 0 -90 0 -90 -80 -5 -80 -5 0 -162 c0 -194 0 -195 100 -201
l65 -4 0 -83 0 -83 -44 -11 c-100 -25 -219 -4 -280 50 -57 49 -66 89 -68 304
l-3 190 -60 5 -60 5 -3 65 c-1 36 1 70 5 76 5 6 33 17 63 25 l55 14 3 108 3
107 109 0 110 0 0 -105z m-422 -467 l-3 -363 -110 0 -110 0 -3 350 c-1 192 0
356 3 362 3 9 35 13 115 13 l110 0 -2 -362z m1784 101 c3 -260 3 -261 27 -280
27 -22 87 -24 141 -5 l35 13 5 264 5 264 113 3 112 3 0 -366 0 -365 -76 0
c-67 0 -76 2 -81 20 -6 24 -15 25 -56 3 -51 -26 -127 -43 -197 -43 -117 0
-187 33 -230 110 -25 45 -25 47 -28 328 -2 156 -1 290 2 298 4 11 30 14 115
14 l110 0 3 -261z"/>
<path d="M6430 1416 l-35 -13 -3 -167 -2 -166 27 -12 c16 -6 54 -13 85 -16 53
-4 59 -2 87 25 34 35 47 105 38 214 -6 74 -18 105 -51 131 -25 21 -94 22 -146
4z"/>
</g>
</svg>
