<?xml version="1.0" encoding="UTF-8"?>
<svg version="1.1" xmlns="http://www.w3.org/2000/svg" width="369" height="372">
<path d="M0 0 C121.77 0 243.54 0 369 0 C369 122.76 369 245.52 369 372 C247.23 372 125.46 372 0 372 C0 249.24 0 126.48 0 0 Z " fill="#FEFEFE" transform="translate(0,0)"/>
<path d="M0 0 C121.77 0 243.54 0 369 0 C369 95.04 369 190.08 369 288 C326.43 288 283.86 288 240 288 C240 290.64 240 293.28 240 296 C238.68 296 237.36 296 236 296 C235.70867187 294.9378125 235.41734375 293.875625 235.1171875 292.78125 C232.17852963 282.3606332 232.17852963 282.3606332 226.13671875 273.48046875 C225 272 225 272 225 269 C225.67353516 268.87471924 226.34707031 268.74943848 227.04101562 268.62036133 C251.36428915 264.05042113 274.12022858 259.37920637 292 241 C292.62003906 240.4121875 293.24007813 239.824375 293.87890625 239.21875 C302.00988705 230.92405818 306.44566809 219.0717073 310.375 208.3125 C310.61355713 207.67320557 310.85211426 207.03391113 311.09790039 206.37524414 C314.76774508 195.78481775 315.36672759 184.68154769 315.3125 173.5625 C315.30831055 172.38179932 315.30412109 171.20109863 315.29980469 169.98461914 C315.19133207 161.62011124 314.59672566 154.00376047 312 146 C311.73316406 145.1440625 311.46632813 144.288125 311.19140625 143.40625 C308.30813187 135.30745264 303.39939176 127.95629476 298.55859375 120.8984375 C296.04550016 117.06312394 295.68798337 114.54698588 296.54296875 110.1875 C296.76919922 109.1046875 296.76919922 109.1046875 297 108 C298.93040984 96.40334676 299.04884429 84.43873831 296.1875 73 C296.0222583 72.33621338 295.8570166 71.67242676 295.68676758 70.98852539 C294.75144446 67.62884477 293.97259367 64.97936428 291 63 C276.61516277 59.91753488 260.39571433 70.08125637 248.41015625 77.07421875 C237.73248984 83.21668029 232.32144348 82.64494763 220.65771484 79.76928711 C209.20014383 77.35954166 197.01903647 77.81353957 185.34716797 77.81469727 C182.87059689 77.81249609 180.39446258 77.79420748 177.91796875 77.77539062 C167.07824561 77.73729869 156.82777502 78.57925056 146.25 81.125 C139.15067891 82.73292464 133.43981207 82.8578158 127.07910156 79.0534668 C126.11182129 78.43918823 126.11182129 78.43918823 125.125 77.8125 C123.72843346 76.97862933 122.32998867 76.14789635 120.9296875 75.3203125 C120.25776367 74.91844727 119.58583984 74.51658203 118.89355469 74.10253906 C107.93060489 67.71926401 93.88914658 61.75266323 81 63 C78.95668033 65.07097697 78.95668033 65.07097697 78 68 C77.62875 68.928125 77.2575 69.85625 76.875 70.8125 C74.86908969 78.11974469 74.81762737 85.47302098 74.8125 93 C74.80025391 93.94617188 74.78800781 94.89234375 74.77539062 95.8671875 C74.76343095 101.62377788 75.4375107 106.46644106 77 112 C77 117.20590224 74.77856695 119.83821651 71.68359375 123.7421875 C61.00736661 138.05972645 57.60997247 154.26773946 57.75 171.75 C57.75894287 172.99918213 57.76788574 174.24836426 57.77709961 175.53540039 C58.11572316 202.37087826 65.58330228 225.88945517 85 244.96484375 C102.47703843 261.06767956 125.45103936 265.09413928 148 269 C146.93023019 271.16581266 145.83859853 273.28037741 144.6328125 275.375 C141.77504068 280.35018825 139.66355089 284.88020242 138.1875 290.4375 C136.59907073 295.5112844 136.59907073 295.5112844 134.0703125 297.57421875 C131.72824485 298.66421217 129.50520445 299.37673427 127 300 C126.27425781 300.21914063 125.54851562 300.43828125 124.80078125 300.6640625 C114.45897066 303.44911023 104.70421685 302.50031397 95 298 C86.32243167 292.66930095 80.43254727 284.98214652 74.5 276.875 C67.95315177 268.12753051 61.69985695 263.07985957 51 260 C44.32573611 259.25783926 44.32573611 259.25783926 38 261 C38.3256114 264.02870287 38.58950978 265.59220447 40.78515625 267.7734375 C41.53667969 268.30195313 42.28820313 268.83046875 43.0625 269.375 C43.87589844 269.97441406 44.68929687 270.57382812 45.52734375 271.19140625 C46.34332031 271.78824219 47.15929688 272.38507813 48 273 C57.49765651 280.37157561 63.90914101 289.67001727 68 301 C68 301.99 68 302.98 68 304 C45.56 304 23.12 304 0 304 C0 203.68 0 103.36 0 0 Z " fill="#010101" transform="translate(0,0)"/>
<path d="M0 0 C42.57 0 85.14 0 129 0 C129 27.72 129 55.44 129 84 C7.23 84 -114.54 84 -240 84 C-240 61.56 -240 39.12 -240 16 C-203.42196376 15.33797628 -203.42196376 15.33797628 -191.76025391 15.19580078 C-190.94308561 15.18583706 -190.12591731 15.17587334 -189.28398633 15.16560769 C-157.33481427 14.79017751 -125.38195415 15.12030667 -93.43287861 15.37335551 C-84.0773538 15.44714209 -74.72177201 15.51199996 -65.36617887 15.57643402 C-46.24404579 15.70831587 -27.12200213 15.85037606 -8 16 C-8 13.36 -8 10.72 -8 8 C-5.36 8 -2.72 8 0 8 C0 5.36 0 2.72 0 0 Z " fill="#7F7F7F" transform="translate(240,288)"/>
<path d="M0 0 C12.10267443 4.55611676 19.35238745 13.1297702 26.58398438 23.4387207 C33.20022793 32.74138728 41.63847654 38.89713983 52.95703125 41.19921875 C60.50949859 41.76654024 67.58289653 40.79671022 74.95703125 39.19921875 C73.80534363 41.66374207 73.80534363 41.66374207 71.95703125 44.19921875 C69.43232727 44.80049133 69.43232727 44.80049133 66.3840332 44.7668457 C65.24307693 44.76646805 64.10212067 44.76609039 62.92658997 44.76570129 C61.6952684 44.73989487 60.46394684 44.71408844 59.1953125 44.6875 C57.30391792 44.67688789 57.30391792 44.67688789 55.37431335 44.6660614 C52.02481733 44.64279264 48.67702456 44.59788982 45.32800293 44.5425415 C41.9095735 44.49135527 38.49096798 44.46854892 35.07226562 44.44335938 C28.36671606 44.38816999 21.661972 44.304451 14.95703125 44.19921875 C14.34794922 43.03148926 13.73886719 41.86375977 13.11132812 40.66064453 C12.29964482 39.11351985 11.48778662 37.56648692 10.67578125 36.01953125 C10.27584961 35.25165283 9.87591797 34.48377441 9.46386719 33.69262695 C4.9291512 25.07203932 0.07362674 18.63505129 -7.8203125 12.83984375 C-11.04543894 10.45925833 -14.02328279 7.83341289 -17.04296875 5.19921875 C-16.66796875 2.76171875 -16.66796875 2.76171875 -16.04296875 0.19921875 C-11.20975554 -2.21738785 -5.05835683 -1.33114653 0 0 Z " fill="#F8F8F8" transform="translate(54.04296875,259.80078125)"/>
<path d="M0 0 C2.64 0 5.28 0 8 0 C8 2.64 8 5.28 8 8 C5.36 8 2.72 8 0 8 C0 5.36 0 2.72 0 0 Z " fill="#949494" transform="translate(232,296)"/>
<path d="M0 0 C0.66 0.33 1.32 0.66 2 1 C0.01929563 3.35043586 -1.98581322 5.67822804 -4 8 C-4.70125 8.825 -5.4025 9.65 -6.125 10.5 C-6.74375 10.995 -7.3625 11.49 -8 12 C-10.1171875 11.59375 -10.1171875 11.59375 -12 11 C-11.46890625 10.54109375 -10.9378125 10.0821875 -10.390625 9.609375 C-6.81675301 6.50506283 -3.28145941 3.41818688 0 0 Z " fill="#252525" transform="translate(295,238)"/>
<path d="M0 0 C-1.1875 2 -1.1875 2 -3 4 C-5.5 4.4375 -5.5 4.4375 -8 4 C-9.65625 2.47265625 -9.65625 2.47265625 -11 1 C-9.5437328 0.63743142 -8.08488815 0.28520207 -6.625 -0.0625 C-5.40683594 -0.35833984 -5.40683594 -0.35833984 -4.1640625 -0.66015625 C-2 -1 -2 -1 0 0 Z " fill="#EAEAEA" transform="translate(129,300)"/>
</svg>
