<svg version="1.1" id="Layer_1" xmlns="http://www.w3.org/2000/svg" xmlns:xlink="http://www.w3.org/1999/xlink" x="0px" y="0px"
	 width="100%" viewBox="0 0 512 512" enable-background="new 0 0 512 512" xml:space="preserve">
<path fill="#000000" opacity="1.000000" stroke="none" 
	d="
M345.000000,513.000000 
	C230.027939,513.000000 115.555870,513.000000 1.041900,513.000000 
	C1.041900,342.402924 1.041900,171.805817 1.041900,1.104355 
	C171.555405,1.104355 342.110901,1.104355 512.833191,1.104355 
	C512.833191,171.666534 512.833191,342.333252 512.833191,513.000000 
	C457.139069,513.000000 401.319550,513.000000 345.000000,513.000000 
M194.765732,52.032459 
	C190.585739,53.677940 186.461166,55.484741 182.216766,56.942688 
	C155.010284,66.288048 131.363174,81.612785 110.642334,101.190315 
	C99.697357,111.531395 90.351860,123.565384 80.085236,135.057800 
	C103.955780,153.303543 126.697922,170.686768 149.481476,188.101654 
	C150.859543,186.622955 152.035233,185.639694 152.871109,184.422989 
	C166.483017,164.609467 184.360519,150.042465 206.293137,140.222855 
	C229.189972,129.971558 253.198364,127.395447 277.587097,131.227768 
	C301.576538,134.997345 322.929932,145.291458 341.257538,161.630051 
	C347.673859,167.350006 357.863770,167.966446 364.517273,161.082565 
	C376.560059,148.622803 388.973267,136.521088 401.230225,124.268272 
	C409.047607,116.453529 409.099365,107.386116 401.036469,99.632759 
	C396.679871,95.443420 391.961304,91.615364 387.267731,87.794182 
	C369.340942,73.199417 349.127625,62.629570 327.404785,55.096172 
	C309.007812,48.716171 290.132599,44.109169 270.458771,44.011082 
	C258.456024,43.951241 246.338211,42.975994 234.480270,44.290257 
	C221.396149,45.740421 208.550171,49.339226 194.765732,52.032459 
M448.035919,352.607819 
	C452.677521,341.190063 457.835938,329.950043 461.838196,318.312378 
	C467.671326,301.350922 470.069672,283.570862 470.777924,265.760834 
	C471.266449,253.476562 469.895172,241.090836 468.918823,228.785080 
	C468.222443,220.008057 461.246857,214.006180 452.602478,214.004944 
	C388.790741,213.995834 324.978973,213.994919 261.167236,214.006439 
	C253.150833,214.007889 246.010605,221.270889 246.004364,229.388062 
	C245.990417,247.548584 245.998230,265.709106 246.000717,283.869629 
	C246.001984,293.071899 252.835052,299.997742 261.924438,299.998596 
	C298.412079,300.001953 334.899750,300.000000 371.387390,300.000000 
	C373.111542,300.000000 374.835693,300.000000 376.804047,300.000000 
	C371.681702,315.261780 363.035675,327.963562 353.774994,340.136658 
	C355.089813,341.506714 355.942413,342.543457 356.940887,343.412567 
	C366.948883,352.123596 376.974792,360.814117 387.007874,369.496277 
	C396.788910,377.960358 406.535034,386.466797 416.462158,394.756256 
	C417.299957,395.455811 420.252106,395.233887 420.774384,394.461395 
	C429.972229,380.856293 438.944733,367.098816 448.035919,352.607819 
M157.398483,446.036346 
	C164.964630,449.547943 172.389481,453.412689 180.122559,456.507111 
	C206.729462,467.153961 234.540771,471.342560 263.074585,470.916199 
	C269.414795,470.821472 275.809662,470.055878 282.056091,468.920715 
	C294.889130,466.588562 307.787933,464.365051 320.385498,461.053741 
	C336.593658,456.793304 351.771179,449.647888 366.003998,440.873901 
	C376.521576,434.390167 386.370331,426.821594 397.271942,419.209290 
	C374.395691,399.345825 352.394379,380.242096 330.422638,361.164032 
	C300.645752,381.290771 268.139526,388.735382 232.756561,381.952057 
	C197.189240,375.133392 170.178680,355.220276 149.679428,325.731812 
	C126.436905,343.517212 103.699905,360.915771 81.045753,378.250946 
	C100.733063,407.385254 126.345467,429.295319 157.398483,446.036346 
M44.000000,238.538010 
	C43.666668,241.955505 42.882103,245.399216 43.078892,248.785919 
	C43.887825,262.707489 44.655529,276.646576 46.080078,290.513336 
	C47.801853,307.273315 53.549744,323.042847 59.373459,338.718811 
	C60.996120,343.086609 63.359009,347.179413 65.385727,351.405487 
	C71.881721,346.607941 77.698029,342.475159 83.339073,338.115570 
	C100.039963,325.208588 116.587845,312.101196 133.424957,299.375671 
	C135.824646,297.561981 135.855133,296.695129 135.169678,294.019012 
	C133.093277,285.912567 130.701187,277.695953 130.204086,269.415894 
	C129.181961,252.390640 129.636963,235.338608 135.453201,218.923126 
	C135.794510,217.959854 135.543365,216.254150 134.875473,215.570419 
	C133.191544,213.846588 131.125992,212.490646 129.188110,211.020630 
	C120.023376,204.068604 110.833153,197.150070 101.684219,190.177353 
	C89.715431,181.055557 77.776894,171.894089 64.973862,162.098206 
	C61.702175,170.399658 58.516365,178.051117 55.658680,185.823212 
	C49.504990,202.559525 45.556786,219.815216 44.000000,238.538010 
z"/>
<path fill="#FFFFFF" opacity="1.000000" stroke="none" 
	d="
M195.183105,52.017296 
	C208.550171,49.339226 221.396149,45.740421 234.480270,44.290257 
	C246.338211,42.975994 258.456024,43.951241 270.458771,44.011082 
	C290.132599,44.109169 309.007812,48.716171 327.404785,55.096172 
	C349.127625,62.629570 369.340942,73.199417 387.267731,87.794182 
	C391.961304,91.615364 396.679871,95.443420 401.036469,99.632759 
	C409.099365,107.386116 409.047607,116.453529 401.230225,124.268272 
	C388.973267,136.521088 376.560059,148.622803 364.517273,161.082565 
	C357.863770,167.966446 347.673859,167.350006 341.257538,161.630051 
	C322.929932,145.291458 301.576538,134.997345 277.587097,131.227768 
	C253.198364,127.395447 229.189972,129.971558 206.293137,140.222855 
	C184.360519,150.042465 166.483017,164.609467 152.871109,184.422989 
	C152.035233,185.639694 150.859543,186.622955 149.481476,188.101654 
	C126.697922,170.686768 103.955780,153.303543 80.085236,135.057800 
	C90.351860,123.565384 99.697357,111.531395 110.642334,101.190315 
	C131.363174,81.612785 155.010284,66.288048 182.216766,56.942688 
	C186.461166,55.484741 190.585739,53.677940 195.183105,52.017296 
z"/>
<path fill="#FFFFFF" opacity="1.000000" stroke="none" 
	d="
M448.000977,352.991089 
	C438.944733,367.098816 429.972229,380.856293 420.774384,394.461395 
	C420.252106,395.233887 417.299957,395.455811 416.462158,394.756256 
	C406.535034,386.466797 396.788910,377.960358 387.007874,369.496277 
	C376.974792,360.814117 366.948883,352.123596 356.940887,343.412567 
	C355.942413,342.543457 355.089813,341.506714 353.774994,340.136658 
	C363.035675,327.963562 371.681702,315.261780 376.804047,300.000000 
	C374.835693,300.000000 373.111542,300.000000 371.387390,300.000000 
	C334.899750,300.000000 298.412079,300.001953 261.924438,299.998596 
	C252.835052,299.997742 246.001984,293.071899 246.000717,283.869629 
	C245.998230,265.709106 245.990417,247.548584 246.004364,229.388062 
	C246.010605,221.270889 253.150833,214.007889 261.167236,214.006439 
	C324.978973,213.994919 388.790741,213.995834 452.602478,214.004944 
	C461.246857,214.006180 468.222443,220.008057 468.918823,228.785080 
	C469.895172,241.090836 471.266449,253.476562 470.777924,265.760834 
	C470.069672,283.570862 467.671326,301.350922 461.838196,318.312378 
	C457.835938,329.950043 452.677521,341.190063 448.000977,352.991089 
z"/>
<path fill="#FFFFFF" opacity="1.000000" stroke="none" 
	d="
M157.016327,446.001556 
	C126.345467,429.295319 100.733063,407.385254 81.045753,378.250946 
	C103.699905,360.915771 126.436905,343.517212 149.679428,325.731812 
	C170.178680,355.220276 197.189240,375.133392 232.756561,381.952057 
	C268.139526,388.735382 300.645752,381.290771 330.422638,361.164032 
	C352.394379,380.242096 374.395691,399.345825 397.271942,419.209290 
	C386.370331,426.821594 376.521576,434.390167 366.003998,440.873901 
	C351.771179,449.647888 336.593658,456.793304 320.385498,461.053741 
	C307.787933,464.365051 294.889130,466.588562 282.056091,468.920715 
	C275.809662,470.055878 269.414795,470.821472 263.074585,470.916199 
	C234.540771,471.342560 206.729462,467.153961 180.122559,456.507111 
	C172.389481,453.412689 164.964630,449.547943 157.016327,446.001556 
z"/>
<path fill="#FFFFFF" opacity="1.000000" stroke="none" 
	d="
M44.000000,238.067993 
	C45.556786,219.815216 49.504990,202.559525 55.658680,185.823212 
	C58.516365,178.051117 61.702175,170.399658 64.973862,162.098206 
	C77.776894,171.894089 89.715431,181.055557 101.684219,190.177353 
	C110.833153,197.150070 120.023376,204.068604 129.188110,211.020630 
	C131.125992,212.490646 133.191544,213.846588 134.875473,215.570419 
	C135.543365,216.254150 135.794510,217.959854 135.453201,218.923126 
	C129.636963,235.338608 129.181961,252.390640 130.204086,269.415894 
	C130.701187,277.695953 133.093277,285.912567 135.169678,294.019012 
	C135.855133,296.695129 135.824646,297.561981 133.424957,299.375671 
	C116.587845,312.101196 100.039963,325.208588 83.339073,338.115570 
	C77.698029,342.475159 71.881721,346.607941 65.385727,351.405487 
	C63.359009,347.179413 60.996120,343.086609 59.373459,338.718811 
	C53.549744,323.042847 47.801853,307.273315 46.080078,290.513336 
	C44.655529,276.646576 43.887825,262.707489 43.078892,248.785919 
	C42.882103,245.399216 43.666668,241.955505 44.000000,238.067993 
z"/>
</svg>