<svg version="1.1" id="Layer_1" xmlns="http://www.w3.org/2000/svg" xmlns:xlink="http://www.w3.org/1999/xlink" x="0px" y="0px"
	 width="100%" viewBox="0 0 512 512" enable-background="new 0 0 512 512" xml:space="preserve">
<path fill="#000000" opacity="1.000000" stroke="none" 
	d="
M47.653419,295.046143 
	C46.626091,276.582825 46.389412,258.582123 46.944229,240.607269 
	C47.785339,213.357040 48.386391,186.092606 52.449612,159.019730 
	C54.428787,145.832642 60.533272,135.853638 70.883583,127.727219 
	C92.959961,110.394241 116.689812,95.593086 140.768295,81.318123 
	C170.437210,63.728855 200.815628,47.543186 232.246246,33.206684 
	C250.174179,25.029182 266.585419,26.286671 283.971893,34.200745 
	C318.455170,49.897003 351.443634,68.279655 383.847565,87.791451 
	C402.118561,98.793182 420.067200,110.294098 437.104156,123.159378 
	C439.097717,124.664787 440.950867,126.365593 443.001648,127.784195 
	C455.648712,136.532654 460.708496,149.207977 462.334320,163.930038 
	C464.691864,185.277954 465.661987,206.681656 466.610504,228.131668 
	C467.701935,252.813217 466.823364,277.420898 466.132996,302.042511 
	C465.620453,320.322205 463.913391,338.541168 461.319214,356.687805 
	C459.228546,371.312408 450.370239,380.808624 439.279236,389.138641 
	C410.578308,410.694794 379.933594,429.197571 348.683746,446.711487 
	C324.136902,460.468689 299.387634,473.849365 273.005981,483.948944 
	C261.999481,488.162476 251.402710,488.082550 240.484329,483.807037 
	C214.666061,473.696808 190.263596,460.742889 166.147690,447.210175 
	C135.774780,430.166321 106.283844,411.767181 77.709305,391.780151 
	C60.743641,379.913177 52.093559,364.624329 50.783230,344.330505 
	C49.733124,328.066895 47.837048,311.858093 47.653419,295.046143 
M427.849335,371.328552 
	C434.532990,366.540009 439.473877,360.915009 440.763245,352.144684 
	C443.746460,331.852325 445.114929,311.430664 445.514923,291.000641 
	C446.264862,252.702133 446.165100,214.408066 442.812988,176.165329 
	C441.435547,160.450714 437.781952,146.708572 422.739105,138.659698 
	C422.305084,138.427460 421.962494,138.030655 421.553619,137.744308 
	C375.726959,105.650322 327.467529,77.812920 276.791870,54.058376 
	C263.506592,47.830818 251.011551,46.044609 238.043060,53.908463 
	C236.774857,54.677483 235.291260,55.084827 233.927277,55.703354 
	C200.490433,70.866096 168.638580,88.965363 137.339584,108.061790 
	C118.705894,119.430740 100.342026,131.212601 83.279709,144.917252 
	C78.127869,149.055267 74.364326,153.771820 73.554436,160.521835 
	C72.544441,168.939728 71.025108,177.317337 70.443985,185.761765 
	C69.003662,206.691223 68.169144,227.646484 68.164207,248.644348 
	C68.156578,281.117432 68.524178,313.549164 72.258690,345.867676 
	C73.455612,356.225830 76.841209,364.583923 85.728897,371.239227 
	C107.251694,387.355957 129.882797,401.694946 152.968582,415.358948 
	C181.367661,432.167816 210.379730,447.799622 240.499985,461.400024 
	C252.012894,466.598511 262.317688,466.383545 273.817230,461.200378 
	C298.009735,450.296112 321.457092,438.033600 344.467621,424.903687 
	C372.987244,408.630157 401.125061,391.732025 427.849335,371.328552 
z"/>
<path fill="#000000" opacity="1.000000" stroke="none" 
	d="
M182.599075,126.595062 
	C187.234207,121.997757 191.813156,117.860268 196.814194,114.239944 
	C203.437881,109.444946 208.727768,109.275124 215.120590,114.213226 
	C226.096573,122.691544 236.189865,132.185928 244.739120,143.126312 
	C253.199966,153.953598 250.420425,161.806519 237.205872,165.346268 
	C234.923325,165.957687 234.430695,167.259491 234.309113,169.289673 
	C232.963547,191.758835 233.373016,214.256424 233.135513,236.743668 
	C233.106918,239.453262 234.124649,240.683563 236.941925,240.670029 
	C250.106781,240.606873 263.272949,240.563339 276.436768,240.696533 
	C280.292816,240.735565 280.668457,238.637161 280.701691,235.601593 
	C280.884216,218.937714 280.422241,202.289825 279.749847,185.643097 
	C279.595306,181.816101 279.566040,177.972916 279.720673,174.146927 
	C280.031525,166.454376 285.454071,160.875092 293.076660,160.727463 
	C303.071716,160.533905 313.076508,160.525208 323.071167,160.729095 
	C331.214783,160.895248 336.383270,166.489883 336.311584,175.115463 
	C336.074799,203.604950 335.566833,232.092346 335.375854,260.581970 
	C335.213898,284.744751 335.339813,308.909546 335.361023,333.073425 
	C335.363068,335.402740 335.606934,337.732269 335.597656,340.061127 
	C335.576660,345.320190 336.842773,348.605408 343.188080,349.776428 
	C350.619995,351.147980 353.223724,358.537415 350.039185,365.531738 
	C348.642334,368.599609 346.638519,371.246094 344.433441,373.761139 
	C336.402435,382.921051 327.923279,391.636353 318.363342,399.213715 
	C311.382294,404.746979 305.963989,404.829498 298.933807,399.349792 
	C288.251282,391.023315 278.799347,381.392151 270.112305,371.020447 
	C267.861542,368.333191 265.973267,365.375732 265.651184,361.701385 
	C265.043671,354.771393 268.592621,349.862091 275.993042,348.925537 
	C280.161072,348.398071 280.725494,346.507050 280.703674,343.043335 
	C280.607147,327.712433 280.547913,312.378510 280.773254,297.050079 
	C280.836304,292.763062 279.665771,291.166443 275.165344,291.265472 
	C263.006012,291.532990 250.834244,291.493256 238.672943,291.271423 
	C234.579407,291.196808 233.151199,292.443207 233.192673,296.637512 
	C233.344131,311.959167 233.597153,327.268402 234.215973,342.584412 
	C234.780136,356.547211 229.754730,361.330811 215.957291,361.339081 
	C208.791428,361.343353 201.625504,361.351044 194.459717,361.325653 
	C182.883789,361.284637 177.419128,356.039276 177.675461,344.544220 
	C178.555832,305.063568 178.954269,265.579895 178.629395,226.092041 
	C178.477280,207.602417 177.927704,189.116302 177.688812,170.626923 
	C177.643784,167.141769 176.330338,165.778183 172.843384,165.106308 
	C163.059021,163.220963 159.605545,154.672409 165.003082,146.116516 
	C169.670334,138.718201 176.199097,132.939087 182.599075,126.595062 
M301.350037,211.499664 
	C301.358063,223.996887 301.392059,236.494156 301.365387,248.991302 
	C301.346222,257.962311 297.973480,261.328003 288.974457,261.338806 
	C267.812073,261.364227 246.649643,261.357147 225.487259,261.341766 
	C215.080048,261.334198 211.667603,257.953369 211.693130,247.645370 
	C211.764526,218.829971 212.344101,190.027618 213.616074,161.236343 
	C213.865067,155.600388 214.201401,150.263443 219.358780,146.136703 
	C215.335205,142.426010 211.681885,139.064072 208.037811,135.692139 
	C206.735046,134.486664 205.495651,134.384750 204.084686,135.606277 
	C200.339172,138.848923 196.320007,141.811539 193.377869,146.179138 
	C196.339355,149.422592 198.366592,152.855148 198.327179,157.341995 
	C198.229126,168.501495 198.915924,179.661804 198.990280,190.806534 
	C199.289368,235.627823 199.118530,280.452240 199.105942,325.275513 
	C199.105423,327.106018 199.027298,328.943878 198.853302,330.765717 
	C197.882645,340.929993 197.868103,340.777283 208.074722,340.735718 
	C211.830704,340.720459 213.091522,339.426636 212.870316,335.754303 
	C212.269379,325.778992 212.870132,315.780396 212.190506,305.783630 
	C211.660568,297.988495 211.805832,290.117676 212.143021,282.301697 
	C212.482651,274.429840 216.315292,270.710358 223.582245,270.688782 
	C245.910858,270.622437 268.239929,270.620605 290.568542,270.686829 
	C297.235962,270.706604 300.643372,273.751740 301.714813,280.379456 
	C302.031158,282.336609 302.094208,284.363647 302.024048,286.349884 
	C301.294525,307.000732 301.320953,327.658478 301.331818,348.317413 
	C301.335510,355.346985 302.943085,362.803101 295.782379,368.197235 
	C299.689056,371.919067 303.050140,375.121674 306.412018,378.323486 
	C307.517334,379.376190 308.682892,379.665436 309.953857,378.597321 
	C313.741852,375.413971 317.557098,372.256958 320.607910,368.013977 
	C316.709808,364.558136 314.898041,360.504547 314.844757,355.536957 
	C314.610779,333.717224 313.667175,311.886780 314.099823,290.082458 
	C314.754150,257.106079 314.147644,224.115356 315.538177,191.146164 
	C315.988190,180.476532 317.530945,181.531479 305.736511,181.344757 
	C302.273651,181.289948 300.989685,182.532532 301.087433,186.007385 
	C301.317078,194.167450 301.279633,202.335037 301.350037,211.499664 
z"/>
</svg>