<svg version="1.1" id="Layer_1" xmlns="http://www.w3.org/2000/svg" xmlns:xlink="http://www.w3.org/1999/xlink" x="0px" y="0px"
	 width="100%" viewBox="0 0 976 976" enable-background="new 0 0 976 976" xml:space="preserve">
<path fill="#000000" opacity="1.000000" stroke="none" 
	d="
M891.341064,579.000610 
	C891.719055,607.665283 890.712280,635.808167 889.057556,663.903076 
	C886.888428,700.731018 880.197266,736.679138 863.535400,770.002808 
	C837.931641,821.209900 797.722351,855.888062 743.556091,874.432312 
	C717.032959,883.512634 689.627197,887.767639 661.760803,889.195007 
	C583.178101,893.219971 504.521698,892.187256 425.890656,891.898987 
	C396.097870,891.789795 366.274719,891.608459 336.486847,890.182068 
	C302.299805,888.545044 268.471680,885.097412 235.900696,873.563354 
	C185.817154,855.827759 147.798859,823.777832 122.281525,777.314209 
	C108.702415,752.588501 100.777985,725.771545 96.708946,697.860901 
	C91.093475,659.342834 91.203644,620.526917 90.602882,581.734070 
	C89.833954,532.081665 89.751862,482.424896 90.219727,432.778076 
	C90.517891,401.139282 90.403267,369.484283 91.858696,337.849121 
	C93.393677,304.484619 96.259033,271.318085 107.265800,239.561600 
	C132.696060,166.190720 183.906998,120.808556 258.816711,101.694206 
	C281.001648,96.033379 303.642426,93.760666 326.471222,92.567062 
	C356.431671,91.000572 386.409302,91.017464 416.386841,90.480774 
	C462.542542,89.654449 508.697479,89.892609 554.844360,90.216309 
	C584.816528,90.426552 614.815308,90.360924 644.776428,91.887810 
	C678.104370,93.586281 711.173828,96.584755 743.048401,107.556725 
	C805.719604,129.129593 848.863831,170.783493 872.297241,232.753098 
	C881.790161,257.857056 886.400696,284.003113 888.380127,310.707520 
	C891.066711,346.953674 890.993591,383.258087 891.519592,419.566467 
	C892.154541,463.390564 891.603699,507.208649 891.853577,551.028442 
	C891.905823,560.184570 891.523926,569.343201 891.341064,579.000610 
M214.485886,777.016724 
	C233.040924,794.378479 255.479935,803.980591 279.850861,809.707458 
	C309.776184,816.739563 340.382385,817.094116 370.783142,817.422729 
	C454.927948,818.332642 539.087646,818.988525 623.232971,816.961487 
	C644.207275,816.456238 665.177551,815.890503 685.981750,812.719055 
	C705.718811,809.710327 724.849792,804.602112 742.360107,794.882507 
	C784.591980,771.440674 805.417786,733.775269 812.606079,687.358459 
	C816.619446,661.443237 816.644348,635.238464 817.516602,609.131287 
	C818.434448,581.660950 818.408508,554.154968 818.521240,526.663391 
	C818.607300,505.670471 818.283020,484.675629 818.112549,463.681885 
	C817.679749,410.386261 819.030090,357.034180 813.731140,303.881805 
	C811.413879,280.638733 805.602295,258.254730 793.924316,237.854111 
	C772.489380,200.408432 739.235901,179.728348 697.640381,171.322968 
	C668.250183,165.383972 638.359619,164.769257 608.600281,164.506729 
	C520.785522,163.732056 432.955994,162.735901 345.152954,165.423813 
	C321.859894,166.136887 298.588715,167.560867 275.806000,173.252029 
	C241.842056,181.736313 214.008743,199.377945 193.982758,228.348648 
	C178.448227,250.821762 171.657852,276.487457 168.281784,303.210510 
	C165.354279,326.382996 165.160934,349.736969 164.485199,373.022034 
	C163.586319,403.997101 163.540619,435.002380 163.493713,465.995270 
	C163.441528,500.485199 163.791870,534.975830 163.982117,569.466064 
	C164.108963,592.459656 164.240753,615.459229 165.423904,638.424255 
	C166.245468,654.370789 166.797363,670.334351 169.292038,686.180481 
	C174.775146,721.009155 187.045410,752.361633 214.485886,777.016724 
z"/>
<path fill="#000000" opacity="1.000000" stroke="none" 
	d="
M284.812836,497.917267 
	C283.837433,442.954346 300.679749,394.747498 336.884308,353.966217 
	C369.207031,317.557526 409.753265,295.245300 457.989075,287.613342 
	C511.903534,279.082977 561.774292,290.092712 606.946899,320.593231 
	C645.953613,346.930511 673.587280,382.636871 687.080505,427.777496 
	C711.085693,508.084869 693.382874,579.116821 634.590637,638.733093 
	C600.135010,673.671631 557.200073,692.283142 508.152496,696.369019 
	C459.485565,700.423218 414.738525,688.759277 374.617432,661.219543 
	C332.354218,632.209290 304.605347,592.511658 291.460175,542.767395 
	C287.611359,528.202698 285.641479,513.401306 284.812836,497.917267 
M460.440247,619.940613 
	C488.055023,626.735901 515.135986,624.509460 541.193848,613.618896 
	C605.885925,586.581543 638.107605,516.858215 617.241760,450.095917 
	C593.264282,373.377350 502.004944,335.630737 430.724274,372.948608 
	C367.044586,406.287109 340.738281,481.076782 370.716858,546.298340 
	C388.369690,584.704041 418.579620,609.088623 460.440247,619.940613 
z"/>
<path fill="#000000" opacity="1.000000" stroke="none" 
	d="
M751.532471,264.732910 
	C759.765503,294.042511 738.386230,325.634796 705.250916,326.186798 
	C681.813171,326.577271 661.928833,310.568970 656.906189,287.731293 
	C651.922485,265.070923 663.370483,242.733490 685.076965,232.764236 
	C705.370117,223.444077 730.200317,230.162613 744.002747,248.647964 
	C747.544983,253.392014 749.944519,258.633453 751.532471,264.732910 
z"/>
</svg>