<svg version="1.1" id="Layer_1" xmlns="http://www.w3.org/2000/svg" xmlns:xlink="http://www.w3.org/1999/xlink" x="0px" y="0px"
	 width="100%" viewBox="0 0 377 413" enable-background="new 0 0 377 413" xml:space="preserve">
<path fill="#FEFEFE" opacity="1.000000" stroke="none" 
	d="
M196.000000,414.000000 
	C130.687180,414.000000 65.874359,414.000000 1.061536,414.000000 
	C1.041024,413.853912 1.002533,413.707794 1.002531,413.561707 
	C0.999981,276.105194 1.000000,138.648697 1.000000,1.096101 
	C126.562782,1.096101 252.125656,1.096101 377.844269,1.096101 
	C377.844269,138.666534 377.844269,276.333252 377.844269,414.000000 
	C317.461517,414.000000 256.980774,414.000000 196.000000,414.000000 
M235.001068,112.998650 
	C235.001068,112.998650 235.030045,112.945946 234.840073,112.489830 
	C234.634689,112.206406 234.358734,112.039886 233.570160,111.811546 
	C233.272751,111.661896 233.059036,111.433823 232.972885,110.342285 
	C231.640472,109.568321 230.308075,108.794350 229.000610,108.000328 
	C229.000610,108.000328 228.981979,108.027046 228.937958,107.294167 
	C226.910080,106.226982 224.882202,105.159798 222.319138,103.947456 
	C221.893173,103.607651 221.467224,103.267845 220.948547,102.222511 
	C220.135864,101.488831 219.440384,100.501472 218.491318,100.062996 
	C212.700562,97.387604 206.852188,94.836891 201.397385,91.670609 
	C212.796326,80.222778 224.226837,68.806129 235.580765,57.313820 
	C241.152893,51.673763 243.097580,44.807007 241.382889,37.114429 
	C239.569214,28.977781 234.414398,23.523535 226.524796,21.087343 
	C217.294678,18.237217 209.691742,21.383514 203.034149,28.054914 
	C153.387283,77.804817 103.572006,127.387047 54.015373,177.226517 
	C19.251387,212.188904 18.644159,266.046600 52.522324,301.849762 
	C64.759880,314.782684 77.511292,327.236786 90.219330,339.714783 
	C101.000015,350.300293 112.055840,360.605621 122.988403,371.768677 
	C124.795853,376.227081 128.623260,378.839905 132.607574,378.012421 
	C133.079025,378.323761 133.550491,378.635101 134.071518,379.689178 
	C136.737076,380.766144 139.402634,381.843109 142.031509,382.927307 
	C142.031509,382.927307 142.075455,382.903900 142.109955,383.603912 
	C142.648621,384.170258 143.096603,385.079651 143.740021,385.249725 
	C149.966690,386.895660 156.214066,388.470642 162.492508,389.903778 
	C163.228760,390.071808 164.187866,389.263458 165.680817,388.920685 
	C166.095261,389.011871 166.509705,389.103058 167.179001,389.942017 
	C173.197708,391.274475 179.213120,392.531586 185.751389,389.025513 
	C186.487640,388.989960 187.223877,388.954407 188.357773,389.511353 
	C191.292435,392.674988 193.914230,389.587067 196.390045,388.800629 
	C201.071716,387.313599 205.520050,385.091888 210.598816,382.824921 
	C211.382950,382.518127 212.167068,382.211365 213.338470,382.441711 
	C215.285172,381.353943 217.231857,380.266174 219.980362,379.091888 
	C223.022934,379.154907 225.900467,378.988159 226.159592,374.435669 
	C226.375565,374.191833 226.644348,374.043915 227.667374,374.027771 
	C228.502991,373.409698 229.338608,372.791626 230.888382,372.069855 
	C232.625534,371.166626 234.687057,370.602814 236.046234,369.304016 
	C243.799988,361.894806 251.463348,354.385956 258.973022,346.730042 
	C260.746613,344.921936 261.811981,342.419159 263.937378,340.086670 
	C265.043274,338.796539 266.149139,337.506439 267.946869,336.090546 
	C270.317444,333.432953 272.688019,330.775360 275.320801,327.558258 
	C276.185028,326.692474 277.049225,325.826691 278.650787,324.933289 
	C283.334167,321.708099 285.342407,312.830322 282.115662,308.202026 
	C282.065613,307.476318 282.015564,306.750610 282.511444,305.587982 
	C282.498016,302.737000 282.866272,299.670013 278.438629,298.821808 
	C278.222107,298.573639 278.085480,298.287354 278.037048,297.199707 
	C276.776642,291.125763 268.073853,286.724182 261.184479,289.109589 
	C260.135590,289.125061 259.086670,289.140503 257.614044,288.561157 
	C254.688614,289.243958 251.626266,289.587250 248.873260,290.697540 
	C245.610931,292.013275 241.977982,293.398712 242.000000,298.000000 
	C242.000000,298.000000 241.988190,297.991302 241.233124,297.976166 
	C240.604218,298.128113 239.776642,298.075104 239.376511,298.463013 
	C234.245163,303.437561 229.164688,308.464966 224.118011,313.525513 
	C223.852600,313.791656 224.005478,314.474884 223.235855,315.072906 
	C221.641647,315.847015 219.719940,316.282623 218.509750,317.453613 
	C213.174286,322.616150 208.195496,328.152222 202.783661,333.229126 
	C199.415771,336.388580 195.505112,338.969452 190.994904,341.915375 
	C184.671387,342.284149 178.344559,342.606384 172.026993,343.058319 
	C170.653793,343.156525 169.313858,343.719574 167.319427,344.073456 
	C166.906906,343.975494 166.494385,343.877533 165.916733,343.141937 
	C164.260132,342.802704 162.603546,342.463501 160.296585,342.048706 
	C159.879395,341.922333 159.462219,341.795990 158.789398,341.326385 
	C158.571884,341.121796 158.314163,341.009125 157.999390,341.000000 
	C157.999390,341.000000 158.012741,340.983215 157.944809,340.268402 
	C155.785538,336.801697 152.666946,335.518890 148.092575,335.913727 
	C142.560226,330.389099 137.016327,324.875977 131.497742,319.337616 
	C115.288406,303.070312 98.710426,287.148804 82.991219,270.420593 
	C66.907219,253.304138 67.137566,226.482010 83.409187,209.777390 
	C105.695702,186.897766 128.544739,164.566086 151.564377,141.897079 
	C151.833481,141.757507 152.004211,141.540512 152.036987,141.053909 
	C152.036987,141.053909 152.231461,141.027847 152.514404,141.500290 
	C152.668228,141.600449 152.822067,141.700607 153.249298,142.327560 
	C153.844788,142.490631 154.518616,142.922119 155.023514,142.774765 
	C159.511047,141.465088 164.003540,140.151855 168.409592,138.598618 
	C169.453720,138.230545 170.178268,136.955872 171.677979,135.956345 
	C172.106140,135.953674 172.534317,135.951004 173.523651,136.556229 
	C182.557510,137.188095 191.357712,138.593765 199.126419,143.786728 
	C199.826508,144.254700 201.069702,143.910202 201.993546,143.986618 
	C201.993546,143.986618 202.053650,143.930695 202.014999,144.676437 
	C204.801331,146.933868 207.587662,149.191299 210.452087,151.549744 
	C210.452087,151.549744 210.550110,151.631561 210.238907,152.332413 
	C214.562912,157.051895 218.841644,161.814774 223.270386,166.433823 
	C223.801117,166.987366 225.146759,166.759583 226.002991,166.994507 
	C226.002991,166.994507 226.101425,166.880859 226.071625,167.581512 
	C227.323273,168.779831 228.574921,169.978134 229.929596,171.880127 
	C233.173019,177.168686 236.304489,182.580048 243.547470,184.118973 
	C243.800858,184.296310 243.982224,184.529633 244.029968,185.573654 
	C246.498901,191.578232 252.476471,191.844299 257.387543,192.683640 
	C260.697754,193.249390 264.476532,191.073395 268.477142,189.988663 
	C268.477142,189.988663 268.928253,189.958435 269.720093,190.037506 
	C273.521149,189.715714 276.776520,188.723145 276.999420,184.001526 
	C276.999420,184.001526 277.070404,184.052338 277.821533,184.031754 
	C278.687134,183.628311 279.876068,183.460114 280.367554,182.784531 
	C284.578247,176.996414 284.829407,163.503403 280.808014,157.345963 
	C280.322754,156.602936 278.950134,156.439423 278.000000,156.000000 
	C278.000000,156.000000 277.994171,156.012238 277.851746,155.535324 
	C277.669922,155.233261 277.407043,155.043396 276.999695,154.998856 
	C276.999695,154.998856 277.044556,154.942352 277.042419,154.216034 
	C273.215393,149.597717 269.632416,144.747391 265.509094,140.410767 
	C257.618622,132.112076 249.488571,124.035889 241.278076,116.052338 
	C240.035507,114.844101 237.825150,114.631142 236.019730,113.971756 
	C236.019730,113.971756 236.035156,113.934456 235.850296,113.486313 
	C235.655426,113.205170 235.389893,113.032921 235.001068,112.998650 
M319.836975,262.107758 
	C330.738037,260.366455 339.561310,250.329330 338.810944,240.523422 
	C337.862518,228.129257 328.978394,218.977600 317.517517,218.965515 
	C266.195251,218.911438 214.872833,218.918747 163.550552,218.975952 
	C153.011444,218.987701 143.454941,227.797729 142.943130,237.642166 
	C142.237610,251.212967 149.054794,260.392426 161.944916,262.089050 
	C214.310928,262.076813 266.676941,262.064545 319.836975,262.107758 
z"/>
<path fill="#030202" opacity="1.000000" stroke="none" 
	d="
M122.989922,371.034912 
	C112.055840,360.605621 101.000015,350.300293 90.219330,339.714783 
	C77.511292,327.236786 64.759880,314.782684 52.522324,301.849762 
	C18.644159,266.046600 19.251387,212.188904 54.015373,177.226517 
	C103.572006,127.387047 153.387283,77.804817 203.034149,28.054914 
	C209.691742,21.383514 217.294678,18.237217 226.524796,21.087343 
	C234.414398,23.523535 239.569214,28.977781 241.382889,37.114429 
	C243.097580,44.807007 241.152893,51.673763 235.580765,57.313820 
	C224.226837,68.806129 212.796326,80.222778 200.921509,92.047188 
	C199.839737,93.202339 199.233841,93.980911 198.303467,94.829117 
	C193.620819,99.197594 189.215897,103.450226 184.913651,107.804337 
	C173.995056,118.854599 163.122467,129.950333 152.231461,141.027847 
	C152.231461,141.027847 152.036987,141.053909 151.786285,141.058426 
	C151.407959,141.375153 151.280319,141.687363 151.152679,141.999573 
	C128.544739,164.566086 105.695702,186.897766 83.409187,209.777390 
	C67.137566,226.482010 66.907219,253.304138 82.991219,270.420593 
	C98.710426,287.148804 115.288406,303.070312 131.497742,319.337616 
	C137.016327,324.875977 142.560226,330.389099 148.500916,336.348389 
	C149.615555,337.540314 150.321854,338.297607 151.028336,339.429749 
	C155.515244,348.066559 154.474075,356.072021 149.616425,364.076691 
	C143.223236,371.683929 135.197235,373.477570 125.794601,372.027527 
	C124.650604,371.613007 123.820267,371.323944 122.989922,371.034912 
z"/>
<path fill="#B3B3B3" opacity="1.000000" stroke="none" 
	d="
M161.015854,261.977417 
	C149.054794,260.392426 142.237610,251.212967 142.943130,237.642166 
	C143.454941,227.797729 153.011444,218.987701 163.550552,218.975952 
	C214.872833,218.918747 266.195251,218.911438 317.517517,218.965515 
	C328.978394,218.977600 337.862518,228.129257 338.810944,240.523422 
	C339.561310,250.329330 330.738037,260.366455 319.146545,261.773254 
	C317.482269,261.292755 316.508453,261.019318 315.534515,261.018921 
	C265.424316,260.997955 215.314087,260.992310 165.203949,261.040955 
	C163.807617,261.042297 162.411865,261.651611 161.015854,261.977417 
z"/>
<path fill="#DFA643" opacity="1.000000" stroke="none" 
	d="
M152.372925,141.264069 
	C163.122467,129.950333 173.995056,118.854599 184.913651,107.804337 
	C189.215897,103.450226 193.620819,99.197594 198.719788,94.878830 
	C206.654160,97.548622 213.847717,100.238335 221.041260,102.928040 
	C221.467224,103.267845 221.893173,103.607651 222.771759,104.282196 
	C224.540970,105.673973 225.857544,106.731018 227.088409,107.886444 
	C227.002716,107.984818 226.828705,108.179253 226.461365,108.124832 
	C218.900772,104.924034 211.498123,102.168640 204.598785,98.473473 
	C200.909561,96.497589 199.011826,97.378700 196.471527,99.910995 
	C189.477615,106.882957 182.175995,113.546890 175.204254,120.540192 
	C170.953217,124.804382 167.086884,129.452072 162.292358,134.764496 
	C164.407928,134.597122 165.318344,134.613586 166.191910,134.442200 
	C174.395248,132.832748 182.366028,132.565063 190.632233,135.175812 
	C206.395401,140.154312 215.470642,153.278961 226.869293,163.586258 
	C227.668823,164.309235 227.603943,165.988129 227.632294,167.167999 
	C226.916199,167.035934 226.508804,166.958389 226.101425,166.880859 
	C226.101425,166.880859 226.002991,166.994507 225.993439,166.614075 
	C220.839294,161.366272 215.694702,156.498917 210.550110,151.631561 
	C210.550110,151.631561 210.452087,151.549744 210.355927,151.191925 
	C207.524384,148.532974 204.789017,146.231827 202.053650,143.930695 
	C202.053650,143.930695 201.993546,143.986618 201.879868,143.656189 
	C193.073624,137.318893 183.661697,134.120651 172.962479,135.948349 
	C172.534317,135.951004 172.106140,135.953674 170.946228,135.957489 
	C164.468292,137.906021 158.722092,139.853394 152.975906,141.800766 
	C152.822067,141.700607 152.668228,141.600449 152.372925,141.264069 
z"/>
<path fill="#DAA950" opacity="1.000000" stroke="none" 
	d="
M126.108246,372.152954 
	C135.197235,373.477570 143.223236,371.683929 149.691132,364.148987 
	C150.059326,364.058594 150.209991,364.201904 150.155243,364.548889 
	C147.087082,372.455170 139.862915,373.148651 133.089478,375.394348 
	C137.391006,378.041718 141.665634,380.434723 146.219833,382.029205 
	C158.290054,386.255127 170.750275,388.983490 183.547562,386.984436 
	C192.094711,385.649261 200.428207,382.964203 208.876831,380.965729 
	C210.599533,380.558197 212.409317,380.518890 214.055267,380.535156 
	C213.604782,381.141815 213.277985,381.523193 212.951202,381.904572 
	C212.167068,382.211365 211.382950,382.518127 209.949936,382.969116 
	C202.187408,385.048492 195.073776,386.983673 187.960129,388.918854 
	C187.223877,388.954407 186.487640,388.989960 184.923630,389.018311 
	C178.371964,389.072174 172.648056,389.133209 166.924149,389.194244 
	C166.509705,389.103058 166.095261,389.011871 165.068451,388.664154 
	C156.995865,386.573059 149.535660,384.738464 142.075455,382.903900 
	C142.075455,382.903900 142.031509,382.927307 141.856766,382.641296 
	C139.128662,381.218994 136.575302,380.082733 134.021942,378.946442 
	C133.550491,378.635101 133.079025,378.323761 132.121094,377.713745 
	C129.792511,375.661011 127.950378,373.906982 126.108246,372.152954 
z"/>
<path fill="#DFA643" opacity="1.000000" stroke="none" 
	d="
M268.928253,189.958435 
	C268.928253,189.958435 268.477142,189.988663 267.843628,190.034454 
	C259.231781,192.162949 251.889832,191.406113 245.852158,185.163544 
	C245.951263,185.055496 246.151031,184.843735 246.513092,184.901337 
	C248.050217,185.530258 249.191010,186.190689 250.406113,186.657928 
	C256.749969,189.097473 263.471222,190.529388 269.486053,186.800186 
	C281.969818,179.060211 283.222168,164.775513 272.834564,154.317245 
	C267.233856,148.678452 261.568329,143.103210 256.027466,137.406494 
	C254.802994,136.147614 253.981735,134.496582 253.121567,132.900101 
	C253.268311,132.774094 253.549927,132.508881 253.856995,132.634521 
	C261.790894,140.154221 269.417725,147.548279 277.044556,154.942352 
	C277.044556,154.942352 276.999695,154.998856 277.088318,155.231140 
	C277.449341,155.646378 277.721741,155.829315 277.994171,156.012238 
	C277.994171,156.012238 278.000000,156.000000 278.082306,156.352661 
	C284.114258,166.073639 282.672180,175.146210 277.070404,184.052338 
	C277.070404,184.052338 276.999420,184.001526 276.705292,184.136200 
	C273.916840,186.166718 271.422546,188.062561 268.928253,189.958435 
z"/>
<path fill="#A4A4A4" opacity="1.000000" stroke="none" 
	d="
M161.480377,262.033234 
	C162.411865,261.651611 163.807617,261.042297 165.203949,261.040955 
	C215.314087,260.992310 265.424316,260.997955 315.534515,261.018921 
	C316.508453,261.019318 317.482269,261.292755 318.749542,261.745544 
	C266.676941,262.064545 214.310928,262.076813 161.480377,262.033234 
z"/>
<path fill="#FDF2CD" opacity="1.000000" stroke="none" 
	d="
M277.043488,154.579193 
	C269.417725,147.548279 261.790894,140.154221 253.722870,132.335754 
	C247.541931,125.926849 241.802185,119.942329 236.062439,113.957825 
	C237.825150,114.631142 240.035507,114.844101 241.278076,116.052338 
	C249.488571,124.035889 257.618622,132.112076 265.509094,140.410767 
	C269.632416,144.747391 273.215393,149.597717 277.043488,154.579193 
z"/>
<path fill="#DAA850" opacity="1.000000" stroke="none" 
	d="
M149.984619,363.986298 
	C154.474075,356.072021 155.515244,348.066559 151.395157,339.360779 
	C153.845428,339.605713 155.929077,340.294464 158.012741,340.983215 
	C158.012741,340.983215 157.999390,341.000000 158.088257,341.218628 
	C158.177109,341.437225 158.570206,341.705963 158.570206,341.705963 
	C158.570206,341.705963 159.045029,341.669617 159.045029,341.669617 
	C159.462219,341.795990 159.879395,341.922333 160.848297,342.344208 
	C162.960617,343.019653 164.521240,343.399628 166.081863,343.779602 
	C166.494385,343.877533 166.906906,343.975494 167.963654,344.331848 
	C175.728104,344.371918 182.848297,344.153564 189.809753,344.282074 
	C183.461288,347.834564 176.839691,347.419952 170.319412,346.497833 
	C165.360809,345.796539 160.515259,344.295654 154.867661,342.974701 
	C155.254807,345.444275 155.492111,347.175262 155.801880,348.893158 
	C156.735733,354.072052 153.878601,361.930206 150.209991,364.201904 
	C150.209991,364.201904 150.059326,364.058594 149.984619,363.986298 
z"/>
<path fill="#FEF2CD" opacity="1.000000" stroke="none" 
	d="
M263.203156,340.235931 
	C261.811981,342.419159 260.746613,344.921936 258.973022,346.730042 
	C251.463348,354.385956 243.799988,361.894806 236.046234,369.304016 
	C234.687057,370.602814 232.625534,371.166626 230.440826,372.024323 
	C229.993271,371.978790 229.820343,371.781708 229.990646,371.537903 
	C230.797821,370.549927 231.434677,369.805725 232.045715,369.029175 
	C232.019897,368.996887 232.042267,369.076416 232.303009,369.011841 
	C232.737946,368.649811 232.912125,368.352386 233.047150,368.033875 
	C233.008011,368.012787 233.055603,368.087921 233.319519,368.029785 
	C233.757416,367.676208 233.931427,367.380737 234.083893,367.100769 
	C234.062347,367.116272 234.118210,367.109222 234.411209,367.044281 
	C235.470169,366.340759 236.236145,365.702148 237.255936,364.979614 
	C237.673492,364.594238 237.837250,364.292816 237.999054,363.995178 
	C237.997101,363.998962 237.988831,364.003937 238.302567,363.888245 
	C241.081665,361.181824 243.547028,358.591156 246.005585,355.999634 
	C245.998779,355.998779 246.000381,356.012360 246.273651,355.913757 
	C246.796432,355.319092 247.045944,354.823090 247.299118,354.295471 
	C247.302780,354.263855 247.364594,354.248657 247.588928,354.196991 
	C248.103928,353.971436 248.250153,353.715118 248.302292,353.358032 
	C248.352661,353.339661 248.447708,353.290070 248.761307,353.226501 
	C251.139801,350.905273 253.204681,348.647644 255.283447,346.350525 
	C255.297348,346.311035 255.328781,346.233398 255.560623,346.172668 
	C256.090393,345.923157 256.236877,345.652405 256.197906,345.207703 
	C256.163910,345.115723 256.282135,345.272247 256.568756,345.234680 
	C257.229584,344.786316 257.603790,344.375580 257.987244,343.980591 
	C257.996490,343.996338 257.965118,343.978119 258.237976,343.874268 
	C258.767975,343.272491 259.025085,342.774567 259.133820,342.193207 
	C258.985413,342.109741 259.279541,342.289551 259.569946,342.257507 
	C260.253754,341.826141 260.647156,341.426849 261.021240,341.012756 
	C261.001892,340.997925 261.019775,341.043121 261.268860,340.960388 
	C261.670898,340.576965 261.823853,340.276245 261.986572,339.987183 
	C261.996338,339.998779 261.971008,339.974976 262.215515,339.979248 
	C262.460052,339.983551 262.946564,339.933167 263.011353,340.008331 
	C263.076111,340.083496 263.203156,340.235931 263.203156,340.235931 
z"/>
<path fill="#FEF2CD" opacity="1.000000" stroke="none" 
	d="
M191.838058,341.809998 
	C195.505112,338.969452 199.415771,336.388580 202.783661,333.229126 
	C208.195496,328.152222 213.174286,322.616150 218.509750,317.453613 
	C219.719940,316.282623 221.641647,315.847015 223.747955,315.165161 
	C224.260071,315.257446 224.555878,315.550110 224.375778,315.793335 
	C223.709335,316.898346 223.222977,317.760162 222.723572,318.660522 
	C222.710526,318.699036 222.682648,318.775452 222.447983,318.840332 
	C221.917603,319.108429 221.779251,319.389221 221.770508,319.755859 
	C221.742752,319.764130 221.685242,319.771179 221.374786,319.821167 
	C220.291931,320.799011 219.519531,321.726868 218.741333,322.687866 
	C218.735550,322.721039 218.717941,322.786011 218.482361,322.845642 
	C217.959534,323.104584 217.803864,323.378662 217.765472,323.828949 
	C217.751144,323.930420 217.746658,323.725128 217.453003,323.755798 
	C216.770554,324.193726 216.381775,324.600983 215.997864,325.005371 
	C216.002731,325.002441 216.009186,324.993286 215.759430,325.067413 
	C215.337723,325.430939 215.165756,325.720306 214.998184,326.006226 
	C215.002579,326.002777 215.008926,325.993805 214.720215,326.077942 
	C213.951050,326.776703 213.470596,327.391296 212.996277,328.004211 
	C213.002426,328.002472 213.006287,327.990784 212.690002,328.101654 
	C210.481689,330.304474 208.589676,332.396423 206.676544,334.534180 
	C206.655441,334.579987 206.589340,334.656189 206.290894,334.683228 
	C205.646622,335.149170 205.300797,335.588104 204.777557,336.310730 
	C201.674103,338.301331 198.748047,340.008209 195.455109,341.742432 
	C194.122269,341.931366 193.156311,342.093048 192.102753,342.143188 
	C192.015152,342.031616 191.838058,341.809998 191.838058,341.809998 
z"/>
<path fill="#DEAC53" opacity="1.000000" stroke="none" 
	d="
M258.037781,289.156006 
	C259.086670,289.140503 260.135590,289.125061 261.852386,289.339294 
	C266.944763,290.612640 271.833893,290.755341 273.911316,295.717468 
	C260.166748,287.563904 250.118271,290.982574 241.942902,301.725189 
	C241.114227,302.814087 239.185211,303.065643 237.833496,303.382996 
	C239.262863,301.370575 240.625534,299.680939 241.988190,297.991302 
	C241.988190,297.991302 242.000000,298.000000 242.313583,297.882263 
	C247.764038,294.895020 252.900909,292.025513 258.037781,289.156006 
z"/>
<path fill="#DFA643" opacity="1.000000" stroke="none" 
	d="
M236.041077,113.964783 
	C241.802185,119.942329 247.541931,125.926849 253.415802,132.210114 
	C253.549927,132.508881 253.268311,132.774094 252.757553,132.884506 
	C251.268723,132.490616 250.102676,132.181549 249.343155,131.450256 
	C244.493927,126.781349 239.669434,122.082710 234.969193,117.264671 
	C232.132263,114.356628 229.534149,111.215591 226.828705,108.179253 
	C226.828705,108.179253 227.002716,107.984818 227.387482,107.946060 
	C228.175507,107.947212 228.578735,107.987129 228.981979,108.027046 
	C228.981979,108.027046 229.000610,108.000328 229.122391,108.308304 
	C230.472443,109.453300 231.700714,110.290314 232.928986,111.127327 
	C233.059036,111.433823 233.272751,111.661896 233.865845,112.145447 
	C234.451035,112.634872 234.740540,112.790413 235.030045,112.945946 
	C235.030045,112.945946 235.001068,112.998650 235.086960,113.232559 
	C235.460281,113.622467 235.747726,113.778465 236.035156,113.934456 
	C236.035156,113.934456 236.019730,113.971756 236.041077,113.964783 
z"/>
<path fill="#FDF2CD" opacity="1.000000" stroke="none" 
	d="
M277.445984,184.042053 
	C282.672180,175.146210 284.114258,166.073639 278.076691,156.356323 
	C278.950134,156.439423 280.322754,156.602936 280.808014,157.345963 
	C284.829407,163.503403 284.578247,176.996414 280.367554,182.784531 
	C279.876068,183.460114 278.687134,183.628311 277.445984,184.042053 
z"/>
<path fill="#FEF2CD" opacity="1.000000" stroke="none" 
	d="
M241.610657,297.983734 
	C240.625534,299.680939 239.262863,301.370575 237.836929,303.407196 
	C237.773666,303.754211 237.760239,303.799255 237.442581,303.833771 
	C236.085007,304.916809 235.045074,305.965332 234.003189,307.007538 
	C234.001221,307.001221 234.013763,307.004944 233.708710,307.116333 
	C232.516953,308.377930 231.630264,309.528107 230.745331,310.704926 
	C230.747086,310.731598 230.731949,310.782867 230.495758,310.847839 
	C229.959198,311.104004 229.800186,311.377411 229.755432,311.739563 
	C229.728363,311.746094 229.672668,311.745239 229.357025,311.806396 
	C227.546219,313.095062 226.051041,314.322571 224.555878,315.550110 
	C224.555878,315.550110 224.260071,315.257446 224.111847,315.110718 
	C224.005478,314.474884 223.852600,313.791656 224.118011,313.525513 
	C229.164688,308.464966 234.245163,303.437561 239.376511,298.463013 
	C239.776642,298.075104 240.604218,298.128113 241.610657,297.983734 
z"/>
<path fill="#FDF2CD" opacity="1.000000" stroke="none" 
	d="
M173.243073,136.252289 
	C183.661697,134.120651 193.073624,137.318893 201.913422,143.634399 
	C201.069702,143.910202 199.826508,144.254700 199.126419,143.786728 
	C191.357712,138.593765 182.557510,137.188095 173.243073,136.252289 
z"/>
<path fill="#FDF2CD" opacity="1.000000" stroke="none" 
	d="
M245.753052,185.271576 
	C251.889832,191.406113 259.231781,192.162949 267.627930,190.102081 
	C264.476532,191.073395 260.697754,193.249390 257.387543,192.683640 
	C252.476471,191.844299 246.498901,191.578232 244.346466,185.235382 
	C245.026306,185.021927 245.389679,185.146759 245.753052,185.271576 
z"/>
<path fill="#DEAC53" opacity="1.000000" stroke="none" 
	d="
M281.965515,306.024902 
	C282.015564,306.750610 282.065613,307.476318 282.106628,308.992645 
	C280.820160,314.268250 279.542694,318.753204 278.153137,323.136536 
	C278.041046,323.034851 277.821655,322.829742 277.878937,322.448212 
	C280.929321,313.653839 282.029785,305.459351 275.287781,298.104248 
	C275.063080,297.859131 275.335693,297.158173 275.677795,296.700714 
	C276.662292,297.142151 277.345520,297.552551 278.028748,297.962921 
	C278.085480,298.287354 278.222107,298.573639 278.701538,299.305969 
	C279.964813,301.868378 280.965179,303.946625 281.965515,306.024902 
z"/>
<path fill="#FDF2CD" opacity="1.000000" stroke="none" 
	d="
M220.994904,102.575272 
	C213.847717,100.238335 206.654160,97.548622 199.044281,94.809204 
	C199.233841,93.980911 199.839737,93.202339 200.734344,92.334183 
	C206.852188,94.836891 212.700562,97.387604 218.491318,100.062996 
	C219.440384,100.501472 220.135864,101.488831 220.994904,102.575272 
z"/>
<path fill="#FDF2CD" opacity="1.000000" stroke="none" 
	d="
M210.394501,151.981995 
	C215.694702,156.498917 220.839294,161.366272 226.049286,166.563782 
	C225.146759,166.759583 223.801117,166.987366 223.270386,166.433823 
	C218.841644,161.814774 214.562912,157.051895 210.394501,151.981995 
z"/>
<path fill="#FEF2CD" opacity="1.000000" stroke="none" 
	d="
M142.092712,383.253906 
	C149.535660,384.738464 156.995865,386.573059 164.749863,388.657715 
	C164.187866,389.263458 163.228760,390.071808 162.492508,389.903778 
	C156.214066,388.470642 149.966690,386.895660 143.740021,385.249725 
	C143.096603,385.079651 142.648621,384.170258 142.092712,383.253906 
z"/>
<path fill="#FEF2CD" opacity="1.000000" stroke="none" 
	d="
M189.968506,343.935211 
	C182.848297,344.153564 175.728104,344.371918 168.283249,344.329407 
	C169.313858,343.719574 170.653793,343.156525 172.026993,343.058319 
	C178.344559,342.606384 184.671387,342.284149 191.416473,341.862671 
	C191.838058,341.809998 192.015152,342.031616 191.888428,342.337494 
	C191.155792,343.081879 190.549881,343.520386 189.959259,343.967041 
	C189.974548,343.975250 189.968506,343.935211 189.968506,343.935211 
z"/>
<path fill="#FEF2CD" opacity="1.000000" stroke="none" 
	d="
M188.158951,389.215088 
	C195.073776,386.983673 202.187408,385.048492 209.683197,383.144379 
	C205.520050,385.091888 201.071716,387.313599 196.390045,388.800629 
	C193.914230,389.587067 191.292435,392.674988 188.158951,389.215088 
z"/>
<path fill="#FEF2CD" opacity="1.000000" stroke="none" 
	d="
M278.032898,297.581299 
	C277.345520,297.552551 276.662292,297.142151 275.643158,296.685699 
	C275.307220,296.639648 275.233063,296.623779 275.173523,296.397461 
	C274.915619,295.891998 274.645172,295.757812 274.299377,295.734589 
	C274.296021,295.700562 274.280670,295.633911 274.280670,295.633911 
	C271.833893,290.755341 266.944763,290.612640 262.245453,289.321411 
	C268.073853,286.724182 276.776642,291.125763 278.032898,297.581299 
z"/>
<path fill="#FDF2CD" opacity="1.000000" stroke="none" 
	d="
M153.112610,142.064163 
	C158.722092,139.853394 164.468292,137.906021 170.632141,136.028442 
	C170.178268,136.955872 169.453720,138.230545 168.409592,138.598618 
	C164.003540,140.151855 159.511047,141.465088 155.023514,142.774765 
	C154.518616,142.922119 153.844788,142.490631 153.112610,142.064163 
z"/>
<path fill="#FDF2CD" opacity="1.000000" stroke="none" 
	d="
M243.142609,183.925430 
	C236.304489,182.580048 233.173019,177.168686 229.988052,171.425583 
	C230.046509,170.971039 230.269028,170.774200 230.539856,170.954193 
	C232.857040,172.822952 234.903397,174.511719 237.044876,176.382355 
	C237.307861,176.791504 237.526596,176.947433 237.864426,177.368790 
	C239.669312,179.778854 241.405960,181.852142 243.142609,183.925430 
z"/>
<path fill="#FEF2CD" opacity="1.000000" stroke="none" 
	d="
M257.825928,288.858582 
	C252.900909,292.025513 247.764038,294.895020 242.309235,297.876343 
	C241.977982,293.398712 245.610931,292.013275 248.873260,290.697540 
	C251.626266,289.587250 254.688614,289.243958 257.825928,288.858582 
z"/>
<path fill="#FEF2CD" opacity="1.000000" stroke="none" 
	d="
M167.051575,389.568115 
	C172.648056,389.133209 178.371964,389.072174 184.560989,389.086243 
	C179.213120,392.531586 173.197708,391.274475 167.051575,389.568115 
z"/>
<path fill="#FEF2CD" opacity="1.000000" stroke="none" 
	d="
M278.265259,323.238190 
	C279.542694,318.753204 280.820160,314.268250 282.186218,309.348083 
	C285.342407,312.830322 283.334167,321.708099 278.302673,324.653290 
	C278.058136,323.994934 278.161713,323.616547 278.265259,323.238190 
z"/>
<path fill="#FDF2CD" opacity="1.000000" stroke="none" 
	d="
M202.034332,144.303558 
	C204.789017,146.231827 207.524384,148.532974 210.316864,151.141418 
	C207.587662,149.191299 204.801331,146.933868 202.034332,144.303558 
z"/>
<path fill="#FEF2CD" opacity="1.000000" stroke="none" 
	d="
M125.794601,372.027527 
	C127.950378,373.906982 129.792511,375.661011 131.833221,377.678650 
	C128.623260,378.839905 124.795853,376.227081 122.989166,371.401794 
	C123.820267,371.323944 124.650604,371.613007 125.794601,372.027527 
z"/>
<path fill="#DFA643" opacity="1.000000" stroke="none" 
	d="
M243.345032,184.022202 
	C241.405960,181.852142 239.669312,179.778854 238.250427,177.349457 
	C241.095795,179.610138 243.623413,182.226944 246.151031,184.843735 
	C246.151031,184.843735 245.951263,185.055496 245.852158,185.163544 
	C245.389679,185.146759 245.026306,185.021927 244.377258,184.858032 
	C243.982224,184.529633 243.800858,184.296310 243.345032,184.022202 
z"/>
<path fill="#FEF2CD" opacity="1.000000" stroke="none" 
	d="
M157.978775,340.625824 
	C155.929077,340.294464 153.845428,339.605713 151.394958,338.985931 
	C150.321854,338.297607 149.615555,337.540314 148.797272,336.492004 
	C152.666946,335.518890 155.785538,336.801697 157.978775,340.625824 
z"/>
<path fill="#FEF2CD" opacity="1.000000" stroke="none" 
	d="
M275.058594,328.117767 
	C272.688019,330.775360 270.317444,333.432953 267.531982,336.097168 
	C267.117126,336.103821 266.985046,335.984528 267.122559,335.698425 
	C268.190826,334.269745 269.121613,333.127136 270.320679,331.824951 
	C271.709442,330.454346 272.829895,329.243256 274.227539,328.051453 
	C274.689423,328.086426 274.874023,328.102112 275.058594,328.117767 
z"/>
<path fill="#FDF2CD" opacity="1.000000" stroke="none" 
	d="
M269.324158,189.997955 
	C271.422546,188.062561 273.916840,186.166718 276.732727,184.170761 
	C276.776520,188.723145 273.521149,189.715714 269.324158,189.997955 
z"/>
<path fill="#FEF2CD" opacity="1.000000" stroke="none" 
	d="
M225.911911,374.831299 
	C225.900467,378.988159 223.022934,379.154907 219.494568,379.041199 
	C219.008789,378.990509 218.849564,378.798431 219.070938,378.583679 
	C220.227539,377.611725 221.162766,376.854553 222.106628,376.102417 
	C222.115250,376.107452 222.130524,376.134338 222.466095,376.093109 
	C223.838409,375.645020 224.875153,375.238159 225.911911,374.831299 
z"/>
<path fill="#FEF2CD" opacity="1.000000" stroke="none" 
	d="
M282.238464,305.806458 
	C280.965179,303.946625 279.964813,301.868378 278.900024,299.441284 
	C282.866272,299.670013 282.498016,302.737000 282.238464,305.806458 
z"/>
<path fill="#FEF2CD" opacity="1.000000" stroke="none" 
	d="
M213.144836,382.173157 
	C213.277985,381.523193 213.604782,381.141815 214.038971,380.516296 
	C214.146378,380.272186 214.143402,380.225739 214.462463,380.220367 
	C215.318497,379.897034 215.855469,379.579071 216.550751,379.248718 
	C216.709061,379.236328 216.981247,379.072784 217.297760,379.067688 
	C218.026047,378.974579 218.437805,378.886505 218.849564,378.798431 
	C218.849564,378.798431 219.008789,378.990509 219.093674,379.084473 
	C217.231857,380.266174 215.285172,381.353943 213.144836,382.173157 
z"/>
<path fill="#FEF2CD" opacity="1.000000" stroke="none" 
	d="
M134.046722,379.317810 
	C136.575302,380.082733 139.128662,381.218994 141.875107,382.637695 
	C139.402634,381.843109 136.737076,380.766144 134.046722,379.317810 
z"/>
<path fill="#DAA950" opacity="1.000000" stroke="none" 
	d="
M226.035751,374.633484 
	C224.875153,375.238159 223.838409,375.645020 222.455292,375.727295 
	C223.837280,374.412018 225.565659,373.421356 227.264893,372.696930 
	C227.145828,373.306091 227.055893,373.648987 226.965973,373.991882 
	C226.644348,374.043915 226.375565,374.191833 226.035751,374.633484 
z"/>
<path fill="#FDF2CD" opacity="1.000000" stroke="none" 
	d="
M228.959961,107.660606 
	C228.578735,107.987129 228.175507,107.947212 227.473175,107.847679 
	C225.857544,106.731018 224.540970,105.673973 223.039368,104.354767 
	C224.882202,105.159798 226.910080,106.226982 228.959961,107.660606 
z"/>
<path fill="#DEAC53" opacity="1.000000" stroke="none" 
	d="
M275.189697,327.838013 
	C274.874023,328.102112 274.689423,328.086426 274.227722,327.685059 
	C275.240997,325.809479 276.531342,324.319611 277.821655,322.829742 
	C277.821655,322.829742 278.041046,323.034851 278.153137,323.136536 
	C278.161713,323.616547 278.058136,323.994934 277.933990,324.667114 
	C277.049225,325.826691 276.185028,326.692474 275.189697,327.838013 
z"/>
<path fill="#FEF2CD" opacity="1.000000" stroke="none" 
	d="
M267.186096,336.160065 
	C266.149139,337.506439 265.043274,338.796539 263.570251,340.161316 
	C263.203156,340.235931 263.076111,340.083496 263.152344,339.724609 
	C264.480713,338.238678 265.732880,337.111603 266.985046,335.984528 
	C266.985046,335.984528 267.117126,336.103821 267.186096,336.160065 
z"/>
<path fill="#FDF2CD" opacity="1.000000" stroke="none" 
	d="
M226.086517,167.231186 
	C226.508804,166.958389 226.916199,167.035934 227.753021,167.397858 
	C228.705276,168.145966 229.228073,168.609695 229.798309,169.367905 
	C229.986847,170.033005 230.127930,170.403595 230.269028,170.774200 
	C230.269028,170.774200 230.046509,170.971039 229.936539,171.073746 
	C228.574921,169.978134 227.323273,168.779831 226.086517,167.231186 
z"/>
<path fill="#FDF2CD" opacity="1.000000" stroke="none" 
	d="
M232.950928,110.734802 
	C231.700714,110.290314 230.472443,109.453300 229.109924,108.318329 
	C230.308075,108.794350 231.640472,109.568321 232.950928,110.734802 
z"/>
<path fill="#FEF2CD" opacity="1.000000" stroke="none" 
	d="
M165.999298,343.460754 
	C164.521240,343.399628 162.960617,343.019653 161.173462,342.382019 
	C162.603546,342.463501 164.260132,342.802704 165.999298,343.460754 
z"/>
<path fill="#FEF2CD" opacity="1.000000" stroke="none" 
	d="
M227.316681,374.009827 
	C227.055893,373.648987 227.145828,373.306091 227.273956,372.669861 
	C227.312164,372.376495 227.329254,372.322357 227.648758,372.320312 
	C228.585617,372.139435 229.202988,371.960571 229.820343,371.781708 
	C229.820343,371.781708 229.993271,371.978790 230.083755,372.076172 
	C229.338608,372.791626 228.502991,373.409698 227.316681,374.009827 
z"/>
<path fill="#FDF2CD" opacity="1.000000" stroke="none" 
	d="
M234.935059,112.717888 
	C234.740540,112.790413 234.451035,112.634872 234.086868,112.234802 
	C234.358734,112.039886 234.634689,112.206406 234.935059,112.717888 
z"/>
<path fill="#FDF2CD" opacity="1.000000" stroke="none" 
	d="
M235.942719,113.710388 
	C235.747726,113.778465 235.460281,113.622467 235.113281,113.218018 
	C235.389893,113.032921 235.655426,113.205170 235.942719,113.710388 
z"/>
<path fill="#FDF2CD" opacity="1.000000" stroke="none" 
	d="
M151.358521,141.948334 
	C151.280319,141.687363 151.407959,141.375153 151.806091,141.154510 
	C152.004211,141.540512 151.833481,141.757507 151.358521,141.948334 
z"/>
<path fill="#FDF2CD" opacity="1.000000" stroke="none" 
	d="
M277.922974,155.773773 
	C277.721741,155.829315 277.449341,155.646378 277.120026,155.214600 
	C277.407043,155.043396 277.669922,155.233261 277.922974,155.773773 
z"/>
<path fill="#FEF2CD" opacity="1.000000" stroke="none" 
	d="
M158.917206,341.497986 
	C159.045029,341.669617 158.570206,341.705963 158.570206,341.705963 
	C158.570206,341.705963 158.177109,341.437225 158.096680,341.212830 
	C158.314163,341.009125 158.571884,341.121796 158.917206,341.497986 
z"/>
<path fill="#FEA117" opacity="1.000000" stroke="none" 
	d="
M229.750870,169.073410 
	C229.228073,168.609695 228.705276,168.145966 228.061737,167.452362 
	C227.603943,165.988129 227.668823,164.309235 226.869293,163.586258 
	C215.470642,153.278961 206.395401,140.154312 190.632233,135.175812 
	C182.366028,132.565063 174.395248,132.832748 166.191910,134.442200 
	C165.318344,134.613586 164.407928,134.597122 162.292358,134.764496 
	C167.086884,129.452072 170.953217,124.804382 175.204254,120.540192 
	C182.175995,113.546890 189.477615,106.882957 196.471527,99.910995 
	C199.011826,97.378700 200.909561,96.497589 204.598785,98.473473 
	C211.498123,102.168640 218.900772,104.924034 226.461365,108.124832 
	C229.534149,111.215591 232.132263,114.356628 234.969193,117.264671 
	C239.669434,122.082710 244.493927,126.781349 249.343155,131.450256 
	C250.102676,132.181549 251.268723,132.490616 252.610809,133.010513 
	C253.981735,134.496582 254.802994,136.147614 256.027466,137.406494 
	C261.568329,143.103210 267.233856,148.678452 272.834564,154.317245 
	C283.222168,164.775513 281.969818,179.060211 269.486053,186.800186 
	C263.471222,190.529388 256.749969,189.097473 250.406113,186.657928 
	C249.191010,186.190689 248.050217,185.530258 246.513092,184.901337 
	C243.623413,182.226944 241.095795,179.610138 238.182190,177.012665 
	C237.526596,176.947433 237.307861,176.791504 237.070679,175.993195 
	C234.584518,173.305908 232.167694,171.189667 229.750870,169.073410 
z"/>
<path fill="#FCA218" opacity="1.000000" stroke="none" 
	d="
M277.878937,322.448212 
	C276.531342,324.319611 275.240997,325.809479 273.950500,327.665771 
	C272.829895,329.243256 271.709442,330.454346 269.948303,331.813171 
	C265.423584,333.315338 262.535461,335.581543 261.971008,339.974976 
	C261.971008,339.974976 261.996338,339.998779 261.749481,340.083954 
	C261.341675,340.460449 261.180725,340.751801 261.019775,341.043121 
	C261.019775,341.043121 261.001892,340.997925 260.704468,341.012024 
	C260.031219,341.447266 259.655396,341.868408 259.279541,342.289551 
	C259.279541,342.289551 258.985413,342.109741 258.823364,342.231079 
	C258.429260,342.894348 258.197205,343.436249 257.965149,343.978119 
	C257.965118,343.978119 257.996490,343.996338 257.676453,343.995911 
	C256.998322,344.421051 256.640228,344.846649 256.282135,345.272247 
	C256.282135,345.272247 256.163910,345.115723 255.928680,345.215088 
	C255.571899,345.620758 255.450348,345.927063 255.328781,346.233398 
	C255.328781,346.233398 255.297348,346.311035 254.926224,346.244385 
	C252.519302,348.548523 250.483505,350.919281 248.447708,353.290070 
	C248.447708,353.290070 248.352661,353.339661 248.034546,353.340851 
	C247.599167,353.644257 247.481888,353.946442 247.364594,354.248657 
	C247.364594,354.248657 247.302780,354.263855 246.982666,354.313721 
	C246.441833,354.913147 246.221115,355.462769 246.000381,356.012360 
	C246.000381,356.012360 245.998779,355.998779 245.638245,355.982513 
	C241.412384,357.343536 238.513138,359.596893 237.988831,364.003937 
	C237.988831,364.003937 237.997101,363.998962 237.749115,363.979858 
	C237.334457,363.969727 237.167801,363.978699 236.655609,364.027588 
	C235.579468,365.081421 234.848831,366.095337 234.118210,367.109222 
	C234.118210,367.109222 234.062347,367.116272 233.823395,367.160339 
	C233.408173,367.498932 233.231888,367.793427 233.055603,368.087921 
	C233.055603,368.087921 233.008011,368.012787 232.790802,368.104004 
	C232.396484,368.488983 232.219391,368.782715 232.042267,369.076416 
	C232.042267,369.076416 232.019897,368.996887 231.682327,368.996918 
	C230.006256,370.105438 228.667755,371.213898 227.329254,372.322357 
	C227.329254,372.322357 227.312164,372.376495 227.303101,372.403564 
	C225.565659,373.421356 223.837280,374.412018 222.119720,375.768524 
	C222.130524,376.134338 222.115250,376.107452 221.730865,376.068146 
	C219.891418,377.043488 218.436340,378.058136 216.981247,379.072784 
	C216.981247,379.072784 216.709061,379.236328 216.201752,379.182068 
	C215.177444,379.493774 214.660416,379.859741 214.143402,380.225739 
	C214.143402,380.225739 214.146378,380.272186 214.162674,380.291016 
	C212.409317,380.518890 210.599533,380.558197 208.876831,380.965729 
	C200.428207,382.964203 192.094711,385.649261 183.547562,386.984436 
	C170.750275,388.983490 158.290054,386.255127 146.219833,382.029205 
	C141.665634,380.434723 137.391006,378.041718 133.089478,375.394348 
	C139.862915,373.148651 147.087082,372.455170 150.155243,364.548889 
	C153.878601,361.930206 156.735733,354.072052 155.801880,348.893158 
	C155.492111,347.175262 155.254807,345.444275 154.867661,342.974701 
	C160.515259,344.295654 165.360809,345.796539 170.319412,346.497833 
	C176.839691,347.419952 183.461288,347.834564 189.809753,344.282074 
	C189.968506,343.935211 189.974548,343.975250 190.345642,344.006500 
	C192.418488,343.263550 194.120255,342.489349 195.822021,341.715149 
	C198.748047,340.008209 201.674103,338.301331 205.088501,336.264679 
	C205.914352,335.508667 206.251846,335.082428 206.589355,334.656189 
	C206.589340,334.656189 206.655441,334.579987 207.031219,334.671692 
	C209.273407,332.505829 211.139847,330.248322 213.006287,327.990784 
	C213.006287,327.990784 213.002426,328.002472 213.325867,327.984192 
	C214.102524,327.308563 214.555740,326.651184 215.008942,325.993805 
	C215.008926,325.993805 215.002579,326.002777 215.242508,325.924438 
	C215.658035,325.561859 215.833618,325.277588 216.009186,324.993286 
	C216.009186,324.993286 216.002731,325.002441 216.310760,324.998108 
	C216.994751,324.570862 217.370697,324.148010 217.746658,323.725128 
	C217.746658,323.725128 217.751144,323.930420 218.035278,323.815369 
	C218.452255,323.395538 218.585098,323.090790 218.717957,322.786011 
	C218.717941,322.786011 218.735550,322.721039 219.106720,322.777740 
	C220.213684,321.813354 220.949463,320.792267 221.685242,319.771179 
	C221.685242,319.771179 221.742752,319.764130 222.035736,319.729858 
	C222.446716,319.388885 222.564697,319.082184 222.682648,318.775452 
	C222.682648,318.775452 222.710526,318.699036 223.081543,318.761841 
	C225.525925,316.464844 227.599304,314.105042 229.672668,311.745239 
	C229.672668,311.745239 229.728363,311.746094 230.024658,311.721497 
	C230.457962,311.392212 230.594955,311.087555 230.731964,310.782867 
	C230.731949,310.782867 230.747086,310.731598 231.117523,310.782623 
	C232.329910,309.557434 233.171844,308.281189 234.013763,307.004944 
	C234.013763,307.004944 234.001221,307.001221 234.373642,307.017120 
	C235.750793,305.955109 236.755524,304.877197 237.760254,303.799255 
	C237.760239,303.799255 237.773666,303.754211 237.770233,303.729980 
	C239.185211,303.065643 241.114227,302.814087 241.942902,301.725189 
	C250.118271,290.982574 260.166748,287.563904 273.911316,295.717468 
	C274.280670,295.633911 274.296021,295.700562 274.304596,296.003052 
	C274.619812,296.411621 274.926422,296.517700 275.233063,296.623779 
	C275.233063,296.623779 275.307220,296.639648 275.341858,296.654663 
	C275.335693,297.158173 275.063080,297.859131 275.287781,298.104248 
	C282.029785,305.459351 280.929321,313.653839 277.878937,322.448212 
z"/>
<path fill="#DEAC53" opacity="1.000000" stroke="none" 
	d="
M238.302567,363.888245 
	C238.513138,359.596893 241.412384,357.343536 245.645050,355.983368 
	C243.547028,358.591156 241.081665,361.181824 238.302567,363.888245 
z"/>
<path fill="#DEAC53" opacity="1.000000" stroke="none" 
	d="
M262.215515,339.979248 
	C262.535461,335.581543 265.423584,333.315338 269.680023,331.972717 
	C269.121613,333.127136 268.190826,334.269745 267.122559,335.698425 
	C265.732880,337.111603 264.480713,338.238678 263.087555,339.649475 
	C262.946564,339.933167 262.460052,339.983551 262.215515,339.979248 
z"/>
<path fill="#DEAC53" opacity="1.000000" stroke="none" 
	d="
M248.761307,353.226501 
	C250.483505,350.919281 252.519302,348.548523 254.912323,346.283875 
	C253.204681,348.647644 251.139801,350.905273 248.761307,353.226501 
z"/>
<path fill="#DAA950" opacity="1.000000" stroke="none" 
	d="
M227.648758,372.320312 
	C228.667755,371.213898 230.006256,370.105438 231.708160,369.029236 
	C231.434677,369.805725 230.797821,370.549927 229.990646,371.537903 
	C229.202988,371.960571 228.585617,372.139435 227.648758,372.320312 
z"/>
<path fill="#DAA950" opacity="1.000000" stroke="none" 
	d="
M234.411209,367.044281 
	C234.848831,366.095337 235.579468,365.081421 236.655609,364.296692 
	C237.001450,364.705048 237.001785,364.884308 237.002106,365.063538 
	C236.236145,365.702148 235.470169,366.340759 234.411209,367.044281 
z"/>
<path fill="#DEAC53" opacity="1.000000" stroke="none" 
	d="
M246.273651,355.913757 
	C246.221115,355.462769 246.441833,354.913147 246.979004,354.345337 
	C247.045944,354.823090 246.796432,355.319092 246.273651,355.913757 
z"/>
<path fill="#DEAC53" opacity="1.000000" stroke="none" 
	d="
M256.568756,345.234680 
	C256.640228,344.846649 256.998322,344.421051 257.667206,343.980164 
	C257.603790,344.375580 257.229584,344.786316 256.568756,345.234680 
z"/>
<path fill="#DEAC53" opacity="1.000000" stroke="none" 
	d="
M258.238007,343.874268 
	C258.197205,343.436249 258.429260,342.894348 258.971802,342.314575 
	C259.025085,342.774567 258.767975,343.272491 258.238007,343.874268 
z"/>
<path fill="#DEAC53" opacity="1.000000" stroke="none" 
	d="
M259.569946,342.257507 
	C259.655396,341.868408 260.031219,341.447266 260.723816,341.026825 
	C260.647156,341.426849 260.253754,341.826141 259.569946,342.257507 
z"/>
<path fill="#DEAC53" opacity="1.000000" stroke="none" 
	d="
M247.588928,354.196991 
	C247.481888,353.946442 247.599167,353.644257 247.984192,353.359192 
	C248.250153,353.715118 248.103928,353.971436 247.588928,354.196991 
z"/>
<path fill="#DEAC53" opacity="1.000000" stroke="none" 
	d="
M261.268860,340.960388 
	C261.180725,340.751801 261.341675,340.460449 261.739746,340.072327 
	C261.823853,340.276245 261.670898,340.576965 261.268860,340.960388 
z"/>
<path fill="#DAA950" opacity="1.000000" stroke="none" 
	d="
M232.303024,369.011841 
	C232.219391,368.782715 232.396484,368.488983 232.829956,368.125092 
	C232.912125,368.352386 232.737946,368.649811 232.303024,369.011841 
z"/>
<path fill="#DAA950" opacity="1.000000" stroke="none" 
	d="
M233.319519,368.029785 
	C233.231888,367.793427 233.408173,367.498932 233.844940,367.144836 
	C233.931427,367.380737 233.757416,367.676208 233.319519,368.029785 
z"/>
<path fill="#DEAC53" opacity="1.000000" stroke="none" 
	d="
M237.255920,364.979614 
	C237.001785,364.884308 237.001450,364.705048 237.001129,364.256744 
	C237.167801,363.978699 237.334457,363.969727 237.751068,363.976074 
	C237.837250,364.292816 237.673492,364.594238 237.255920,364.979614 
z"/>
<path fill="#DEAC53" opacity="1.000000" stroke="none" 
	d="
M255.560623,346.172668 
	C255.450348,345.927063 255.571899,345.620758 255.962677,345.307068 
	C256.236877,345.652405 256.090393,345.923157 255.560623,346.172668 
z"/>
<path fill="#DEAC53" opacity="1.000000" stroke="none" 
	d="
M229.357025,311.806396 
	C227.599304,314.105042 225.525925,316.464844 223.094604,318.723297 
	C223.222977,317.760162 223.709335,316.898346 224.375778,315.793335 
	C226.051041,314.322571 227.546219,313.095062 229.357025,311.806396 
z"/>
<path fill="#DEAC53" opacity="1.000000" stroke="none" 
	d="
M212.690002,328.101654 
	C211.139847,330.248322 209.273407,332.505829 207.052322,334.625854 
	C208.589676,332.396423 210.481689,330.304474 212.690002,328.101654 
z"/>
<path fill="#DAA850" opacity="1.000000" stroke="none" 
	d="
M195.455109,341.742432 
	C194.120255,342.489349 192.418488,343.263550 190.330353,343.998291 
	C190.549881,343.520386 191.155792,343.081879 191.976044,342.449036 
	C193.156311,342.093048 194.122269,341.931366 195.455109,341.742432 
z"/>
<path fill="#DEAC53" opacity="1.000000" stroke="none" 
	d="
M221.374771,319.821167 
	C220.949463,320.792267 220.213684,321.813354 219.112518,322.744568 
	C219.519531,321.726868 220.291931,320.799011 221.374771,319.821167 
z"/>
<path fill="#DEAC53" opacity="1.000000" stroke="none" 
	d="
M214.720215,326.077942 
	C214.555740,326.651184 214.102524,327.308563 213.319733,327.985931 
	C213.470596,327.391296 213.951050,326.776703 214.720215,326.077942 
z"/>
<path fill="#DEAC53" opacity="1.000000" stroke="none" 
	d="
M206.290894,334.683228 
	C206.251846,335.082428 205.914352,335.508667 205.265900,335.980957 
	C205.300797,335.588104 205.646622,335.149170 206.290894,334.683228 
z"/>
<path fill="#DEAC53" opacity="1.000000" stroke="none" 
	d="
M217.453003,323.755798 
	C217.370697,324.148010 216.994751,324.570862 216.305893,325.001007 
	C216.381775,324.600983 216.770554,324.193726 217.453003,323.755798 
z"/>
<path fill="#DEAC53" opacity="1.000000" stroke="none" 
	d="
M215.759445,325.067413 
	C215.833618,325.277588 215.658035,325.561859 215.238113,325.927917 
	C215.165756,325.720306 215.337723,325.430939 215.759445,325.067413 
z"/>
<path fill="#DEAC53" opacity="1.000000" stroke="none" 
	d="
M218.482376,322.845642 
	C218.585098,323.090790 218.452255,323.395538 218.049606,323.713898 
	C217.803864,323.378662 217.959534,323.104584 218.482376,322.845642 
z"/>
<path fill="#DEAC53" opacity="1.000000" stroke="none" 
	d="
M222.447998,318.840332 
	C222.564697,319.082184 222.446716,319.388885 222.063507,319.721588 
	C221.779251,319.389221 221.917603,319.108429 222.447998,318.840332 
z"/>
<path fill="#DEAC53" opacity="1.000000" stroke="none" 
	d="
M237.442596,303.833771 
	C236.755524,304.877197 235.750793,305.955109 234.375610,307.023438 
	C235.045074,305.965332 236.085007,304.916809 237.442596,303.833771 
z"/>
<path fill="#DEAC53" opacity="1.000000" stroke="none" 
	d="
M233.708710,307.116333 
	C233.171844,308.281189 232.329910,309.557434 231.115784,310.755951 
	C231.630264,309.528107 232.516953,308.377930 233.708710,307.116333 
z"/>
<path fill="#DEAC53" opacity="1.000000" stroke="none" 
	d="
M230.495758,310.847839 
	C230.594955,311.087555 230.457962,311.392212 230.051727,311.714935 
	C229.800186,311.377411 229.959198,311.104004 230.495758,310.847839 
z"/>
<path fill="#DEAC53" opacity="1.000000" stroke="none" 
	d="
M275.173523,296.397461 
	C274.926422,296.517700 274.619812,296.411621 274.307953,296.037079 
	C274.645172,295.757812 274.915619,295.891998 275.173523,296.397461 
z"/>
<path fill="#DFA643" opacity="1.000000" stroke="none" 
	d="
M229.798309,169.367905 
	C232.167694,171.189667 234.584518,173.305908 236.975555,175.811325 
	C234.903397,174.511719 232.857040,172.822952 230.539856,170.954193 
	C230.127930,170.403595 229.986847,170.033005 229.798309,169.367905 
z"/>
<path fill="#DAA950" opacity="1.000000" stroke="none" 
	d="
M217.297760,379.067688 
	C218.436340,378.058136 219.891418,377.043488 221.722244,376.063110 
	C221.162766,376.854553 220.227539,377.611725 219.070938,378.583679 
	C218.437805,378.886505 218.026047,378.974579 217.297760,379.067688 
z"/>
<path fill="#DAA950" opacity="1.000000" stroke="none" 
	d="
M214.462463,380.220367 
	C214.660416,379.859741 215.177444,379.493774 216.043457,379.194458 
	C215.855469,379.579071 215.318497,379.897034 214.462463,380.220367 
z"/>
</svg>