<svg xmlns="http://www.w3.org/2000/svg" version="1.1" xmlns:xlink="http://www.w3.org/1999/xlink" xmlns:svgjs="http://svgjs.dev/svgjs" width="1500" height="1687" viewBox="0 0 1500 1687"><g transform="matrix(1,0,0,1,0.00011015625000254659,0)"><svg viewBox="0 0 320 360" data-background-color="#ffffff" preserveAspectRatio="xMidYMid meet" height="1687" width="1500" xmlns="http://www.w3.org/2000/svg" xmlns:xlink="http://www.w3.org/1999/xlink"><g id="tight-bounds" transform="matrix(1,0,0,1,0.000023499999997511622,0)"><svg viewBox="0 0 320 360" height="360" width="320"><g><svg></svg></g><g><svg viewBox="0 0 320 360" height="360" width="320"><g><path transform="translate(-74.99272,-51.79039) scale(4.65793,4.65793)" d="M20.6 59.9l0.8 1-0.4-1.3c-0.1-0.6-0.8 0.1-0.4 0.3M21.5 59.3c0.3 0.5 0.6 1 0.6 1.5 0 0.7 0.6 1 1.1 1.2-0.7-0.8-1.1-3-1.7-2.7M59.9 16.9c1.7 0 3.3-0.2 5.1 0.2 4.4 1.1 8.1 3.3 10.6 6.4l7 11.2c0.3 2.8 0.9 5.9 0.8 9.3 0.7 0 0.6-1 1.4-1.2-0.8 2-1.2 4.5-1.4 7.4-0.5-1.6 0-4 0.1-5.3-0.7 1.1-1.1 0.3-1.1-0.2 0.1-0.8-0.3-0.7-0.6-1-1.1-1-1.8-2.1-2.6-3.8 0.5-1.3 0.6-3.2-1-4.2-0.5-0.3-1.1-0.8-1.4-1.6-0.4-1.1-1.1-2.4-0.9-4.1 0.1-0.5-1.5 1.1-2.4 0.4-3.9-2.7-7.8-5.8-12.5-8.4-2.5 0-4.3-0.9-5.2-2-0.8-1-0.2-2.3 1-2.4 0.7 0 1.5-0.2 2.1 0.2 0.1-0.4 0.5-0.9 1-0.9M50 14.6l0.2 0.1c1 0.2 1.5 1.6 2.6 1.1 0 0.7 0.1 1.4-0.1 1.9-0.3 0.8-1.2 0.8-1.9 0.8-6.7-0.4-10.6 2.4-14.7 4.8-1.1 0.7-2.3 1.2-3.2 2.1-4.3 4-9 7.7-10.1 15.1l-0.9 8.2c-0.1 0.9-1.1 1.8-0.9 2.9l0.7 4.9c-0.7-0.7-1.1 0.2-0.9 0.6 0.1 0.3 0.5 1.3 1.1 0.4 0.8 1.5 1.6 4.4 2.7 5.7 3.4 4 7.8 7.6 11.4 11.2 0.9-0.2 1.6-0.2 1.8-0.8 0.3 0.6-0.3 1.2-0.8 1.3 1.6 1 3.4 1.9 5.8 2.1 3.1 0.2 6 0.7 8.7 1.4 1.4-0.4 2.8-0.6 4.3-0.7 0.5 0 0.8-0.8 1.4-1l0.1-1c0.6 0.9 0.5-0.3 0.1-0.9 0.7 0.6 0.9 1.1 1.2 1.5 0-0.3 0.8-1.4 0.8-0.1l0.2-1.3c0.3-0.2 0.4 1.1 0.7 0.2 0.3-0.9 0.9-0.2 1.5-0.5-0.2 0.4-0.1 1.2 0.6 0.7l0.8-0.7c0.5 1.2 1.3 0.7 1.7 0.5 4.4-2.8 8.8-6.1 13-9.4l-0.1 1.3 0.5-1.6c0.5 0.5 0.9 0.1 1.1-0.2 0.6-1 1.4-2 2.7-2.9-1.6 4.3-3.5 7.7-5.9 10.5l-1 1.2c0 0.7-0.2 1.6-1 1.7-0.4 0.1-1.2-0.2-1.8 0.4-0.3 0.4 0.7 1.2-0.1 0.6-0.7-0.5-1.4 0-2.2 0.2-0.6 0.2 0.4 0.8 0.6 1.2 0.2 0.4 0.4 0.8 0.3 1.3l-1.1-1.2c-1.3 0.7-2.1 2-3.2 3-0.5 0.4-0.3 1.1-0.3 1.7-0.7 0-1.5-0.2-1.9 0.2-0.3 0.4-0.2 1-0.2 1.6-1-0.1-1.1-1.6-2-1.3-0.9 0.2-1.9 0.3-2.7 0.8 0.6 1.2-1 0.5-0.8 0.7-1.5-0.9-2.8-1.6-4.4-1-3.4-1.1-7.6-0.6-10.7-0.2 0-0.5 0.1-1-0.1-1.1-0.2 0.5-0.8 0.3-0.7 0.3-1.9-1.3-3.8-2.1-5.8-3.2-1.8 0.2-3.5-0.7-4-1.2-1.4-1.3-3-0.6-4.3-0.9-2.8-0.7-3.8-3.6-4.1-5.6-0.2-1-1-1.4-1.3-1.3-1.3-4.2-3.3-8-4.9-11.9-0.4-1-0.3-2-0.3-3.1 0.5 0.2 1 0.1 0.9-0.6-0.5-3.3-1.7-5.8-3-8.2 0.7-3.4 0.8-7.4 2.4-10.4 1.4-2.7 4-4.1 5.8-6.4 0.6-0.8 0.6-1.9 1.2-2.6 2-2 4-4.1 6.2-5.9 1-0.8 2.2 0 3.7-0.3 0.5-1.8 2.5-3.4 4.4-2.9 0.8 0.2 2.4-1.9 2.9-2.1 0.8-0.3 0.4 0.8 0.4 1.5 1.9-1.5 4.5-2.3 6.9-3.2" fill="#1d597d" fill-rule="nonzero" stroke="none" stroke-width="1" stroke-linecap="butt" stroke-linejoin="miter" stroke-miterlimit="10" stroke-dasharray="" stroke-dashoffset="0" font-family="none" font-weight="none" font-size="none" text-anchor="none" style="mix-blend-mode: normal" data-fill-palette-color="tertiary"></path></g><g transform="matrix(1,0,0,1,64,138.66273060486674)"><svg viewBox="0 0 192 82.6745387902665" height="82.6745387902665" width="192"><g><svg viewBox="0 0 192 82.6745387902665" height="82.6745387902665" width="192"><g><svg viewBox="0 0 192 82.6745387902665" height="82.6745387902665" width="192"><g transform="matrix(1,0,0,1,0,49.970019670915406)"><svg viewBox="0 0 192 32.7045191193511" height="32.7045191193511" width="192"><g id="textblocktransform"><svg viewBox="0 0 192 32.7045191193511" height="32.7045191193511" width="192" id="textblock"><g><svg viewBox="0 0 192 32.7045191193511" height="32.7045191193511" width="192"><g transform="matrix(1,0,0,1,0,0)"><svg width="192" viewBox="3 -36 215.73 36.75" height="32.7045191193511" data-palette-color="#1d597d"><path d="M10.65-16.55L10.65-16.55 10.65-20.25Q13.15-20.25 14.55-21.75 15.95-23.25 15.95-25.95L15.95-25.95 20.5-25.95Q20.5-23.25 19.23-21.13 17.95-19 15.7-17.78 13.45-16.55 10.65-16.55ZM11.15 0L6.3 0 6.3-3.95 11.15-3.95 11.15 0ZM11.15-16.3L6.3-16.3 6.3-20.25 11.15-20.25 11.15-16.3ZM21-9.35L16.45-9.35 16.45-10.55 21-10.55 21-9.35ZM21-10.5L16.45-10.5Q16.45-13.25 15.05-14.78 13.65-16.3 11.15-16.3L11.15-16.3 11.15-20Q13.95-20 16.2-18.75 18.45-17.5 19.73-15.35 21-13.2 21-10.5L21-10.5ZM10.65-31.3L6.3-31.3 6.3-35.25 10.65-35.25 10.65-31.3ZM20.5-25.9L20.5-25.9 15.95-25.9Q15.95-28.5 14.55-29.9 13.15-31.3 10.65-31.3L10.65-31.3 10.65-35.25Q13.55-35.25 15.78-34.08 18-32.9 19.25-30.78 20.5-28.65 20.5-25.9ZM16.45-9.4L21-9.4Q21-6.6 19.75-4.5 18.5-2.4 16.28-1.2 14.05 0 11.15 0L11.15 0 11.15-3.95Q13.65-3.95 15.05-5.38 16.45-6.8 16.45-9.4L16.45-9.4ZM7.55 0L3 0 3-35.25 7.55-35.25 7.55 0ZM31.3 0L26.75 0 26.75-25.25 31.3-25.25 31.3 0ZM29-28.6L29-28.6Q27.75-28.6 26.9-29.45 26.05-30.3 26.05-31.55L26.05-31.55Q26.05-32.8 26.9-33.68 27.75-34.55 29-34.55L29-34.55Q30.25-34.55 31.12-33.68 32-32.8 32-31.55L32-31.55Q32-30.3 31.12-29.45 30.25-28.6 29-28.6ZM42.84 0L38.3 0 38.3-36 42.84-36 42.84 0ZM67.29 0L62.74 0 62.74-17.2 67.29-17.2 67.29 0ZM56.64 0.75L56.64 0.75 56.99-3Q58.79-3 60.07-3.9 61.34-4.8 62.04-6.55 62.74-8.3 62.74-10.7L62.74-10.7 64.99-10.8Q64.99-7.4 63.89-4.8 62.79-2.2 60.92-0.73 59.04 0.75 56.64 0.75ZM56.99-3L56.64 0.75Q54.39 0.75 52.54-0.3 50.69-1.35 49.59-3.18 48.49-5 48.49-7.25L48.49-7.25 52.79-7.4Q52.79-5.5 54.07-4.25 55.34-3 56.99-3L56.99-3ZM52.79-7.4L48.49-7.25Q48.49-9.6 49.67-11.38 50.84-13.15 52.84-14.2 54.84-15.25 57.39-15.25L57.39-15.25 57.64-11.75Q55.54-11.75 54.17-10.53 52.79-9.3 52.79-7.4L52.79-7.4ZM65.09-11.75L57.64-11.75 57.39-15.25 65.09-15.25 65.09-11.75ZM64.99-10.8L62.74-10.7 62.74-17.15 64.99-17.15 64.99-10.8ZM67.29-17.1L67.29-17.1 62.74-17.1Q62.74-19.3 61.42-20.7 60.09-22.1 57.99-22.1L57.99-22.1 57.99-26Q60.69-26 62.77-24.85 64.84-23.7 66.07-21.68 67.29-19.65 67.29-17.1ZM53.29-17.7L53.29-17.7 49.09-18.55Q49.39-20.8 50.62-22.45 51.84-24.1 53.77-25.05 55.69-26 58.04-26L58.04-26 58.04-22.1Q56.19-22.1 54.87-21.03 53.54-19.95 53.29-17.7ZM77.49 0L72.94 0 72.94-36 77.49-36 77.49 0ZM109.74-7.05L96.94-7.05 96.94-10.95 109.74-10.95 109.74-7.05ZM100.49-35.25L104.99-35.25 96.39 0 91.89 0 100.49-35.25ZM100.59-35.25L105.09-35.25 113.69 0 109.24 0 100.59-35.25ZM122.73 0L118.18 0 118.18-25.25 122.73-25.25 122.73 0ZM136.78 0L132.23 0 132.23-17.2 136.78-17.2 136.78 0ZM136.78-17.2L132.23-17.2Q132.23-19.3 130.93-20.63 129.63-21.95 127.58-21.95L127.58-21.95 128.73-26Q131.03-26 132.86-24.85 134.68-23.7 135.73-21.7 136.78-19.7 136.78-17.2L136.78-17.2ZM122.73-17.1L120.73-17.1Q120.73-19.65 121.78-21.68 122.83-23.7 124.63-24.85 126.43-26 128.73-26L128.73-26 127.58-21.95Q125.43-21.95 124.08-20.6 122.73-19.25 122.73-17.1L122.73-17.1ZM122.73 0L118.18 0 118.18-36 122.73-36 122.73 0ZM146.48 0L141.93 0 141.93-25.25 146.48-25.25 146.48 0ZM159.53 0L154.98 0 154.98-17.2 159.53-17.2 159.53 0ZM146.48-17.1L144.43-17.1Q144.43-19.65 145.41-21.68 146.38-23.7 148.08-24.85 149.78-26 151.88-26L151.88-26 150.73-21.95Q148.93-21.95 147.71-20.6 146.48-19.25 146.48-17.1L146.48-17.1ZM159.53-17.2L154.98-17.2Q154.98-19.3 153.78-20.63 152.58-21.95 150.73-21.95L150.73-21.95 151.88-26Q154.08-26 155.81-24.85 157.53-23.7 158.53-21.73 159.53-19.75 159.53-17.2L159.53-17.2ZM172.53 0L167.98 0 167.98-17.2 172.53-17.2 172.53 0ZM159.53-17.1L157.48-17.1Q157.48-19.65 158.46-21.68 159.43-23.7 161.11-24.85 162.78-26 164.88-26L164.88-26 163.73-21.95Q161.93-21.95 160.73-20.6 159.53-19.25 159.53-17.1L159.53-17.1ZM172.53-17.2L167.98-17.2Q167.98-19.3 166.81-20.63 165.63-21.95 163.73-21.95L163.73-21.95 164.88-26Q167.08-26 168.81-24.85 170.53-23.7 171.53-21.73 172.53-19.75 172.53-17.2L172.53-17.2ZM195.73 0L191.18 0 191.18-17.2 195.73-17.2 195.73 0ZM185.08 0.75L185.08 0.75 185.43-3Q187.23-3 188.5-3.9 189.78-4.8 190.48-6.55 191.18-8.3 191.18-10.7L191.18-10.7 193.43-10.8Q193.43-7.4 192.33-4.8 191.23-2.2 189.35-0.73 187.48 0.75 185.08 0.75ZM185.43-3L185.08 0.75Q182.83 0.75 180.98-0.3 179.13-1.35 178.03-3.18 176.93-5 176.93-7.25L176.93-7.25 181.23-7.4Q181.23-5.5 182.5-4.25 183.78-3 185.43-3L185.43-3ZM181.23-7.4L176.93-7.25Q176.93-9.6 178.1-11.38 179.28-13.15 181.28-14.2 183.28-15.25 185.83-15.25L185.83-15.25 186.08-11.75Q183.98-11.75 182.6-10.53 181.23-9.3 181.23-7.4L181.23-7.4ZM193.53-11.75L186.08-11.75 185.83-15.25 193.53-15.25 193.53-11.75ZM193.43-10.8L191.18-10.7 191.18-17.15 193.43-17.15 193.43-10.8ZM195.73-17.1L195.73-17.1 191.18-17.1Q191.18-19.3 189.85-20.7 188.53-22.1 186.43-22.1L186.43-22.1 186.43-26Q189.13-26 191.2-24.85 193.28-23.7 194.5-21.68 195.73-19.65 195.73-17.1ZM181.73-17.7L181.73-17.7 177.53-18.55Q177.83-20.8 179.05-22.45 180.28-24.1 182.2-25.05 184.13-26 186.48-26L186.48-26 186.48-22.1Q184.63-22.1 183.3-21.03 181.98-19.95 181.73-17.7ZM218.73-35.25L218.73-25.2 214.18-25.2 214.18-35.25 218.73-35.25ZM218.73 0L214.18 0 214.18-25.25 218.73-25.25 218.73 0ZM204.68-8.05L200.13-8.05 200.13-17.2 204.68-17.2 204.68-8.05ZM204.68-17.2L204.68-17.2 200.13-17.2Q200.13-19.7 201.18-21.7 202.23-23.7 204.05-24.85 205.88-26 208.23-26L208.23-26 209.38-21.95Q207.33-21.95 206-20.63 204.68-19.3 204.68-17.2ZM216.18-17.1L216.18-17.1 214.18-17.1Q214.18-19.25 212.83-20.6 211.48-21.95 209.38-21.95L209.38-21.95 208.23-26Q210.48-26 212.3-24.85 214.13-23.7 215.15-21.68 216.18-19.65 216.18-17.1ZM200.13-8.05L204.68-8.05Q204.68-5.95 206-4.63 207.33-3.3 209.38-3.3L209.38-3.3 208.23 0.75Q205.88 0.75 204.05-0.4 202.23-1.55 201.18-3.55 200.13-5.55 200.13-8.05L200.13-8.05ZM214.18-8.2L216.18-8.2Q216.18-5.65 215.15-3.63 214.13-1.6 212.3-0.43 210.48 0.75 208.23 0.75L208.23 0.75 209.38-3.3Q211.48-3.3 212.83-4.65 214.18-6 214.18-8.2L214.18-8.2Z" opacity="1" transform="matrix(1,0,0,1,0,0)" fill="#1d597d" class="wordmark-text-0" data-fill-palette-color="primary" id="text-0"></path></svg></g></svg></g></svg></g></svg></g><g transform="matrix(1,0,0,1,64.93964694408714,0)"><svg viewBox="0 0 62.1207061118257 45.19764542294322" height="45.19764542294322" width="62.1207061118257"><g><svg xmlns="http://www.w3.org/2000/svg" viewBox="5 17.267999915886993 90 65.48200016822602" x="0" y="0" height="45.19764542294322" width="62.1207061118257" class="icon-icon-0" data-fill-palette-color="accent" id="icon-0"><path d="M75.914 17.268A5.953 5.953 0 0 0 69.96 23.221V28.728A7.7 7.7 0 0 1 69.124 32.244C66.574 29.927 62.294 28.85 59.134 30.886 58.066 31.573 57.31 32.738 57.31 34.048S58.084 36.495 59.134 37.211C62.189 39.29 66.254 38.236 69.124 35.853A7.7 7.7 0 0 1 69.96 39.368 7.7 7.7 0 0 1 69.124 42.884C66.574 40.567 62.294 39.51 59.134 41.545 58.066 42.233 57.31 43.398 57.31 44.707 57.31 46.017 58.084 47.136 59.134 47.851 62.189 49.931 66.254 48.895 69.124 46.511A7.5 7.5 0 0 1 69.96 49.992 7.7 7.7 0 0 1 69.124 53.507C66.574 51.19 62.294 50.132 59.134 52.167 58.066 52.855 57.31 54.02 57.31 55.33S58.084 57.758 59.134 58.473C62.189 60.553 66.254 59.517 69.124 57.134A7.7 7.7 0 0 1 69.96 60.65 7.6 7.6 0 0 1 69.124 64.147C66.574 61.83 62.294 60.773 59.134 62.807 58.066 63.497 57.31 64.662 57.31 65.97 57.31 67.28 58.084 68.418 59.134 69.133 62.189 71.213 66.254 70.158 69.124 67.775A7.7 7.7 0 0 1 69.96 71.29V76.797A5.953 5.953 0 0 0 75.914 82.75H95V80.5H75.914A3.696 3.696 0 0 1 72.212 76.796V71.291C72.212 69.329 71.652 67.478 70.668 65.95A9.77 9.77 0 0 0 72.212 60.65C72.212 58.688 71.652 56.838 70.668 55.311A9.83 9.83 0 0 0 72.212 49.991 9.73 9.73 0 0 0 70.668 44.689 9.83 9.83 0 0 0 72.212 39.369C72.212 37.405 71.652 35.574 70.668 34.048A9.83 9.83 0 0 0 72.212 28.727V23.22A3.696 3.696 0 0 1 75.914 19.52H95V17.27zM62.984 32.002C64.855 32.002 66.547 32.786 67.804 34.048 66.545 35.314 64.858 36.094 62.985 36.094 61.939 36.094 61.022 35.808 60.418 35.387 59.813 34.967 59.543 34.487 59.543 34.048S59.813 33.148 60.418 32.728C61.022 32.306 61.938 32.001 62.985 32.001M62.985 42.642C64.855 42.643 66.547 43.428 67.804 44.69 66.545 45.955 64.858 46.717 62.985 46.717 61.939 46.717 61.022 46.449 60.418 46.028S59.543 45.146 59.543 44.708C59.543 44.267 59.813 43.787 60.418 43.367 61.022 42.948 61.938 42.643 62.985 42.643M62.985 53.303A6.75 6.75 0 0 1 67.804 55.31C66.545 56.577 64.858 57.376 62.985 57.376 61.939 57.376 61.022 57.07 60.418 56.65S59.543 55.77 59.543 55.33 59.813 54.448 60.418 54.027C61.022 53.607 61.938 53.302 62.985 53.302M62.985 63.924C64.855 63.924 66.547 64.69 67.804 65.952 66.545 67.218 64.858 68.017 62.985 68.017 61.939 68.017 61.022 67.712 60.418 67.29 59.813 66.871 59.543 66.41 59.543 65.971 59.543 65.53 59.813 65.07 60.418 64.65 61.022 64.23 61.938 63.924 62.985 63.924" color="#83B6B9" fill="#83b6b9" data-fill-palette-color="accent"></path><path d="M51.695 81.182V18.832H53.938V81.183z" color="#83B6B9" fill="#83b6b9" data-fill-palette-color="accent"></path><path d="M48.305 81.182V18.832H46.062V81.183z" color="#83B6B9" fill="#83b6b9" data-fill-palette-color="accent"></path><path d="M24.086 17.268A5.953 5.953 0 0 1 30.04 23.221V28.728C30.04 30.005 30.341 31.203 30.876 32.244 33.426 29.927 37.706 28.85 40.866 30.886 41.934 31.573 42.69 32.738 42.69 34.048S41.916 36.495 40.866 37.211C37.811 39.29 33.746 38.236 30.876 35.853A7.7 7.7 0 0 0 30.04 39.368C30.04 40.646 30.341 41.843 30.876 42.884 33.426 40.567 37.706 39.51 40.866 41.545 41.934 42.233 42.69 43.398 42.69 44.707 42.69 46.017 41.916 47.136 40.866 47.851 37.811 49.931 33.746 48.895 30.876 46.511A7.5 7.5 0 0 0 30.04 49.992C30.04 51.268 30.341 52.466 30.876 53.507 33.426 51.19 37.706 50.132 40.866 52.167 41.934 52.855 42.69 54.02 42.69 55.33S41.916 57.758 40.866 58.473C37.811 60.553 33.746 59.517 30.876 57.134A7.7 7.7 0 0 0 30.04 60.65C30.04 61.927 30.341 63.106 30.876 64.147 33.426 61.83 37.706 60.773 40.866 62.807 41.934 63.497 42.69 64.662 42.69 65.97 42.69 67.28 41.916 68.418 40.866 69.133 37.811 71.213 33.746 70.158 30.876 67.775A7.7 7.7 0 0 0 30.04 71.29V76.797A5.953 5.953 0 0 1 24.086 82.75H5V80.5H24.086A3.696 3.696 0 0 0 27.788 76.796V71.291C27.788 69.329 28.348 67.478 29.332 65.95A9.77 9.77 0 0 1 27.788 60.65C27.788 58.688 28.348 56.838 29.332 55.311A9.83 9.83 0 0 1 27.788 49.991 9.73 9.73 0 0 1 29.332 44.689 9.83 9.83 0 0 1 27.788 39.369C27.788 37.405 28.348 35.574 29.332 34.048A9.83 9.83 0 0 1 27.788 28.727V23.22A3.696 3.696 0 0 0 24.086 19.52H5V17.27zM37.016 32.002C35.145 32.002 33.453 32.786 32.196 34.048 33.455 35.314 35.142 36.094 37.015 36.094 38.061 36.094 38.978 35.808 39.582 35.387 40.187 34.967 40.457 34.487 40.457 34.048S40.187 33.148 39.582 32.728C38.978 32.306 38.062 32.001 37.015 32.001M37.015 42.642C35.145 42.643 33.453 43.428 32.196 44.69 33.455 45.955 35.142 46.717 37.015 46.717 38.061 46.717 38.978 46.449 39.582 46.028S40.457 45.146 40.457 44.708C40.457 44.267 40.187 43.787 39.582 43.367 38.978 42.948 38.062 42.643 37.015 42.643M37.015 53.303A6.75 6.75 0 0 0 32.196 55.31C33.455 56.577 35.142 57.376 37.015 57.376 38.061 57.376 38.978 57.07 39.582 56.65S40.457 55.77 40.457 55.33 40.187 54.448 39.582 54.027C38.978 53.607 38.062 53.302 37.015 53.302M37.015 63.924C35.145 63.924 33.453 64.69 32.196 65.952 33.455 67.218 35.142 68.017 37.015 68.017 38.061 68.017 38.978 67.712 39.582 67.29 40.187 66.871 40.457 66.41 40.457 65.971 40.457 65.53 40.187 65.07 39.582 64.65 38.978 64.23 38.062 63.924 37.015 63.924" color="#83B6B9" fill="#83b6b9" data-fill-palette-color="accent"></path></svg></g></svg></g><g></g></svg></g></svg></g></svg></g></svg></g><defs></defs></svg><rect width="320" height="360" fill="none" stroke="none" visibility="hidden"></rect></g></svg></g></svg>