<?xml version="1.0" encoding="UTF-8"?>
<svg version="1.1" xmlns="http://www.w3.org/2000/svg" width="320" height="160">
<path d="M0 0 C105.6 0 211.2 0 320 0 C320 52.8 320 105.6 320 160 C214.4 160 108.8 160 0 160 C0 107.2 0 54.4 0 0 Z " fill="#222B30" transform="translate(0,0)"/>
<path d="M0 0 C52.8 0 105.6 0 160 0 C160 52.8 160 105.6 160 160 C107.2 160 54.4 160 0 160 C0 107.2 0 54.4 0 0 Z " fill="#EB641E" transform="translate(0,0)"/>
<path d="M0 0 C3.25504403 3.09363689 5.1343981 5.89567582 7 10 C7.66 9.34 8.32 8.68 9 8 C11.475 8.495 11.475 8.495 14 9 C15.65 6.03 17.3 3.06 19 0 C19.66 0 20.32 0 21 0 C22.796875 2.44921875 22.796875 2.44921875 24.75 5.6875 C25.40484375 6.74324219 26.0596875 7.79898437 26.734375 8.88671875 C28 12 28 12 27.40625 14.58203125 C25.42544701 17.98791194 23.26453542 21.24471866 21.046875 24.5 C19.692781 26.99453931 19.692781 26.99453931 20.7890625 29.66796875 C21.18867187 30.43753906 21.58828125 31.20710938 22 32 C22.35858516 33.32676508 22.7018576 34.65835921 23 36 C24.98 35.505 24.98 35.505 27 35 C27.33 33.02 27.66 31.04 28 29 C30.46800047 30.15173355 32.04783565 31.04783565 34 33 C34.625 35.125 34.625 35.125 35 37 C37.2608746 34.3167763 37.2608746 34.3167763 36.75 32 C35.98647443 29.73354622 35.98647443 29.73354622 34 27 C33.875 23.8125 33.875 23.8125 34 21 C45.49658314 29.37129841 45.49658314 29.37129841 47.0625 34.4375 C47 38 47 38 44.5625 40.9375 C43.716875 41.618125 42.87125 42.29875 42 43 C43.65 42.67 45.3 42.34 47 42 C46.49287967 45.71888239 45.88391785 48.73454239 44 52 C44.66 52.99 45.32 53.98 46 55 C46 55.99 46 56.98 46 58 C48.33524782 55.74259377 50.18705073 53.7194239 52 51 C52.49079755 58.36196319 52.49079755 58.36196319 50.125 61.4375 C48 63 48 63 46 64 C46.73283203 64.60521484 46.73283203 64.60521484 47.48046875 65.22265625 C49.38451663 67.44975595 49.37586792 68.54694773 49.3125 71.4375 C49.30863281 72.19933594 49.30476563 72.96117188 49.30078125 73.74609375 C48.9739386 76.19529127 48.21954601 77.86700917 47 80 C46.01 80 45.02 80 44 80 C44 77.69 44 75.38 44 73 C43.21625 73.04125 42.4325 73.0825 41.625 73.125 C39 73 39 73 37 71 C37 72.32 37 73.64 37 75 C38.92022703 76.77409808 38.92022703 76.77409808 41 78 C40.34 78.495 39.68 78.99 39 79.5 C36.1172783 83.10340212 36.69799003 85.46985042 37 90 C36.34 90 35.68 90 35 90 C35 93.63 35 97.26 35 101 C34.01 101.495 34.01 101.495 33 102 C33.49756092 104.75641416 33.49756092 104.75641416 35 107 C35.04092937 109.33297433 35.04241723 111.66705225 35 114 C34.01 114.495 34.01 114.495 33 115 C32.01 111.535 32.01 111.535 31 108 C28.97528522 110.51733512 26.9671573 113.04278531 25 115.60546875 C24.34 116.45753906 23.68 117.30960937 23 118.1875 C22.34 119.04730469 21.68 119.90710938 21 120.79296875 C19.06729797 122.92573564 17.64361689 123.94373343 15 125 C16 123 17 121 18 119 C17.23498445 117.20459489 17.23498445 117.20459489 16.0625 115.375 C15.381875 114.26125 14.70125 113.1475 14 112 C13.401875 112.763125 12.80375 113.52625 12.1875 114.3125 C10.52599023 116.35378343 8.87395061 118.16900528 7 120 C2.24231183 114.10386502 2.24231183 114.10386502 1.4375 110.4375 C2 108 2 108 4.0625 105 C6.24628548 102.23615972 6.24628548 102.23615972 5.9375 99.4375 C4.01834697 94.34171578 4.01834697 94.34171578 0 91 C-0.28875 91.763125 -0.5775 92.52625 -0.875 93.3125 C-2 96 -2 96 -4 99 C-7.61332314 97.79555895 -8.56967185 96.19892354 -10.3359375 92.90234375 C-11 91 -11 91 -10.4375 87.875 C-9.07711365 85.15422731 -7.65250522 82.55387171 -6 80 C-8.80175356 81.86783571 -10.11192137 83.30274481 -12 86 C-12.33 84.35 -12.66 82.7 -13 81 C-12.34 81 -11.68 81 -11 81 C-11 80.34 -11 79.68 -11 79 C-7.04 79 -3.08 79 1 79 C1 79.66 1 80.32 1 81 C1.99 81.495 1.99 81.495 3 82 C2.67 82.66 2.34 83.32 2 84 C1.34 84 0.68 84 0 84 C-0.33 83.01 -0.66 82.02 -1 81 C-1.99 80.67 -2.98 80.34 -4 80 C-3.01 81.670625 -3.01 81.670625 -2 83.375 C0 86.75 0 86.75 0 89 C2.61527381 86.63379989 4.26440562 84.057952 6 81 C4.68 80.34 3.36 79.68 2 79 C5.63 79 9.26 79 13 79 C12.505 80.98 12.505 80.98 12 83 C12 82.01 12 81.02 12 80 C11.01 80.33 10.02 80.66 9 81 C9.680625 82.051875 10.36125 83.10375 11.0625 84.1875 C12.47727368 86.68091318 13.00705182 87.70382353 12.9375 90.625 C12 93 12 93 10.375 95.4375 C8.75344448 97.95609796 8.75344448 97.95609796 9.0625 101 C10.12176523 104.38964874 11.62256951 106.3924956 14 109 C14.33773437 108.4225 14.67546875 107.845 15.0234375 107.25 C15.46945313 106.5075 15.91546875 105.765 16.375 105 C16.81585938 104.2575 17.25671875 103.515 17.7109375 102.75 C18.13632813 102.1725 18.56171875 101.595 19 101 C19.66 101 20.32 101 21 101 C25 107.75 25 107.75 25 110 C25.66 110 26.32 110 27 110 C27.68346682 108.34015202 28.34588315 106.67163195 29 105 C29.45375 104.05125 29.9075 103.1025 30.375 102.125 C31.29071269 97.54643654 29.5125457 95.84271695 27 92 C27 91.34 27 90.68 27 90 C26.34 90 25.68 90 25 90 C24.71125 90.928125 24.4225 91.85625 24.125 92.8125 C23 96 23 96 21 99 C17.15497156 97.71832385 16.5580359 96.21655254 14.734375 92.765625 C14 91 14 91 14 88.9375 C15.46207018 86.10473903 17.08727271 83.55030306 19 81 C19.66 81 20.32 81 21 81 C25 86.41176471 25 86.41176471 25 89 C25.66 89 26.32 89 27 89 C27.28875 88.2575 27.5775 87.515 27.875 86.75 C28.82302644 84.43260203 29.84845911 82.22082885 31 80 C29.02 79.505 29.02 79.505 27 79 C30.465 78.505 30.465 78.505 34 78 C34 73.71 34 69.42 34 65 C25.42 65 16.84 65 8 65 C8 64.67 8 64.34 8 64 C10.31 64 12.62 64 15 64 C14.505 61.03 14.505 61.03 14 58 C15.98 57.34 17.96 56.68 20 56 C17.03 56 14.06 56 11 56 C10.34 57.32 9.68 58.64 9 60 C6.9375 60.625 6.9375 60.625 5 61 C4.505 61.99 4.505 61.99 4 63 C4.99 63.99 4.99 63.99 6 65 C-2.58 65 -11.16 65 -20 65 C-20 66.98 -20 68.96 -20 71 C-21.485 70.505 -21.485 70.505 -23 70 C-23.33 70.99 -23.66 71.98 -24 73 C-25.65 73 -27.3 73 -29 73 C-27.83872641 79.61925944 -25.72138592 83.24891983 -21 88 C-21.99 88.495 -21.99 88.495 -23 89 C-23.495 89.99 -23.495 89.99 -24 91 C-24.20625 90.113125 -24.4125 89.22625 -24.625 88.3125 C-26.31548734 84.23996231 -28.58203916 82.70588566 -32 80 C-33.81329212 77.10722294 -34.29526803 74.8321976 -34.3125 71.4375 C-34.33763672 70.29087891 -34.33763672 70.29087891 -34.36328125 69.12109375 C-33.91796488 66.52102077 -32.99996498 65.65168612 -31 64 C-31.804375 63.54625 -32.60875 63.0925 -33.4375 62.625 C-36 61 -36 61 -37 59 C-37.13415472 56.3276379 -37.04318541 53.67749512 -37 51 C-36.360625 51.804375 -35.72125 52.60875 -35.0625 53.4375 C-33.59396498 55.2750504 -33.59396498 55.2750504 -32 57 C-30.28184562 54.74832154 -30.28184562 54.74832154 -29 52 C-29.77472052 49.95021083 -29.77472052 49.95021083 -31 48 C-31.125 45.25 -31.125 45.25 -31 43 C-29.68 43 -28.36 43 -27 43 C-27.845625 42.319375 -28.69125 41.63875 -29.5625 40.9375 C-32 38 -32 38 -32.25 34.5625 C-30.57888744 29.79982919 -27.98126285 27.90841728 -24 25 C-23.030625 24.21625 -22.06125 23.4325 -21.0625 22.625 C-20.381875 22.08875 -19.70125 21.5525 -19 21 C-18.75 26.625 -18.75 26.625 -21 30 C-21.81931089 32.51176074 -21.81931089 32.51176074 -22 35 C-21.34 35.66 -20.68 36.32 -20 37 C-19.731875 36.236875 -19.46375 35.47375 -19.1875 34.6875 C-18.04865495 32.11011382 -17.18583329 30.73045136 -15 29 C-14.34 29 -13.68 29 -13 29 C-12.34 31.31 -11.68 33.62 -11 36 C-9.68 36 -8.36 36 -7 36 C-7.0825 35.0925 -7.165 34.185 -7.25 33.25 C-7 30 -7 30 -5.125 27.625 C-3 26 -3 26 -1 26 C-1.495 25.05125 -1.99 24.1025 -2.5 23.125 C-4 20 -4 20 -4 18 C-5.093125 17.896875 -6.18625 17.79375 -7.3125 17.6875 C-11 17 -11 17 -12.78125 15.78125 C-14 14 -14 14 -13.85546875 11.51953125 C-13.63503906 10.62621094 -13.41460937 9.73289062 -13.1875 8.8125 C-12.97480469 7.91144531 -12.76210938 7.01039062 -12.54296875 6.08203125 C-12.36378906 5.39496094 -12.18460938 4.70789063 -12 4 C-8.06153846 7.32307692 -8.06153846 7.32307692 -7.75 10.75 C-7.8325 11.4925 -7.915 12.235 -8 13 C-6.02645668 11.02645668 -4.82535697 8.3347075 -3.4375 5.9375 C-2.79683594 4.83277344 -2.15617187 3.72804688 -1.49609375 2.58984375 C-1.00238281 1.73519531 -0.50867188 0.88054688 0 0 Z " fill="#FDF2EC" transform="translate(73,10)"/>
<path d="M0 0 C0.495 0.99 0.495 0.99 1 2 C-0.98 2.33 -2.96 2.66 -5 3 C-5 4.98 -5 6.96 -5 9 C1.27 9.33 7.54 9.66 14 10 C14.29296875 19.9609375 14.29296875 19.9609375 14 23 C13.01 23.66 12.02 24.32 11 25 C10.28293018 26.98248715 9.61709587 28.98415349 9 31 C8.34 31.99 7.68 32.98 7 34 C6.34 34 5.68 34 5 34 C1 28.58823529 1 28.58823529 1 26 C-1.33524782 28.25740623 -3.18705073 30.2805761 -5 33 C-4.68723009 36.96175214 -3.24960776 39.76056483 -1 43 C-0.01 43.495 -0.01 43.495 1 44 C1.433125 42.88625 1.433125 42.88625 1.875 41.75 C2.82302644 39.43260203 3.84845911 37.22082885 5 35 C5.66 35 6.32 35 7 35 C12.18098031 42.82362798 12.18098031 42.82362798 11.5 47.25 C11.005 48.1575 10.51 49.065 10 50 C9.505 50.94875 9.01 51.8975 8.5 52.875 C8.005 53.57625 7.51 54.2775 7 55 C6.34 55 5.68 55 5 55 C1 48.25 1 48.25 1 46 C-1.91488977 48.6234008 -3.88503898 51.71816394 -6 55 C-8.63049736 52.6200262 -10.47108462 50.2107223 -12 47 C-11.84123656 43.8247311 -11.14181575 42.21272362 -9.375 39.5625 C-7.55967079 36.17938646 -7.95679357 34.6512225 -9 31 C-9.93942486 28.97084231 -10.92598385 26.96124688 -12 25 C-12.33 25 -12.66 25 -13 25 C-14.65 27.97 -16.3 30.94 -18 34 C-18.66 34 -19.32 34 -20 34 C-24 27.25 -24 27.25 -24 25 C-22.68 25.33 -21.36 25.66 -20 26 C-20 26.99 -20 27.98 -20 29 C-19.34 29 -18.68 29 -18 29 C-18.495 26.525 -18.495 26.525 -19 24 C-22.96 24 -26.92 24 -31 24 C-31.33 24.99 -31.66 25.98 -32 27 C-31.67 27.66 -31.34 28.32 -31 29 C-30.67 27.68 -30.34 26.36 -30 25 C-28.68 25 -27.36 25 -26 25 C-26.28875 25.70125 -26.5775 26.4025 -26.875 27.125 C-27.24625 28.07375 -27.6175 29.0225 -28 30 C-28.45375 30.94875 -28.9075 31.8975 -29.375 32.875 C-30.07316439 36.36582193 -29.81434811 36.92458921 -28.125 39.875 C-27.42375 40.90625 -26.7225 41.9375 -26 43 C-25.34 43 -24.68 43 -24 43 C-22.68 40.69 -21.36 38.38 -20 36 C-16.15448271 37.2818391 -15.56218533 38.78459579 -13.73046875 42.23046875 C-13 44 -13 44 -13.0625 46.125 C-14 48 -14 48 -15.5625 50.4375 C-17.22000066 53.39217509 -17.56813314 54.67236301 -17 58 C-15.09643013 61.27310553 -15.09643013 61.27310553 -13 64 C-12.401875 63.236875 -11.80375 62.47375 -11.1875 61.6875 C-9 59 -9 59 -6 56 C-3.525 59.96 -3.525 59.96 -1 64 C-2.32 65.98 -3.64 67.96 -5 70 C-0.07254143 66.39454251 3.02458422 62.39039905 6.38671875 57.3046875 C7.79561849 55.29197358 9.20243308 53.66179902 11 52 C11.99 54.31 12.98 56.62 14 59 C14.16677282 55.58343976 14.16677282 55.58343976 14 52 C13.34 51.34 12.68 50.68 12 50 C12.3125 48.125 12.3125 48.125 13 46 C13.71365929 43.41298506 14.13685244 40.99071324 14.5 38.3125 C15 35 15 35 16 34 C15.938125 32.906875 15.87625 31.81375 15.8125 30.6875 C16 27 16 27 18 24.5625 C18.66 24.046875 19.32 23.53125 20 23 C18.68 22.01 17.36 21.02 16 20 C16.33 18.35 16.66 16.7 17 15 C17.99 15.99 17.99 15.99 19 17 C21.57061311 17.64767793 21.57061311 17.64767793 24 18 C24 20.31 24 22.62 24 25 C24.66 25.33 25.32 25.66 26 26 C25.01 26.721875 24.02 27.44375 23 28.1875 C20.41418255 30.34216803 20.41418255 30.34216803 19.4375 33.5625 C20.08310629 36.36012727 21.26026393 37.75284092 23 40 C23 41.32 23 42.64 23 44 C23.66 44.33 24.32 44.66 25 45 C25 45.66 25 46.32 25 47 C24.360625 47.433125 23.72125 47.86625 23.0625 48.3125 C20.50072404 50.40849852 20.34778436 51.78299472 20 55 C19.34 55 18.68 55 18 55 C18.11601563 56.0621875 18.23203125 57.124375 18.3515625 58.21875 C19.20255846 69.328975 19.20255846 69.328975 16.0546875 73.703125 C13.46699465 75.77644466 10.91614434 77.42561438 8 79 C7.23945312 79.43699219 6.47890625 79.87398438 5.6953125 80.32421875 C-3.49829055 85.26794869 -15.55870127 85.92883089 -25.53515625 82.94140625 C-28.56162419 81.500417 -31.23745714 79.89489977 -34 78 C-35.35158203 77.18208984 -35.35158203 77.18208984 -36.73046875 76.34765625 C-39.50004186 74.38533856 -41.21373551 72.89771796 -43 70 C-43.73344766 64.8762699 -43.54116166 60.13101428 -43 55 C-43.66 55 -44.32 55 -45 55 C-45.268125 54.05125 -45.53625 53.1025 -45.8125 52.125 C-46.74986588 48.74732727 -46.74986588 48.74732727 -50 47 C-50 46.34 -50 45.68 -50 45 C-49.01 45 -48.02 45 -47 45 C-47.226875 44.443125 -47.45375 43.88625 -47.6875 43.3125 C-48.12979676 40.03950399 -46.93512486 38.58016648 -45 36 C-44.34 36 -43.68 36 -43 36 C-43 31.59462275 -43.29620176 31.24187853 -46 28.125 C-48.30860269 25.23111775 -48.96762951 24.30212459 -49.375 20.5 C-49.25125 19.675 -49.1275 18.85 -49 18 C-48.195625 17.87625 -47.39125 17.7525 -46.5625 17.625 C-45.716875 17.41875 -44.87125 17.2125 -44 17 C-43.67 16.34 -43.34 15.68 -43 15 C-42.34 15 -41.68 15 -41 15 C-40.67 13.35 -40.34 11.7 -40 10 C-32.08 9.67 -24.16 9.34 -16 9 C-16 8.01 -16 7.02 -16 6 C-15.443125 5.7525 -14.88625 5.505 -14.3125 5.25 C-11.86213384 4.04754243 -11.86213384 4.04754243 -9.6875 1.875 C-6.27539937 -0.50553532 -4.07170096 -0.31934909 0 0 Z " fill="#FDF8F5" transform="translate(93,65)"/>
<path d="M0 0 C0.66 0.66 1.32 1.32 2 2 C4.57061311 2.64767793 4.57061311 2.64767793 7 3 C7 5.31 7 7.62 7 10 C7.99 10.495 7.99 10.495 9 11 C8.01 11.721875 7.02 12.44375 6 13.1875 C3.41418255 15.34216803 3.41418255 15.34216803 2.4375 18.5625 C3.08310629 21.36012727 4.26026393 22.75284092 6 25 C6 26.32 6 27.64 6 29 C6.66 29.33 7.32 29.66 8 30 C8 30.66 8 31.32 8 32 C7.360625 32.433125 6.72125 32.86625 6.0625 33.3125 C3.50072404 35.40849852 3.34778436 36.78299472 3 40 C2.34 40 1.68 40 1 40 C1.05800781 41.04800781 1.11601563 42.09601563 1.17578125 43.17578125 C1.22268131 44.554643 1.26818122 45.93355287 1.3125 47.3125 C1.35439453 48.00279297 1.39628906 48.69308594 1.43945312 49.40429688 C1.48828125 51.42578125 1.48828125 51.42578125 1 55 C-1.375 56.859375 -1.375 56.859375 -4 58 C-4.763125 58.639375 -5.52625 59.27875 -6.3125 59.9375 C-15.22717608 66.7789956 -24.87992483 69.0490637 -36 68 C-43.07888205 66.23027949 -49.24786786 62.41114428 -55 58 C-55.57492188 57.61328125 -56.14984375 57.2265625 -56.7421875 56.828125 C-58.83388038 53.78802479 -58.30840402 50.36211796 -58.1875 46.8125 C-58.17396484 46.06291016 -58.16042969 45.31332031 -58.14648438 44.54101562 C-58.11118539 42.69370233 -58.05737917 40.84675934 -58 39 C-57.67 39 -57.34 39 -57 39 C-56.67 41.31 -56.34 43.62 -56 46 C-54.62137726 44.82543499 -54.62137726 44.82543499 -54.5625 41.5625 C-54 38 -54 38 -52 36 C-51.64808594 36.64066406 -51.29617187 37.28132813 -50.93359375 37.94140625 C-47.58378914 43.81012399 -44.04035082 48.49649128 -39 53 C-39.66 52.01 -40.32 51.02 -41 50 C-40.15446413 47.32246974 -39.03094853 45.05345655 -37.625 42.625 C-36.88032585 39.49736856 -37.30070889 38.98990353 -38.875 36.3125 C-39.57625 35.219375 -40.2775 34.12625 -41 33 C-41 32.34 -41 31.68 -41 31 C-41.66 31 -42.32 31 -43 31 C-43.2475 31.7425 -43.495 32.485 -43.75 33.25 C-45.09147301 36.20124062 -46.60905526 37.84814974 -49 40 C-50.5625 37.6875 -50.5625 37.6875 -52 35 C-51.67 34.01 -51.34 33.02 -51 32 C-50.01 32.66 -49.02 33.32 -48 34 C-47.34 33.01 -46.68 32.02 -46 31 C-46.66 30.34 -47.32 29.68 -48 29 C-48 27.68 -48 26.36 -48 25 C-48.66 26.98 -49.32 28.96 -50 31 C-50.99 31 -51.98 31 -53 31 C-52.5020163 27.26512223 -52.12508244 25.18762365 -50 22 C-50.30544707 17.41829395 -51.8102075 13.99875153 -54 10 C-52.35 10 -50.7 10 -49 10 C-48.67 11.32 -48.34 12.64 -48 14 C-47.67 12.68 -47.34 11.36 -47 10 C-45.68 10 -44.36 10 -43 10 C-43.433125 11.051875 -43.433125 11.051875 -43.875 12.125 C-44.24625 13.07375 -44.6175 14.0225 -45 15 C-45.45375 15.94875 -45.9075 16.8975 -46.375 17.875 C-47.07316439 21.36582193 -46.81434811 21.92458921 -45.125 24.875 C-44.073125 26.421875 -44.073125 26.421875 -43 28 C-42.34 28 -41.68 28 -41 28 C-39.68 25.69 -38.36 23.38 -37 21 C-33.15448271 22.2818391 -32.56218533 23.78459579 -30.73046875 27.23046875 C-30 29 -30 29 -30.0625 31.125 C-31 33 -31 33 -32.5625 35.4375 C-34.22000066 38.39217509 -34.56813314 39.67236301 -34 43 C-32.09643013 46.27310553 -32.09643013 46.27310553 -30 49 C-29.401875 48.236875 -28.80375 47.47375 -28.1875 46.6875 C-26 44 -26 44 -23 41 C-20.525 44.96 -20.525 44.96 -18 49 C-19.32 50.98 -20.64 52.96 -22 55 C-17.07254143 51.39454251 -13.97541578 47.39039905 -10.61328125 42.3046875 C-9.20438151 40.29197358 -7.79756692 38.66179902 -6 37 C-5.01 39.31 -4.02 41.62 -3 44 C-2.83322718 40.58343976 -2.83322718 40.58343976 -3 37 C-3.66 36.34 -4.32 35.68 -5 35 C-4.6875 33.125 -4.6875 33.125 -4 31 C-3.28634071 28.41298506 -2.86314756 25.99071324 -2.5 23.3125 C-2 20 -2 20 -1 19 C-1.061875 17.906875 -1.12375 16.81375 -1.1875 15.6875 C-1 12 -1 12 1 9.5625 C1.66 9.046875 2.32 8.53125 3 8 C1.68 7.01 0.36 6.02 -1 5 C-0.67 3.35 -0.34 1.7 0 0 Z " fill="#FBE5D9" transform="translate(110,80)"/>
<path d="M0 0 C0.33 0 0.66 0 1 0 C1.49079755 7.36196319 1.49079755 7.36196319 -0.875 10.4375 C-3 12 -3 12 -5 13 C-4.26716797 13.60521484 -4.26716797 13.60521484 -3.51953125 14.22265625 C-1.61548337 16.44975595 -1.62413208 17.54694773 -1.6875 20.4375 C-1.69136719 21.19933594 -1.69523437 21.96117188 -1.69921875 22.74609375 C-2.0260614 25.19529127 -2.78045399 26.86700917 -4 29 C-4.99 29 -5.98 29 -7 29 C-7 26.69 -7 24.38 -7 22 C-7.78375 22.04125 -8.5675 22.0825 -9.375 22.125 C-12 22 -12 22 -14 20 C-14 21.32 -14 22.64 -14 24 C-12.07977297 25.77409808 -12.07977297 25.77409808 -10 27 C-10.66 27.495 -11.32 27.99 -12 28.5 C-14.8827217 32.10340212 -14.30200997 34.46985042 -14 39 C-14.66 39 -15.32 39 -16 39 C-16 42.63 -16 46.26 -16 50 C-16.99 50.495 -16.99 50.495 -18 51 C-17.50243908 53.75641416 -17.50243908 53.75641416 -16 56 C-15.95907063 58.33297433 -15.95758277 60.66705225 -16 63 C-16.99 63.495 -16.99 63.495 -18 64 C-18.66 61.69 -19.32 59.38 -20 57 C-22.02471478 59.51733512 -24.0328427 62.04278531 -26 64.60546875 C-26.66 65.45753906 -27.32 66.30960937 -28 67.1875 C-28.66 68.04730469 -29.32 68.90710938 -30 69.79296875 C-31.93270203 71.92573564 -33.35638311 72.94373343 -36 74 C-35 72 -34 70 -33 68 C-33.76501555 66.20459489 -33.76501555 66.20459489 -34.9375 64.375 C-35.618125 63.26125 -36.29875 62.1475 -37 61 C-37.598125 61.763125 -38.19625 62.52625 -38.8125 63.3125 C-40.47400977 65.35378343 -42.12604939 67.16900528 -44 69 C-48.75768817 63.10386502 -48.75768817 63.10386502 -49.5625 59.4375 C-49 57 -49 57 -46.9375 54 C-44.75371452 51.23615972 -44.75371452 51.23615972 -45.0625 48.4375 C-46.98165303 43.34171578 -46.98165303 43.34171578 -51 40 C-51.28875 40.763125 -51.5775 41.52625 -51.875 42.3125 C-53 45 -53 45 -55 48 C-58.61332314 46.79555895 -59.56967185 45.19892354 -61.3359375 41.90234375 C-62 40 -62 40 -61.4375 36.875 C-60.07711365 34.15422731 -58.65250522 31.55387171 -57 29 C-59.80175356 30.86783571 -61.11192137 32.30274481 -63 35 C-63.33 33.35 -63.66 31.7 -64 30 C-63.34 30 -62.68 30 -62 30 C-62 29.34 -62 28.68 -62 28 C-58.04 28 -54.08 28 -50 28 C-50 28.66 -50 29.32 -50 30 C-49.34 30.33 -48.68 30.66 -48 31 C-48.33 31.66 -48.66 32.32 -49 33 C-49.66 33 -50.32 33 -51 33 C-51.495 31.515 -51.495 31.515 -52 30 C-52.99 29.67 -53.98 29.34 -55 29 C-54.34 30.11375 -53.68 31.2275 -53 32.375 C-51 35.75 -51 35.75 -51 38 C-48.38472619 35.63379989 -46.73559438 33.057952 -45 30 C-46.32 29.34 -47.64 28.68 -49 28 C-45.37 28 -41.74 28 -38 28 C-38.33 29.32 -38.66 30.64 -39 32 C-39 31.01 -39 30.02 -39 29 C-39.99 29.33 -40.98 29.66 -42 30 C-41.319375 31.051875 -40.63875 32.10375 -39.9375 33.1875 C-38.52272632 35.68091318 -37.99294818 36.70382353 -38.0625 39.625 C-39 42 -39 42 -40.625 44.4375 C-42.24655552 46.95609796 -42.24655552 46.95609796 -41.9375 50 C-40.87823477 53.38964874 -39.37743049 55.3924956 -37 58 C-36.66226563 57.4225 -36.32453125 56.845 -35.9765625 56.25 C-35.53054687 55.5075 -35.08453125 54.765 -34.625 54 C-34.18414062 53.2575 -33.74328125 52.515 -33.2890625 51.75 C-32.86367187 51.1725 -32.43828125 50.595 -32 50 C-31.34 50 -30.68 50 -30 50 C-26 56.75 -26 56.75 -26 59 C-25.34 59 -24.68 59 -24 59 C-23.31653318 57.34015202 -22.65411685 55.67163195 -22 54 C-21.319375 52.576875 -21.319375 52.576875 -20.625 51.125 C-19.70928731 46.54643654 -21.4874543 44.84271695 -24 41 C-24 40.34 -24 39.68 -24 39 C-24.66 39 -25.32 39 -26 39 C-26.28875 39.928125 -26.5775 40.85625 -26.875 41.8125 C-28 45 -28 45 -30 48 C-33.84502844 46.71832385 -34.4419641 45.21655254 -36.265625 41.765625 C-37 40 -37 40 -37 37.9375 C-35.53792982 35.10473903 -33.91272729 32.55030306 -32 30 C-31.34 30 -30.68 30 -30 30 C-26 35.41176471 -26 35.41176471 -26 38 C-25.34 38 -24.68 38 -24 38 C-23.566875 36.88625 -23.566875 36.88625 -23.125 35.75 C-22.17697356 33.43260203 -21.15154089 31.22082885 -20 29 C-21.32 28.67 -22.64 28.34 -24 28 C-21.69 27.67 -19.38 27.34 -17 27 C-17 22.71 -17 18.42 -17 14 C-16.34 13.67 -15.68 13.34 -15 13 C-19.62 13 -24.24 13 -29 13 C-29 10.36 -29 7.72 -29 5 C-28.34 5.33 -27.68 5.66 -27 6 C-27 7.65 -27 9.3 -27 11 C-26.34 10.67 -25.68 10.34 -25 10 C-24.34444881 7.47266765 -24.34444881 7.47266765 -24 5 C-22.5 6.375 -22.5 6.375 -21 8 C-21 8.66 -21 9.32 -21 10 C-18.03 10.33 -15.06 10.66 -12 11 C-12 10.01 -12 9.02 -12 8 C-11.030625 7.87625 -10.06125 7.7525 -9.0625 7.625 C-8.051875 7.41875 -7.04125 7.2125 -6 7 C-5.67 6.34 -5.34 5.68 -5 5 C-5 5.66 -5 6.32 -5 7 C-2.47411298 4.63707344 -1.11179163 3.33537489 0 0 Z " fill="#FDF7F3" transform="translate(124,61)"/>
<path d="M0 0 C0.495 0.99 0.495 0.99 1 2 C-0.98 2.33 -2.96 2.66 -5 3 C-5 4.98 -5 6.96 -5 9 C1.27 9.33 7.54 9.66 14 10 C14 14.29 14 18.58 14 23 C-3.49 23 -20.98 23 -39 23 C-39 18.71 -39 14.42 -39 10 C-31.41 9.67 -23.82 9.34 -16 9 C-16 8.01 -16 7.02 -16 6 C-15.443125 5.7525 -14.88625 5.505 -14.3125 5.25 C-11.86213384 4.04754243 -11.86213384 4.04754243 -9.6875 1.875 C-6.27539937 -0.50553532 -4.07170096 -0.31934909 0 0 Z " fill="#EB6824" transform="translate(93,65)"/>
<path d="M0 0 C0.33 0 0.66 0 1 0 C1.25 5.625 1.25 5.625 -1 9 C-1.81931089 11.51176074 -1.81931089 11.51176074 -2 14 C-1.34 14.66 -0.68 15.32 0 16 C0.268125 15.236875 0.53625 14.47375 0.8125 13.6875 C1.95134505 11.11011382 2.81416671 9.73045136 5 8 C5.66 8 6.32 8 7 8 C7.66 10.31 8.32 12.62 9 15 C10.32 15 11.64 15 13 15 C13 13.02 13 11.04 13 9 C14.32 9.33 15.64 9.66 17 10 C16.34 11.65 15.68 13.3 15 15 C15.99 14.34 16.98 13.68 18 13 C20.91796875 12.8046875 20.91796875 12.8046875 24.1875 12.875 C25.81751953 12.90207031 25.81751953 12.90207031 27.48046875 12.9296875 C28.72763672 12.96449219 28.72763672 12.96449219 30 13 C30 13.66 30 14.32 30 15 C27.03 15 24.06 15 21 15 C21.98267859 16.20561184 21.98267859 16.20561184 23.84765625 16.09765625 C25.8984375 16.06510417 27.94921875 16.03255208 30 16 C30 17.65 30 19.3 30 21 C25.5833785 21.16787805 21.16669597 21.33409365 16.75 21.5 C15.49574219 21.54769531 14.24148437 21.59539063 12.94921875 21.64453125 C11.74394531 21.68964844 10.53867187 21.73476563 9.296875 21.78125 C8.18666992 21.82314453 7.07646484 21.86503906 5.93261719 21.90820312 C3.6226736 21.98050905 1.31107497 22 -1 22 C-1.33 22.33 -1.66 22.66 -2 23 C-0.02 23.99 1.96 24.98 4 26 C4 26.33 4 26.66 4 27 C2.02 27 0.04 27 -2 27 C-1.835 27.969375 -1.67 28.93875 -1.5 29.9375 C-1 33 -1 33 -1 34 C-0.34 33.01 0.32 32.02 1 31 C2.32 31.33 3.64 31.66 5 32 C4.50628906 32.40992188 4.01257813 32.81984375 3.50390625 33.2421875 C2.86324219 33.78101563 2.22257812 34.31984375 1.5625 34.875 C0.92441406 35.40867188 0.28632812 35.94234375 -0.37109375 36.4921875 C-2.10805004 37.9222757 -2.10805004 37.9222757 -3 40 C0.93774177 40.36630156 2.56539771 40.30233203 5.875 38 C6.57625 37.34 7.2775 36.68 8 36 C8 37.65 8 39.3 8 41 C8.99 41 9.98 41 11 41 C11.0825 40.071875 11.165 39.14375 11.25 38.1875 C12 35 12 35 14.0625 33.125 C14.701875 32.75375 15.34125 32.3825 16 32 C17.125 34.3125 17.125 34.3125 18 37 C17.34 37.99 16.68 38.98 16 40 C16.66 40.33 17.32 40.66 18 41 C18 40.01 18 39.02 18 38 C18.66 38 19.32 38 20 38 C20.33 38.99 20.66 39.98 21 41 C20.34 41 19.68 41 19 41 C19 41.66 19 42.32 19 43 C12.4 43 5.8 43 -1 43 C-1.33 44.32 -1.66 45.64 -2 47 C-3.4375 49.25 -3.4375 49.25 -5 51 C-5.66 51 -6.32 51 -7 51 C-6.47731534 48.23723823 -5.89130413 45.6739124 -5 43 C-5 41.68 -5 40.36 -5 39 C-6.98 38.01 -8.96 37.02 -11 36 C-10.34 33.69 -9.68 31.38 -9 29 C-9.66 28.34 -10.32 27.68 -11 27 C-11.125 24.375 -11.125 24.375 -11 22 C-9.68 22 -8.36 22 -7 22 C-7.845625 21.319375 -8.69125 20.63875 -9.5625 19.9375 C-12 17 -12 17 -12.25 13.5625 C-10.57567511 8.79067408 -7.92199614 6.97797081 -4 4 C-3.21625 3.21625 -2.4325 2.4325 -1.625 1.625 C-1.08875 1.08875 -0.5525 0.5525 0 0 Z " fill="#FDF3EE" transform="translate(53,31)"/>
<path d="M0 0 C3.96 0 7.92 0 12 0 C12 0.66 12 1.32 12 2 C12.66 2.33 13.32 2.66 14 3 C13.67 3.66 13.34 4.32 13 5 C12.34 5 11.68 5 11 5 C10.67 4.01 10.34 3.02 10 2 C9.01 1.67 8.02 1.34 7 1 C7.66 2.11375 8.32 3.2275 9 4.375 C11 7.75 11 7.75 11 10 C13.61527381 7.63379989 15.26440562 5.057952 17 2 C15.68 1.34 14.36 0.68 13 0 C16.63 0 20.26 0 24 0 C23.67 1.32 23.34 2.64 23 4 C23 3.01 23 2.02 23 1 C22.01 1.33 21.02 1.66 20 2 C21.0209375 3.5778125 21.0209375 3.5778125 22.0625 5.1875 C23.47727368 7.68091318 24.00705182 8.70382353 23.9375 11.625 C23 14 23 14 21.375 16.4375 C19.75344448 18.95609796 19.75344448 18.95609796 20.0625 22 C21.12176523 25.38964874 22.62256951 27.3924956 25 30 C25.33773437 29.4225 25.67546875 28.845 26.0234375 28.25 C26.46945313 27.5075 26.91546875 26.765 27.375 26 C27.81585938 25.2575 28.25671875 24.515 28.7109375 23.75 C29.13632813 23.1725 29.56171875 22.595 30 22 C30.66 22 31.32 22 32 22 C36 28.75 36 28.75 36 31 C36.66 31 37.32 31 38 31 C38.66 29.68 39.32 28.36 40 27 C40.495 27.99 40.495 27.99 41 29 C37.185989 35.03535807 33.21519544 41.06707029 28 46 C27.34 46 26.68 46 26 46 C27 44 28 42 29 40 C28.23498445 38.20459489 28.23498445 38.20459489 27.0625 36.375 C26.381875 35.26125 25.70125 34.1475 25 33 C24.401875 33.763125 23.80375 34.52625 23.1875 35.3125 C21.52599023 37.35378343 19.87395061 39.16900528 18 41 C13.24231183 35.10386502 13.24231183 35.10386502 12.4375 31.4375 C13 29 13 29 15.0625 26 C17.24628548 23.23615972 17.24628548 23.23615972 16.9375 20.4375 C15.01834697 15.34171578 15.01834697 15.34171578 11 12 C10.71125 12.763125 10.4225 13.52625 10.125 14.3125 C9 17 9 17 7 20 C3.38667686 18.79555895 2.43032815 17.19892354 0.6640625 13.90234375 C0 12 0 12 0.5625 8.875 C1.92288635 6.15422731 3.34749478 3.55387171 5 1 C2.19824644 2.86783571 0.88807863 4.30274481 -1 7 C-1.33 5.35 -1.66 3.7 -2 2 C-1.34 2 -0.68 2 0 2 C0 1.34 0 0.68 0 0 Z " fill="#FDF4EF" transform="translate(62,89)"/>
<path d="M0 0 C4.30123831 -0.13847045 8.34302253 -0.18688929 11.94140625 2.390625 C16.49779972 7.42274401 19.86137264 13.41749158 23.30078125 19.2421875 C24.86553217 22.01958719 24.86553217 22.01958719 27 24 C18.42 24 9.84 24 1 24 C1 25.98 1 27.96 1 30 C0.01 29.67 -0.98 29.34 -2 29 C-2.33 29.99 -2.66 30.98 -3 32 C-4.65 32 -6.3 32 -8 32 C-6.83872641 38.61925944 -4.72138592 42.24891983 0 47 C-0.99 47.495 -0.99 47.495 -2 48 C-2.33 48.66 -2.66 49.32 -3 50 C-3.20625 49.113125 -3.4125 48.22625 -3.625 47.3125 C-5.31548734 43.23996231 -7.58203916 41.70588566 -11 39 C-12.81329212 36.10722294 -13.29526803 33.8321976 -13.3125 30.4375 C-13.33763672 29.29087891 -13.33763672 29.29087891 -13.36328125 28.12109375 C-12.91796488 25.52102077 -11.99996498 24.65168612 -10 23 C-10.804375 22.54625 -11.60875 22.0925 -12.4375 21.625 C-15 20 -15 20 -16 18 C-16.13415472 15.3276379 -16.04318541 12.67749512 -16 10 C-15.525625 10.763125 -15.05125 11.52625 -14.5625 12.3125 C-11.15513193 15.88608115 -7.68574293 16.76849064 -3 18 C-3.185625 18.61875 -3.37125 19.2375 -3.5625 19.875 C-4.23686176 22.04160178 -4.23686176 22.04160178 -3 24 C-3.93578995 26.35981813 -4.93347808 28.69631264 -6 31 C-3.96912164 29.16253863 -3.00775581 28.02076555 -2.03125 25.40625 C0 23 0 23 2.1159668 22.59448242 C4.82174669 22.5067316 7.48310053 22.56551113 10.1875 22.6875 C11.12787109 22.71005859 12.06824219 22.73261719 13.03710938 22.75585938 C15.35967473 22.81480773 17.67903776 22.89702215 20 23 C20.33 21.35 20.66 19.7 21 18 C20.34 18 19.68 18 19 18 C19 18.99 19 19.98 19 21 C18.01 20.67 17.02 20.34 16 20 C16.66 18.35 17.32 16.7 18 15 C17.34 14.34 16.68 13.68 16 13 C13.84622436 15.62198774 12.59927826 17.64404172 12 21 C11.01 21 10.02 21 9 21 C8.67 19.68 8.34 18.36 8 17 C7.484375 17.66 6.96875 18.32 6.4375 19 C3.20004245 21.65637543 1.07447719 21.31342132 -3 21 C-0.89851796 17.01824456 1.36905358 14.64960955 5 12 C4.01 11.67 3.02 11.34 2 11 C1.7525 11.639375 1.505 12.27875 1.25 12.9375 C0 15 0 15 -2.125 15.75 C-3.053125 15.87375 -3.053125 15.87375 -4 16 C-3.484375 15.649375 -2.96875 15.29875 -2.4375 14.9375 C-0.59853617 12.90531273 -0.59853617 12.90531273 -1.3125 9.3125 C-1.6528125 7.6728125 -1.6528125 7.6728125 -2 6 C-0.35 6 1.3 6 3 6 C0.525 4.515 0.525 4.515 -2 3 C-1.34 2.67 -0.68 2.34 0 2 C0 1.34 0 0.68 0 0 Z " fill="#FDF5F1" transform="translate(52,51)"/>
<path d="M0 0 C0.33 0 0.66 0 1 0 C1.185625 1.010625 1.37125 2.02125 1.5625 3.0625 C3.2579617 8.85045546 7.36974152 12.35500336 12.3671875 15.48046875 C14.87002263 16.80985625 17.37099964 17.94352381 20 19 C20.72058594 19.29390625 21.44117187 19.5878125 22.18359375 19.890625 C29.17162028 22.09602053 35.43161585 19.69712147 42 17 C43.67060946 16.00660087 45.33822359 15.00810562 47 14 C47.66 14 48.32 14 49 14 C49 14.66 49 15.32 49 16 C48.195625 16.391875 47.39125 16.78375 46.5625 17.1875 C43.59877264 18.8525473 43.59877264 18.8525473 43.1875 22.6875 C43.0946875 24.3271875 43.0946875 24.3271875 43 26 C35.35240945 29.59886614 27.52541593 30.39316043 19.2578125 28.30859375 C13.33377804 26.1032289 8.00744175 22.84006269 3 19 C2.42507812 18.61328125 1.85015625 18.2265625 1.2578125 17.828125 C-0.83388038 14.78802479 -0.30840402 11.36211796 -0.1875 7.8125 C-0.17396484 7.06291016 -0.16042969 6.31332031 -0.14648438 5.54101562 C-0.11118539 3.69370233 -0.05737917 1.84675934 0 0 Z " fill="#EC6E2D" transform="translate(52,119)"/>
<path d="M0 0 C0.66 0.66 1.32 1.32 2 2 C4.57061311 2.64767793 4.57061311 2.64767793 7 3 C7 5.31 7 7.62 7 10 C7.66 10.33 8.32 10.66 9 11 C8.01 11.721875 7.02 12.44375 6 13.1875 C3.41418255 15.34216803 3.41418255 15.34216803 2.4375 18.5625 C3.08310629 21.36012727 4.26026393 22.75284092 6 25 C6 26.32 6 27.64 6 29 C6.66 29.33 7.32 29.66 8 30 C8 30.66 8 31.32 8 32 C7.360625 32.433125 6.72125 32.86625 6.0625 33.3125 C3.50072404 35.40849852 3.34778436 36.78299472 3 40 C2.34 40 1.68 40 1 40 C1.05800781 41.04800781 1.11601563 42.09601563 1.17578125 43.17578125 C1.22268131 44.554643 1.26818122 45.93355287 1.3125 47.3125 C1.35439453 48.00279297 1.39628906 48.69308594 1.43945312 49.40429688 C1.48828125 51.42578125 1.48828125 51.42578125 1 55 C-1.3671875 56.85546875 -1.3671875 56.85546875 -4 58 C-4.804375 58.66 -5.60875 59.32 -6.4375 60 C-9.1520243 62.11865311 -11.88497129 63.55114944 -15 65 C-15.25 61.6875 -15.25 61.6875 -15 58 C-13.125 56.0625 -13.125 56.0625 -11 55 C-10.34 55 -9.68 55 -9 55 C-9.495 53.515 -9.495 53.515 -10 52 C-8.56640625 50.203125 -8.56640625 50.203125 -6.5625 48.25 C-3.75876078 45.22285527 -3.05245206 44.36133644 -2.4375 40.125 C-2.70930729 36.91025497 -2.70930729 36.91025497 -5 35 C-4.6875 33.125 -4.6875 33.125 -4 31 C-3.28634071 28.41298506 -2.86314756 25.99071324 -2.5 23.3125 C-2 20 -2 20 -1 19 C-1.061875 17.906875 -1.12375 16.81375 -1.1875 15.6875 C-1 12 -1 12 1 9.5625 C1.66 9.046875 2.32 8.53125 3 8 C1.68 7.01 0.36 6.02 -1 5 C-0.67 3.35 -0.34 1.7 0 0 Z " fill="#EC6F2E" transform="translate(110,80)"/>
<path d="M0 0 C11.49658314 8.37129841 11.49658314 8.37129841 13.0625 13.4375 C13 17 13 17 10.5625 19.9375 C9.716875 20.618125 8.87125 21.29875 8 22 C9.65 21.67 11.3 21.34 13 21 C12.24050633 26.56962025 12.24050633 26.56962025 10.8125 29.125 C9.71657775 31.05176526 9.71657775 31.05176526 10.875 33.25 C11.431875 34.11625 11.431875 34.11625 12 35 C10.40102839 36.93559722 9.00471563 37.99764219 6.75 39.125 C2.6397577 38.9381708 1.04547211 36.49730544 -1.64453125 33.56640625 C-2.09183594 33.04949219 -2.53914063 32.53257813 -3 32 C-2.37609375 31.70351563 -1.7521875 31.40703125 -1.109375 31.1015625 C1.03797092 29.98017074 2.38095835 28.78094582 4 27 C1.69 27 -0.62 27 -3 27 C-0.94766315 24.7522025 0.00667261 23.9977758 3 23 C2.34 22.34 1.68 21.68 1 21 C-1.15562644 21.05379186 -1.15562644 21.05379186 -3.5 21.5 C-5.90625 21.90625 -5.90625 21.90625 -8 22 C-8.66 21.34 -9.32 20.68 -10 20 C-9.360625 19.79375 -8.72125 19.5875 -8.0625 19.375 C-5.69804904 18.1213606 -5.69804904 18.1213606 -5.1875 15.125 C-5.02291999 12.38199986 -5.11216008 10.56487088 -6 8 C-3.53199953 9.15173355 -1.95216435 10.04783565 0 12 C0.625 14.125 0.625 14.125 1 16 C3.2608746 13.3167763 3.2608746 13.3167763 2.75 11 C1.98647443 8.73354622 1.98647443 8.73354622 0 6 C-0.125 2.8125 -0.125 2.8125 0 0 Z " fill="#FDF3EE" transform="translate(107,31)"/>
<path d="M0 0 C2.84763523 2.84763523 3 5.03616548 3 9 C2.01 9.66 1.02 10.32 0 11 C-0.66 10.34 -1.32 9.68 -2 9 C-1.34 10.65 -0.68 12.3 0 14 C0.66 14 1.32 14 2 14 C3.32 11.69 4.64 9.38 6 7 C6.66 7 7.32 7 8 7 C10.04996287 10.22415047 11.85240613 13.34371255 13 17 C12.15071207 19.81161779 10.71227883 21.55388738 9 24 C9.54217768 26.33664149 9.54217768 26.33664149 11 28 C11.33 28.66 11.66 29.32 12 30 C8.21866267 28.46679261 6.10556448 26.16776728 3.4375 23.125 C2.67308594 22.26132813 1.90867187 21.39765625 1.12109375 20.5078125 C-0.67181576 18.38801893 -2.36679007 16.24370693 -4 14 C-4.12375 15.134375 -4.2475 16.26875 -4.375 17.4375 C-4.58125 18.613125 -4.7875 19.78875 -5 21 C-5.66 21.33 -6.32 21.66 -7 22 C-7.33 21.34 -7.66 20.68 -8 20 C-8.87721135 26.70676603 -8.87721135 26.70676603 -6.79296875 32.890625 C1.66674599 40.41917676 11.47654365 43.38903992 22.546875 43.27734375 C32.34604848 42.49030606 40.15451905 37.84548095 47 31 C47.99 31.33 48.98 31.66 50 32 C37.81127922 42.29047738 28.20155899 46.17895043 12.23095703 45.26513672 C6.73471917 44.6119397 2.48313959 42.07510167 -2 39 C-3.35158203 38.18208984 -3.35158203 38.18208984 -4.73046875 37.34765625 C-7.50004186 35.38533856 -9.21373551 33.89771796 -11 31 C-11.73344766 25.8762699 -11.54116166 21.13101428 -11 16 C-11.66 16 -12.32 16 -13 16 C-13.33 13.69 -13.66 11.38 -14 9 C-11.48916886 10.25541557 -11.12874554 11.50063488 -10 14 C-7.91738855 12.96287824 -7.91738855 12.96287824 -6 11 C-5.18685089 7.39534252 -5.18685089 7.39534252 -5 4 C-4.67 4.99 -4.34 5.98 -4 7 C-3.01 6.67 -2.02 6.34 -1 6 C-0.67 4.02 -0.34 2.04 0 0 Z " fill="#FBE3D6" transform="translate(61,104)"/>
<path d="M0 0 C1.65 0 3.3 0 5 0 C5.33 1.32 5.66 2.64 6 4 C6.33 2.68 6.66 1.36 7 0 C8.32 0 9.64 0 11 0 C10.566875 1.051875 10.566875 1.051875 10.125 2.125 C9.75375 3.07375 9.3825 4.0225 9 5 C8.54625 5.94875 8.0925 6.8975 7.625 7.875 C6.92683561 11.36582193 7.18565189 11.92458921 8.875 14.875 C9.926875 16.421875 9.926875 16.421875 11 18 C11.66 18 12.32 18 13 18 C14.32 15.69 15.64 13.38 17 11 C20.84551729 12.2818391 21.43781467 13.78459579 23.26953125 17.23046875 C24 19 24 19 23.9375 21.125 C23 23 23 23 21.4375 25.4375 C19.77999934 28.39217509 19.43186686 29.67236301 20 33 C20.680625 33.99 21.36125 34.98 22.0625 36 C24 39 24 39 23.8125 41.75 C23 44 23 44 22 46 C21.01 46 20.02 46 19 46 C19 44.35 19 42.7 19 41 C18.34 41 17.68 41 17 41 C16.01 41 15.02 41 14 41 C14 37 14 37 15.75 33.6875 C17.3281761 30.28647156 17.3281761 30.28647156 16.30859375 28.0625 C15.27405894 26.33226757 14.14069785 24.66215973 13 23 C13 22.34 13 21.68 13 21 C12.34 21 11.68 21 11 21 C10.7525 21.7425 10.505 22.485 10.25 23.25 C8.90852699 26.20124062 7.39094474 27.84814974 5 30 C3.4375 27.6875 3.4375 27.6875 2 25 C2.33 24.01 2.66 23.02 3 22 C3.99 22.66 4.98 23.32 6 24 C6.66 23.01 7.32 22.02 8 21 C7.34 20.34 6.68 19.68 6 19 C6 17.68 6 16.36 6 15 C5.34 16.98 4.68 18.96 4 21 C3.01 21 2.02 21 1 21 C1.4979837 17.26512223 1.87491756 15.18762365 4 12 C3.69455293 7.41829395 2.1897925 3.99875153 0 0 Z " fill="#ED7537" transform="translate(56,90)"/>
<path d="M0 0 C1.32 0 2.64 0 4 0 C4.33 0.99 4.66 1.98 5 3 C5.66 2.67 6.32 2.34 7 2 C7 1.34 7 0.68 7 0 C8.32 0 9.64 0 11 0 C9.87548273 2.9719385 8.77706209 5.33440687 7 8 C7.31276991 11.96175214 8.75039224 14.76056483 11 18 C11.66 18.33 12.32 18.66 13 19 C13.433125 17.88625 13.433125 17.88625 13.875 16.75 C14.82302644 14.43260203 15.84845911 12.22082885 17 10 C17.66 10 18.32 10 19 10 C24.18098031 17.82362798 24.18098031 17.82362798 23.5 22.25 C23.005 23.1575 22.51 24.065 22 25 C21.505 25.94875 21.01 26.8975 20.5 27.875 C20.005 28.57625 19.51 29.2775 19 30 C18.34 30 17.68 30 17 30 C13 23.25 13 23.25 13 21 C10.08511023 23.6234008 8.11496102 26.71816394 6 30 C3.36950264 27.6200262 1.52891538 25.2107223 0 22 C0.15876344 18.8247311 0.85818425 17.21272362 2.625 14.5625 C4.44032921 11.17938646 4.04320643 9.6512225 3 6 C2.06057514 3.97084231 1.07401615 1.96124688 0 0 Z " fill="#EC7030" transform="translate(81,90)"/>
<path d="M0 0 C0.66 2.31 1.32 4.62 2 7 C3.32 7 4.64 7 6 7 C6 5.02 6 3.04 6 1 C7.32 1.33 8.64 1.66 10 2 C9.34 3.65 8.68 5.3 8 7 C8.99 6.34 9.98 5.68 11 5 C13.91796875 4.8046875 13.91796875 4.8046875 17.1875 4.875 C18.81751953 4.90207031 18.81751953 4.90207031 20.48046875 4.9296875 C21.72763672 4.96449219 21.72763672 4.96449219 23 5 C23 5.66 23 6.32 23 7 C20.03 7 17.06 7 14 7 C14.98267859 8.20561184 14.98267859 8.20561184 16.84765625 8.09765625 C18.8984375 8.06510417 20.94921875 8.03255208 23 8 C23 9.65 23 11.3 23 13 C18.5833785 13.16787805 14.16669597 13.33409365 9.75 13.5 C8.49574219 13.54769531 7.24148437 13.59539063 5.94921875 13.64453125 C4.74394531 13.68964844 3.53867187 13.73476563 2.296875 13.78125 C1.18666992 13.82314453 0.07646484 13.86503906 -1.06738281 13.90820312 C-5.65140278 14.05169226 -8.84127401 13.96992284 -13 12 C-13.66 11.34 -14.32 10.68 -15 10 C-14.625 7.375 -14.625 7.375 -14 5 C-12.68 4.67 -11.36 4.34 -10 4 C-9.01 5.32 -8.02 6.64 -7 8 C-6.731875 7.236875 -6.46375 6.47375 -6.1875 5.6875 C-4.80876015 2.56719402 -3.66285015 0 0 0 Z " fill="#FBE6DC" transform="translate(60,39)"/>
<path d="M0 0 C0.66 0 1.32 0 2 0 C6 6.75 6 6.75 6 9 C6.66 9 7.32 9 8 9 C8.66 7.68 9.32 6.36 10 5 C10.33 5.66 10.66 6.32 11 7 C7.185989 13.03535807 3.21519544 19.06707029 -2 24 C-2.66 24 -3.32 24 -4 24 C-3 22 -2 20 -1 18 C-1.76501555 16.20459489 -1.76501555 16.20459489 -2.9375 14.375 C-3.618125 13.26125 -4.29875 12.1475 -5 11 C-5.598125 11.763125 -6.19625 12.52625 -6.8125 13.3125 C-8.47400977 15.35378343 -10.12604939 17.16900528 -12 19 C-16.72858866 13.13992762 -16.72858866 13.13992762 -17.625 9.375 C-16.7181249 5.92887462 -14.62998118 4.30123353 -12 2 C-8.63279613 3.39332574 -7.0140476 4.9789286 -5 8 C-4.66226563 7.4225 -4.32453125 6.845 -3.9765625 6.25 C-3.53054687 5.5075 -3.08453125 4.765 -2.625 4 C-2.18414062 3.2575 -1.74328125 2.515 -1.2890625 1.75 C-0.86367187 1.1725 -0.43828125 0.595 0 0 Z " fill="#FDF7F3" transform="translate(92,111)"/>
<path d="M0 0 C2.5 2 2.5 2 4 5 C4.40669875 9.65628572 3.8824796 12.93583343 0.875 16.5625 C-2.75694924 18.37847462 -4.9874885 18.58363804 -9 18 C-11.36497439 16.13291495 -12.66030715 14.67938569 -14 12 C-14.375 8.6875 -14.375 8.6875 -14 5 C-9.47064013 -0.48290932 -6.9543317 -1.67863179 0 0 Z " fill="#E3E4E5" transform="translate(205,84)"/>
<path d="M0 0 C3.20778162 2.19479795 3.89134076 3.63327506 5 7.375 C5 11.83668484 3.81998243 13.61602108 1 17 C-2.13871188 18.56935594 -4.53855822 18.35201103 -8 18 C-10.91368224 16.01621635 -12.63558769 14.58551319 -13.4453125 11.0625 C-13.66348199 7.22271696 -13.23217682 5.36374368 -11.125 2.0625 C-7.327934 -1.62288759 -5.08789001 -1.14038914 0 0 Z " fill="#E9EAEB" transform="translate(250,84)"/>
<path d="M0 0 C3 2.0625 3 2.0625 5 5 C5.51521375 9.19531196 5.47609387 12.48134029 3 16 C-0.66781672 18.44521115 -3.73453233 18.72237759 -8 18 C-10.43119623 16.12984906 -11.64069173 14.71861655 -13 12 C-13.25491388 8.0913205 -13.23289019 5.29057502 -11 2 C-7.3106 -0.4596 -4.28167192 -0.7996897 0 0 Z " fill="#E7E8E9" transform="translate(200,59)"/>
<path d="M0 0 C3.71317907 1.14770989 5.2692056 1.85342428 7.4375 5.0625 C7.97859093 8.69553913 7.67804224 10.57048179 6.0625 13.875 C4.4375 16.0625 4.4375 16.0625 2.4375 17.0625 C-1.36127599 17.41423852 -3.70610153 17.58951444 -7 15.5625 C-9.17282082 12.08598669 -9.44675242 8.98733969 -8.5625 5.0625 C-5.92505032 1.14628685 -4.76629682 0.08361924 0 0 Z " fill="#D65E1F" transform="translate(280.5625,131.9375)"/>
<path d="M0 0 C2.5625 2.0625 2.5625 2.0625 4 5 C4 8.92016134 3.55226285 11.17160572 1.375 14.4375 C-1.9617771 16.63274809 -4.08548544 16.55921637 -8 16 C-10.4375 14.5 -10.4375 14.5 -12 12 C-12.79841448 7.98323437 -12.61897146 5.0316191 -10.5 1.5 C-6.9757983 -0.61452102 -4.00426261 -0.93350908 0 0 Z " fill="#DA5F1F" transform="translate(231,133)"/>
<path d="M0 0 C2.17075738 1.57873264 2.89318724 2.47748353 3.43359375 5.12109375 C3.43994339 8.88642847 3.4311636 11.29289169 1.4375 14.5625 C-1.95518126 16.56331202 -4.12714161 16.55326548 -8 16 C-10.4375 14.5 -10.4375 14.5 -12 12 C-12.79841448 7.98323437 -12.61897146 5.0316191 -10.5 1.5 C-6.74351164 -0.75389302 -4.35420619 -0.48380069 0 0 Z " fill="#D75E1F" transform="translate(185,133)"/>
<path d="M0 0 C8.08978328 -0.48297214 8.08978328 -0.48297214 12.0625 1.625 C14 4 14 4 14.5625 6.9375 C13.88234836 10.64054783 12.60128059 12.32221116 10 15 C8 16 8 16 0 16 C0 10.72 0 5.44 0 0 Z " fill="#C05721" transform="translate(255,133)"/>
<path d="M0 0 C2.31 0 4.62 0 7 0 C6.649375 0.721875 6.29875 1.44375 5.9375 2.1875 C4.89590983 5.3122705 5.10903428 6.88161996 6 10 C9.51480683 11.10029599 9.51480683 11.10029599 12.875 10 C14.62020832 6.89740743 13.69997967 4.3726293 13 1 C16.3 1 19.6 1 23 1 C22.67 3.64 22.34 6.28 22 9 C23.98 9.99 25.96 10.98 28 12 C28 12.33 28 12.66 28 13 C18.76 13 9.52 13 0 13 C0 8.71 0 4.42 0 0 Z " fill="#EB6520" transform="translate(54,75)"/>
<path d="M0 0 C1.32 0.33 2.64 0.66 4 1 C4.66 3.97 5.32 6.94 6 10 C6.66 10 7.32 10 8 10 C8.99 6.7 9.98 3.4 11 0 C14 1 14 1 14.94921875 2.84765625 C15.31466797 3.94400391 15.31466797 3.94400391 15.6875 5.0625 C16.06455078 6.16271484 16.06455078 6.16271484 16.44921875 7.28515625 C16.63097656 7.85105469 16.81273437 8.41695312 17 9 C18.99097846 6.01353231 19.94124926 3.40312738 21 0 C22.32 0.33 23.64 0.66 25 1 C23.02 6.61 21.04 12.22 19 18 C16 17 16 17 14.83203125 14.71484375 C13.88802083 12.14322917 12.94401042 9.57161458 12 7 C10.68 10.63 9.36 14.26 8 18 C7.01 17.67 6.02 17.34 5 17 C3.95485926 14.50638252 3.09898584 12.13580564 2.3125 9.5625 C2.08755859 8.86833984 1.86261719 8.17417969 1.63085938 7.45898438 C0 2.33838336 0 2.33838336 0 0 Z " fill="#EAEBEB" transform="translate(256,84)"/>
<path d="M0 0 C2.88469839 2.83083472 5.35676988 5.25708695 7 9 C5.81552422 12.75504024 3.92621168 15.96813313 1.875 19.3125 C1.33617188 20.19550781 0.79734375 21.07851563 0.2421875 21.98828125 C-0.37269531 22.98408203 -0.37269531 22.98408203 -1 24 C-1.66 23.34 -2.32 22.68 -3 22 C-3 21.01 -3 20.02 -3 19 C-3.66 19 -4.32 19 -5 19 C-6.454314 16.69020717 -7.0474465 15.43888012 -6.75 12.6875 C-5.89788936 9.63410354 -4.61847182 7.36990184 -2.9375 4.6875 C-2.38964844 3.80449219 -1.84179688 2.92148438 -1.27734375 2.01171875 C-0.64505859 1.01591797 -0.64505859 1.01591797 0 0 Z " fill="#FEF9F7" transform="translate(94,13)"/>
<path d="M0 0 C3.25053735 3.10278566 5.19691575 5.85290622 7 10 C7 10.66 7 11.32 7 12 C7.66 12.33 8.32 12.66 9 13 C8.01 13 7.02 13 6 13 C6 13.66 6 14.32 6 15 C2.7 15 -0.6 15 -4 15 C-3 12 -2 9 -1 6 C-3.30119506 9.55639236 -4.77472971 12.94718288 -6 17 C-10.47485678 17.36282623 -10.47485678 17.36282623 -12.71875 15.8125 C-14 14 -14 14 -13.85546875 11.51953125 C-13.63503906 10.62621094 -13.41460937 9.73289062 -13.1875 8.8125 C-12.97480469 7.91144531 -12.76210938 7.01039062 -12.54296875 6.08203125 C-12.36378906 5.39496094 -12.18460938 4.70789063 -12 4 C-8.06153846 7.32307692 -8.06153846 7.32307692 -7.75 10.75 C-7.8325 11.4925 -7.915 12.235 -8 13 C-6.02645668 11.02645668 -4.82535697 8.3347075 -3.4375 5.9375 C-2.47650391 4.28041016 -2.47650391 4.28041016 -1.49609375 2.58984375 C-1.00238281 1.73519531 -0.50867188 0.88054688 0 0 Z " fill="#FCEAE1" transform="translate(73,10)"/>
<path d="M0 0 C5.94 0 11.88 0 18 0 C18.66 1.98 19.32 3.96 20 6 C20.66 6 21.32 6 22 6 C22.33 7.65 22.66 9.3 23 11 C22.01 11 21.02 11 20 11 C20.66 12.65 21.32 14.3 22 16 C21.01 15.67 20.02 15.34 19 15 C18.3125 12.9375 18.3125 12.9375 18 11 C17.01 11 16.02 11 15 11 C15.66 12.65 16.32 14.3 17 16 C16.01 16 15.02 16 14 16 C13.7525 15.21625 13.505 14.4325 13.25 13.625 C11.84610901 10.67682892 10.99324263 10.0975223 8 9 C8.99 9 9.98 9 11 9 C11 8.34 11 7.68 11 7 C9.68 6.67 8.36 6.34 7 6 C7.33 5.67 7.66 5.34 8 5 C5.36 3.68 2.72 2.36 0 1 C0 0.67 0 0.34 0 0 Z " fill="#FBE5D9" transform="translate(69,26)"/>
<path d="M0 0 C0.66 0.66 1.32 1.32 2 2 C4.57061311 2.64767793 4.57061311 2.64767793 7 3 C7 5.31 7 7.62 7 10 C7.66 10.33 8.32 10.66 9 11 C8.01 11.721875 7.02 12.44375 6 13.1875 C3.41418255 15.34216803 3.41418255 15.34216803 2.4375 18.5625 C3.08310629 21.36012727 4.26026393 22.75284092 6 25 C6 26.32 6 27.64 6 29 C6.66 29.33 7.32 29.66 8 30 C8 30.66 8 31.32 8 32 C7.360625 32.433125 6.72125 32.86625 6.0625 33.3125 C3.50072404 35.40849852 3.34778436 36.78299472 3 40 C2.34 40 1.68 40 1 40 C1 44.95 1 49.9 1 55 C0.67 55 0.34 55 0 55 C-0.33 49.39 -0.66 43.78 -1 38 C-0.01 38.33 0.98 38.66 2 39 C1.95875 38.21625 1.9175 37.4325 1.875 36.625 C2 34 2 34 4 32 C3.67 31.01 3.34 30.02 3 29 C3.4375 26.8125 3.4375 26.8125 4 25 C3.01 25 2.02 25 1 25 C0.67 25.66 0.34 26.32 0 27 C-0.27648714 24.5837428 -0.52178337 22.17088623 -0.75 19.75 C-0.83121094 19.06808594 -0.91242188 18.38617188 -0.99609375 17.68359375 C-1.31423444 14.04265034 -1.33866546 12.42399849 0.984375 9.515625 C1.64953125 9.01546875 2.3146875 8.5153125 3 8 C1.68 7.01 0.36 6.02 -1 5 C-0.67 3.35 -0.34 1.7 0 0 Z " fill="#FBE6DB" transform="translate(110,80)"/>
<path d="M0 0 C1.32 0.33 2.64 0.66 4 1 C3.50628906 1.40992188 3.01257812 1.81984375 2.50390625 2.2421875 C1.86324219 2.78101562 1.22257812 3.31984375 0.5625 3.875 C-0.07558594 4.40867187 -0.71367188 4.94234375 -1.37109375 5.4921875 C-3.10805004 6.9222757 -3.10805004 6.9222757 -4 9 C-0.06225823 9.36630156 1.56539771 9.30233203 4.875 7 C5.57625 6.34 6.2775 5.68 7 5 C7 6.65 7 8.3 7 10 C7.99 10 8.98 10 10 10 C10.0825 9.071875 10.165 8.14375 10.25 7.1875 C11 4 11 4 13.0625 2.125 C13.701875 1.75375 14.34125 1.3825 15 1 C16.125 3.3125 16.125 3.3125 17 6 C16.01 7.485 16.01 7.485 15 9 C15.66 9.33 16.32 9.66 17 10 C17 9.01 17 8.02 17 7 C17.66 7 18.32 7 19 7 C19.33 7.99 19.66 8.98 20 10 C19.34 10 18.68 10 18 10 C18 10.66 18 11.32 18 12 C11.4 12 4.8 12 -2 12 C-2.33 13.32 -2.66 14.64 -3 16 C-4.4375 18.25 -4.4375 18.25 -6 20 C-6.66 20 -7.32 20 -8 20 C-7.47731534 17.23723823 -6.89130413 14.6739124 -6 12 C-6 10.68 -6 9.36 -6 8 C-6.66 7.34 -7.32 6.68 -8 6 C-7.05125 5.566875 -6.1025 5.13375 -5.125 4.6875 C-1.79958063 3.20697799 -1.79958063 3.20697799 0 0 Z " fill="#F4B695" transform="translate(54,62)"/>
<path d="M0 0 C8 0 8 0 10.5 1.5 C10.995 1.995 11.49 2.49 12 3 C11.25 8.75 11.25 8.75 9 11 C9.66 11.78375 10.32 12.5675 11 13.375 C13 16 13 16 13 18 C11.68 18 10.36 18 9 18 C6 13.92857143 6 13.92857143 6 11 C5.01 11 4.02 11 3 11 C3 13.31 3 15.62 3 18 C2.01 18 1.02 18 0 18 C0 12.06 0 6.12 0 0 Z " fill="#EDEEEE" transform="translate(173,59)"/>
<path d="M0 0 C2.12438339 -0.08078641 4.2496323 -0.13909141 6.375 -0.1875 C7.55835937 -0.22230469 8.74171875 -0.25710937 9.9609375 -0.29296875 C11.46527344 -0.14794922 11.46527344 -0.14794922 13 0 C13.66 0.99 14.32 1.98 15 3 C15.99 3.33 16.98 3.66 18 4 C17.99394331 5.41726634 17.94349789 6.83437696 17.875 8.25 C17.85179688 9.03890625 17.82859375 9.8278125 17.8046875 10.640625 C16.59934746 14.1747288 14.13468015 15.18737328 11 17 C9.35276274 14.54259704 7.70715536 12.08412999 6.0625 9.625 C5.59392578 8.92632812 5.12535156 8.22765625 4.64257812 7.5078125 C4.19462891 6.8375 3.74667969 6.1671875 3.28515625 5.4765625 C2.66459351 4.549646 2.66459351 4.549646 2.03149414 3.60400391 C1 2 1 2 0 0 Z " fill="#EB6926" transform="translate(64,54)"/>
<path d="M0 0 C0.33 0 0.66 0 1 0 C1.49079755 7.36196319 1.49079755 7.36196319 -0.875 10.4375 C-3 12 -3 12 -5 13 C-4.26716797 13.60521484 -4.26716797 13.60521484 -3.51953125 14.22265625 C-1.61548337 16.44975595 -1.62413208 17.54694773 -1.6875 20.4375 C-1.69136719 21.19933594 -1.69523437 21.96117188 -1.69921875 22.74609375 C-2.0260614 25.19529127 -2.78045399 26.86700917 -4 29 C-4.99 29 -5.98 29 -7 29 C-7 26.69 -7 24.38 -7 22 C-8.32 21.67 -9.64 21.34 -11 21 C-10.34 20.67 -9.68 20.34 -9 20 C-9.33 19.236875 -9.66 18.47375 -10 17.6875 C-11.02609642 14.92986588 -11 12.89920516 -11 10 C-11.33 9.34 -11.66 8.68 -12 8 C-11.030625 7.87625 -10.06125 7.7525 -9.0625 7.625 C-8.051875 7.41875 -7.04125 7.2125 -6 7 C-5.67 6.34 -5.34 5.68 -5 5 C-5 5.66 -5 6.32 -5 7 C-2.47411298 4.63707344 -1.11179163 3.33537489 0 0 Z " fill="#FEF9F7" transform="translate(124,61)"/>
<path d="M0 0 C0.6875 1.75 0.6875 1.75 1 4 C0.484375 4.61875 -0.03125 5.2375 -0.5625 5.875 C-1.2740625 6.926875 -1.2740625 6.926875 -2 8 C-1.28776153 11.22174544 -1.28776153 11.22174544 0 14 C-1.59897161 15.93559722 -2.99528437 16.99764219 -5.25 18.125 C-9.3602423 17.9381708 -10.95452789 15.49730544 -13.64453125 12.56640625 C-14.09183594 12.04949219 -14.53914063 11.53257813 -15 11 C-14.37609375 10.70351563 -13.7521875 10.40703125 -13.109375 10.1015625 C-10.96202908 8.98017074 -9.61904165 7.78094582 -8 6 C-10.31 6 -12.62 6 -15 6 C-11.46251527 1.42207859 -5.38732673 0.97951395 0 0 Z " fill="#FADBCC" transform="translate(119,52)"/>
<path d="M0 0 C0.99 0 1.98 0 3 0 C3 2.31 3 4.62 3 7 C5.64 7 8.28 7 11 7 C11 4.69 11 2.38 11 0 C12.32 0 13.64 0 15 0 C15 5.94 15 11.88 15 18 C13.68 18 12.36 18 11 18 C11 15.36 11 12.72 11 10 C8.36 10 5.72 10 3 10 C3 12.64 3 15.28 3 18 C2.01 18 1.02 18 0 18 C0 12.06 0 6.12 0 0 Z " fill="#D8DADB" transform="translate(173,84)"/>
<path d="M0 0 C0.66 0 1.32 0 2 0 C4.04996287 3.22415047 5.85240613 6.34371255 7 10 C6.15071207 12.81161779 4.71227883 14.55388738 3 17 C3.54217768 19.33664149 3.54217768 19.33664149 5 21 C5.33 21.66 5.66 22.32 6 23 C2.11602311 21.44997253 -0.02979619 18.99523379 -2.75 15.875 C-3.54921875 14.96492188 -4.3484375 14.05484375 -5.171875 13.1171875 C-6.07679687 12.06917969 -6.07679687 12.06917969 -7 11 C-5.9545437 7.86363109 -5.23811043 7.23811043 -3 5 C-2.484375 4.113125 -1.96875 3.22625 -1.4375 2.3125 C-0.7259375 1.1678125 -0.7259375 1.1678125 0 0 Z " fill="#FEF9F6" transform="translate(67,111)"/>
<path d="M0 0 C8 0 8 0 11 2 C11.1875 5.125 11.1875 5.125 11 8 C10.01 8.33 9.02 8.66 8 9 C8.66 9.94875 9.32 10.8975 10 11.875 C12 15 12 15 12 17 C10.125 16.8125 10.125 16.8125 8 16 C6.75 13.4375 6.75 13.4375 6 11 C5.01 11 4.02 11 3 11 C3 12.98 3 14.96 3 17 C2.01 17 1.02 17 0 17 C0 11.39 0 5.78 0 0 Z " fill="#DE601F" transform="translate(246,109)"/>
<path d="M0 0 C0.99 0 1.98 0 3 0 C4.17112946 2.62309099 5.33705964 5.24828142 6.5 7.875 C6.83386719 8.62136719 7.16773438 9.36773437 7.51171875 10.13671875 C7.98544922 11.20986328 7.98544922 11.20986328 8.46875 12.3046875 C8.90864258 13.2944458 8.90864258 13.2944458 9.35742188 14.30419922 C10 16 10 16 10 18 C8.68 17.67 7.36 17.34 6 17 C5.67 15.68 5.34 14.36 5 13 C2.36 13 -0.28 13 -3 13 C-3.33 14.65 -3.66 16.3 -4 18 C-5.32 17.67 -6.64 17.34 -8 17 C-6.85700498 14.35290709 -5.71075628 11.70730948 -4.5625 9.0625 C-4.23701172 8.30775391 -3.91152344 7.55300781 -3.57617188 6.77539062 C-1.11328125 1.11328125 -1.11328125 1.11328125 0 0 Z " fill="#ECEDED" transform="translate(286,84)"/>
<path d="M0 0 C0.99 0 1.98 0 3 0 C4.17374173 2.43431639 5.33915763 4.87204182 6.5 7.3125 C6.83386719 8.00279297 7.16773438 8.69308594 7.51171875 9.40429688 C10 14.66015625 10 14.66015625 10 18 C8.0625 17.6875 8.0625 17.6875 6 17 C5.67 16.01 5.34 15.02 5 14 C2.69 14 0.38 14 -2 14 C-2.66 15.32 -3.32 16.64 -4 18 C-4.99 18 -5.98 18 -7 18 C-6.35534798 13.66695924 -4.81074878 10.13327935 -2.9375 6.1875 C-2.11572266 4.44533203 -2.11572266 4.44533203 -1.27734375 2.66796875 C-0.85582031 1.78753906 -0.43429688 0.90710937 0 0 Z " fill="#EFEFF0" transform="translate(226,59)"/>
<path d="M0 0 C4.81429916 2.40714958 6.6345082 4.86962371 10 9 C10.33 6.03 10.66 3.06 11 0 C11.99 0 12.98 0 14 0 C14 5.61 14 11.22 14 17 C10.36804504 15.78934835 9.57103808 14.46308874 7.3125 11.4375 C6.68988281 10.61121094 6.06726563 9.78492187 5.42578125 8.93359375 C4.95527344 8.29550781 4.48476562 7.65742187 4 7 C3.67 10.3 3.34 13.6 3 17 C2.01 17 1.02 17 0 17 C0 11.39 0 5.78 0 0 Z " fill="#D95E1F" transform="translate(190,109)"/>
<path d="M0 0 C1.32 0 2.64 0 4 0 C4.33 4.29 4.66 8.58 5 13 C7.97 13.495 7.97 13.495 11 14 C11.33 9.38 11.66 4.76 12 0 C12.99 0 13.98 0 15 0 C15.61548983 10.71978116 15.61548983 10.71978116 13.4375 15.25 C10.05915558 17.67547804 8.067687 17.65373541 4 17 C1.796875 15.38671875 1.796875 15.38671875 0 13 C-0.390625 9.765625 -0.390625 9.765625 -0.25 6.25 C-0.21390625 5.07953125 -0.1778125 3.9090625 -0.140625 2.703125 C-0.09421875 1.81109375 -0.0478125 0.9190625 0 0 Z " fill="#C15821" transform="translate(172,109)"/>
<path d="M0 0 C4.81429916 2.40714958 6.6345082 4.86962371 10 9 C10.33 6.03 10.66 3.06 11 0 C11.99 0 12.98 0 14 0 C14 5.28 14 10.56 14 16 C9.18570084 13.59285042 7.3654918 11.13037629 4 7 C3.67 9.97 3.34 12.94 3 16 C2.01 16 1.02 16 0 16 C0 10.72 0 5.44 0 0 Z " fill="#D95E1F" transform="translate(291,133)"/>
<path d="M0 0 C0.66 0 1.32 0 2 0 C6 5.41176471 6 5.41176471 6 8 C6.66 8.33 7.32 8.66 8 9 C7.34 9 6.68 9 6 9 C5.566875 10.3921875 5.566875 10.3921875 5.125 11.8125 C4 15 4 15 2 18 C-1.84502844 16.71832385 -2.4419641 15.21655254 -4.265625 11.765625 C-5 10 -5 10 -5 7.9375 C-3.53792982 5.10473903 -1.91272729 2.55030306 0 0 Z " fill="#FEF8F5" transform="translate(92,91)"/>
<path d="M0 0 C2.32749345 3.49124017 2.50299316 4.89222251 2 9 C0.3125 11.4375 0.3125 11.4375 -2 13 C-5.39154295 12.83849795 -6.58296757 12.41703243 -9 10 C-9.55427252 3.01616628 -9.55427252 3.01616628 -7.875 -0.0625 C-4.97366536 -1.51316732 -3.03659258 -0.90451694 0 0 Z " fill="#2C353B" transform="translate(200,62)"/>
<path d="M0 0 C0 0.66 0 1.32 0 2 C-0.804375 2.391875 -1.60875 2.78375 -2.4375 3.1875 C-5.40122736 4.8525473 -5.40122736 4.8525473 -5.8125 8.6875 C-5.9053125 10.3271875 -5.9053125 10.3271875 -6 12 C-11.67448169 14.47613747 -16.76204876 15.99651918 -23 15 C-23.66 14.34 -24.32 13.68 -25 13 C-22.23735711 12.40267181 -19.83967231 12 -17 12 C-17 10.68 -17 9.36 -17 8 C-15.54325818 5.08651635 -13.66154497 5.02015159 -10.625 4 C-7.21128189 2.84708201 -3.4000306 0 0 0 Z " fill="#EB6B28" transform="translate(101,133)"/>
<path d="M0 0 C2.5 0.4375 2.5 0.4375 4.3125 1.5 C6.15150018 4.50047398 5.80671285 7.00231613 5.5 10.4375 C4.51 11.9225 4.51 11.9225 3.5 13.4375 C0.3694571 13.83714378 -1.63083761 13.95899743 -4.375 12.3125 C-6.03577671 9.54453881 -5.88805206 7.60659182 -5.5 4.4375 C-3.9991531 1.43580621 -3.33569239 0.58374617 0 0 Z " fill="#273036" transform="translate(245.5,85.5625)"/>
<path d="M0 0 C0.928125 0.28875 1.85625 0.5775 2.8125 0.875 C3.92695498 3.10390995 3.97730286 4.40555106 4 6.875 C4.01417969 7.57625 4.02835938 8.2775 4.04296875 9 C3.8125 10.875 3.8125 10.875 1.8125 12.875 C-1.29097254 13.20515665 -3.34531176 13.38031294 -6.0625 11.75 C-7.74218045 8.95053259 -7.64492277 7.07695936 -7.1875 3.875 C-4.95083301 0.51999952 -4.07733887 -0.15989564 0 0 Z " fill="#2A3339" transform="translate(201.1875,86.125)"/>
<path d="M0 0 C0.33 0 0.66 0 1 0 C1.13277344 0.74765625 1.26554687 1.4953125 1.40234375 2.265625 C1.57894531 3.25046875 1.75554688 4.2353125 1.9375 5.25 C2.11152344 6.22453125 2.28554688 7.1990625 2.46484375 8.203125 C2.90379729 10.49721795 3.40348592 12.74291971 4 15 C2.02 16.32 0.04 17.64 -2 19 C-2.226875 18.21625 -2.45375 17.4325 -2.6875 16.625 C-3.78125 13.78125 -3.78125 13.78125 -6.625 12.6875 C-7.40875 12.460625 -8.1925 12.23375 -9 12 C-9 11.34 -9 10.68 -9 10 C-8.01 10 -7.02 10 -6 10 C-6.3403125 9.13375 -6.3403125 9.13375 -6.6875 8.25 C-7 6 -7 6 -5.5625 3.75 C-5.046875 3.1725 -4.53125 2.595 -4 2 C-3.01 3.485 -3.01 3.485 -2 5 C-1.34 3.35 -0.68 1.7 0 0 Z " fill="#F5BA9B" transform="translate(52,100)"/>
<path d="M0 0 C0.64195313 0.85658203 0.64195313 0.85658203 1.296875 1.73046875 C1.85890625 2.47941406 2.4209375 3.22835937 3 4 C3.78117187 5.04607422 3.78117187 5.04607422 4.578125 6.11328125 C8.39291011 11.13132801 12.41936003 15.66997255 17 20 C14 21 14 21 11.984375 20.25 C6.71725622 17.30336012 1.32676098 14.18842523 -2 9 C-2 5.39603677 -1.59771411 3.19542822 0 0 Z " fill="#EC7030" transform="translate(57,116)"/>
<path d="M0 0 C0.66 0 1.32 0 2 0 C2.33 1.65 2.66 3.3 3 5 C3.99 5 4.98 5 6 5 C5.67 6.98 5.34 8.96 5 11 C5.66 11.33 6.32 11.66 7 12 C6.34 12.66 5.68 13.32 5 14 C4.35232207 16.57061311 4.35232207 16.57061311 4 19 C3.34 19 2.68 19 2 19 C2 24.28 2 29.56 2 35 C1.67 35 1.34 35 1 35 C0.81824219 33.08574219 0.81824219 33.08574219 0.6328125 31.1328125 C0.46400509 29.46349474 0.2947089 27.79422635 0.125 26.125 C0.04636719 25.28324219 -0.03226562 24.44148438 -0.11328125 23.57421875 C-0.19707031 22.76855469 -0.28085938 21.96289062 -0.3671875 21.1328125 C-0.44050293 20.38918457 -0.51381836 19.64555664 -0.58935547 18.87939453 C-0.87391282 16.76617496 -0.87391282 16.76617496 -3 15 C-2.6875 13.125 -2.6875 13.125 -2 11 C-0.99982878 7.37437934 -0.50143986 3.72498181 0 0 Z " fill="#EE844D" transform="translate(108,100)"/>
<path d="M0 0 C4.81429916 2.40714958 6.6345082 4.86962371 10 9 C10.33 6.03 10.66 3.06 11 0 C11.66 0 12.32 0 13 0 C13 5.28 13 10.56 13 16 C6.25 10.375 6.25 10.375 4 7 C3.67 9.97 3.34 12.94 3 16 C2.01 16 1.02 16 0 16 C0 10.72 0 5.44 0 0 Z " fill="#D45D1F" transform="translate(238,133)"/>
<path d="M0 0 C2.17801374 1.72426088 2.94144246 2.55789055 3.3125 5.359375 C2.72918363 10.28839829 -1.31740661 12.99890522 -5 16 C-7.67010534 17.73911286 -9.99763041 18.82958474 -13 20 C-13.99 19.67 -14.98 19.34 -16 19 C-14.989375 18.21625 -13.97875 17.4325 -12.9375 16.625 C-8.36701806 12.73265867 -5.25847295 7.99517884 -2 3 C-1.34 2.01 -0.68 1.02 0 0 Z " fill="#EC6C2A" transform="translate(103,117)"/>
<path d="M0 0 C3.625 0.375 3.625 0.375 7 1 C8.35384615 7.4 8.35384615 7.4 6.5625 10.4375 C6.046875 10.953125 5.53125 11.46875 5 12 C0.25 11.25 0.25 11.25 -2 9 C-2.25 5.5 -2.25 5.5 -2 2 C-1.34 1.34 -0.68 0.68 0 0 Z " fill="#292C2F" transform="translate(277,135)"/>
<path d="M0 0 C4.62 0 9.24 0 14 0 C14 0.99 14 1.98 14 3 C12.35 3 10.7 3 9 3 C9 7.62 9 12.24 9 17 C7.68 17 6.36 17 5 17 C5 12.38 5 7.76 5 3 C3.35 3 1.7 3 0 3 C0 2.01 0 1.02 0 0 Z " fill="#C35821" transform="translate(280,109)"/>
<path d="M0 0 C2.82190981 -0.43413997 4.37987679 -0.35140315 6.875 1.0625 C8.68060316 4.17214989 7.79952488 6.61739473 7 10 C6.34 10.66 5.68 11.32 5 12 C1.70285207 11.67028521 0.3773161 11.3773161 -2 9 C-2.34490322 4.94738713 -2.30163882 3.45245824 0 0 Z " fill="#292C2F" transform="translate(224,135)"/>
<path d="M0 0 C2.475 0.495 2.475 0.495 5 1 C5.66 2.98 6.32 4.96 7 7 C7.66 7 8.32 7 9 7 C9.309375 6.21625 9.61875 5.4325 9.9375 4.625 C11 2 11 2 12 0 C13.32 0.33 14.64 0.66 16 1 C15.65066406 1.47308594 15.30132812 1.94617187 14.94140625 2.43359375 C11.38613346 7.60032163 10.15919246 11.74807789 10 18 C8.68 18 7.36 18 6 18 C5.938125 16.700625 5.87625 15.40125 5.8125 14.0625 C5.23940644 8.59206147 2.9285997 4.57120912 0 0 Z " fill="#E6E7E7" transform="translate(205,59)"/>
<path d="M0 0 C0.99 0.495 0.99 0.495 2 1 C2 2.65 2 4.3 2 6 C2.66 5.67 3.32 5.34 4 5 C4.65555119 2.47266765 4.65555119 2.47266765 5 0 C6.5 1.375 6.5 1.375 8 3 C8 3.66 8 4.32 8 5 C10.97 5.33 13.94 5.66 17 6 C17.33 5.34 17.66 4.68 18 4 C18.99 5.485 18.99 5.485 20 7 C19.34 7.66 18.68 8.32 18 9 C18.515625 9.598125 19.03125 10.19625 19.5625 10.8125 C20.036875 11.534375 20.51125 12.25625 21 13 C20.67 13.99 20.34 14.98 20 16 C19.34 16 18.68 16 18 16 C15.54951556 13.25545743 14.92310938 11.69243752 14 8 C9.38 8 4.76 8 0 8 C0 5.36 0 2.72 0 0 Z " fill="#F6C1A6" transform="translate(95,66)"/>
<path d="M0 0 C2.5 0.25 2.5 0.25 4.5 2.25 C5.05186722 8.32053942 5.05186722 8.32053942 3.3125 11.25 C1.5 12.25 1.5 12.25 -1.125 12 C-3.5 11.25 -3.5 11.25 -4.5 10.25 C-4.77314815 4.51388889 -4.77314815 4.51388889 -4.5 2.25 C-2.5 0.25 -2.5 0.25 0 0 Z " fill="#282C2F" transform="translate(180.5,134.75)"/>
<path d="M0 0 C2.97 0 5.94 0 9 0 C9 0.66 9 1.32 9 2 C7.02 2 5.04 2 3 2 C3 3.65 3 5.3 3 7 C4.65 7 6.3 7 8 7 C8 7.66 8 8.32 8 9 C6.35 9 4.7 9 3 9 C3 10.65 3 12.3 3 14 C5.31 14 7.62 14 10 14 C10 14.99 10 15.98 10 17 C6.7 17 3.4 17 0 17 C0 11.39 0 5.78 0 0 Z " fill="#DE601F" transform="translate(233,109)"/>
<path d="M0 0 C1.32 0 2.64 0 4 0 C5.32 3.3 6.64 6.6 8 10 C9.65 6.7 11.3 3.4 13 0 C13.99 0 14.98 0 16 0 C14.1668733 5.99932374 11.92678249 11.44920563 9 17 C8.34 17 7.68 17 7 17 C4.69 11.39 2.38 5.78 0 0 Z " fill="#D95F1F" transform="translate(214,109)"/>
<path d="M0 0 C1.670625 0.061875 1.670625 0.061875 3.375 0.125 C3.045 1.115 2.715 2.105 2.375 3.125 C1.055 3.125 -0.265 3.125 -1.625 3.125 C-0.88299346 6.3158205 -0.88299346 6.3158205 1.9375 8 C4.375 10.125 4.375 10.125 4.875 12.75 C4.375 15.125 4.375 15.125 1.375 17.125 C-0.95699388 17.20405064 -3.29332622 17.21298769 -5.625 17.125 C-5.955 15.805 -6.285 14.485 -6.625 13.125 C-3.985 13.455 -1.345 13.785 1.375 14.125 C0.69282945 10.92354032 0.69282945 10.92354032 -2.125 9.8125 C-4.625 8.125 -4.625 8.125 -5.5625 5.0625 C-5.583125 4.093125 -5.60375 3.12375 -5.625 2.125 C-3.625 0.125 -3.625 0.125 0 0 Z " fill="#D55D1F" transform="translate(266.625,108.875)"/>
<path d="M0 0 C0.66 0.33 1.32 0.66 2 1 C2 3.31 2 5.62 2 8 C4.97017694 7.37189827 4.97017694 7.37189827 8 6 C9.43923199 3.49004504 9.43923199 3.49004504 10 1 C10.99 1.33 11.98 1.66 13 2 C13.37010337 5.3309303 13.27461204 6.62731223 11.25 9.375 C10.5075 9.91125 9.765 10.4475 9 11 C7.66183359 10.68663192 6.32896019 10.35036223 5 10 C2.64558674 10.19687073 0.35528823 10.56567615 -1.9765625 10.94140625 C-2.64429687 10.96074219 -3.31203125 10.98007812 -4 11 C-4.66 10.34 -5.32 9.68 -6 9 C-5.38125 8.814375 -4.7625 8.62875 -4.125 8.4375 C-0.94397134 6.28562767 -0.80548053 3.62466237 0 0 Z " fill="#ED7C42" transform="translate(103,42)"/>
<path d="M0 0 C0.99 0.33 1.98 0.66 3 1 C-9.1757298 11.27950959 -18.79435292 15.1823507 -34.75146484 14.27832031 C-42.35964537 13.33659113 -49.19436071 8.83541913 -54 3 C-49.83964125 4.47625633 -46.17132006 6.5560054 -42.37890625 8.78125 C-34.6223528 12.75505078 -26.45210873 13.24619628 -17.9921875 11.3125 C-10.90911351 8.94489867 -5.2647434 5.2647434 0 0 Z " fill="#FBE6DB" transform="translate(108,135)"/>
<path d="M0 0 C1.32 0 2.64 0 4 0 C6.25 3 6.25 3 8 6 C8.598125 5.01 9.19625 4.02 9.8125 3 C10.8953125 1.515 10.8953125 1.515 12 0 C12.99 0 13.98 0 15 0 C14.0113007 2.66188274 13.03251061 4.9518843 11.4375 7.3125 C9.50889664 10.91814977 9.34427931 13.93750416 9 18 C8.01 18 7.02 18 6 18 C5.98582031 17.443125 5.97164063 16.88625 5.95703125 16.3125 C5.6061133 10.6978128 4.2838747 7.13618371 1.05859375 2.53125 C0 1 0 1 0 0 Z " fill="#F1F2F2" transform="translate(295,84)"/>
<path d="M0 0 C2 1 2 1 3 3 C2.0625 5.125 2.0625 5.125 1 7 C-1.31 7 -3.62 7 -6 7 C-5.67 7.66 -5.34 8.32 -5 9 C-7.64 8.67 -10.28 8.34 -13 8 C-13.66 6.02 -14.32 4.04 -15 2 C-12.24574641 0.97990608 -11.26794241 0.88612448 -8.5 2.0625 C-6.05299739 3.29150196 -6.05299739 3.29150196 -3.8125 2.1875 C-3.214375 1.795625 -2.61625 1.40375 -2 1 C-1.34 0.67 -0.68 0.34 0 0 Z " fill="#F08E5C" transform="translate(83,139)"/>
<path d="M0 0 C0.33 0 0.66 0 1 0 C1 2.97 1 5.94 1 9 C5.62 9 10.24 9 15 9 C15 10.65 15 12.3 15 14 C14.67 12.68 14.34 11.36 14 10 C5.09 10 -3.82 10 -13 10 C-13 9.67 -13 9.34 -13 9 C-10.69 9 -8.38 9 -6 9 C-6.185625 8.030625 -6.37125 7.06125 -6.5625 6.0625 C-6.706875 5.051875 -6.85125 4.04125 -7 3 C-6 2 -6 2 -2.9375 1.9375 C-1.4834375 1.9684375 -1.4834375 1.9684375 0 2 C0 1.34 0 0.68 0 0 Z " fill="#FEFDFC" transform="translate(94,65)"/>
<path d="M0 0 C5.94 0 11.88 0 18 0 C18.66 1.98 19.32 3.96 20 6 C12.03524914 6.76258253 6.83285184 5.07063514 0 1 C0 0.67 0 0.34 0 0 Z " fill="#EB6824" transform="translate(69,26)"/>
<path d="M0 0 C1.32 0 2.64 0 4 0 C5.75 2.5 5.75 2.5 7 5 C8.70840281 3.36587557 9.93453047 2.13093906 11 0 C12.32 0.33 13.64 0.66 15 1 C14.65066406 1.4846875 14.30132812 1.969375 13.94140625 2.46875 C10.57638044 7.42572853 9.32047616 11.01777843 9 17 C8.01 17 7.02 17 6 17 C5.9071875 15.2984375 5.9071875 15.2984375 5.8125 13.5625 C5.19740167 8.35280352 2.74860504 4.38154014 0 0 Z " fill="#D95F1F" transform="translate(296,109)"/>
<path d="M0 0 C0.66 0 1.32 0 2 0 C2.125 2.375 2.125 2.375 2 5 C1.34 5.66 0.68 6.32 0 7 C0.66 7 1.32 7 2 7 C2 10.63 2 14.26 2 18 C-5.92566079 10.28854626 -5.92566079 10.28854626 -6.1875 5.75 C-6.125625 4.8425 -6.06375 3.935 -6 3 C-5.195625 2.87625 -4.39125 2.7525 -3.5625 2.625 C-2.716875 2.41875 -1.87125 2.2125 -1 2 C-0.67 1.34 -0.34 0.68 0 0 Z " fill="#EC7435" transform="translate(50,80)"/>
<path d="M0 0 C0.33 0.66 0.66 1.32 1 2 C-0.98 2.33 -2.96 2.66 -5 3 C-5 4.98 -5 6.96 -5 9 C-7.31 9 -9.62 9 -12 9 C-12 9.66 -12 10.32 -12 11 C-12.66 11 -13.32 11 -14 11 C-14 10.34 -14 9.68 -14 9 C-14.99 8.67 -15.98 8.34 -17 8 C-14.88747994 4.72559391 -13.74276632 3.81873013 -10 3 C-9.566875 2.484375 -9.13375 1.96875 -8.6875 1.4375 C-6.01698232 -0.83738543 -3.36476492 -0.19045839 0 0 Z " fill="#ED7A3F" transform="translate(93,65)"/>
<path d="M0 0 C0.99 0 1.98 0 3 0 C3 4.95 3 9.9 3 15 C5.64 15 8.28 15 11 15 C11 15.99 11 16.98 11 18 C7.37 18 3.74 18 0 18 C0 12.06 0 6.12 0 0 Z " fill="#EDEEEE" transform="translate(226,84)"/>
<path d="M0 0 C0.99 0 1.98 0 3 0 C3 4.95 3 9.9 3 15 C5.64 15 8.28 15 11 15 C11 15.99 11 16.98 11 18 C7.37 18 3.74 18 0 18 C0 12.06 0 6.12 0 0 Z " fill="#F3F3F4" transform="translate(212,84)"/>
<path d="M0 0 C2.31 0 4.62 0 7 0 C7 3.96 7 7.92 7 12 C3.04 12 -0.92 12 -5 12 C-3.68 11.34 -2.36 10.68 -1 10 C1.25195569 8.18190523 1.25195569 8.18190523 1.1875 5.5625 C1.09695513 2.88060897 1.09695513 2.88060897 0 0 Z " fill="#EB651F" transform="translate(100,76)"/>
<path d="M0 0 C0.99 0 1.98 0 3 0 C3 4.95 3 9.9 3 15 C5.64 15 8.28 15 11 15 C11 15.99 11 16.98 11 18 C7.37 18 3.74 18 0 18 C0 12.06 0 6.12 0 0 Z " fill="#EDEEEE" transform="translate(240,59)"/>
<path d="M0 0 C0.99 0.33 1.98 0.66 3 1 C3.70381157 2.98723268 4.3711811 4.98777953 5 7 C5.66 7.33 6.32 7.66 7 8 C6.01 8 5.02 8 4 8 C4 8.66 4 9.32 4 10 C0.7 10 -2.6 10 -6 10 C-4.79157144 5.56909529 -3.48331435 3.01887244 0 0 Z " fill="#FEFCFB" transform="translate(75,15)"/>
<path d="M0 0 C5 0 5 0 6.875 1.0625 C8.64782183 4.11569315 7.69235306 6.66411708 7 10 C4.69 10.33 2.38 10.66 0 11 C0 7.37 0 3.74 0 0 Z " fill="#332F2E" transform="translate(258,135)"/>
<path d="M0 0 C0.33 0 0.66 0 1 0 C1.66 2.64 2.32 5.28 3 8 C2.34 8 1.68 8 1 8 C1.33 8.99 1.66 9.98 2 11 C0.6078125 10.7215625 0.6078125 10.7215625 -0.8125 10.4375 C-4.01343771 9.75876119 -4.01343771 9.75876119 -7 11 C-9.6875 9.0625 -9.6875 9.0625 -12 7 C-11.67 5.35 -11.34 3.7 -11 2 C-10.01 2 -9.02 2 -8 2 C-6.64613064 3.65002828 -5.31321858 5.3174387 -4 7 C-3.01 7.33 -2.02 7.66 -1 8 C-1.020625 7.05125 -1.04125 6.1025 -1.0625 5.125 C-1 2 -1 2 0 0 Z " fill="#EC7334" transform="translate(57,42)"/>
<path d="M0 0 C2.97 0 5.94 0 9 0 C9 0.66 9 1.32 9 2 C7.02 2 5.04 2 3 2 C3 3.32 3 4.64 3 6 C4.65 6 6.3 6 8 6 C8 6.99 8 7.98 8 9 C6.35 9 4.7 9 3 9 C3 11.31 3 13.62 3 16 C2.01 16 1.02 16 0 16 C0 10.72 0 5.44 0 0 Z " fill="#CD5B20" transform="translate(192,133)"/>
<path d="M0 0 C3.08089673 2.77280706 4.68775452 5.06326356 6 9 C5.01 9.66 4.02 10.32 3 11 C2.01 10.34 1.02 9.68 0 9 C-0.99 10.485 -0.99 10.485 -2 12 C-1.34 12.33 -0.68 12.66 0 13 C0 13.66 0 14.32 0 15 C-0.99 15 -1.98 15 -3 15 C-5 12 -5 12 -4.875 9.1875 C-3.87031216 5.52756572 -2.24226653 3.03790949 0 0 Z " fill="#ED793C" transform="translate(86,121)"/>
<path d="M0 0 C0.66 0.33 1.32 0.66 2 1 C1.505 1.70125 1.01 2.4025 0.5 3.125 C-1.21434253 6.41082318 -1.40616229 8.34453935 -1 12 C1.5654594 14.5654594 3.47686668 14.54046087 7 15 C6.67 15.99 6.34 16.98 6 18 C0.60490463 18.49046322 0.60490463 18.49046322 -2.3125 16.125 C-5.29986339 12.36313499 -5.48830103 9.80162676 -5 5 C-2.5 2.0625 -2.5 2.0625 0 0 Z " fill="#EBECED" transform="translate(196,84)"/>
<path d="M0 0 C0.66 0.66 1.32 1.32 2 2 C4.57061311 2.64767793 4.57061311 2.64767793 7 3 C7.56963205 6.90604833 7.73522899 8.91600854 5.4765625 12.24609375 C3.71877627 14.25857962 1.96338847 16.18727923 0 18 C-0.33 18 -0.66 18 -1 18 C-1.25 15.25 -1.25 15.25 -1 12 C1 9.625 1 9.625 3 8 C1.68 7.01 0.36 6.02 -1 5 C-0.67 3.35 -0.34 1.7 0 0 Z " fill="#EC6D2B" transform="translate(110,80)"/>
<path d="M0 0 C1.77007714 -0.08114106 3.54122098 -0.13925505 5.3125 -0.1875 C6.29863281 -0.22230469 7.28476562 -0.25710937 8.30078125 -0.29296875 C11 0 11 0 12.85546875 1.51171875 C13.23316406 2.00285156 13.61085938 2.49398437 14 3 C12.02 3 10.04 3 8 3 C8.33 4.98 8.66 6.96 9 9 C5.93882432 11.62386487 5.26826873 12 1 12 C1.66 10.35 2.32 8.7 3 7 C3.66 7 4.32 7 5 7 C5 6.34 5 5.68 5 5 C4.360625 4.731875 3.72125 4.46375 3.0625 4.1875 C1 3 1 3 0 0 Z " fill="#EC7030" transform="translate(43,55)"/>
<path d="M0 0 C0.66 0 1.32 0 2 0 C2.33 0.99 2.66 1.98 3 3 C1.76585956 5.34282452 0.50753507 7.48292584 -0.9375 9.6875 C-1.32357422 10.29400391 -1.70964844 10.90050781 -2.10742188 11.52539062 C-3.06246419 13.02280265 -4.03006086 14.51219401 -5 16 C-5.66 15.67 -6.32 15.34 -7 15 C-7 14.34 -7 13.68 -7 13 C-8.65 12.67 -10.3 12.34 -12 12 C-11.34 10.68 -10.68 9.36 -10 8 C-8.35 8.33 -6.7 8.66 -5 9 C-3.35 6.03 -1.7 3.06 0 0 Z " fill="#F7C4AA" transform="translate(92,10)"/>
<path d="M0 0 C3.84556115 1.28185372 4.42068027 2.78579777 6.28125 6.2109375 C7 8 7 8 6.75 10.4375 C6.5025 10.953125 6.255 11.46875 6 12 C5.01 11.67 4.02 11.34 3 11 C2.67 11.99 2.34 12.98 2 14 C-0.0625 12.3125 -0.0625 12.3125 -2 10 C-1.75 7.4375 -1.75 7.4375 -1 5 C-1 4.01 -1 3.02 -1 2 C-0.67 1.34 -0.34 0.68 0 0 Z " fill="#EC6D2B" transform="translate(73,101)"/>
<path d="M0 0 C0.66 0 1.32 0 2 0 C2.33 0.99 2.66 1.98 3 3 C3.66 3 4.32 3 5 3 C5.66 2.01 6.32 1.02 7 0 C9 2 9 2 9.3125 4.4375 C9 7 9 7 7.875 8.875 C6 10 6 10 2.875 9.8125 C1.92625 9.544375 0.9775 9.27625 0 9 C-1.36623674 6.26752652 -1.128426 4.01801098 -1 1 C-0.67 0.67 -0.34 0.34 0 0 Z " fill="#F8D0BC" transform="translate(93,77)"/>
<path d="M0 0 C0.99386719 0.02707031 1.98773438 0.05414063 3.01171875 0.08203125 C4.15060547 0.13423828 4.15060547 0.13423828 5.3125 0.1875 C4.5 2.125 4.5 2.125 3.3125 4.1875 C2.3225 4.5175 1.3325 4.8475 0.3125 5.1875 C0.3125 5.8475 0.3125 6.5075 0.3125 7.1875 C1.3025 7.5175 2.2925 7.8475 3.3125 8.1875 C4 10.25 4 10.25 4.3125 12.1875 C0.93787285 11.64026317 -0.76985 11.1326 -3.6875 9.1875 C-3.5225 8.56875 -3.3575 7.95 -3.1875 7.3125 C-2.61115356 5.22686614 -2.61115356 5.22686614 -2.6875 3.1875 C-4.6675 3.1875 -6.6475 3.1875 -8.6875 3.1875 C-6.10291354 -0.17334451 -4.11082043 -0.14508778 0 0 Z " fill="#EC7130" transform="translate(112.6875,54.8125)"/>
<path d="M0 0 C0.99 0 1.98 0 3 0 C3 4.29 3 8.58 3 13 C5.31 13 7.62 13 10 13 C10 13.99 10 14.98 10 16 C6.7 16 3.4 16 0 16 C0 10.72 0 5.44 0 0 Z " fill="#D45D1F" transform="translate(208,133)"/>
<path d="M0 0 C0.66 0.99 1.32 1.98 2 3 C2.99 3 3.98 3 5 3 C5.66 2.01 6.32 1.02 7 0 C7.66 0.66 8.32 1.32 9 2 C8.8125 5 8.8125 5 8 8 C5 10 5 10 2.4375 9.8125 C0 9 0 9 -2 6 C-1.45945946 1.45945946 -1.45945946 1.45945946 0 0 Z " fill="#F8D1BD" transform="translate(60,77)"/>
<path d="M0 0 C0.66 0.99 1.32 1.98 2 3 C2.99 3.33 3.98 3.66 5 4 C5 2.68 5 1.36 5 0 C5.99 0.33 6.98 0.66 8 1 C8.36075949 6.41139241 8.36075949 6.41139241 6.8125 8.9375 C5 10 5 10 2.4375 9.8125 C0 9 0 9 -2 7 C-2.25 4.5 -2.25 4.5 -2 2 C-1.34 1.34 -0.68 0.68 0 0 Z " fill="#F8D2BE" transform="translate(77,77)"/>
<path d="M0 0 C2.64 0 5.28 0 8 0 C8 1.65 8 3.3 8 5 C0.74 5 -6.52 5 -14 5 C-14 4.34 -14 3.68 -14 3 C-13.07316406 2.95101562 -12.14632812 2.90203125 -11.19140625 2.8515625 C-9.99386719 2.77679688 -8.79632813 2.70203125 -7.5625 2.625 C-6.36753906 2.55539063 -5.17257813 2.48578125 -3.94140625 2.4140625 C-2.97074219 2.27742188 -2.00007813 2.14078125 -1 2 C-0.67 1.34 -0.34 0.68 0 0 Z " fill="#ED793D" transform="translate(75,47)"/>
<path d="M0 0 C1.32 0 2.64 0 4 0 C4 5.61 4 11.22 4 17 C2.68 17 1.36 17 0 17 C0 11.39 0 5.78 0 0 Z " fill="#BC5622" transform="translate(208,109)"/>
<path d="M0 0 C3.9760803 -0.46233492 5.56851204 -0.30954571 8.875 2.0625 C11.51938231 5.71796966 11.56308865 7.575732 11 12 C10.3125 14.375 10.3125 14.375 9 16 C6.375 16.75 6.375 16.75 4 17 C5.875 13.125 5.875 13.125 7 12 C7.40231439 7.87455729 7.40231439 7.87455729 5.8125 4.1875 C3.57968261 2.72461964 1.62655933 2.35494045 -1 2 C-0.67 1.34 -0.34 0.68 0 0 Z " fill="#F3F4F4" transform="translate(194,59)"/>
<path d="M0 0 C6.93 0 13.86 0 21 0 C22.24546405 2.49092811 21.7767578 3.41080733 21 6 C19.0625 5.6875 19.0625 5.6875 17 5 C16.67 4.01 16.34 3.02 16 2 C12.7 2 9.4 2 6 2 C5.34 3.32 4.68 4.64 4 6 C2.68 5.67 1.36 5.34 0 5 C0 3.35 0 1.7 0 0 Z " fill="#EC7233" transform="translate(61,75)"/>
<path d="M0 0 C0.33 0.66 0.66 1.32 1 2 C1.66 2 2.32 2 3 2 C3.33 1.34 3.66 0.68 4 0 C4.3125 2.25 4.3125 2.25 4 5 C0.77824938 8.22175062 -2.8934957 10.089998 -7 12 C-7.25 8.6875 -7.25 8.6875 -7 5 C-5 3.0625 -5 3.0625 -3 2 C-2.34 2.33 -1.68 2.66 -1 3 C-0.67 2.01 -0.34 1.02 0 0 Z " fill="#EF8B57" transform="translate(102,133)"/>
<path d="M0 0 C0.99 0 1.98 0 3 0 C3 2.64 3 5.28 3 8 C5.64 8 8.28 8 11 8 C11 8.33 11 8.66 11 9 C8.36 9 5.72 9 3 9 C3 11.97 3 14.94 3 18 C2.01 18 1.02 18 0 18 C0 12.06 0 6.12 0 0 Z " fill="#F6F6F7" transform="translate(173,84)"/>
<path d="M0 0 C0.66 0 1.32 0 2 0 C2.89434157 1.40453643 3.76493192 2.82421869 4.625 4.25 C5.11226563 5.03890625 5.59953125 5.8278125 6.1015625 6.640625 C7 9 7 9 6.1484375 11.296875 C5.76945312 11.85890625 5.39046875 12.4209375 5 13 C4.01 12.34 3.02 11.68 2 11 C2 11.99 2 12.98 2 14 C1.34 14 0.68 14 0 14 C-1.33224462 10.00326615 -1.13442113 6.16705497 -1 2 C-0.67 1.34 -0.34 0.68 0 0 Z " fill="#ED7537" transform="translate(98,100)"/>
<path d="M0 0 C0.33 0 0.66 0 1 0 C1.25 2.3125 1.25 2.3125 1 5 C-0.8125 6.8125 -0.8125 6.8125 -3 8 C-3.99 8 -4.98 8 -6 8 C-6 7.34 -6 6.68 -6 6 C-11.28 6 -16.56 6 -22 6 C-22.33 5.34 -22.66 4.68 -23 4 C-15.74 3.67 -8.48 3.34 -1 3 C-0.67 2.01 -0.34 1.02 0 0 Z " fill="#F6BDA0" transform="translate(85,48)"/>
<path d="M0 0 C0.99 0.33 1.98 0.66 3 1 C2.67 3.31 2.34 5.62 2 8 C2.99 8 3.98 8 5 8 C5.66 8 6.32 8 7 8 C6.42805835 11.31726155 5.42999536 12.72635823 3 15 C-2.04212766 7.96893617 -2.04212766 7.96893617 -1.875 4.125 C-1 2 -1 2 0 0 Z " fill="#EB6C2A" transform="translate(83,105)"/>
<path d="M0 0 C0.99 0 1.98 0 3 0 C3.62039253 10.80516994 3.62039253 10.80516994 1.3125 15.25 C-1 17 -1 17 -3.75 17.3125 C-4.4925 17.209375 -5.235 17.10625 -6 17 C-6 16.34 -6 15.68 -6 15 C-4.35 14.67 -2.7 14.34 -1 14 C-0.67 9.38 -0.34 4.76 0 0 Z " fill="#DB5F1F" transform="translate(184,109)"/>
<path d="M0 0 C0.33 0.66 0.66 1.32 1 2 C0.00390625 4.3828125 0.00390625 4.3828125 -1.4375 7.125 C-1.91058594 8.03507812 -2.38367188 8.94515625 -2.87109375 9.8828125 C-3.24363281 10.58148438 -3.61617188 11.28015625 -4 12 C-0.7 12 2.6 12 6 12 C6 11.34 6 10.68 6 10 C7.98 10 9.96 10 12 10 C12.33 10.99 12.66 11.98 13 13 C10.22922802 13.16774403 7.45839073 13.33423936 4.6875 13.5 C3.50897461 13.57154297 3.50897461 13.57154297 2.30664062 13.64453125 C1.1706543 13.71220703 1.1706543 13.71220703 0.01171875 13.78125 C-0.68477783 13.82314453 -1.38127441 13.86503906 -2.09887695 13.90820312 C-3.73096966 13.98700971 -5.36600579 14 -7 14 C-7 13.34 -7 12.68 -7 12 C-6.34 12 -5.68 12 -5 12 C-4.9175 11.319375 -4.835 10.63875 -4.75 9.9375 C-3.77667472 6.1253093 -2.04192545 3.35929671 0 0 Z " fill="#F4AE89" transform="translate(73,13)"/>
<path d="M0 0 C0 2.66666667 0 5.33333333 0 8 C0.66 8.33 1.32 8.66 2 9 C2.33 8.34 2.66 7.68 3 7 C3.66 7 4.32 7 5 7 C4.75 9.375 4.75 9.375 4 12 C1.9375 13.3125 1.9375 13.3125 0 14 C-2.83649679 10.47586762 -4.02595137 8.7915168 -3.875 4.1875 C-3.58625 3.135625 -3.2975 2.08375 -3 1 C-1 0 -1 0 0 0 Z " fill="#EB6A27" transform="translate(73,105)"/>
<path d="M0 0 C0.66 0 1.32 0 2 0 C2.33 1.65 2.66 3.3 3 5 C3.99 5 4.98 5 6 5 C5.67 7.31 5.34 9.62 5 12 C3.68 12.33 2.36 12.66 1 13 C-1.30143236 9.54785147 -1.13833854 8.76520676 -0.625 4.8125 C-0.51414062 3.91144531 -0.40328125 3.01039062 -0.2890625 2.08203125 C-0.19367188 1.39496094 -0.09828125 0.70789063 0 0 Z " fill="#F3A57C" transform="translate(108,100)"/>
<path d="M0 0 C0.66 0 1.32 0 2 0 C2 5.28 2 10.56 2 16 C-4.875 10.375 -4.875 10.375 -6 7 C-2.125 7.875 -2.125 7.875 -1 9 C-0.67 6.03 -0.34 3.06 0 0 Z " fill="#E3611E" transform="translate(249,133)"/>
<path d="M0 0 C0.99 0 1.98 0 3 0 C3 5.61 3 11.22 3 17 C2.01 17 1.02 17 0 17 C0 11.39 0 5.78 0 0 Z " fill="#E8631E" transform="translate(274,109)"/>
<path d="M0 0 C0.99 1.32 1.98 2.64 3 4 C-3.75 4.125 -3.75 4.125 -6 3 C-5.175 3.78375 -4.35 4.5675 -3.5 5.375 C-1 8 -1 8 -1 10 C-1.97850195 11.02104551 -2.97980427 12.0206121 -4 13 C-4.33 13.66 -4.66 14.32 -5 15 C-3.68 15.33 -2.36 15.66 -1 16 C-1.99 16.33 -2.98 16.66 -4 17 C-4.99 16.34 -5.98 15.68 -7 15 C-6.34 12.69 -5.68 10.38 -5 8 C-5.66 7.34 -6.32 6.68 -7 6 C-7.125 3.375 -7.125 3.375 -7 1 C-5.5459375 1.0309375 -5.5459375 1.0309375 -4.0625 1.0625 C-1.12534105 1.35618499 -1.12534105 1.35618499 0 0 Z " fill="#FAE0D2" transform="translate(49,52)"/>
<path d="M0 0 C0.99 1.485 0.99 1.485 2 3 C2.99 3 3.98 3 5 3 C5.33 4.65 5.66 6.3 6 8 C5.01 7.34 4.02 6.68 3 6 C3 7.32 3 8.64 3 10 C4.92022703 11.77409808 4.92022703 11.77409808 7 13 C5.68 13.99 4.36 14.98 3 16 C1.51171875 14.91796875 1.51171875 14.91796875 0 13 C-0.29296875 9.86328125 -0.29296875 9.86328125 -0.1875 6.3125 C-0.16042969 5.13300781 -0.13335937 3.95351562 -0.10546875 2.73828125 C-0.07066406 1.83464844 -0.03585938 0.93101563 0 0 Z " fill="#F8CEB9" transform="translate(107,75)"/>
<path d="M0 0 C1.32 0.33 2.64 0.66 4 1 C4 1.99 4 2.98 4 4 C4.66 4 5.32 4 6 4 C6 2.68 6 1.36 6 0 C7.65 0 9.3 0 11 0 C8.525 4.455 8.525 4.455 6 9 C5.34 9 4.68 9 4 9 C0 2.25 0 2.25 0 0 Z " fill="#EC7232" transform="translate(69,90)"/>
<path d="M0 0 C1.65 0 3.3 0 5 0 C5.33 1.32 5.66 2.64 6 4 C6.33 2.68 6.66 1.36 7 0 C8.32 0 9.64 0 11 0 C9.55049545 3.7910119 7.84827434 7.3874638 6 11 C4.41028035 8.61542052 3.13258407 6.3695876 1.875 3.8125 C1.52179687 3.09707031 1.16859375 2.38164063 0.8046875 1.64453125 C0.53914063 1.10183594 0.27359375 0.55914062 0 0 Z " fill="#ED773A" transform="translate(56,90)"/>
<path d="M0 0 C1.65 0 3.3 0 5 0 C5 1.32 5 2.64 5 4 C5.66 4 6.32 4 7 4 C7 2.68 7 1.36 7 0 C8.32 0 9.64 0 11 0 C9.94124926 3.40312738 8.99097846 6.01353231 7 9 C6.34 9 5.68 9 5 9 C3.35 6.03 1.7 3.06 0 0 Z " fill="#ED773A" transform="translate(93,90)"/>
<path d="M0 0 C5.94 0 11.88 0 18 0 C18 0.33 18 0.66 18 1 C16.35 1 14.7 1 13 1 C13.33 1.99 13.66 2.98 14 4 C13.67 4.66 13.34 5.32 13 6 C12.34 6 11.68 6 11 6 C10.67 5.01 10.34 4.02 10 3 C7.36 3 4.72 3 2 3 C2 3.99 2 4.98 2 6 C1.34 6 0.68 6 0 6 C0 4.02 0 2.04 0 0 Z " fill="#FADDCE" transform="translate(87,88)"/>
<path d="M0 0 C2.64 0 5.28 0 8 0 C8 0.66 8 1.32 8 2 C6.02 2 4.04 2 2 2 C2.08693141 3.79258558 2.19510504 5.58415144 2.3125 7.375 C2.37050781 8.37273437 2.42851562 9.37046875 2.48828125 10.3984375 C2.65714844 11.25695312 2.82601563 12.11546875 3 13 C3.99 13.66 4.98 14.32 6 15 C4.02 15 2.04 15 0 15 C0 10.05 0 5.1 0 0 Z " fill="#E9631E" transform="translate(256,133)"/>
<path d="M0 0 C0.66 0 1.32 0 2 0 C2 0.99 2 1.98 2 3 C2.763125 3.12375 3.52625 3.2475 4.3125 3.375 C7 4 7 4 10 6 C9.33333333 7.33333333 8.66666667 8.66666667 8 10 C3.56541027 8.6062718 1.12621626 6.39417765 -2 3 C-1.34 2.01 -0.68 1.02 0 0 Z " fill="#EF8D5A" transform="translate(56,131)"/>
<path d="M0 0 C0.99 0.33 1.98 0.66 3 1 C-11.24229075 13.02422907 -11.24229075 13.02422907 -21 14 C-21 13.34 -21 12.68 -21 12 C-19.948125 11.67128906 -19.948125 11.67128906 -18.875 11.3359375 C-11.34991827 8.82076073 -5.61547707 5.61547707 0 0 Z " fill="#F9DACA" transform="translate(108,135)"/>
<path d="M0 0 C0.66 0 1.32 0 2 0 C2 0.99 2 1.98 2 3 C2.66 3 3.32 3 4 3 C4 2.01 4 1.02 4 0 C4.99 0.33 5.98 0.66 7 1 C6.45276317 4.37462715 5.9451 6.08235 4 9 C3.34 9 2.68 9 2 9 C-1.11450382 4.84732824 -1.11450382 4.84732824 -0.6875 1.6875 C-0.460625 1.130625 -0.23375 0.57375 0 0 Z " fill="#EC7436" transform="translate(96,111)"/>
<path d="M0 0 C0.99 0.99 1.98 1.98 3 3 C2.649375 3.78375 2.29875 4.5675 1.9375 5.375 C1.628125 6.24125 1.31875 7.1075 1 8 C1.33 8.66 1.66 9.32 2 10 C0.35 10 -1.3 10 -3 10 C-3.36923077 3.47692308 -3.36923077 3.47692308 -1.5 1.0625 C-1.005 0.711875 -0.51 0.36125 0 0 Z " fill="#EC6D2B" transform="translate(68,63)"/>
<path d="M0 0 C1.98 0.66 3.96 1.32 6 2 C6 1.34 6 0.68 6 0 C7.32 0.33 8.64 0.66 10 1 C9.8125 2.8125 9.8125 2.8125 9 5 C6.4375 6.75 6.4375 6.75 4 8 C2.66666667 5.33333333 1.33333333 2.66666667 0 0 Z " fill="#ED773A" transform="translate(46,111)"/>
<path d="M0 0 C0.99 0.33 1.98 0.66 3 1 C3.36458333 5.49652778 3.36458333 5.49652778 1.6875 7.8125 C0 9 0 9 -3 9 C-3.33 7.68 -3.66 6.36 -4 5 C-3.34 5 -2.68 5 -2 5 C-1.34 3.35 -0.68 1.7 0 0 Z " fill="#EB6C2A" transform="translate(113,43)"/>
<path d="M0 0 C3.24883422 1.94930053 4.07732858 4.05563761 5.5 7.5 C4.51 7.17 3.52 6.84 2.5 6.5 C1.8125 4.4375 1.8125 4.4375 1.5 2.5 C0.51 2.5 -0.48 2.5 -1.5 2.5 C-0.84 4.15 -0.18 5.8 0.5 7.5 C-0.49 7.5 -1.48 7.5 -2.5 7.5 C-3.49 5.52 -4.48 3.54 -5.5 1.5 C-2.5 -0.5 -2.5 -0.5 0 0 Z " fill="#F08E5B" transform="translate(85.5,34.5)"/>
<path d="M0 0 C1.32 1.32 2.64 2.64 4 4 C-4.58 4 -13.16 4 -22 4 C-22 5.98 -22 7.96 -22 10 C-22.33 10 -22.66 10 -23 10 C-23 7.69 -23 5.38 -23 3 C-15.41 2.67 -7.82 2.34 0 2 C0 1.34 0 0.68 0 0 Z " fill="#FEFEFE" transform="translate(75,71)"/>
<path d="M0 0 C1.32 0.33 2.64 0.66 4 1 C2.68 4.63 1.36 8.26 0 12 C-0.99 12 -1.98 12 -3 12 C-2.69106068 10.3743193 -2.3777305 8.74947252 -2.0625 7.125 C-1.88847656 6.22007813 -1.71445312 5.31515625 -1.53515625 4.3828125 C-1 2 -1 2 0 0 Z " fill="#E7E8E9" transform="translate(277,84)"/>
<path d="M0 0 C0.66 0 1.32 0 2 0 C2.20086443 3.71599191 2.1519437 4.77208445 0 8 C0.66 8.33 1.32 8.66 2 9 C2 9.66 2 10.32 2 11 C1.01 11 0.02 11 -1 11 C-3 8 -3 8 -2.75 4.9375 C-2 2 -2 2 0 0 Z " fill="#EB6B29" transform="translate(84,125)"/>
<path d="M0 0 C0.66 0.33 1.32 0.66 2 1 C2 2.65 2 4.3 2 6 C-0.31 6 -2.62 6 -5 6 C-5 6.66 -5 7.32 -5 8 C-5.66 8 -6.32 8 -7 8 C-5.50902342 4.2047869 -3.24299151 2.38957269 0 0 Z " fill="#F5BB9D" transform="translate(86,68)"/>
<path d="M0 0 C1.07894531 0.04640625 2.15789062 0.0928125 3.26953125 0.140625 C4.35621094 0.17671875 5.44289063 0.2128125 6.5625 0.25 C7.39394531 0.29640625 8.22539063 0.3428125 9.08203125 0.390625 C9.08203125 1.050625 9.08203125 1.710625 9.08203125 2.390625 C8.12490234 2.48150391 8.12490234 2.48150391 7.1484375 2.57421875 C5.90900391 2.69990234 5.90900391 2.69990234 4.64453125 2.828125 C3.40896484 2.94994141 3.40896484 2.94994141 2.1484375 3.07421875 C0.095411 3.17993315 0.095411 3.17993315 -0.91796875 4.390625 C-2.5841399 4.43126332 -4.2518497 4.433346 -5.91796875 4.390625 C-4.20732299 1.34147397 -3.55091093 0.47535622 0 0 Z " fill="#EC7232" transform="translate(73.91796875,43.609375)"/>
<path d="M0 0 C0.33 0 0.66 0 1 0 C1.226875 1.11375 1.45375 2.2275 1.6875 3.375 C2.60623658 7.16038373 2.60623658 7.16038373 5.625 8.4375 C6.40875 8.623125 7.1925 8.80875 8 9 C8 9.66 8 10.32 8 11 C4.625 10.6875 4.625 10.6875 1 10 C-1.29404844 6.55892734 -1.26293056 5.03160191 -1 1 C-0.67 0.67 -0.34 0.34 0 0 Z " fill="#E1611E" transform="translate(174,138)"/>
<path d="M0 0 C3.96 0 7.92 0 12 0 C12 0.66 12 1.32 12 2 C12.66 2.33 13.32 2.66 14 3 C13.67 3.66 13.34 4.32 13 5 C12.34 5 11.68 5 11 5 C10.67 4.01 10.34 3.02 10 2 C7.36 2 4.72 2 2 2 C1.34 3.65 0.68 5.3 0 7 C-0.66 5.68 -1.32 4.36 -2 3 C-1.34 2.67 -0.68 2.34 0 2 C0 1.34 0 0.68 0 0 Z " fill="#F7C8B0" transform="translate(62,89)"/>
<path d="M0 0 C2.46800047 1.15173355 4.04783565 2.04783565 6 4 C6.625 6.125 6.625 6.125 7 8 C7.99 7.67 8.98 7.34 10 7 C10 7.66 10 8.32 10 9 C7 11 7 11 4 11 C3.67 8.69 3.34 6.38 3 4 C2.01 4 1.02 4 0 4 C0 2.68 0 1.36 0 0 Z " fill="#FBE5D9" transform="translate(101,39)"/>
<path d="M0 0 C1.32 1.32 2.64 2.64 4 4 C2.68 4.99 1.36 5.98 0 7 C0 6.01 0 5.02 0 4 C-1.65 7.3 -3.3 10.6 -5 14 C-5.66 13.34 -6.32 12.68 -7 12 C-4.69 8.04 -2.38 4.08 0 0 Z " fill="#FAE1D3" transform="translate(73,10)"/>
<path d="M0 0 C2.375 0.6875 2.375 0.6875 5 2 C6.3125 4.625 6.3125 4.625 7 7 C3.62537285 6.45276317 1.91765 5.9451 -1 4 C-0.67 2.68 -0.34 1.36 0 0 Z " fill="#EB6926" transform="translate(110,60)"/>
<path d="M0 0 C0.99 0 1.98 0 3 0 C3.103125 0.639375 3.20625 1.27875 3.3125 1.9375 C3.539375 2.618125 3.76625 3.29875 4 4 C4.99 4.33 5.98 4.66 7 5 C7 5.66 7 6.32 7 7 C7.66 7.33 8.32 7.66 9 8 C6.36 7.67 3.72 7.34 1 7 C0.34 5.02 -0.32 3.04 -1 1 C-0.67 0.67 -0.34 0.34 0 0 Z " fill="#EF8954" transform="translate(69,140)"/>
<path d="M0 0 C1.5 1.375 1.5 1.375 3 3 C3 3.66 3 4.32 3 5 C4.32 5.66 5.64 6.32 7 7 C3.37 7 -0.26 7 -4 7 C-4 5.35 -4 3.7 -4 2 C-3.67 3.32 -3.34 4.64 -3 6 C-2.34 5.67 -1.68 5.34 -1 5 C-0.34444881 2.47266765 -0.34444881 2.47266765 0 0 Z " fill="#EC7436" transform="translate(100,66)"/>
<path d="M0 0 C2.84763523 2.84763523 3 5.03616548 3 9 C2.01 9.66 1.02 10.32 0 11 C-1.32 10.34 -2.64 9.68 -4 9 C-4 8.34 -4 7.68 -4 7 C-3.01 6.67 -2.02 6.34 -1 6 C-0.67 4.02 -0.34 2.04 0 0 Z " fill="#F4B08D" transform="translate(61,104)"/>
<path d="M0 0 C3.33523252 1.38009621 5.18607951 2.84950652 7 6 C6.67 6.99 6.34 7.98 6 9 C5.34 9 4.68 9 4 9 C2.9739266 7.68662604 1.97272675 6.35335895 1 5 C0.67 5 0.34 5 0 5 C0 3.35 0 1.7 0 0 Z " fill="#ED793E" transform="translate(109,73)"/>
<path d="M0 0 C0.33 0 0.66 0 1 0 C2.67357513 5.37305699 2.67357513 5.37305699 3 8 C1.625 10 1.625 10 0 11 C-0.99 9.68 -1.98 8.36 -3 7 C-2.01 4.69 -1.02 2.38 0 0 Z " fill="#F4B08D" transform="translate(74,104)"/>
<path d="M0 0 C0.33 0 0.66 0 1 0 C1.05386629 2.12472576 1.09273071 4.24983652 1.125 6.375 C1.14820313 7.55835937 1.17140625 8.74171875 1.1953125 9.9609375 C1 13 1 13 -1 15 C-1 14.01 -1 13.02 -1 12 C-2.65 12.33 -4.3 12.66 -6 13 C-5.36578125 12.61199219 -4.7315625 12.22398438 -4.078125 11.82421875 C-1.49048758 9.55274003 -1.27301005 8.16848119 -0.75 4.8125 C-0.60046875 3.91144531 -0.4509375 3.01039062 -0.296875 2.08203125 C-0.19890625 1.39496094 -0.1009375 0.70789063 0 0 Z " fill="#FCEDE6" transform="translate(53,75)"/>
<path d="M0 0 C1.32 0.33 2.64 0.66 4 1 C3.51789062 1.38671875 3.03578125 1.7734375 2.5390625 2.171875 C1.90742187 2.69265625 1.27578125 3.2134375 0.625 3.75 C-0.31472656 4.51570313 -0.31472656 4.51570313 -1.2734375 5.296875 C-3.08312318 7.08199481 -4.00117455 8.67949644 -5 11 C-5.66 11 -6.32 11 -7 11 C-6.67 10.01 -6.34 9.02 -6 8 C-6.66 7.34 -7.32 6.68 -8 6 C-7.05125 5.566875 -6.1025 5.13375 -5.125 4.6875 C-1.79958063 3.20697799 -1.79958063 3.20697799 0 0 Z " fill="#EF8954" transform="translate(54,62)"/>
<path d="M0 0 C1.65 0 3.3 0 5 0 C5 1.65 5 3.3 5 5 C3.35 5.33 1.7 5.66 0 6 C0 4.02 0 2.04 0 0 Z " fill="#2E373D" transform="translate(176,62)"/>
<path d="M0 0 C4 4.75 4 4.75 4 7 C4.66 7 5.32 7 6 7 C5.67 7.66 5.34 8.32 5 9 C2.69 8.67 0.38 8.34 -2 8 C-1.34 5.36 -0.68 2.72 0 0 Z " fill="#ED7C41" transform="translate(88,56)"/>
<path d="M0 0 C2.475 0.495 2.475 0.495 5 1 C4.67 2.65 4.34 4.3 4 6 C2.68 6 1.36 6 0 6 C0 4.02 0 2.04 0 0 Z " fill="#2E2E2E" transform="translate(249,111)"/>
<path d="M0 0 C0.66 0 1.32 0 2 0 C2.25 2.25 2.25 2.25 2 5 C0.125 7.3125 0.125 7.3125 -2 9 C-2.66 9 -3.32 9 -4 9 C-3.125 4.25 -3.125 4.25 -2 2 C-1.34 2 -0.68 2 0 2 C0 1.34 0 0.68 0 0 Z " fill="#ED7639" transform="translate(50,73)"/>
<path d="M0 0 C0.33 0 0.66 0 1 0 C3 5.625 3 5.625 3 9 C2.01 9.66 1.02 10.32 0 11 C-1.125 9.4375 -1.125 9.4375 -2 7 C-1.125 3.25 -1.125 3.25 0 0 Z " fill="#F5B695" transform="translate(86,104)"/>
<path d="M0 0 C0.33 0 0.66 0 1 0 C1.25 3.3125 1.25 3.3125 1 7 C-1 8.9375 -1 8.9375 -3 10 C-3.23226952 6.59338044 -3.35720302 4.59016151 -1.5625 1.625 C-0.7890625 0.820625 -0.7890625 0.820625 0 0 Z " fill="#EB6824" transform="translate(97,103)"/>
<path d="M0 0 C1.32 0 2.64 0 4 0 C2.8141763 3.37503669 1.72426311 5.64722731 -1 8 C-2.5625 6.1875 -2.5625 6.1875 -4 4 C-3.67 3.01 -3.34 2.02 -3 1 C-2.67 1.66 -2.34 2.32 -2 3 C-1.34 2.67 -0.68 2.34 0 2 C0 1.34 0 0.68 0 0 Z " fill="#ED7A3E" transform="translate(88,90)"/>
<path d="M0 0 C1.32 0.33 2.64 0.66 4 1 C3.67 2.98 3.34 4.96 3 7 C3.99 7.66 4.98 8.32 6 9 C4.02 9 2.04 9 0 9 C0 6.03 0 3.06 0 0 Z " fill="#F4B08C" transform="translate(66,40)"/>
<path d="M0 0 C0.66 0 1.32 0 2 0 C2.1875 2.875 2.1875 2.875 2 6 C1.01 6.66 0.02 7.32 -1 8 C-1.66 6.68 -2.32 5.36 -3 4 C-1.625 2 -1.625 2 0 0 Z " fill="#EC6E2C" transform="translate(72,124)"/>
<path d="M0 0 C0.99 1.32 1.98 2.64 3 4 C-3.75 4.125 -3.75 4.125 -6 3 C-5.67 3.99 -5.34 4.98 -5 6 C-5.66 6 -6.32 6 -7 6 C-7 4.35 -7 2.7 -7 1 C-5.5459375 1.0309375 -5.5459375 1.0309375 -4.0625 1.0625 C-1.12534105 1.35618499 -1.12534105 1.35618499 0 0 Z " fill="#F9D7C5" transform="translate(49,52)"/>
<path d="M0 0 C1.65 0 3.3 0 5 0 C4.67 2.31 4.34 4.62 4 7 C3.01 6.67 2.02 6.34 1 6 C0.67 4.02 0.34 2.04 0 0 Z " fill="#F5F6F6" transform="translate(271,95)"/>
<path d="M0 0 C0.66 0 1.32 0 2 0 C3.625 2 3.625 2 5 4 C5.66 2.68 6.32 1.36 7 0 C7.33 2.31 7.66 4.62 8 7 C4.78448712 6.65548076 3.97940123 5.97711248 1.75 3.5 C0 1 0 1 0 0 Z " fill="#FBE5D9" transform="translate(48,43)"/>
<path d="M0 0 C2.475 0.495 2.475 0.495 5 1 C5.33 2.32 5.66 3.64 6 5 C4.35 5.33 2.7 5.66 1 6 C0.67 4.02 0.34 2.04 0 0 Z " fill="#F08F5D" transform="translate(89,138)"/>
<path d="M0 0 C1.32 0.33 2.64 0.66 4 1 C4 1.99 4 2.98 4 4 C4.66 4 5.32 4 6 4 C6 3.34 6 2.68 6 2 C6.66 2.33 7.32 2.66 8 3 C6.6875 4.5 6.6875 4.5 5 6 C4.01 6 3.02 6 2 6 C1.34 4.02 0.68 2.04 0 0 Z " fill="#EE7F45" transform="translate(69,90)"/>
<path d="M0 0 C3.33881853 0.57565837 4.72801455 1.53868242 7 4 C8.31963709 5.01800576 9.65009646 6.02248365 11 7 C9.234375 7.7109375 9.234375 7.7109375 7 8 C5.078125 6.6015625 5.078125 6.6015625 3.25 4.625 C2.63640625 3.97789063 2.0228125 3.33078125 1.390625 2.6640625 C0 1 0 1 0 0 Z " fill="#EE834B" transform="translate(104,62)"/>
<path d="M0 0 C0.66 0 1.32 0 2 0 C2 2.31 2 4.62 2 7 C1.01 7.495 1.01 7.495 0 8 C-0.33 7.01 -0.66 6.02 -1 5 C-1.99 5.495 -1.99 5.495 -3 6 C-2.42655063 3.13275314 -2.1385485 2.1385485 0 0 Z " fill="#FDF2EC" transform="translate(58,39)"/>
<path d="M0 0 C2 1.1875 2 1.1875 4 3 C4.25 5.6875 4.25 5.6875 4 8 C3.34 8 2.68 8 2 8 C0.3125 5.6875 0.3125 5.6875 -1 3 C-0.67 2.01 -0.34 1.02 0 0 Z " fill="#F3A881" transform="translate(93,36)"/>
<path d="M0 0 C2.31 0.33 4.62 0.66 7 1 C6.67 1.99 6.34 2.98 6 4 C3 5 3 5 0.8125 4.0625 C0.214375 3.711875 -0.38375 3.36125 -1 3 C-0.67 2.01 -0.34 1.02 0 0 Z " fill="#F29E72" transform="translate(73,141)"/>
<path d="M0 0 C0.99 0.66 1.98 1.32 3 2 C2.67 3.32 2.34 4.64 2 6 C-0.475 5.01 -0.475 5.01 -3 4 C-2.01 2.68 -1.02 1.36 0 0 Z " fill="#F5B696" transform="translate(86,129)"/>
<path d="M0 0 C1.9375 0.75 1.9375 0.75 4 2 C4.75 4.125 4.75 4.125 5 6 C3.68 5.67 2.36 5.34 1 5 C0.67 5.66 0.34 6.32 0 7 C0 4.69 0 2.38 0 0 Z " fill="#FDF2EC" transform="translate(110,100)"/>
<path d="M0 0 C0.33 0.99 0.66 1.98 1 3 C-1 5 -1 5 -3.625 5.125 C-4.40875 5.08375 -5.1925 5.0425 -6 5 C-6.33 3.68 -6.66 2.36 -7 1 C-5.824375 1.309375 -5.824375 1.309375 -4.625 1.625 C-3.75875 1.74875 -2.8925 1.8725 -2 2 C-1.34 1.34 -0.68 0.68 0 0 Z " fill="#EC7132" transform="translate(67,80)"/>
<path d="M0 0 C0.33 0 0.66 0 1 0 C1.33 1.98 1.66 3.96 2 6 C-0.64 6 -3.28 6 -6 6 C-4 4 -2 2 0 0 Z " fill="#EC7131" transform="translate(60,67)"/>
<path d="M0 0 C1.32 0.33 2.64 0.66 4 1 C0.375 5.875 0.375 5.875 -3 7 C-1.125 2.25 -1.125 2.25 0 0 Z " fill="#ECEDEE" transform="translate(217,59)"/>
<path d="M0 0 C3.3 0 6.6 0 10 0 C10.33 1.65 10.66 3.3 11 5 C8.525 4.01 8.525 4.01 6 3 C6 2.34 6 1.68 6 1 C4.02 1 2.04 1 0 1 C0 0.67 0 0.34 0 0 Z " fill="#F3A982" transform="translate(81,32)"/>
<path d="M0 0 C0.66 0 1.32 0 2 0 C3.125 5.625 3.125 5.625 2 9 C1.34 9 0.68 9 0 9 C-1.10844919 5.67465243 -0.84454356 3.37817425 0 0 Z " fill="#F6BC9E" transform="translate(98,105)"/>
<path d="M0 0 C2.97 0.99 5.94 1.98 9 3 C9 3.66 9 4.32 9 5 C7.68 5.33 6.36 5.66 5 6 C5 5.34 5 4.68 5 4 C4.34 4 3.68 4 3 4 C3 3.34 3 2.68 3 2 C2.01 1.67 1.02 1.34 0 1 C0 0.67 0 0.34 0 0 Z " fill="#EB6621" transform="translate(63,135)"/>
<path d="M0 0 C0.66 0 1.32 0 2 0 C2 0.99 2 1.98 2 3 C2.99 3.33 3.98 3.66 5 4 C4.34 4 3.68 4 3 4 C2.67 4.99 2.34 5.98 2 7 C0.68 5.68 -0.64 4.36 -2 3 C-1.34 2.01 -0.68 1.02 0 0 Z " fill="#F2A278" transform="translate(56,131)"/>
<path d="M0 0 C1.32 0 2.64 0 4 0 C4 1.32 4 2.64 4 4 C3.34 4 2.68 4 2 4 C0.37485532 5.45833358 0.37485532 5.45833358 -1 7 C-1.04254356 5.00045254 -1.04080783 2.99958364 -1 1 C-0.67 0.67 -0.34 0.34 0 0 Z " fill="#EE7F46" transform="translate(101,131)"/>
<path d="M0 0 C0.33 0.99 0.66 1.98 1 3 C-1 5 -1 5 -3.625 5.125 C-4.40875 5.08375 -5.1925 5.0425 -6 5 C-6.33 3.68 -6.66 2.36 -7 1 C-4.03 1.495 -4.03 1.495 -1 2 C-0.67 1.34 -0.34 0.68 0 0 Z " fill="#EB6926" transform="translate(100,80)"/>
<path d="M0 0 C0.66 0.66 1.32 1.32 2 2 C5.09926819 1.67801034 5.09926819 1.67801034 8 1 C7.67 2.32 7.34 3.64 7 5 C4.625 5.125 4.625 5.125 2 5 C1.34 4.34 0.68 3.68 0 3 C0 2.01 0 1.02 0 0 Z " fill="#EB6926" transform="translate(76,80)"/>
<path d="M0 0 C0.33 0.66 0.66 1.32 1 2 C3.64 1.34 6.28 0.68 9 0 C9 0.99 9 1.98 9 3 C5.37 3 1.74 3 -2 3 C-2 2.34 -2 1.68 -2 1 C-1.34 0.67 -0.68 0.34 0 0 Z " fill="#FCEEE7" transform="translate(65,47)"/>
<path d="M0 0 C0.99 0.33 1.98 0.66 3 1 C2.34 3.64 1.68 6.28 1 9 C-0.625 7.3125 -0.625 7.3125 -2 5 C-1.1875 2.25 -1.1875 2.25 0 0 Z " fill="#C75A21" transform="translate(175,134)"/>
<path d="M0 0 C0.99 0 1.98 0 3 0 C2.67 1.98 2.34 3.96 2 6 C1.01 6.33 0.02 6.66 -1 7 C-0.67 4.69 -0.34 2.38 0 0 Z " fill="#EC6E2D" transform="translate(111,105)"/>
<path d="M0 0 C0.99 0 1.98 0 3 0 C2.25 2.4375 2.25 2.4375 1 5 C-1.125 5.8125 -1.125 5.8125 -3 6 C-1.125 1.125 -1.125 1.125 0 0 Z " fill="#E9EAEA" transform="translate(307,84)"/>
<path d="M0 0 C3 3.75 3 3.75 3 6 C1.35 6 -0.3 6 -2 6 C-1.34 4.02 -0.68 2.04 0 0 Z " fill="#3E474C" transform="translate(227,64)"/>
<path d="M0 0 C0.33 0 0.66 0 1 0 C1.66 2.64 2.32 5.28 3 8 C2.01 8.33 1.02 8.66 0 9 C-1.125 2.25 -1.125 2.25 0 0 Z " fill="#EB6B29" transform="translate(57,42)"/>
<path d="M0 0 C0.99 0.99 1.98 1.98 3 3 C2.34 4.65 1.68 6.3 1 8 C0.34 8 -0.32 8 -1 8 C-0.67 5.36 -0.34 2.72 0 0 Z " fill="#F4B594" transform="translate(61,14)"/>
<path d="M0 0 C-0.33 1.65 -0.66 3.3 -1 5 C-1.99 5 -2.98 5 -4 5 C-4 3.68 -4 2.36 -4 1 C-2 0 -2 0 0 0 Z " fill="#EB6622" transform="translate(61,106)"/>
<path d="M0 0 C0.99 0 1.98 0 3 0 C3.33 2.31 3.66 4.62 4 7 C2 5.75 2 5.75 0 4 C0 2.68 0 1.36 0 0 Z " fill="#EB6C2A" transform="translate(47,105)"/>
<path d="M0 0 C2 3 2 3 3 6 C1.35 6 -0.3 6 -2 6 C-1.34 4.02 -0.68 2.04 0 0 Z " fill="#3E474C" transform="translate(287,89)"/>
</svg>
