<svg version="1.1" id="Layer_1" xmlns="http://www.w3.org/2000/svg" xmlns:xlink="http://www.w3.org/1999/xlink" x="0px" y="0px"
	 width="100%" viewBox="0 0 224 110" enable-background="new 0 0 224 110" xml:space="preserve">
<path fill="#0255A0" opacity="1.000000" stroke="none" 
	d="
M150.000000,111.000000 
	C100.000015,111.000000 50.500031,111.000000 1.000033,111.000000 
	C1.000022,74.333359 1.000022,37.666718 1.000011,1.000058 
	C75.666618,1.000039 150.333237,1.000039 224.999908,1.000019 
	C224.999939,37.666607 224.999939,74.333214 224.999969,110.999908 
	C200.166672,111.000000 175.333328,111.000000 150.000000,111.000000 
M154.459579,86.265419 
	C156.662720,86.644676 158.865860,87.023933 161.824280,87.393242 
	C163.709564,86.512238 165.594833,85.631241 166.482300,85.216522 
	C168.500397,86.060760 169.912842,86.651627 172.241730,87.625870 
	C172.241730,80.682465 172.241730,74.937546 172.241730,68.930511 
	C174.297073,68.930511 175.782806,68.930511 177.418396,69.866516 
	C177.440033,74.018326 177.327347,78.177422 177.551651,82.318253 
	C177.637360,83.900726 178.494431,85.441414 179.876404,87.091339 
	C180.636551,85.931190 181.960495,84.813812 182.052353,83.602959 
	C182.341034,79.797386 182.051025,75.950768 182.245987,72.133369 
	C182.300095,71.073967 183.260803,70.060852 183.805573,69.026505 
	C184.801254,69.694427 186.403320,70.168983 186.688553,71.063477 
	C187.981583,75.118210 189.081177,79.257347 189.881271,83.436775 
	C190.267929,85.456619 189.824188,87.645988 193.762451,86.883408 
	C193.953033,84.258736 194.143616,81.634071 194.655701,78.300697 
	C196.201569,74.572655 197.747421,70.844612 199.662674,66.683540 
	C199.104050,66.249001 198.545441,65.814468 197.264755,65.256729 
	C195.543533,67.495560 193.822296,69.734390 192.000793,72.103668 
	C191.318420,70.586906 190.479172,68.721451 189.466095,66.261559 
	C188.973206,65.962738 188.480316,65.663925 187.061081,65.235298 
	C181.812119,65.217781 176.553741,65.026489 171.321091,65.310104 
	C170.079071,65.377426 168.923294,67.036217 167.186707,67.961998 
	C166.825989,67.969017 166.465286,67.976036 165.632645,67.418190 
	C161.060272,63.658989 158.183807,63.885170 152.303589,68.479713 
	C148.481232,63.756329 143.509079,65.188705 138.097595,65.597130 
	C138.097595,72.174263 137.993988,78.445702 138.225922,84.704712 
	C138.255646,85.506599 140.031235,86.243797 141.535843,87.074615 
	C141.841309,86.707428 142.146774,86.340240 142.627869,85.109947 
	C142.774277,82.848289 142.920700,80.586632 143.063828,78.375740 
	C147.867126,77.653893 147.540298,80.837868 147.612381,83.400230 
	C147.705963,86.726715 148.810577,88.149887 152.655930,85.971420 
	C153.110291,85.884262 153.564651,85.797112 154.459579,86.265419 
M103.411827,65.209366 
	C102.869514,65.205940 102.327209,65.202515 100.997879,65.162994 
	C100.037964,66.307167 98.486771,67.340118 98.246101,68.619591 
	C97.799500,70.993805 98.118141,73.511963 98.118141,75.970184 
	C96.087234,73.738472 94.991409,71.516716 94.394615,69.168144 
	C93.532692,65.776199 91.569839,64.558708 87.431992,65.201225 
	C86.888626,65.199677 86.345261,65.198120 85.008949,65.172043 
	C84.044571,66.330582 82.362854,67.422607 82.248138,68.659912 
	C81.880524,72.625175 82.296806,76.661537 81.959435,80.632126 
	C81.855843,81.851196 80.302055,82.947044 79.412346,84.099327 
	C78.655632,82.971252 77.325058,81.881950 77.245728,80.708099 
	C76.965454,76.561211 77.264069,72.375549 76.993202,68.227440 
	C76.925758,67.194603 75.543671,66.247620 74.765846,65.261169 
	C74.103157,66.203369 72.918442,67.118736 72.868408,68.092415 
	C72.654915,72.246422 72.765610,76.417702 72.779846,80.582596 
	C72.790787,83.780334 73.357758,86.700996 77.168381,87.391655 
	C80.755692,88.041832 84.218674,88.122345 86.627548,84.020813 
	C86.995132,84.062263 87.362709,84.103722 87.785530,84.975197 
	C88.635513,85.665108 89.485504,86.355011 90.335487,87.044922 
	C90.856148,86.173759 91.769356,85.327194 91.825760,84.426941 
	C92.014664,81.412071 91.897453,78.378014 91.897453,75.351303 
	C93.804085,77.758163 95.070610,80.226219 95.720886,82.847160 
	C96.596039,86.374466 98.425209,87.891594 102.701675,87.034538 
	C103.150345,87.010979 103.599007,86.987411 104.779800,87.104881 
	C105.520927,87.058937 106.262062,87.012993 107.519249,86.921410 
	C107.637375,86.619461 107.755501,86.317513 107.989532,85.083374 
	C108.006935,79.062012 108.024338,73.040649 108.568115,67.551926 
	C109.924461,73.162811 111.112526,78.824196 112.769493,84.344856 
	C113.130310,85.547028 115.121056,86.875824 116.450096,86.976944 
	C117.515694,87.058029 119.440239,85.555939 119.732315,84.431419 
	C121.057060,79.331131 121.938171,74.115608 123.766434,69.355652 
	C124.117233,75.195908 124.468033,81.036163 124.838593,87.205406 
	C127.999359,87.205406 130.660675,87.416443 133.263031,87.116325 
	C134.562897,86.966415 135.755051,85.882431 136.995911,85.220924 
	C135.807495,84.658218 134.609695,83.599602 133.432373,83.621925 
	C129.193710,83.702278 128.102936,82.003471 129.451889,78.673500 
	C132.001190,77.936852 135.876480,77.441307 135.923203,76.703339 
	C136.253632,71.484558 131.115845,75.710617 129.115082,72.853531 
	C129.178787,71.995987 129.280518,70.626663 129.389465,69.160362 
	C131.138382,69.071434 132.501678,69.200928 133.748291,68.878845 
	C134.839996,68.596794 135.800629,67.807472 136.819168,67.242226 
	C135.767502,66.536865 134.753479,65.302071 133.657227,65.224174 
	C130.193665,64.978027 126.686729,65.000732 123.223221,65.266617 
	C121.866501,65.370773 120.580498,66.396042 119.021988,67.754089 
	C118.257660,71.001282 117.493324,74.248474 116.728996,77.495667 
	C115.232948,75.319183 114.396164,73.157669 114.289673,70.960770 
	C114.049393,66.003403 111.773636,64.164253 106.339088,65.281952 
	C105.901863,65.315559 105.464630,65.349167 104.638092,65.243752 
	C104.638092,65.243752 104.224731,65.248566 103.411827,65.209366 
M156.472961,45.990185 
	C156.472961,45.990185 156.089554,45.993011 155.796997,45.335831 
	C154.286957,41.383602 151.194656,40.341999 147.385223,40.996067 
	C143.468323,41.668587 141.911469,44.492855 141.800934,48.131969 
	C141.701080,51.420425 141.938217,54.719112 141.516190,58.079308 
	C141.353699,58.024162 141.191193,57.969017 141.030441,57.135494 
	C139.958328,52.956043 139.121246,48.693493 137.688431,44.641586 
	C137.177200,43.195820 135.191986,41.313545 133.936035,41.354683 
	C132.646500,41.396923 130.841644,43.329353 130.290115,44.815899 
	C128.904297,48.551250 128.098419,52.501770 127.059998,56.366016 
	C124.978569,51.925182 123.901802,47.570858 122.411758,43.362873 
	C122.055321,42.356277 120.331352,41.273548 119.219650,41.255524 
	C118.150574,41.238190 116.377228,42.352913 116.091789,43.318565 
	C114.494225,48.723076 113.253738,54.233135 111.372772,59.748577 
	C111.029655,59.745686 110.686546,59.742790 110.372200,58.836224 
	C110.372200,53.064693 110.372200,47.293159 110.372200,41.340466 
	C107.745239,41.340466 105.674751,41.340466 103.321686,41.340466 
	C103.171791,43.986279 103.035416,46.393475 102.896545,48.844830 
	C101.160164,48.844830 99.754738,48.844830 98.175652,48.844830 
	C98.010010,46.195076 97.859947,43.794533 97.704697,41.310997 
	C87.708305,41.310997 78.117805,41.310997 68.249260,41.310997 
	C68.105820,44.021690 67.973373,46.524635 67.814636,49.524433 
	C62.107414,40.276859 62.107414,40.276859 55.670731,41.917122 
	C55.670731,44.171562 55.670731,46.527435 55.670731,48.883308 
	C53.212814,44.466789 51.799316,39.202522 44.490314,41.160080 
	C44.417782,41.431526 44.345249,41.702969 44.149460,42.640491 
	C44.071152,43.082699 43.992844,43.524906 43.239738,43.674229 
	C38.184147,38.452202 32.048294,42.236217 26.270672,40.984867 
	C26.270672,48.718842 26.270672,55.777527 26.270672,62.918045 
	C28.789288,62.918045 31.047785,62.918045 33.715092,62.918045 
	C33.715092,57.364620 33.715092,52.093704 33.715092,45.561665 
	C35.957882,46.710964 37.367496,47.433308 38.777107,48.155651 
	C37.874920,49.718479 36.972736,51.281307 35.868587,53.193993 
	C40.075764,64.059425 40.075764,64.059425 47.183125,62.484329 
	C45.661152,57.689110 41.310471,52.853882 47.035088,48.751957 
	C48.241989,51.662308 49.786697,54.483582 50.582684,57.502285 
	C52.058998,63.101089 55.480640,64.309639 61.100330,62.537106 
	C61.100330,60.434071 61.100330,58.126308 61.100330,54.950310 
	C66.198174,63.637966 66.198174,63.637966 73.102982,62.658436 
	C73.102982,57.337364 73.102982,51.931580 73.102982,46.199699 
	C75.013924,46.312927 76.396660,46.394855 78.310654,46.508266 
	C78.310654,52.231373 78.310654,57.612484 78.310654,62.951191 
	C80.982933,62.951191 83.097443,62.951191 85.804642,62.951191 
	C85.804642,57.336487 85.804642,51.944275 85.804642,46.726192 
	C89.746513,45.430145 90.849617,46.781296 90.711853,50.111298 
	C90.536140,54.358677 90.669266,58.618835 90.669266,62.909187 
	C93.412804,62.909187 95.499306,62.909187 98.140274,62.909187 
	C98.140274,59.935726 98.140274,57.213280 98.140274,54.160404 
	C100.124939,54.341274 101.516945,54.468132 103.256592,54.626675 
	C103.256592,57.605396 103.256592,60.209843 103.256592,63.023571 
	C105.768799,63.023571 107.897346,63.023571 110.678375,63.171463 
	C111.118958,63.112415 111.559547,63.053368 112.803230,63.126774 
	C113.776047,62.695534 115.139587,62.534832 115.656677,61.788040 
	C118.485825,57.702122 120.137466,57.560802 122.787766,61.456261 
	C124.495834,63.966820 128.796097,63.881069 130.504654,61.302368 
	C132.889023,57.703678 134.999680,57.842754 137.677673,61.319504 
	C138.434708,62.302341 140.267319,62.604340 141.673569,62.896320 
	C142.977448,63.167046 144.473282,62.692009 145.706360,63.093174 
	C150.358978,64.606796 153.845474,63.553478 156.447784,59.006348 
	C156.447784,59.006348 156.874680,59.009308 156.999649,59.828606 
	C157.835663,60.920830 158.671677,62.013050 159.507675,63.105270 
	C160.204117,62.029842 161.046555,61.019867 161.564529,59.864437 
	C162.452393,57.883865 163.152313,54.061420 163.905106,54.067837 
	C168.260178,54.104969 165.770477,57.933922 166.627136,60.047695 
	C167.085815,61.179428 168.075089,62.096115 168.824890,63.109859 
	C169.574112,62.096870 170.900253,61.121792 170.969757,60.064133 
	C171.230026,56.103252 171.284714,52.100880 171.005447,48.143070 
	C170.839371,45.789703 170.059555,41.546715 169.291351,41.485775 
	C164.670715,41.119247 167.483978,45.206955 166.468475,47.167873 
	C165.961929,48.146030 164.899002,48.836056 164.087723,49.656403 
	C163.273926,48.848778 162.092850,48.173935 161.740555,47.199467 
	C161.313324,46.017708 161.841324,44.504951 161.468552,43.284283 
	C161.208328,42.432163 160.161652,41.311169 159.406815,41.264137 
	C158.670776,41.218285 157.589218,42.241867 157.157318,43.059105 
	C156.731888,43.864082 156.931168,44.999210 156.472961,45.990185 
M186.803238,63.070564 
	C187.724579,62.076427 189.281082,61.174324 189.441116,60.069878 
	C189.829208,57.391712 189.567261,54.619354 189.567261,51.524666 
	C194.556976,54.402443 191.023224,63.903015 200.215271,62.916630 
	C200.215271,56.410339 200.319946,50.291206 200.112457,44.182682 
	C200.077774,43.161777 198.687622,42.186916 197.923813,41.190769 
	C197.282379,42.306931 196.191742,43.382885 196.087540,44.547127 
	C195.822754,47.505695 195.999512,50.503780 195.999512,53.486050 
	C194.098846,50.546848 192.872864,47.651653 191.995209,44.654469 
	C191.049454,41.424725 189.184555,40.377480 185.105957,41.407860 
	C184.115372,41.289883 183.123917,41.062531 182.134354,41.070538 
	C169.707550,41.171116 172.096497,39.624992 171.971237,50.831623 
	C171.818161,64.527023 171.934860,64.528328 186.803238,63.070564 
z"/>
<path fill="#F6F9FC" opacity="1.000000" stroke="none" 
	d="
M44.985069,41.260761 
	C51.799316,39.202522 53.212814,44.466789 55.670731,48.883308 
	C55.670731,46.527435 55.670731,44.171562 55.670731,41.917122 
	C62.107414,40.276859 62.107414,40.276859 67.814636,49.524433 
	C67.973373,46.524635 68.105820,44.021690 68.249260,41.310997 
	C78.117805,41.310997 87.708305,41.310997 97.704697,41.310997 
	C97.859947,43.794533 98.010010,46.195076 98.175652,48.844830 
	C99.754738,48.844830 101.160164,48.844830 102.896545,48.844830 
	C103.035416,46.393475 103.171791,43.986279 103.321686,41.340466 
	C105.674751,41.340466 107.745239,41.340466 110.372200,41.340466 
	C110.372200,47.293159 110.372200,53.064693 110.219864,59.680935 
	C110.053642,61.358288 110.039772,62.190929 110.025894,63.023571 
	C107.897346,63.023571 105.768799,63.023571 103.256592,63.023571 
	C103.256592,60.209843 103.256592,57.605396 103.256592,54.626675 
	C101.516945,54.468132 100.124939,54.341274 98.140274,54.160404 
	C98.140274,57.213280 98.140274,59.935726 98.140274,62.909187 
	C95.499306,62.909187 93.412804,62.909187 90.669266,62.909187 
	C90.669266,58.618835 90.536140,54.358677 90.711853,50.111298 
	C90.849617,46.781296 89.746513,45.430145 85.804642,46.726192 
	C85.804642,51.944275 85.804642,57.336487 85.804642,62.951191 
	C83.097443,62.951191 80.982933,62.951191 78.310654,62.951191 
	C78.310654,57.612484 78.310654,52.231373 78.310654,46.508266 
	C76.396660,46.394855 75.013924,46.312927 73.102982,46.199699 
	C73.102982,51.931580 73.102982,57.337364 73.102982,62.658436 
	C66.198174,63.637966 66.198174,63.637966 61.100330,54.950310 
	C61.100330,58.126308 61.100330,60.434071 61.100330,62.537106 
	C55.480640,64.309639 52.058998,63.101089 50.582684,57.502285 
	C49.786697,54.483582 48.241989,51.662308 46.963367,48.040844 
	C45.899277,46.208858 44.906906,45.087986 43.914539,43.967113 
	C43.992844,43.524906 44.071152,43.082699 44.350601,42.210571 
	C44.726280,41.632435 44.870720,41.459137 44.985069,41.260761 
z"/>
<path fill="#8EB9DF" opacity="1.000000" stroke="none" 
	d="
M189.639923,66.855988 
	C190.479172,68.721451 191.318420,70.586906 192.000793,72.103668 
	C193.822296,69.734390 195.543533,67.495560 197.723267,65.578903 
	C198.552292,66.306244 198.922791,66.711403 199.293289,67.116570 
	C197.747421,70.844612 196.201569,74.572655 194.233704,78.877975 
	C193.541183,81.971306 193.270676,84.487350 193.000153,87.003403 
	C189.824188,87.645988 190.267929,85.456619 189.881271,83.436775 
	C189.081177,79.257347 187.981583,75.118210 186.688553,71.063477 
	C186.403320,70.168983 184.801254,69.694427 183.805573,69.026505 
	C183.260803,70.060852 182.300095,71.073967 182.245987,72.133369 
	C182.051025,75.950768 182.341034,79.797386 182.052353,83.602959 
	C181.960495,84.813812 180.636551,85.931190 179.435669,86.578339 
	C178.994171,82.607033 179.201859,79.131592 178.919296,75.696465 
	C178.731308,73.411346 177.843262,71.183815 177.268539,68.930511 
	C175.782806,68.930511 174.297073,68.930511 172.241730,68.930511 
	C172.241730,74.937546 172.241730,80.682465 172.241730,87.625870 
	C169.912842,86.651627 168.500397,86.060760 166.482300,85.216522 
	C165.594833,85.631241 163.709564,86.512238 161.433258,87.023216 
	C161.034409,85.906105 161.026566,85.159019 161.279953,84.181244 
	C163.688522,81.354935 162.343475,79.868324 159.943573,78.551468 
	C157.297165,77.099373 154.738632,75.487183 150.708298,73.093246 
	C151.218719,75.984901 151.586090,78.066093 151.955734,80.589981 
	C152.024841,82.852631 152.091644,84.672585 152.158447,86.492546 
	C148.810577,88.149887 147.705963,86.726715 147.612381,83.400230 
	C147.540298,80.837868 147.867126,77.653893 143.063828,78.375740 
	C142.920700,80.586632 142.774277,82.848289 142.327072,85.621117 
	C141.683533,86.425179 141.340790,86.718071 140.998062,87.010963 
	C140.031235,86.243797 138.255646,85.506599 138.225922,84.704712 
	C137.993988,78.445702 138.097595,72.174263 138.097595,65.597130 
	C143.509079,65.188705 148.481232,63.756329 152.304871,68.472885 
	C158.183807,63.885170 161.060272,63.658989 165.865753,68.038589 
	C166.067032,69.106056 166.035217,69.553116 165.631729,70.003677 
	C164.269669,69.998009 163.279297,69.988846 162.109589,69.672050 
	C160.564346,69.339584 159.198456,69.314743 157.832550,69.289902 
	C158.290955,70.709961 158.316971,72.754173 159.291473,73.429253 
	C161.880554,75.222839 164.878830,76.425774 167.721100,77.861176 
	C167.727859,74.560135 167.727859,71.261551 167.727859,67.962967 
	C168.923294,67.036217 170.079071,65.377426 171.321091,65.310104 
	C176.553741,65.026489 181.812119,65.217781 187.651123,65.560760 
	C188.707413,66.209473 189.173660,66.532730 189.639923,66.855988 
M146.416306,69.000916 
	C139.650177,67.801407 143.519623,72.196175 143.097641,74.589600 
	C147.914932,74.059166 147.970535,73.978256 146.416306,69.000916 
z"/>
<path fill="#89B5DC" opacity="1.000000" stroke="none" 
	d="
M156.020889,59.001865 
	C153.845474,63.553478 150.358978,64.606796 145.706360,63.093174 
	C144.473282,62.692009 142.977448,63.167046 141.673569,62.896320 
	C140.267319,62.604340 138.434708,62.302341 137.677673,61.319504 
	C134.999680,57.842754 132.889023,57.703678 130.504654,61.302368 
	C128.796097,63.881069 124.495834,63.966820 122.787766,61.456261 
	C120.137466,57.560802 118.485825,57.702122 115.656677,61.788040 
	C115.139587,62.534832 113.776047,62.695534 112.397446,62.649910 
	C111.958206,61.351082 111.924744,60.529114 111.891289,59.707146 
	C113.253738,54.233135 114.494225,48.723076 116.091789,43.318565 
	C116.377228,42.352913 118.150574,41.238190 119.219650,41.255524 
	C120.331352,41.273548 122.055321,42.356277 122.411758,43.362873 
	C123.901802,47.570858 124.978569,51.925182 127.059998,56.366016 
	C128.098419,52.501770 128.904297,48.551250 130.290115,44.815899 
	C130.841644,43.329353 132.646500,41.396923 133.936035,41.354683 
	C135.191986,41.313545 137.177200,43.195820 137.688431,44.641586 
	C139.121246,48.693493 139.958328,52.956043 141.071472,57.763634 
	C141.510162,58.654064 141.907822,58.916351 142.305496,59.178638 
	C142.212585,58.790188 142.119659,58.401741 142.026749,58.013290 
	C141.938217,54.719112 141.701080,51.420425 141.800934,48.131969 
	C141.911469,44.492855 143.468323,41.668587 147.385223,40.996067 
	C151.194656,40.341999 154.286957,41.383602 155.888153,46.034531 
	C154.160019,50.273506 152.728516,49.789688 151.193344,46.445976 
	C150.751785,45.484169 149.491455,44.534946 148.469635,44.354298 
	C147.949387,44.262314 146.589767,45.854012 146.532654,46.743866 
	C146.301361,50.347977 146.297348,53.983101 146.517441,57.587978 
	C146.571121,58.467216 147.867844,60.011578 148.463409,59.952099 
	C149.490479,59.849533 150.475647,58.797600 151.368576,58.018230 
	C152.438248,57.084599 153.392761,56.019062 154.397156,55.010658 
	C154.938400,56.341064 155.479645,57.671467 156.020889,59.001865 
M118.320671,51.249626 
	C118.089722,52.520290 117.858772,53.790955 117.627823,55.061615 
	C118.832352,55.147968 120.036873,55.234318 122.131805,55.384499 
	C120.638786,53.286709 119.834175,52.156174 119.621300,50.799129 
	C119.818619,49.275352 120.015945,47.751572 120.213264,46.227795 
	C119.582954,46.229805 118.952644,46.231819 118.322334,46.233829 
	C118.536255,47.811974 118.750175,49.390121 118.320671,51.249626 
M134.232895,50.296009 
	C133.662369,51.822208 133.091843,53.348412 132.521317,54.874615 
	C133.393723,55.105389 134.266113,55.336163 135.138519,55.566936 
	C135.286179,54.111862 135.464706,52.658562 135.548416,51.199818 
	C135.561035,50.979645 135.131683,50.734108 134.232895,50.296009 
M133.468262,46.066032 
	C133.624268,46.446785 133.780273,46.827538 133.936264,47.208294 
	C134.161041,47.028694 134.385834,46.849094 134.610611,46.669491 
	C134.340378,46.373394 134.070145,46.077301 133.468262,46.066032 
z"/>
<path fill="#F0F5FA" opacity="1.000000" stroke="none" 
	d="
M43.577141,43.820671 
	C44.906906,45.087986 45.899277,46.208858 46.943073,47.672752 
	C41.310471,52.853882 45.661152,57.689110 47.183125,62.484329 
	C40.075764,64.059425 40.075764,64.059425 35.868587,53.193993 
	C36.972736,51.281307 37.874920,49.718479 38.777107,48.155651 
	C37.367496,47.433308 35.957882,46.710964 33.715092,45.561665 
	C33.715092,52.093704 33.715092,57.364620 33.715092,62.918045 
	C31.047785,62.918045 28.789288,62.918045 26.270672,62.918045 
	C26.270672,55.777527 26.270672,48.718842 26.270672,40.984867 
	C32.048294,42.236217 38.184147,38.452202 43.577141,43.820671 
z"/>
<path fill="#8CB7DE" opacity="1.000000" stroke="none" 
	d="
M186.047821,41.437988 
	C189.184555,40.377480 191.049454,41.424725 191.995209,44.654469 
	C192.872864,47.651653 194.098846,50.546848 195.999512,53.486050 
	C195.999512,50.503780 195.822754,47.505695 196.087540,44.547127 
	C196.191742,43.382885 197.282379,42.306931 197.923798,41.190773 
	C198.687622,42.186916 200.077774,43.161777 200.112457,44.182682 
	C200.319946,50.291206 200.215271,56.410339 200.215271,62.916630 
	C191.023224,63.903015 194.556976,54.402443 189.567261,51.524666 
	C189.567261,54.619354 189.829208,57.391712 189.441116,60.069878 
	C189.281082,61.174324 187.724579,62.076427 186.400742,62.524494 
	C185.895172,61.154617 185.792084,60.330814 185.627304,59.098724 
	C185.390594,53.947601 185.215576,49.204762 185.222565,44.257172 
	C185.618973,43.180939 185.833405,42.309464 186.047821,41.437988 
z"/>
<path fill="#8AB6DD" opacity="1.000000" stroke="none" 
	d="
M88.247131,65.248161 
	C91.569839,64.558708 93.532692,65.776199 94.394615,69.168144 
	C94.991409,71.516716 96.087234,73.738472 98.118141,75.970184 
	C98.118141,73.511963 97.799500,70.993805 98.246101,68.619591 
	C98.486771,67.340118 100.037964,66.307167 101.470581,65.630043 
	C101.971481,73.071739 101.999695,80.046379 102.027908,87.021027 
	C98.425209,87.891594 96.596039,86.374466 95.720886,82.847160 
	C95.070610,80.226219 93.804085,77.758163 91.897453,75.351303 
	C91.897453,78.378014 92.014664,81.412071 91.825760,84.426941 
	C91.769356,85.327194 90.856148,86.173759 90.335487,87.044922 
	C89.485504,86.355011 88.635513,85.665108 87.855858,84.090149 
	C88.033165,77.219452 88.140152,71.233810 88.247131,65.248161 
z"/>
<path fill="#88B4DC" opacity="1.000000" stroke="none" 
	d="
M156.856354,45.989487 
	C156.931168,44.999210 156.731888,43.864082 157.157318,43.059105 
	C157.589218,42.241867 158.670776,41.218285 159.406815,41.264137 
	C160.161652,41.311169 161.208328,42.432163 161.468552,43.284283 
	C161.841324,44.504951 161.313324,46.017708 161.740555,47.199467 
	C162.092850,48.173935 163.273926,48.848778 164.087723,49.656403 
	C164.899002,48.836056 165.961929,48.146030 166.468475,47.167873 
	C167.483978,45.206955 164.670715,41.119247 169.291351,41.485775 
	C170.059555,41.546715 170.839371,45.789703 171.005447,48.143070 
	C171.284714,52.100880 171.230026,56.103252 170.969757,60.064133 
	C170.900253,61.121792 169.574112,62.096870 168.824890,63.109856 
	C168.075089,62.096115 167.085815,61.179428 166.627136,60.047695 
	C165.770477,57.933922 168.260178,54.104969 163.905106,54.067837 
	C163.152313,54.061420 162.452393,57.883865 161.564529,59.864437 
	C161.046555,61.019867 160.204117,62.029842 159.507675,63.105270 
	C158.671677,62.013050 157.835663,60.920830 156.987488,58.957306 
	C156.935669,54.053833 156.896011,50.021660 156.856354,45.989487 
z"/>
<path fill="#83B1DA" opacity="1.000000" stroke="none" 
	d="
M119.262283,67.001808 
	C120.580498,66.396042 121.866501,65.370773 123.223221,65.266617 
	C126.686729,65.000732 130.193665,64.978027 133.657227,65.224174 
	C134.753479,65.302071 135.767502,66.536865 136.819168,67.242226 
	C135.800629,67.807472 134.839996,68.596794 133.748291,68.878845 
	C132.501678,69.200928 131.138382,69.071434 129.389465,69.160362 
	C129.280518,70.626663 129.178787,71.995987 129.115082,72.853531 
	C131.115845,75.710617 136.253632,71.484558 135.923203,76.703339 
	C135.876480,77.441307 132.001190,77.936852 129.451889,78.673500 
	C128.102936,82.003471 129.193710,83.702278 133.432373,83.621925 
	C134.609695,83.599602 135.807495,84.658218 136.995911,85.220932 
	C135.755051,85.882431 134.562897,86.966415 133.263031,87.116325 
	C130.660675,87.416443 127.999359,87.205406 124.838593,87.205406 
	C124.468033,81.036163 124.117233,75.195908 123.318069,68.866028 
	C121.667236,67.918205 120.464760,67.460007 119.262283,67.001808 
z"/>
<path fill="#81AFD9" opacity="1.000000" stroke="none" 
	d="
M185.689011,59.507008 
	C185.792084,60.330814 185.895172,61.154617 186.009674,62.393723 
	C171.934860,64.528328 171.818161,64.527023 171.971237,50.831623 
	C172.096497,39.624992 169.707550,41.171116 182.134354,41.070538 
	C183.123917,41.062531 184.115372,41.289883 185.576904,41.422924 
	C185.833405,42.309464 185.618973,43.180939 184.773666,44.326447 
	C183.484909,44.684105 182.787827,44.656639 182.176559,44.872334 
	C180.390182,45.502678 177.325256,45.947472 177.105286,46.969463 
	C176.262894,50.883308 179.757477,49.428501 181.710739,50.019085 
	C182.552353,50.273560 183.156189,51.314373 183.868057,51.997959 
	C182.874405,52.602097 181.864944,53.745728 180.889832,53.717148 
	C176.622650,53.592079 176.136215,55.663891 177.463211,59.507008 
	C180.144028,59.507008 182.916519,59.507008 185.689011,59.507008 
z"/>
<path fill="#8AB6DD" opacity="1.000000" stroke="none" 
	d="
M86.073257,84.048103 
	C84.218674,88.122345 80.755692,88.041832 77.168381,87.391655 
	C73.357758,86.700996 72.790787,83.780334 72.779846,80.582596 
	C72.765610,76.417702 72.654915,72.246422 72.868408,68.092415 
	C72.918442,67.118736 74.103157,66.203369 74.765846,65.261169 
	C75.543671,66.247620 76.925758,67.194603 76.993202,68.227440 
	C77.264069,72.375549 76.965454,76.561211 77.245728,80.708099 
	C77.325058,81.881950 78.655632,82.971252 79.412346,84.099327 
	C80.302055,82.947044 81.855843,81.851196 81.959435,80.632126 
	C82.296806,76.661537 81.880524,72.625175 82.248138,68.659912 
	C82.362854,67.422607 84.044571,66.330582 85.501190,65.630653 
	C86.020042,72.075546 86.046654,78.061821 86.073257,84.048103 
z"/>
<path fill="#87B3DB" opacity="1.000000" stroke="none" 
	d="
M119.142136,67.377945 
	C120.464760,67.460007 121.667236,67.918205 122.924332,68.658981 
	C121.938171,74.115608 121.057060,79.331131 119.732315,84.431419 
	C119.440239,85.555939 117.515694,87.058029 116.450096,86.976944 
	C115.121056,86.875824 113.130310,85.547028 112.769493,84.344856 
	C111.112526,78.824196 109.924461,73.162811 108.113640,67.132095 
	C107.433685,66.285118 107.208206,65.857986 106.982727,65.430847 
	C111.773636,64.164253 114.049393,66.003403 114.289673,70.960770 
	C114.396164,73.157669 115.232948,75.319183 116.728996,77.495667 
	C117.493324,74.248474 118.257660,71.001282 119.142136,67.377945 
z"/>
<path fill="#0A5AA3" opacity="1.000000" stroke="none" 
	d="
M156.664658,45.989838 
	C156.896011,50.021660 156.935669,54.053833 156.925003,58.547657 
	C156.874680,59.009308 156.447784,59.006348 156.234344,59.004105 
	C155.479645,57.671467 154.938400,56.341064 154.397156,55.010658 
	C153.392761,56.019062 152.438248,57.084599 151.368576,58.018230 
	C150.475647,58.797600 149.490479,59.849533 148.463409,59.952099 
	C147.867844,60.011578 146.571121,58.467216 146.517441,57.587978 
	C146.297348,53.983101 146.301361,50.347977 146.532654,46.743866 
	C146.589767,45.854012 147.949387,44.262314 148.469635,44.354298 
	C149.491455,44.534946 150.751785,45.484169 151.193344,46.445976 
	C152.728516,49.789688 154.160019,50.273506 156.034424,46.363121 
	C156.089554,45.993011 156.472961,45.990185 156.664658,45.989838 
z"/>
<path fill="#92BBE0" opacity="1.000000" stroke="none" 
	d="
M106.660904,65.356400 
	C107.208206,65.857986 107.433685,66.285118 107.850449,66.865768 
	C108.024338,73.040649 108.006935,79.062012 107.765976,85.688477 
	C107.331398,86.493034 107.151657,86.717514 107.003189,86.967041 
	C106.262062,87.012993 105.520927,87.058937 104.406937,86.568497 
	C104.061310,79.681610 104.088531,73.331093 104.276878,66.810883 
	C104.634468,66.221710 104.830933,65.802246 105.027405,65.382774 
	C105.464630,65.349167 105.901863,65.315559 106.660904,65.356400 
z"/>
<path fill="#125FA6" opacity="1.000000" stroke="none" 
	d="
M166.003403,70.000183 
	C166.035217,69.553116 166.067032,69.106056 166.101715,68.321022 
	C166.465286,67.976036 166.825989,67.969017 167.457275,67.962479 
	C167.727859,71.261551 167.727859,74.560135 167.721100,77.861176 
	C164.878830,76.425774 161.880554,75.222839 159.291473,73.429253 
	C158.316971,72.754173 158.290955,70.709961 157.832550,69.289902 
	C159.198456,69.314743 160.564346,69.339584 162.239014,69.994461 
	C163.699646,70.416397 164.851517,70.208290 166.003403,70.000183 
z"/>
<path fill="#367AB7" opacity="1.000000" stroke="none" 
	d="
M104.115753,66.980583 
	C104.088531,73.331093 104.061310,79.681610 104.040878,86.497986 
	C103.599007,86.987411 103.150345,87.010979 102.364792,87.027786 
	C101.999695,80.046379 101.971481,73.071739 101.864090,65.648087 
	C102.327209,65.202515 102.869514,65.205940 103.780357,65.517044 
	C104.137840,66.210007 104.126801,66.595299 104.115753,66.980583 
z"/>
<path fill="#88B4DC" opacity="1.000000" stroke="none" 
	d="
M161.018738,84.411934 
	C161.026566,85.159019 161.034409,85.906105 161.055634,87.028183 
	C158.865860,87.023933 156.662720,86.644676 154.078308,85.697159 
	C153.465195,83.593697 153.233353,82.058495 153.374725,80.453583 
	C154.903702,80.956970 156.083267,81.487328 157.208969,82.114372 
	C158.503754,82.835594 159.750900,83.642334 161.018738,84.411934 
z"/>
<path fill="#387CB8" opacity="1.000000" stroke="none" 
	d="
M86.350403,84.034454 
	C86.046654,78.061821 86.020042,72.075546 85.897659,65.642914 
	C86.345261,65.198120 86.888626,65.199677 87.839561,65.224693 
	C88.140152,71.233810 88.033165,77.219452 87.828239,83.675140 
	C87.362709,84.103722 86.995132,84.062263 86.350403,84.034454 
z"/>
<path fill="#89B5DC" opacity="1.000000" stroke="none" 
	d="
M177.343475,69.398514 
	C177.843262,71.183815 178.731308,73.411346 178.919296,75.696465 
	C179.201859,79.131592 178.994171,82.607033 178.997452,86.533241 
	C178.494431,85.441414 177.637360,83.900726 177.551651,82.318253 
	C177.327347,78.177422 177.440033,74.018326 177.343475,69.398514 
z"/>
<path fill="#89B5DC" opacity="1.000000" stroke="none" 
	d="
M193.381302,86.943405 
	C193.270676,84.487350 193.541183,81.971306 194.072952,79.232330 
	C194.143616,81.634071 193.953033,84.258736 193.381302,86.943405 
z"/>
<path fill="#86B3DB" opacity="1.000000" stroke="none" 
	d="
M153.001511,80.523285 
	C153.233353,82.058495 153.465195,83.593697 153.858017,85.419434 
	C153.564651,85.797112 153.110291,85.884262 152.407196,86.231979 
	C152.091644,84.672585 152.024841,82.852631 152.210632,80.703789 
	C152.642670,80.424370 152.822098,80.473824 153.001511,80.523285 
z"/>
<path fill="#86B2DA" opacity="1.000000" stroke="none" 
	d="
M111.632034,59.727859 
	C111.924744,60.529114 111.958206,61.351082 111.995895,62.583687 
	C111.559547,63.053368 111.118958,63.112415 110.352142,63.097519 
	C110.039772,62.190929 110.053642,61.358288 110.205475,60.132774 
	C110.686546,59.742790 111.029655,59.745686 111.632034,59.727859 
z"/>
<path fill="#89B5DC" opacity="1.000000" stroke="none" 
	d="
M199.477982,66.900055 
	C198.922791,66.711403 198.552292,66.306244 198.084305,65.640503 
	C198.545441,65.814468 199.104050,66.249001 199.477982,66.900055 
z"/>
<path fill="#86B2DA" opacity="1.000000" stroke="none" 
	d="
M141.771469,58.046299 
	C142.119659,58.401741 142.212585,58.790188 142.305496,59.178638 
	C141.907822,58.916351 141.510162,58.654064 141.070587,58.152824 
	C141.191193,57.969017 141.353699,58.024162 141.771469,58.046299 
z"/>
<path fill="#89B5DC" opacity="1.000000" stroke="none" 
	d="
M189.553009,66.558777 
	C189.173660,66.532730 188.707413,66.209473 188.114288,65.625656 
	C188.480316,65.663925 188.973206,65.962738 189.553009,66.558777 
z"/>
<path fill="#87B3DB" opacity="1.000000" stroke="none" 
	d="
M104.276878,66.810883 
	C104.126801,66.595299 104.137840,66.210007 104.186813,65.536644 
	C104.224731,65.248566 104.638092,65.243752 104.832748,65.313263 
	C104.830933,65.802246 104.634468,66.221710 104.276878,66.810883 
z"/>
<path fill="#88B4DC" opacity="1.000000" stroke="none" 
	d="
M141.266953,87.042786 
	C141.340790,86.718071 141.683533,86.425179 142.239258,86.052673 
	C142.146774,86.340240 141.841309,86.707428 141.266953,87.042786 
z"/>
<path fill="#87B3DB" opacity="1.000000" stroke="none" 
	d="
M107.261215,86.944229 
	C107.151657,86.717514 107.331398,86.493034 107.708023,86.154572 
	C107.755501,86.317513 107.637375,86.619461 107.261215,86.944229 
z"/>
<path fill="#F0F5FA" opacity="1.000000" stroke="none" 
	d="
M44.737694,41.210419 
	C44.870720,41.459137 44.726280,41.632435 44.412231,41.877533 
	C44.345249,41.702969 44.417782,41.431526 44.737694,41.210419 
z"/>
<path fill="#0C5AA3" opacity="1.000000" stroke="none" 
	d="
M153.374725,80.453583 
	C152.822098,80.473824 152.642670,80.424370 152.208344,80.261093 
	C151.586090,78.066093 151.218719,75.984901 150.708298,73.093246 
	C154.738632,75.487183 157.297165,77.099373 159.943573,78.551468 
	C162.343475,79.868324 163.688522,81.354935 161.279953,84.181244 
	C159.750900,83.642334 158.503754,82.835594 157.208969,82.114372 
	C156.083267,81.487328 154.903702,80.956970 153.374725,80.453583 
z"/>
<path fill="#125FA6" opacity="1.000000" stroke="none" 
	d="
M146.690674,69.252487 
	C147.970535,73.978256 147.914932,74.059166 143.097641,74.589600 
	C143.519623,72.196175 139.650177,67.801407 146.690674,69.252487 
z"/>
<path fill="#88B4DC" opacity="1.000000" stroke="none" 
	d="
M165.631729,70.003677 
	C164.851517,70.208290 163.699646,70.416397 162.418335,70.302094 
	C163.279297,69.988846 164.269669,69.998009 165.631729,70.003677 
z"/>
<path fill="#86B2DA" opacity="1.000000" stroke="none" 
	d="
M134.569824,50.398155 
	C135.131683,50.734108 135.561035,50.979645 135.548416,51.199818 
	C135.464706,52.658562 135.286179,54.111862 135.138519,55.566936 
	C134.266113,55.336163 133.393723,55.105389 132.521317,54.874615 
	C133.091843,53.348412 133.662369,51.822208 134.569824,50.398155 
z"/>
<path fill="#86B2DA" opacity="1.000000" stroke="none" 
	d="
M119.029556,51.025635 
	C119.834175,52.156174 120.638786,53.286709 122.131805,55.384499 
	C120.036873,55.234318 118.832352,55.147968 117.627823,55.061615 
	C117.858772,53.790955 118.089722,52.520290 118.658752,51.123337 
	C118.996841,50.997047 119.029564,51.025631 119.029556,51.025635 
z"/>
<path fill="#86B2DA" opacity="1.000000" stroke="none" 
	d="
M118.980469,50.982658 
	C118.750175,49.390121 118.536255,47.811974 118.322334,46.233829 
	C118.952644,46.231819 119.582954,46.229805 120.213264,46.227795 
	C120.015945,47.751572 119.818619,49.275352 119.325432,50.912380 
	C119.029564,51.025631 118.996841,50.997047 118.980469,50.982658 
z"/>
<path fill="#86B2DA" opacity="1.000000" stroke="none" 
	d="
M133.634094,45.923622 
	C134.070145,46.077301 134.340378,46.373394 134.610611,46.669491 
	C134.385834,46.849094 134.161041,47.028694 133.936264,47.208294 
	C133.780273,46.827538 133.624268,46.446785 133.634094,45.923622 
z"/>
<path fill="#0958A2" opacity="1.000000" stroke="none" 
	d="
M185.627304,59.098724 
	C182.916519,59.507008 180.144028,59.507008 177.463211,59.507008 
	C176.136215,55.663891 176.622650,53.592079 180.889832,53.717148 
	C181.864944,53.745728 182.874405,52.602097 183.868057,51.997959 
	C183.156189,51.314373 182.552353,50.273560 181.710739,50.019085 
	C179.757477,49.428501 176.262894,50.883308 177.105286,46.969463 
	C177.325256,45.947472 180.390182,45.502678 182.176559,44.872334 
	C182.787827,44.656639 183.484909,44.684105 184.591675,44.531197 
	C185.215576,49.204762 185.390594,53.947601 185.627304,59.098724 
z"/>
</svg>