<svg version="1.1" id="Layer_1" xmlns="http://www.w3.org/2000/svg" xmlns:xlink="http://www.w3.org/1999/xlink" x="0px" y="0px"
	 width="100%" viewBox="0 0 412 306" enable-background="new 0 0 412 306" xml:space="preserve">
<path fill="#EAE9EA" opacity="1.000000" stroke="none" 
	d="
M413.000000,102.000000 
	C413.000000,170.666672 413.000000,238.833328 413.000000,307.000000 
	C275.666687,307.000000 138.333359,307.000000 1.000028,307.000000 
	C1.000018,205.000015 1.000018,103.000038 1.000009,1.000041 
	C138.333298,1.000028 275.666595,1.000028 412.999939,1.000014 
	C413.000000,34.500000 413.000000,68.000000 413.000000,102.000000 
M15.407529,42.314487 
	C11.422493,45.077320 10.679476,49.034863 10.682492,53.614407 
	C10.734659,132.795624 10.677381,211.976929 10.761574,291.158081 
	C10.763809,293.261261 12.081017,295.363068 13.236737,297.891937 
	C14.151459,298.278961 15.066181,298.665955 16.305086,299.430145 
	C16.910360,299.389008 17.515635,299.347870 19.037285,299.419800 
	C84.792168,299.412109 150.547043,299.383209 216.301926,299.403046 
	C276.071960,299.421082 335.842010,299.492157 395.612030,299.540009 
	C400.560242,299.543976 403.236237,297.311707 403.256104,292.436737 
	C403.306915,279.958405 403.107422,267.479065 403.213013,254.081924 
	C403.227570,187.385056 403.190796,120.688042 403.358521,53.991554 
	C403.371307,48.904305 401.832855,45.146606 397.738129,41.475704 
	C390.888397,34.715500 384.038666,27.955296 377.159027,20.983929 
	C377.159027,20.983929 376.797760,20.798624 376.441010,20.168226 
	C372.864471,16.549637 369.471130,12.718332 365.628357,9.408909 
	C363.901520,7.921751 361.281281,6.694738 359.057983,6.680585 
	C334.745483,6.525811 310.431000,6.570353 286.117676,6.690208 
	C263.671753,6.800857 244.932526,15.313138 229.430984,32.098759 
	C229.148712,32.282272 228.987366,32.541153 228.318771,33.163055 
	C222.859848,37.569717 217.400940,41.976379 211.502441,46.737885 
	C210.216995,39.179016 209.311615,32.484825 207.890396,25.902004 
	C206.595459,19.904182 206.007919,13.491070 200.556503,8.504622 
	C199.370453,8.073410 198.184418,7.642199 196.104050,7.038954 
	C193.069443,7.087579 190.034851,7.136203 186.203140,7.040235 
	C184.472015,7.361663 182.740875,7.683093 180.306213,8.283170 
	C179.536118,10.178691 178.299332,12.026147 178.098068,13.980253 
	C177.736298,17.492872 177.995926,21.069489 177.995926,25.087227 
	C174.949066,23.036818 172.516693,21.399929 169.730301,19.212339 
	C168.198593,18.356281 166.666901,17.500223 164.756149,16.169476 
	C163.837265,15.788798 162.918365,15.408121 161.554688,14.499034 
	C160.065292,13.921300 158.575912,13.343566 156.631226,12.211522 
	C148.754395,10.526536 140.877563,8.841549 132.341370,7.024756 
	C131.894150,7.045122 131.446915,7.065488 130.117126,6.742787 
	C104.969894,6.689723 79.822662,6.624106 54.675423,6.619920 
	C53.390957,6.619706 52.106396,7.147331 50.178883,7.719362 
	C49.120014,8.900202 48.061146,10.081041 46.351616,11.372653 
	C40.906494,16.917217 35.461376,22.461782 29.499168,28.124140 
	C29.334925,28.421507 29.170683,28.718874 28.394083,29.289230 
	C25.268414,32.542515 22.142742,35.795799 18.418446,39.219822 
	C17.625046,40.151096 16.831646,41.082371 15.407529,42.314487 
z"/>
<path fill="#363536" opacity="1.000000" stroke="none" 
	d="
M229.877625,31.952801 
	C244.932526,15.313138 263.671753,6.800857 286.117676,6.690208 
	C310.431000,6.570353 334.745483,6.525811 359.057983,6.680585 
	C361.281281,6.694738 363.901520,7.921751 365.628357,9.408909 
	C369.471130,12.718332 372.864471,16.549637 376.314453,20.597124 
	C376.121033,21.501175 376.054169,21.976328 375.987305,22.451483 
	C376.387848,22.032686 376.788361,21.613892 377.188904,21.195095 
	C384.038666,27.955296 390.888397,34.715500 397.790710,42.136497 
	C397.257477,43.760845 396.204956,44.706406 396.166962,45.691071 
	C396.006500,49.853783 393.373230,51.316441 389.593750,51.936111 
	C388.520050,50.938313 387.730438,50.044556 386.946716,48.764793 
	C385.917053,47.606243 384.881531,46.833702 383.567261,45.963608 
	C382.397919,44.843460 381.507355,43.820869 380.724854,42.338425 
	C380.888611,41.252224 380.944305,40.625885 381.271606,39.959328 
	C381.853668,39.626972 382.164062,39.334831 382.474457,39.042679 
	C382.276031,38.872849 382.077606,38.703026 381.879181,38.533211 
	C381.586121,39.022293 381.293060,39.511375 380.619995,40.000618 
	C379.480011,40.005508 378.720032,40.010239 377.645050,39.894310 
	C374.552338,36.887207 371.774658,34.000767 368.999695,30.725042 
	C369.001801,29.557365 369.001190,28.778973 369.272095,27.959894 
	C369.853912,27.627068 370.164215,27.334925 370.474548,27.042786 
	C370.276276,26.872917 370.077972,26.703045 369.879700,26.533176 
	C369.586365,27.021917 369.293030,27.510656 368.570251,28.000471 
	C364.748901,27.544739 363.886993,29.222433 363.948395,32.362656 
	C364.107880,40.521793 364.001190,48.686127 364.001282,56.848389 
	C364.001587,93.828430 363.984894,130.808502 364.049103,167.788437 
	C364.052612,169.809570 362.780884,172.842438 366.797302,173.470276 
	C366.825073,179.617523 366.769501,185.304123 366.320618,191.020996 
	C365.286621,192.195801 364.099548,193.335098 364.088562,194.485626 
	C363.958618,208.091919 363.934021,221.700867 364.121826,235.305786 
	C364.139008,236.552109 365.809540,237.775635 366.794861,239.416229 
	C367.752380,242.316513 368.217712,245.069244 369.593842,247.246262 
	C371.931427,250.944290 374.842865,254.279587 377.194885,257.972565 
	C376.715424,260.948486 376.554260,263.719147 376.305695,267.992645 
	C378.657532,265.409882 379.913483,264.030640 381.461090,262.798584 
	C382.484589,264.006195 383.216400,265.066620 383.859253,266.375732 
	C384.276093,267.045654 384.781860,267.466919 385.575562,268.040588 
	C387.042297,269.585754 388.221069,270.978577 390.239197,273.363098 
	C390.239197,266.010681 390.239197,260.003937 390.674072,253.996979 
	C395.075287,254.331223 399.041687,254.665665 403.008057,255.000122 
	C403.107422,267.479065 403.306915,279.958405 403.256104,292.436737 
	C403.236237,297.311707 400.560242,299.543976 395.612030,299.540009 
	C335.842010,299.492157 276.071960,299.421082 216.301926,299.403046 
	C150.547043,299.383209 84.792168,299.412109 18.438047,299.109375 
	C17.219505,298.883606 16.600203,298.968292 15.980901,299.052979 
	C15.066181,298.665955 14.151459,298.278961 13.188750,297.318939 
	C13.427423,292.830627 13.714081,288.915314 14.387356,284.894226 
	C15.182752,280.192291 15.591529,275.596130 16.354712,271.042145 
	C19.593630,272.512756 19.620100,270.411621 20.445253,268.502289 
	C21.271034,266.591522 19.612461,262.931335 23.838551,263.408203 
	C23.990911,265.211548 24.057970,266.604309 24.038874,268.390320 
	C23.966589,269.856476 23.980463,270.929291 23.777687,272.208008 
	C23.927858,272.873077 24.294680,273.332245 24.661499,273.791412 
	C25.063097,273.075836 25.464701,272.360229 25.879089,271.405457 
	C26.035212,270.872925 26.102617,270.563110 26.370827,270.132599 
	C27.083382,269.647308 27.519207,269.266205 28.132067,269.121216 
	C31.445805,269.670776 30.933598,268.002563 30.146599,265.818481 
	C31.512403,264.007446 32.789635,262.514862 34.405190,261.009399 
	C37.581226,260.504395 38.722328,258.888824 38.120419,255.728897 
	C40.222481,252.959244 42.222256,250.512009 44.556946,248.044189 
	C46.259781,247.349182 47.627701,246.674759 49.361656,245.913025 
	C49.818462,242.536270 49.987652,239.246841 49.988438,235.957367 
	C50.004517,168.637726 50.001366,101.318085 50.373127,33.987541 
	C54.784542,31.607012 56.193867,27.834475 53.780369,24.910622 
	C52.994038,23.958015 50.203201,23.173979 49.870026,23.579334 
	C47.988163,25.868893 46.575031,28.543711 44.902721,31.374571 
	C43.912773,32.457546 43.022285,33.253208 41.748043,34.047161 
	C40.593647,35.076405 39.823006,36.107361 38.940933,37.451355 
	C36.233280,40.209599 33.637058,42.654804 30.883339,44.883568 
	C30.334057,44.655441 29.942268,44.643757 29.550482,44.632072 
	C29.745399,45.106270 29.940319,45.580463 30.000673,46.361553 
	C27.928959,48.487518 25.991806,50.306591 23.847254,51.833157 
	C22.092703,48.359661 20.545551,45.178669 18.998718,41.629082 
	C19.005049,40.523354 19.011061,39.786221 19.017075,39.049084 
	C22.142742,35.795799 25.268414,32.542515 28.822723,29.397007 
	C29.743376,29.677597 30.235388,29.850407 30.727402,30.023216 
	C30.490353,29.350925 30.253302,28.678637 30.016254,28.006348 
	C35.461376,22.461782 40.906494,16.917217 46.755791,11.618778 
	C51.176403,12.694423 50.894894,9.975748 50.821880,7.429198 
	C52.106396,7.147331 53.390957,6.619706 54.675423,6.619920 
	C79.822662,6.624106 104.969894,6.689723 130.566711,7.241263 
	C131.365585,8.314224 131.714844,8.888710 132.064117,9.463198 
	C132.376328,8.694320 132.688538,7.925441 133.000732,7.156562 
	C140.877563,8.841549 148.754395,10.526536 156.842331,12.847339 
	C157.708817,14.659272 158.364197,15.835389 159.212250,17.244251 
	C160.270142,17.317369 161.135376,17.157740 162.000366,16.669664 
	C161.999924,15.903296 161.999695,15.465371 161.999481,15.027445 
	C162.918365,15.408121 163.837265,15.788798 164.911835,16.818554 
	C165.231140,21.715559 162.143188,22.870230 158.944290,23.988926 
	C157.506012,24.491909 156.139282,25.199402 154.357269,25.739441 
	C148.983643,24.016167 143.992828,22.367548 138.942291,20.448891 
	C138.233383,20.178486 137.584229,20.178122 136.541840,20.235851 
	C135.100769,20.151979 134.052917,20.010015 133.003082,19.490345 
	C132.813843,17.851439 132.626587,16.590239 132.439346,15.329040 
	C131.934219,15.268155 131.429092,15.207271 130.923965,15.146386 
	C130.279419,16.673260 129.634857,18.200132 128.529175,19.811573 
	C119.048286,19.839405 110.028542,19.782667 100.955643,19.417610 
	C99.098091,16.136013 97.876892,16.866306 96.529816,19.810287 
	C87.048744,19.838854 78.028770,19.782393 68.955643,19.417591 
	C67.097000,16.135145 65.876228,16.867479 64.540710,19.812998 
	C59.934231,19.229292 60.571400,22.154760 60.570873,24.596014 
	C60.564552,53.909218 60.568737,83.222427 60.539185,112.535606 
	C60.536343,115.352196 60.325634,118.168564 60.013775,121.067841 
	C59.947773,121.772987 60.079414,122.395332 60.351944,123.463524 
	C60.394142,129.598511 60.295460,135.287643 59.858513,141.027496 
	C57.069984,143.339142 56.866661,145.358734 60.280121,147.398773 
	C60.330914,153.551636 60.258244,159.308792 59.818283,165.118729 
	C57.197628,167.458374 56.804371,169.496780 60.377884,171.469513 
	C60.522930,194.325867 60.522930,216.737381 60.522930,239.660355 
	C62.991310,239.660355 64.789337,239.660324 66.587364,239.660355 
	C87.223343,239.660583 107.865715,239.368698 128.491821,239.820084 
	C135.680527,239.977386 142.829056,241.970154 150.033554,243.382446 
	C150.784561,243.727753 151.497955,243.815277 152.422989,243.886520 
	C152.634628,243.870239 152.996674,244.091965 152.999725,244.492401 
	C153.161316,251.142639 157.975296,248.318542 161.270203,249.262238 
	C162.821732,249.644119 164.097351,249.756714 165.682312,249.899445 
	C166.994400,250.633148 167.997177,251.336731 169.002121,252.422791 
	C169.039139,256.017334 170.239655,256.992218 173.358215,254.990448 
	C175.602997,256.764648 177.524857,258.453979 179.385559,260.593353 
	C180.198380,261.460632 181.072311,261.877899 182.249329,262.403320 
	C185.688446,265.381592 188.824509,268.251709 191.936768,271.430115 
	C193.250992,273.131165 194.550293,274.567505 195.989609,275.846191 
	C196.126617,275.967926 197.139450,275.103790 197.745667,274.697357 
	C197.125809,274.117859 196.505966,273.538391 195.926193,272.563049 
	C196.085526,271.114197 196.204773,270.061249 196.584839,268.947235 
	C196.611908,268.256226 196.378189,267.626282 196.019135,266.610809 
	C195.328873,263.654785 194.494095,261.108673 194.258896,258.508331 
	C193.851395,254.003082 191.749008,252.286316 187.208145,252.804520 
	C183.994949,253.171204 180.472778,253.357559 178.879761,249.052429 
	C178.606781,248.145599 178.314316,247.573776 177.916290,246.543488 
	C177.788803,178.422943 177.766876,110.760887 178.003937,42.890221 
	C177.584259,42.308514 176.905594,41.935413 175.971375,41.391953 
	C170.151077,36.789112 164.586349,32.356632 159.069153,27.627834 
	C162.772568,24.808689 166.428452,22.285864 170.084320,19.763039 
	C172.516693,21.399929 174.949066,23.036818 177.995926,25.087227 
	C177.995926,21.069489 177.736298,17.492872 178.098068,13.980253 
	C178.299332,12.026147 179.536118,10.178691 180.992188,8.292217 
	C183.452179,7.929119 185.226212,7.556973 187.000244,7.184828 
	C190.034851,7.136203 193.069443,7.087579 196.525177,7.516179 
	C195.332794,8.662779 193.679459,9.251743 192.117828,10.025760 
	C190.752197,10.702635 189.489716,11.587640 188.181671,12.380693 
	C189.724976,12.774721 191.529388,13.875062 192.758957,13.420479 
	C195.600571,12.369911 198.163605,10.565799 200.839615,9.067303 
	C206.007919,13.491070 206.595459,19.904182 207.890396,25.902004 
	C209.311615,32.484825 210.216995,39.179016 211.502441,46.737885 
	C217.400940,41.976379 222.859848,37.569717 228.789703,33.236359 
	C229.652084,33.333115 230.043533,33.356567 230.434998,33.380020 
	C230.249191,32.904282 230.063400,32.428543 229.877625,31.952801 
M234.000000,275.000000 
	C234.000000,275.000000 234.001450,275.001068 234.001175,275.718506 
	C233.986679,276.435883 233.972183,277.153229 233.623901,278.456726 
	C231.030640,280.991180 228.437378,283.525635 225.454346,286.537201 
	C226.987579,291.397247 231.081299,289.951416 234.349594,289.797028 
	C235.289597,289.752625 236.127045,287.537109 237.932816,286.144196 
	C285.947998,286.144196 333.963165,286.144196 382.710236,286.144196 
	C380.835876,283.439056 379.614990,281.677032 378.627991,279.056641 
	C377.846588,278.463715 377.065186,277.870789 375.792267,276.854889 
	C374.897705,275.617737 374.003174,274.380585 373.732452,272.959412 
	C373.822296,272.495514 373.912170,272.031647 374.002014,271.567749 
	C373.607788,271.988922 373.213593,272.410095 372.206879,272.436768 
	C370.133087,269.636078 368.059326,266.835388 365.997345,263.207916 
	C366.388641,260.141907 365.234863,258.556976 361.387299,258.670319 
	C358.907410,253.784409 354.919464,252.756485 349.606049,252.820969 
	C328.409271,253.078171 307.206482,252.838257 285.832031,252.146912 
	C284.553101,252.385483 283.274139,252.624054 281.172882,253.060638 
	C273.551788,255.087067 265.930664,257.113525 257.626526,258.842285 
	C253.522385,257.103424 252.308197,259.374725 251.579453,263.392639 
	C251.221680,263.356781 250.863892,263.320923 250.245026,262.977570 
	C250.075455,262.986511 249.905869,262.995453 249.736298,263.004425 
	C249.943497,263.154449 250.150681,263.304474 250.329147,264.131012 
	C247.877747,266.055237 245.426346,267.979462 242.980850,269.086365 
	C243.211761,265.813263 240.907593,266.232819 238.767792,265.919952 
	C236.793182,265.631256 234.918121,264.661896 233.551254,263.572449 
	C234.779221,262.824768 236.336273,262.320312 237.127380,261.249786 
	C237.722458,260.444550 237.334793,258.913055 237.774124,257.118561 
	C242.517593,254.084396 247.261047,251.050232 252.110687,248.617035 
	C252.435150,248.898544 252.759613,249.180054 253.084061,249.461563 
	C253.389374,248.638794 253.694687,247.816010 254.485611,246.464218 
	C264.934235,241.680405 275.900940,239.563751 287.392120,239.632507 
	C307.543854,239.753098 327.696838,239.669678 347.849304,239.649323 
	C349.597473,239.647552 351.345459,239.479416 353.188416,239.383621 
	C353.188416,165.973831 353.188416,93.136696 353.188416,19.729872 
	C345.252197,19.729872 337.625946,19.729872 329.998505,18.927242 
	C331.157990,16.219397 332.317444,13.511550 333.820892,10.000305 
	C329.591431,10.000305 325.673035,10.000299 321.754608,10.000306 
	C311.999786,10.000321 311.999786,10.000324 311.076660,19.899498 
	C302.596558,19.911266 294.116455,19.924198 285.636353,19.934502 
	C275.650635,19.946634 265.972443,21.853924 257.479675,27.050867 
	C250.316956,31.433918 243.879883,37.002834 236.300781,42.020588 
	C233.142349,41.806831 231.678345,43.194794 231.798737,46.962914 
	C227.039017,51.034431 222.279297,55.105949 216.761826,59.173779 
	C216.209610,59.872513 215.657410,60.571247 214.682938,61.982719 
	C214.402313,63.724087 213.885941,65.464203 213.876694,67.207016 
	C213.751526,90.800232 213.696777,114.393822 213.016266,138.007324 
	C212.504211,138.438354 211.992157,138.869400 211.480118,139.300446 
	C212.194672,139.538101 212.909241,139.775757 213.806274,140.931244 
	C213.738602,146.618790 213.670914,152.306351 212.881592,158.049881 
	C209.986557,160.346558 209.419205,162.410477 213.699890,164.922455 
	C213.661758,170.612717 213.623642,176.302994 212.863892,182.051193 
	C210.049988,184.953308 210.206848,186.248093 213.782791,188.924576 
	C213.782791,218.227325 213.782791,247.530075 213.782791,277.812042 
	C219.141617,273.350250 223.560165,269.671356 228.684891,266.152008 
	C229.021149,267.257355 229.892197,268.537354 229.598389,269.436890 
	C228.496674,272.810089 229.832169,274.001556 233.235855,274.424835 
	C233.435242,274.688263 233.689178,274.879181 234.000000,275.000000 
M162.942001,263.107635 
	C162.942001,263.107635 162.763763,263.291351 162.881393,262.535522 
	C162.725723,261.543488 162.570053,260.551422 162.414383,259.559387 
	C162.144913,259.554596 161.875427,259.549805 161.605957,259.545044 
	C161.392563,260.403992 161.179153,261.262939 160.268036,261.999695 
	C157.448563,260.503601 154.629089,259.007507 152.067963,256.901001 
	C152.481171,256.147186 152.894394,255.393387 153.732300,253.864853 
	C151.234085,254.780350 149.622696,255.370850 147.269577,256.004669 
	C144.847610,255.289902 142.425644,254.575150 139.855927,253.217850 
	C138.864456,253.256210 137.872986,253.294571 135.957062,253.361542 
	C114.565773,253.222427 93.152466,253.608749 71.792847,252.713791 
	C61.706791,252.291214 53.701439,253.806030 47.838932,263.176910 
	C44.210320,263.077332 45.176868,265.632751 45.014610,268.231110 
	C43.961433,269.472290 42.908260,270.713470 41.099777,272.011108 
	C40.446037,273.127869 39.792301,274.244598 38.962120,275.987427 
	C37.010883,278.340973 35.059647,280.694519 32.480194,282.765839 
	C30.990398,281.580231 29.500601,280.394592 26.953775,278.367737 
	C26.430641,281.199249 26.057430,283.219299 25.684217,285.239319 
	C27.702326,285.519165 29.720434,285.799011 32.495693,286.082977 
	C32.994038,286.146790 33.492382,286.210602 34.044605,287.038971 
	C37.129322,290.159149 40.244293,289.865356 42.929008,286.122498 
	C47.949791,286.177002 52.970570,286.231506 58.051289,287.072815 
	C59.863880,287.714813 61.674927,288.911957 63.489296,288.917023 
	C102.235687,289.024719 140.982437,288.998688 179.729126,288.998657 
	C183.171234,288.998657 186.613342,288.998688 190.485184,288.998688 
	C189.495560,287.845581 188.786407,287.019287 188.195679,285.494141 
	C186.670837,283.807098 185.145996,282.120056 183.989288,280.247192 
	C183.999832,280.075867 184.010391,279.904572 184.020935,279.733246 
	C183.847229,279.920258 183.673508,280.107269 182.820999,280.426971 
	C177.217697,275.529999 171.614395,270.633026 166.011749,265.075836 
	C166.295975,261.988647 164.449127,262.739990 162.942001,263.107635 
M190.100891,86.022903 
	C188.739487,87.322327 186.558136,88.422859 186.184799,89.961952 
	C185.369904,93.321396 188.105469,94.394783 191.019791,95.925598 
	C190.967957,109.282570 190.916107,122.639549 190.243576,136.129700 
	C190.450348,137.087631 190.657135,138.045563 191.015793,139.928070 
	C190.952576,145.618576 190.889374,151.309082 190.142395,157.199982 
	C188.633011,159.338226 187.831573,161.393036 190.971756,163.926224 
	C190.935883,169.617493 190.899994,175.308777 190.172623,181.194107 
	C188.616226,183.342239 187.809006,185.401154 191.025421,187.924515 
	C190.973526,194.281906 190.921646,200.639282 190.146652,207.182419 
	C189.437119,208.588730 188.133591,209.986038 188.112076,211.402817 
	C187.941193,222.664368 187.938660,233.930786 188.111771,245.192200 
	C188.132202,246.521683 189.525742,247.830078 190.282761,249.148239 
	C190.523224,248.879837 190.763702,248.611435 191.004166,248.343033 
	C191.004166,245.224564 191.004166,242.106079 191.648300,239.211792 
	C192.761765,239.408463 193.875214,239.605133 195.165436,240.157028 
	C195.447296,240.036331 195.729172,239.915634 196.926163,239.769501 
	C197.835022,240.027573 198.743896,240.285645 200.199829,240.699051 
	C200.199829,238.586609 200.199982,236.795883 200.199799,235.005173 
	C200.198486,221.725586 200.171432,208.445938 200.201355,195.166428 
	C200.255554,171.114899 200.343735,147.063431 201.117416,122.705513 
	C201.407745,121.967361 201.949707,121.229874 201.951675,120.490959 
	C202.001221,101.734024 202.020706,82.976814 201.928452,64.220222 
	C201.923157,63.140404 200.927094,62.065456 200.158737,60.322624 
	C199.909500,58.271862 199.660248,56.221100 199.973129,53.930954 
	C199.706207,53.285637 199.439301,52.640320 198.893784,51.216290 
	C198.134644,46.523201 197.375504,41.830112 197.133072,36.859169 
	C196.811478,36.237808 196.489883,35.616444 195.953491,34.191528 
	C195.180405,30.172813 194.407318,26.154100 194.161514,21.803350 
	C193.685730,21.236845 193.209930,20.670340 192.009964,20.155159 
	C191.631332,21.435564 191.252701,22.715971 190.154099,24.212599 
	C188.607040,26.972242 187.615204,29.681288 191.016418,32.908764 
	C190.964249,36.271057 190.912079,39.633354 190.099564,42.998760 
	C188.913284,43.182613 187.727020,43.366463 186.540741,43.550316 
	C186.585312,43.939884 186.629883,44.329453 186.674454,44.719021 
	C188.069595,44.814129 189.464752,44.909237 191.013443,45.927914 
	C190.962524,51.285095 190.911591,56.642273 190.100754,62.022961 
	C187.479279,62.294128 185.237488,63.560024 186.211823,66.312546 
	C186.771072,67.892448 189.247391,68.793747 191.019455,70.922371 
	C190.966476,75.948074 190.913498,80.973770 190.100891,86.022903 
M30.338730,32.573662 
	C28.976286,33.612015 27.613842,34.650364 26.251396,35.688713 
	C26.877472,36.092476 27.994925,36.910748 28.056225,36.838081 
	C29.042238,35.669228 29.893759,34.386921 30.338730,32.573662 
M205.445236,57.688885 
	C204.616241,57.535439 203.787231,57.381996 202.958237,57.228550 
	C202.944183,57.644836 202.930130,58.061119 202.916077,58.477402 
	C203.765381,58.411552 204.614685,58.345703 205.445236,57.688885 
M199.727463,248.515274 
	C199.988007,248.267746 200.250977,248.022491 200.495346,247.759918 
	C200.501648,247.753159 200.304214,247.556763 200.201782,247.448792 
	C199.941132,247.696625 199.680496,247.944473 199.727463,248.515274 
M224.605392,283.351532 
	C224.493744,283.131897 224.382111,282.912231 224.270493,282.692627 
	C224.071014,282.886871 223.871552,283.081116 223.672058,283.275330 
	C223.888687,283.393188 224.105331,283.511017 224.605392,283.351532 
M171.438766,257.487366 
	C171.438766,257.487366 171.519913,257.444550 171.438766,257.487366 
M176.438126,38.486576 
	C176.438126,38.486576 176.520920,38.442566 176.438126,38.486576 
z"/>
<path fill="#343434" opacity="1.000000" stroke="none" 
	d="
M14.000739,285.000000 
	C13.714081,288.915314 13.427423,292.830627 12.962882,297.105713 
	C12.081017,295.363068 10.763809,293.261261 10.761574,291.158081 
	C10.677381,211.976929 10.734659,132.795624 10.682492,53.614407 
	C10.679476,49.034863 11.422493,45.077320 15.961334,42.169270 
	C16.515141,42.024052 16.992041,42.034527 17.045517,42.405968 
	C17.324739,46.456959 17.550484,50.136505 17.788971,54.023762 
	C12.110191,54.281624 14.145314,58.090950 14.253099,60.166271 
	C16.617094,60.879066 18.314859,61.394245 20.014721,61.902424 
	C21.257273,62.273891 22.502577,62.636150 23.828308,63.464668 
	C23.917513,127.794662 23.923468,191.662491 23.940702,255.530319 
	C23.941195,257.354462 24.061586,259.178619 24.043720,261.332214 
	C23.891994,262.106964 23.822620,262.552246 23.753250,262.997559 
	C19.612461,262.931335 21.271034,266.591522 20.445253,268.502289 
	C19.620100,270.411621 19.593630,272.512756 16.354671,270.573486 
	C16.000229,260.970123 16.000229,251.877563 16.000229,242.785004 
	C15.333733,242.788727 14.667235,242.792450 14.000739,242.796173 
	C14.000739,256.864105 14.000739,270.932068 14.000739,285.000000 
z"/>
<path fill="#333333" opacity="1.000000" stroke="none" 
	d="
M389.877838,52.040157 
	C393.373230,51.316441 396.006500,49.853783 396.166962,45.691071 
	C396.204956,44.706406 397.257477,43.760845 397.921875,42.450668 
	C401.832855,45.146606 403.371307,48.904305 403.358521,53.991554 
	C403.190796,120.688042 403.227570,187.385056 403.110535,254.541016 
	C399.041687,254.665665 395.075287,254.331223 390.586731,253.535675 
	C390.055664,192.046387 390.051178,131.018204 390.031067,69.990005 
	C390.029083,64.006706 389.931183,58.023441 389.877838,52.040157 
z"/>
<path fill="#3B383B" opacity="1.000000" stroke="none" 
	d="
M154.740082,25.814100 
	C156.139282,25.199402 157.506012,24.491909 158.944290,23.988926 
	C162.143188,22.870230 165.231140,21.715559 165.101349,17.055899 
	C166.666901,17.500223 168.198593,18.356281 169.907318,19.487690 
	C166.428452,22.285864 162.772568,24.808689 158.765411,27.600449 
	C157.189438,27.184290 155.964752,26.499195 154.740082,25.814100 
z"/>
<path fill="#363636" opacity="1.000000" stroke="none" 
	d="
M200.698059,8.785963 
	C198.163605,10.565799 195.600571,12.369911 192.758957,13.420479 
	C191.529388,13.875062 189.724976,12.774721 188.181671,12.380693 
	C189.489716,11.587640 190.752197,10.702635 192.117828,10.025760 
	C193.679459,9.251743 195.332794,8.662779 196.972321,7.602196 
	C198.184418,7.642199 199.370453,8.073410 200.698059,8.785963 
z"/>
<path fill="#363636" opacity="1.000000" stroke="none" 
	d="
M161.777084,14.763240 
	C161.999695,15.465371 161.999924,15.903296 161.627441,16.670475 
	C160.509705,17.003654 159.764633,17.007582 159.019577,17.011507 
	C158.364197,15.835389 157.708817,14.659272 157.069977,13.124493 
	C158.575912,13.343566 160.065292,13.921300 161.777084,14.763240 
z"/>
<path fill="#363636" opacity="1.000000" stroke="none" 
	d="
M50.500381,7.574280 
	C50.894894,9.975748 51.176403,12.694423 47.081120,11.563393 
	C48.061146,10.081041 49.120014,8.900202 50.500381,7.574280 
z"/>
<path fill="#363636" opacity="1.000000" stroke="none" 
	d="
M186.601685,7.112531 
	C185.226212,7.556973 183.452179,7.929119 181.343948,8.152893 
	C182.740875,7.683093 184.472015,7.361663 186.601685,7.112531 
z"/>
<path fill="#363636" opacity="1.000000" stroke="none" 
	d="
M132.671051,7.090660 
	C132.688538,7.925441 132.376328,8.694320 132.064117,9.463198 
	C131.714844,8.888710 131.365585,8.314224 131.007996,7.412796 
	C131.446915,7.065488 131.894150,7.045122 132.671051,7.090660 
z"/>
<path fill="#3B383B" opacity="1.000000" stroke="none" 
	d="
M16.992041,42.034527 
	C16.992041,42.034527 16.515141,42.024052 16.276691,42.018845 
	C16.831646,41.082371 17.625046,40.151096 18.717760,39.134453 
	C19.011061,39.786221 19.005049,40.523354 18.664314,41.631203 
	C17.883743,42.012791 17.437891,42.023659 16.992041,42.034527 
z"/>
<path fill="#363636" opacity="1.000000" stroke="none" 
	d="
M29.757710,28.065243 
	C30.253302,28.678637 30.490353,29.350925 30.727402,30.023216 
	C30.235388,29.850407 29.743376,29.677597 29.128902,29.260513 
	C29.170683,28.718874 29.334925,28.421507 29.757710,28.065243 
z"/>
<path fill="#3B383B" opacity="1.000000" stroke="none" 
	d="
M16.142992,299.241547 
	C16.600203,298.968292 17.219505,298.883606 17.979858,299.052795 
	C17.515635,299.347870 16.910360,299.389008 16.142992,299.241547 
z"/>
<path fill="#3B383B" opacity="1.000000" stroke="none" 
	d="
M377.173950,21.089512 
	C376.788361,21.613892 376.387848,22.032686 375.987305,22.451483 
	C376.054169,21.976328 376.121033,21.501175 376.492828,20.912323 
	C376.797760,20.798624 377.159027,20.983929 377.173950,21.089512 
z"/>
<path fill="#3B383B" opacity="1.000000" stroke="none" 
	d="
M229.654297,32.025780 
	C230.063400,32.428543 230.249191,32.904282 230.434998,33.380020 
	C230.043533,33.356567 229.652084,33.333115 229.103775,33.092533 
	C228.987366,32.541153 229.148712,32.282272 229.654297,32.025780 
z"/>
<path fill="#FEFEFE" opacity="1.000000" stroke="none" 
	d="
M213.624619,137.987320 
	C213.696777,114.393822 213.751526,90.800232 213.876694,67.207016 
	C213.885941,65.464203 214.402313,63.724087 215.199921,61.507462 
	C216.317780,60.413952 216.918671,59.795704 217.519562,59.177460 
	C222.279297,55.105949 227.039017,51.034431 232.284607,46.555115 
	C234.220856,44.780495 235.671234,43.413677 237.121613,42.046860 
	C243.879883,37.002834 250.316956,31.433918 257.479675,27.050867 
	C265.972443,21.853924 275.650635,19.946634 285.636353,19.934502 
	C294.116455,19.924198 302.596558,19.911266 311.999512,19.898746 
	C318.614838,19.841955 324.307281,19.785913 329.999725,19.729872 
	C337.625946,19.729872 345.252197,19.729872 353.188416,19.729872 
	C353.188416,93.136696 353.188416,165.973831 353.188416,239.383621 
	C351.345459,239.479416 349.597473,239.647552 347.849304,239.649323 
	C327.696838,239.669678 307.543854,239.753098 287.392120,239.632507 
	C275.900940,239.563751 264.934235,241.680405 253.944946,246.723633 
	C252.937683,247.327393 252.471100,247.671738 252.004517,248.016068 
	C247.261047,251.050232 242.517593,254.084396 237.286652,257.530975 
	C235.218033,259.394012 233.636871,260.844635 231.768311,262.406006 
	C230.313522,263.675293 229.146118,264.833862 227.978714,265.992432 
	C223.560165,269.671356 219.141617,273.350250 213.782791,277.812042 
	C213.782791,247.530075 213.782791,218.227325 213.782913,188.044617 
	C213.717194,185.440872 213.651352,183.717056 213.585510,181.993256 
	C213.623642,176.302994 213.661758,170.612717 213.729935,164.055756 
	C213.707733,161.457336 213.655487,159.725616 213.603241,157.993896 
	C213.670914,152.306351 213.738602,146.618790 213.810577,140.139145 
	C213.751450,138.893799 213.688034,138.440567 213.624619,137.987320 
z"/>
<path fill="#FDFDFD" opacity="1.000000" stroke="none" 
	d="
M154.357269,25.739443 
	C155.964752,26.499195 157.189438,27.184290 158.717865,27.896770 
	C164.586349,32.356632 170.151077,36.789112 176.118652,41.624081 
	C176.929306,42.383987 177.337143,42.741405 177.744965,43.098827 
	C177.766876,110.760887 177.788803,178.422943 177.863266,246.879364 
	C178.230621,248.244965 178.545456,248.816208 178.860291,249.387451 
	C180.472778,253.357559 183.994949,253.171204 187.208145,252.804520 
	C191.749008,252.286316 193.851395,254.003082 194.258896,258.508331 
	C194.494095,261.108673 195.328873,263.654785 195.951355,266.950073 
	C196.113953,268.119293 196.218979,268.563782 196.324005,269.008270 
	C196.204773,270.061249 196.085526,271.114197 195.601105,272.577850 
	C194.144135,272.366302 193.052353,271.744080 191.960556,271.121857 
	C188.824509,268.251709 185.688446,265.381592 182.050018,262.137573 
	C180.847321,261.223572 180.147018,260.683472 179.446701,260.143341 
	C177.524857,258.453979 175.602997,256.764648 173.224838,254.700394 
	C171.512344,253.563766 170.256149,252.802032 168.999954,252.040298 
	C167.997177,251.336731 166.994400,250.633148 165.502823,249.627441 
	C163.676636,248.667770 162.339233,248.010223 160.693817,247.157928 
	C157.922775,246.006104 155.459717,245.049042 152.996674,244.091965 
	C152.996674,244.091965 152.634628,243.870239 152.233582,243.632263 
	C151.220322,243.304413 150.608139,243.214539 149.995941,243.124664 
	C142.829056,241.970154 135.680527,239.977386 128.491821,239.820084 
	C107.865715,239.368698 87.223343,239.660583 66.587364,239.660355 
	C64.789337,239.660324 62.991310,239.660355 60.522930,239.660355 
	C60.522930,216.737381 60.522930,194.325867 60.525440,171.118622 
	C60.413822,168.570572 60.299698,166.818268 60.185570,165.065948 
	C60.258244,159.308792 60.330914,153.551636 60.443432,147.053772 
	C60.387775,144.534286 60.292274,142.755539 60.196774,140.976776 
	C60.295460,135.287643 60.394142,129.598511 60.493793,123.134521 
	C60.400311,121.901451 60.305862,121.443245 60.211418,120.985039 
	C60.325634,118.168564 60.536343,115.352196 60.539185,112.535606 
	C60.568737,83.222427 60.564552,53.909218 60.570873,24.596014 
	C60.571400,22.154760 59.934231,19.229292 64.936539,19.902781 
	C66.857994,19.845905 67.933388,19.785917 69.008789,19.725929 
	C78.028770,19.782393 87.048744,19.838854 96.925598,19.900360 
	C98.857903,19.845581 99.933350,19.785755 101.008789,19.725931 
	C110.028542,19.782667 119.048286,19.839405 128.923599,19.900871 
	C130.854462,19.893085 131.929779,19.880568 133.005081,19.868053 
	C134.052917,20.010015 135.100769,20.151979 136.745667,20.428621 
	C137.895828,20.615177 138.448929,20.667055 139.002014,20.718933 
	C143.992828,22.367548 148.983643,24.016167 154.357269,25.739443 
z"/>
<path fill="#FDFDFD" opacity="1.000000" stroke="none" 
	d="
M389.593750,51.936111 
	C389.931183,58.023441 390.029083,64.006706 390.031067,69.990005 
	C390.051178,131.018204 390.055664,192.046387 390.151855,253.535873 
	C390.239197,260.003937 390.239197,266.010681 390.239197,273.363098 
	C388.221069,270.978577 387.042297,269.585754 385.494019,267.764343 
	C384.732452,266.932861 384.340332,266.529938 383.948212,266.127045 
	C383.216400,265.066620 382.484589,264.006195 381.372681,262.498230 
	C379.832764,260.622925 378.672943,259.195099 377.513153,257.767303 
	C374.842865,254.279587 371.931427,250.944290 369.593842,247.246262 
	C368.217712,245.069244 367.752380,242.316513 366.883545,238.954376 
	C366.831085,222.387604 366.772522,206.689163 366.713928,190.990738 
	C366.769501,185.304123 366.825073,179.617523 366.885498,173.008362 
	C366.897858,126.727173 366.905060,81.368538 366.914459,36.009907 
	C366.914764,34.514923 366.853516,33.009209 367.041260,31.536570 
	C367.069336,31.316303 368.314697,31.251207 368.996948,31.114326 
	C371.774658,34.000767 374.552338,36.887207 377.758667,40.202469 
	C378.997101,41.353622 379.806946,42.075954 380.616760,42.798279 
	C381.507355,43.820869 382.397919,44.843460 383.695923,46.255119 
	C385.049164,47.479725 385.994995,48.315262 386.940826,49.150803 
	C387.730438,50.044556 388.520050,50.938313 389.593750,51.936111 
z"/>
<path fill="#FEFEFE" opacity="1.000000" stroke="none" 
	d="
M23.838551,263.408203 
	C23.822620,262.552246 23.891994,262.106964 24.421120,261.212463 
	C25.253738,259.236786 25.914751,257.716583 25.948273,256.182709 
	C26.075460,250.362625 25.999611,244.538086 25.999613,238.715210 
	C25.999617,181.484589 26.018631,124.253944 25.920788,67.023499 
	C25.917351,65.013687 24.752087,63.005859 24.047808,60.558079 
	C23.996412,57.454586 24.025534,54.790123 24.054653,52.125660 
	C25.991806,50.306591 27.928959,48.487518 30.240429,46.305618 
	C30.922865,45.745834 31.064894,45.464905 31.040833,45.100006 
	C33.637058,42.654804 36.233280,40.209599 39.231239,37.322021 
	C40.465919,35.936062 41.298862,34.992466 42.131802,34.048874 
	C43.022285,33.253208 43.912773,32.457546 45.181599,31.279133 
	C46.147461,31.528421 46.734982,32.160458 47.238819,33.204365 
	C47.145714,64.099213 47.117538,94.582199 47.131546,125.065170 
	C47.149609,164.373947 47.201439,203.682709 47.122849,243.305847 
	C46.078655,245.101715 45.150341,246.583252 44.222031,248.064789 
	C42.222256,250.512009 40.222481,252.959244 37.831856,255.874069 
	C36.316292,257.901886 35.191578,259.462097 34.066868,261.022308 
	C32.789635,262.514862 31.512403,264.007446 29.877647,265.947784 
	C28.998423,267.225403 28.476723,268.055237 27.955029,268.885071 
	C27.519207,269.266205 27.083382,269.647308 26.313335,269.805420 
	C25.361084,269.053955 24.743055,268.525513 24.125029,267.997040 
	C24.057970,266.604309 23.990911,265.211548 23.838551,263.408203 
z"/>
<path fill="#FDFDFD" opacity="1.000000" stroke="none" 
	d="
M48.747261,263.314697 
	C53.701439,253.806030 61.706791,252.291214 71.792847,252.713791 
	C93.152466,253.608749 114.565773,253.222427 136.679596,253.547211 
	C138.269318,253.775391 139.136490,253.817886 140.003677,253.860382 
	C142.425644,254.575150 144.847610,255.289902 147.924744,256.179535 
	C149.656479,256.740051 150.733047,257.125702 151.809616,257.511383 
	C154.629089,259.007507 157.448563,260.503601 160.743408,262.313904 
	C161.733780,262.849182 162.248779,263.070282 162.763763,263.291351 
	C162.763763,263.291351 162.942001,263.107635 162.978180,263.448700 
	C164.013260,264.438507 165.012177,265.087280 166.011093,265.736053 
	C171.614395,270.633026 177.217697,275.529999 183.210297,280.378204 
	C183.599594,280.329437 183.621155,280.433014 183.621155,280.433014 
	C185.145996,282.120056 186.670837,283.807098 187.663971,285.806213 
	C161.699753,286.108368 136.267181,286.071625 110.834686,286.097656 
	C93.220200,286.115692 75.605797,286.220184 57.991352,286.286011 
	C52.970570,286.231506 47.949791,286.177002 42.030830,286.117188 
	C38.752007,286.166077 36.371368,286.220215 33.990726,286.274353 
	C33.492382,286.210602 32.994038,286.146790 32.124992,285.737549 
	C32.205669,284.610779 32.657043,283.829407 33.108414,283.048065 
	C35.059647,280.694519 37.010883,278.340973 39.335732,275.527527 
	C40.424587,274.029968 41.139835,272.992310 41.855087,271.954651 
	C42.908260,270.713470 43.961433,269.472290 45.433716,267.770203 
	C46.817635,265.977753 47.782448,264.646240 48.747261,263.314697 
z"/>
<path fill="#FDFDFD" opacity="1.000000" stroke="none" 
	d="
M250.506119,263.285034 
	C250.863892,263.320923 251.221680,263.356781 252.115875,263.066833 
	C254.538040,261.540680 256.423798,260.340302 258.309570,259.139954 
	C265.930664,257.113525 273.551788,255.087067 281.982910,253.024704 
	C283.863953,252.919952 284.934937,252.851135 286.005920,252.782318 
	C307.206482,252.838257 328.409271,253.078171 349.606049,252.820969 
	C354.919464,252.756485 358.907410,253.784409 361.762573,259.153931 
	C363.420410,261.103271 364.702972,262.569000 365.985535,264.034698 
	C368.059326,266.835388 370.133087,269.636078 372.532135,272.708618 
	C372.857391,272.980469 373.108643,273.143402 373.108643,273.143402 
	C374.003174,274.380585 374.897705,275.617737 376.173645,277.381348 
	C377.168030,278.576874 377.781067,279.245941 378.394104,279.915009 
	C379.614990,281.677032 380.835876,283.439056 382.710236,286.144196 
	C333.963165,286.144196 285.947998,286.144196 237.018158,286.139954 
	C232.683701,286.110474 229.263916,286.085297 225.844116,286.060089 
	C228.437378,283.525635 231.030640,280.991180 234.086548,278.070831 
	C235.409485,276.806702 236.269775,275.928497 237.433533,274.930115 
	C239.482971,273.174561 241.228958,271.539124 242.974945,269.903687 
	C245.426346,267.979462 247.877747,266.055237 250.364227,263.736084 
	C250.399323,263.341156 250.506119,263.285034 250.506119,263.285034 
z"/>
<path fill="#FBFBFB" opacity="1.000000" stroke="none" 
	d="
M190.859894,42.995647 
	C190.912079,39.633354 190.964249,36.271057 191.023499,32.017803 
	C190.978394,28.750021 190.926239,26.373198 190.874069,23.996376 
	C191.252701,22.715971 191.631332,21.435564 192.438873,20.404678 
	C193.123260,21.147928 193.378738,21.641661 193.634216,22.135391 
	C194.407318,26.154100 195.180405,30.172813 196.010895,34.874653 
	C196.251007,36.084190 196.433685,36.610603 196.616364,37.137020 
	C197.375504,41.830112 198.134644,46.523201 198.982269,51.882416 
	C199.184189,53.089138 199.297592,53.629738 199.410995,54.170338 
	C199.660248,56.221100 199.909500,58.271862 200.186905,61.117317 
	C200.282623,82.278656 200.350174,102.645302 200.417725,123.011948 
	C200.343735,147.063431 200.255554,171.114899 200.201355,195.166428 
	C200.171432,208.445938 200.198486,221.725586 200.199799,235.005173 
	C200.199982,236.795883 200.199829,238.586609 200.199829,240.699051 
	C198.743896,240.285645 197.835022,240.027573 196.212311,239.680023 
	C195.328537,239.660934 195.158615,239.731354 194.988678,239.801788 
	C193.875214,239.605133 192.761765,239.408463 191.338974,238.631973 
	C190.976349,227.700333 190.923065,217.348495 190.869781,206.996674 
	C190.921646,200.639282 190.973526,194.281906 191.025635,187.039215 
	C190.971939,184.435944 190.918030,182.718002 190.864120,181.000046 
	C190.899994,175.308777 190.935883,169.617493 190.972137,163.039276 
	C190.923737,160.434738 190.874954,158.717163 190.826172,156.999588 
	C190.889374,151.309082 190.952576,145.618576 191.021454,139.094284 
	C190.972839,137.505844 190.918549,136.751175 190.864258,135.996521 
	C190.916107,122.639549 190.967957,109.282570 191.020279,95.018646 
	C190.967346,91.407616 190.913940,88.703545 190.860519,85.999474 
	C190.913498,80.973770 190.966476,75.948074 191.020264,70.022850 
	C190.967606,66.748703 190.914139,64.374077 190.860672,61.999454 
	C190.911591,56.642273 190.962524,51.285095 191.016296,45.134483 
	C190.966049,43.892586 190.912979,43.444115 190.859894,42.995647 
z"/>
<path fill="#333134" opacity="1.000000" stroke="none" 
	d="
M47.238724,242.991486 
	C47.201439,203.682709 47.149609,164.373947 47.131546,125.065170 
	C47.117538,94.582199 47.145714,64.099213 47.611347,33.277664 
	C48.712387,33.292213 49.357220,33.645329 50.002048,33.998444 
	C50.001366,101.318085 50.004517,168.637726 49.988438,235.957367 
	C49.987652,239.246841 49.818462,242.536270 49.357914,245.579041 
	C48.405003,244.552063 47.821865,243.771774 47.238724,242.991486 
z"/>
<path fill="#3B383B" opacity="1.000000" stroke="none" 
	d="
M368.999695,30.725044 
	C368.314697,31.251207 367.069336,31.316303 367.041260,31.536570 
	C366.853516,33.009209 366.914764,34.514923 366.914459,36.009907 
	C366.905060,81.368538 366.897858,126.727173 366.802124,172.547729 
	C362.780884,172.842438 364.052612,169.809570 364.049103,167.788437 
	C363.984894,130.808502 364.001587,93.828430 364.001282,56.848389 
	C364.001190,48.686127 364.107880,40.521793 363.948395,32.362656 
	C363.886993,29.222433 364.748901,27.544739 368.570404,28.000774 
	C369.000000,28.000000 369.000580,28.000578 369.000580,28.000578 
	C369.001190,28.778973 369.001801,29.557365 368.999695,30.725044 
z"/>
<path fill="#3B383B" opacity="1.000000" stroke="none" 
	d="
M58.021320,286.679443 
	C75.605797,286.220184 93.220200,286.115692 110.834686,286.097656 
	C136.267181,286.071625 161.699753,286.108368 187.604767,286.155640 
	C188.786407,287.019287 189.495560,287.845581 190.485184,288.998688 
	C186.613342,288.998688 183.171234,288.998657 179.729126,288.998657 
	C140.982437,288.998688 102.235687,289.024719 63.489296,288.917023 
	C61.674927,288.911957 59.863880,287.714813 58.021320,286.679443 
z"/>
<path fill="#343434" opacity="1.000000" stroke="none" 
	d="
M329.999115,19.328556 
	C324.307281,19.785913 318.614838,19.841955 312.461182,19.813545 
	C311.999786,10.000324 311.999786,10.000321 321.754608,10.000306 
	C325.673035,10.000299 329.591431,10.000305 333.820892,10.000305 
	C332.317444,13.511550 331.157990,16.219397 329.999115,19.328556 
z"/>
<path fill="#3B383B" opacity="1.000000" stroke="none" 
	d="
M366.320618,191.020996 
	C366.772522,206.689163 366.831085,222.387604 366.800964,238.547882 
	C365.809540,237.775635 364.139008,236.552109 364.121826,235.305786 
	C363.934021,221.700867 363.958618,208.091919 364.088562,194.485626 
	C364.099548,193.335098 365.286621,192.195801 366.320618,191.020996 
z"/>
<path fill="#363636" opacity="1.000000" stroke="none" 
	d="
M23.847254,51.833157 
	C24.025534,54.790123 23.996412,57.454586 23.961773,60.888718 
	C23.886389,62.106426 23.816523,62.554470 23.746655,63.002510 
	C22.502577,62.636150 21.257273,62.273891 20.014721,61.902424 
	C18.314859,61.394245 16.617094,60.879066 14.253099,60.166271 
	C14.145314,58.090950 12.110191,54.281624 17.788971,54.023762 
	C17.550484,50.136505 17.324739,46.456959 17.045517,42.405968 
	C17.437891,42.023659 17.883743,42.012791 18.663998,41.999798 
	C20.545551,45.178669 22.092703,48.359661 23.847254,51.833157 
z"/>
<path fill="#3B383B" opacity="1.000000" stroke="none" 
	d="
M200.767578,122.858734 
	C200.350174,102.645302 200.282623,82.278656 200.303589,61.450127 
	C200.927094,62.065456 201.923157,63.140404 201.928452,64.220222 
	C202.020706,82.976814 202.001221,101.734024 201.951675,120.490959 
	C201.949707,121.229874 201.407745,121.967361 200.767578,122.858734 
z"/>
<path fill="#3B383B" opacity="1.000000" stroke="none" 
	d="
M190.508209,207.089539 
	C190.923065,217.348495 190.976349,227.700333 191.016907,238.519882 
	C191.004166,242.106079 191.004166,245.224564 191.004166,248.343033 
	C190.763702,248.611435 190.523224,248.879837 190.282761,249.148239 
	C189.525742,247.830078 188.132202,246.521683 188.111771,245.192200 
	C187.938660,233.930786 187.941193,222.664368 188.112076,211.402817 
	C188.133591,209.986038 189.437119,208.588730 190.508209,207.089539 
z"/>
<path fill="#363636" opacity="1.000000" stroke="none" 
	d="
M242.977905,269.495026 
	C241.228958,271.539124 239.482971,273.174561 237.042664,274.913727 
	C235.566025,275.011993 234.783737,275.006531 234.001450,275.001068 
	C234.001450,275.001068 234.000000,275.000000 233.883240,274.787598 
	C233.566696,274.312225 233.312744,274.121307 233.004608,274.002441 
	C229.832169,274.001556 228.496674,272.810089 229.598389,269.436890 
	C229.892197,268.537354 229.021149,267.257355 228.331802,266.072205 
	C229.146118,264.833862 230.313522,263.675293 231.782455,262.665619 
	C232.389053,263.207092 232.694122,263.599701 232.999207,263.992310 
	C234.918121,264.661896 236.793182,265.631256 238.767792,265.919952 
	C240.907593,266.232819 243.211761,265.813263 242.977905,269.495026 
z"/>
<path fill="#363636" opacity="1.000000" stroke="none" 
	d="
M14.387356,284.894226 
	C14.000739,270.932068 14.000739,256.864105 14.000739,242.796173 
	C14.667235,242.792450 15.333733,242.788727 16.000229,242.785004 
	C16.000229,251.877563 16.000229,260.970123 16.000267,270.531342 
	C15.591529,275.596130 15.182752,280.192291 14.387356,284.894226 
z"/>
<path fill="#3B383B" opacity="1.000000" stroke="none" 
	d="
M50.373127,33.987541 
	C49.357220,33.645329 48.712387,33.292213 47.695030,32.865799 
	C46.734982,32.160458 46.147461,31.528421 45.281063,30.991821 
	C46.575031,28.543711 47.988163,25.868893 49.870026,23.579334 
	C50.203201,23.173979 52.994038,23.958015 53.780369,24.910622 
	C56.193867,27.834475 54.784542,31.607012 50.373127,33.987541 
z"/>
<path fill="#3B383B" opacity="1.000000" stroke="none" 
	d="
M225.649231,286.298645 
	C229.263916,286.085297 232.683701,286.110474 236.557510,286.226379 
	C236.127045,287.537109 235.289597,289.752625 234.349594,289.797028 
	C231.081299,289.951416 226.987579,291.397247 225.649231,286.298645 
z"/>
<path fill="#3B383B" opacity="1.000000" stroke="none" 
	d="
M32.794304,282.906952 
	C32.657043,283.829407 32.205669,284.610779 31.746418,285.735474 
	C29.720434,285.799011 27.702326,285.519165 25.684219,285.239319 
	C26.057430,283.219299 26.430641,281.199249 26.953775,278.367737 
	C29.500601,280.394592 30.990398,281.580231 32.794304,282.906952 
z"/>
<path fill="#363636" opacity="1.000000" stroke="none" 
	d="
M190.480713,86.011185 
	C190.913940,88.703545 190.967346,91.407616 190.940582,94.556000 
	C188.105469,94.394783 185.369904,93.321396 186.184799,89.961952 
	C186.558136,88.422859 188.739487,87.322327 190.480713,86.011185 
z"/>
<path fill="#363636" opacity="1.000000" stroke="none" 
	d="
M190.480713,62.011208 
	C190.914139,64.374077 190.967606,66.748703 190.940872,69.561935 
	C189.247391,68.793747 186.771072,67.892448 186.211823,66.312546 
	C185.237488,63.560024 187.479279,62.294128 190.480713,62.011208 
z"/>
<path fill="#3B383B" opacity="1.000000" stroke="none" 
	d="
M377.194885,257.972565 
	C378.672943,259.195099 379.832764,260.622925 381.080994,262.351074 
	C379.913483,264.030640 378.657532,265.409882 376.305695,267.992645 
	C376.554260,263.719147 376.715424,260.948486 377.194885,257.972565 
z"/>
<path fill="#3B383B" opacity="1.000000" stroke="none" 
	d="
M152.999725,244.492401 
	C155.459717,245.049042 157.922775,246.006104 160.697739,247.431366 
	C161.004532,248.264023 160.999420,248.628494 160.994308,248.992981 
	C157.975296,248.318542 153.161316,251.142639 152.999725,244.492401 
z"/>
<path fill="#3B383B" opacity="1.000000" stroke="none" 
	d="
M34.017666,286.656677 
	C36.371368,286.220215 38.752007,286.166077 41.571136,286.199829 
	C40.244293,289.865356 37.129322,290.159149 34.017666,286.656677 
z"/>
<path fill="#3B383B" opacity="1.000000" stroke="none" 
	d="
M233.275223,263.782379 
	C232.694122,263.599701 232.389053,263.207092 232.069855,262.554871 
	C233.636871,260.844635 235.218033,259.394012 237.091904,257.824127 
	C237.334793,258.913055 237.722458,260.444550 237.127380,261.249786 
	C236.336273,262.320312 234.779221,262.824768 233.275223,263.782379 
z"/>
<path fill="#363636" opacity="1.000000" stroke="none" 
	d="
M30.557278,32.852020 
	C29.893759,34.386921 29.042238,35.669228 28.056225,36.838081 
	C27.994925,36.910748 26.877472,36.092476 26.251396,35.688713 
	C27.613842,34.650364 28.976286,33.612015 30.557278,32.852020 
z"/>
<path fill="#3B383B" opacity="1.000000" stroke="none" 
	d="
M191.936768,271.430115 
	C193.052353,271.744080 194.144135,272.366302 195.561005,272.973694 
	C196.505966,273.538391 197.125809,274.117859 197.745667,274.697357 
	C197.139450,275.103790 196.126617,275.967926 195.989609,275.846191 
	C194.550293,274.567505 193.250992,273.131165 191.936768,271.430115 
z"/>
<path fill="#363636" opacity="1.000000" stroke="none" 
	d="
M213.242416,158.021881 
	C213.655487,159.725616 213.707733,161.457336 213.618881,163.600433 
	C209.419205,162.410477 209.986557,160.346558 213.242416,158.021881 
z"/>
<path fill="#363636" opacity="1.000000" stroke="none" 
	d="
M213.224701,182.022217 
	C213.651352,183.717056 213.717194,185.440872 213.684265,187.586105 
	C210.206848,186.248093 210.049988,184.953308 213.224701,182.022217 
z"/>
<path fill="#3B383B" opacity="1.000000" stroke="none" 
	d="
M257.968048,258.991089 
	C256.423798,260.340302 254.538040,261.540680 252.324677,262.820129 
	C252.308197,259.374725 253.522385,257.103424 257.968048,258.991089 
z"/>
<path fill="#363636" opacity="1.000000" stroke="none" 
	d="
M59.858513,141.027496 
	C60.292274,142.755539 60.387775,144.534286 60.319969,146.658066 
	C56.866661,145.358734 57.069984,143.339142 59.858513,141.027496 
z"/>
<path fill="#3B383B" opacity="1.000000" stroke="none" 
	d="
M133.003082,19.490345 
	C131.929779,19.880568 130.854462,19.893085 129.384735,19.816305 
	C129.634857,18.200132 130.279419,16.673260 130.923965,15.146386 
	C131.429092,15.207271 131.934219,15.268155 132.439346,15.329040 
	C132.626587,16.590239 132.813843,17.851439 133.003082,19.490345 
z"/>
<path fill="#363636" opacity="1.000000" stroke="none" 
	d="
M59.818283,165.118729 
	C60.299698,166.818268 60.413822,168.570572 60.380394,170.673798 
	C56.804371,169.496780 57.197628,167.458374 59.818283,165.118729 
z"/>
<path fill="#3B383B" opacity="1.000000" stroke="none" 
	d="
M190.514084,24.104488 
	C190.926239,26.373198 190.978394,28.750021 190.947357,31.565351 
	C187.615204,29.681288 188.607040,26.972242 190.514084,24.104488 
z"/>
<path fill="#3B383B" opacity="1.000000" stroke="none" 
	d="
M47.122849,243.305847 
	C47.821865,243.771774 48.405003,244.552063 48.991882,245.666351 
	C47.627701,246.674759 46.259781,247.349182 44.556942,248.044189 
	C45.150341,246.583252 46.078655,245.101715 47.122849,243.305847 
z"/>
<path fill="#3B383B" opacity="1.000000" stroke="none" 
	d="
M236.711212,42.033726 
	C235.671234,43.413677 234.220856,44.780495 232.460022,46.279701 
	C231.678345,43.194794 233.142349,41.806831 236.711212,42.033726 
z"/>
<path fill="#3B383B" opacity="1.000000" stroke="none" 
	d="
M365.991455,263.621307 
	C364.702972,262.569000 363.420410,261.103271 362.051208,259.319275 
	C365.234863,258.556976 366.388641,260.141907 365.991455,263.621307 
z"/>
<path fill="#363636" opacity="1.000000" stroke="none" 
	d="
M190.518372,181.097076 
	C190.918030,182.718002 190.971939,184.435944 190.945007,186.576935 
	C187.809006,185.401154 188.616226,183.342239 190.518372,181.097076 
z"/>
<path fill="#363636" opacity="1.000000" stroke="none" 
	d="
M169.002121,252.422791 
	C170.256149,252.802032 171.512344,253.563766 172.901917,254.615555 
	C170.239655,256.992218 169.039139,256.017334 169.002121,252.422791 
z"/>
<path fill="#363636" opacity="1.000000" stroke="none" 
	d="
M190.484283,157.099792 
	C190.874954,158.717163 190.923737,160.434738 190.899292,162.576385 
	C187.831573,161.393036 188.633011,159.338226 190.484283,157.099792 
z"/>
<path fill="#3B383B" opacity="1.000000" stroke="none" 
	d="
M151.938782,257.206177 
	C150.733047,257.125702 149.656479,256.740051 148.295609,256.157867 
	C149.622696,255.370850 151.234085,254.780350 153.732300,253.864853 
	C152.894394,255.393387 152.481171,256.147186 151.938782,257.206177 
z"/>
<path fill="#3B383B" opacity="1.000000" stroke="none" 
	d="
M34.405190,261.009399 
	C35.191578,259.462097 36.316292,257.901886 37.729568,256.196503 
	C38.722328,258.888824 37.581226,260.504395 34.405190,261.009399 
z"/>
<path fill="#3B383B" opacity="1.000000" stroke="none" 
	d="
M68.955643,19.417589 
	C67.933388,19.785917 66.857994,19.845905 65.386765,19.816111 
	C65.876228,16.867479 67.097000,16.135145 68.955643,19.417589 
z"/>
<path fill="#3B383B" opacity="1.000000" stroke="none" 
	d="
M190.479736,42.997204 
	C190.912979,43.444115 190.966049,43.892586 190.939514,44.672699 
	C189.464752,44.909237 188.069595,44.814129 186.674454,44.719021 
	C186.629883,44.329453 186.585312,43.939884 186.540741,43.550316 
	C187.727020,43.366463 188.913284,43.182613 190.479736,42.997204 
z"/>
<path fill="#3B383B" opacity="1.000000" stroke="none" 
	d="
M48.293098,263.245789 
	C47.782448,264.646240 46.817635,265.977753 45.548332,267.488831 
	C45.176868,265.632751 44.210320,263.077332 48.293098,263.245789 
z"/>
<path fill="#3B383B" opacity="1.000000" stroke="none" 
	d="
M100.955643,19.417610 
	C99.933350,19.785755 98.857903,19.845581 97.386688,19.815334 
	C97.876892,16.866306 99.098091,16.136013 100.955643,19.417610 
z"/>
<path fill="#3B383B" opacity="1.000000" stroke="none" 
	d="
M28.132063,269.121216 
	C28.476723,268.055237 28.998423,267.225403 29.789074,266.266296 
	C30.933598,268.002563 31.445805,269.670776 28.132063,269.121216 
z"/>
<path fill="#363636" opacity="1.000000" stroke="none" 
	d="
M161.270203,249.262238 
	C160.999420,248.628494 161.004532,248.264023 161.005737,247.626099 
	C162.339233,248.010223 163.676636,248.667770 165.193512,249.597321 
	C164.097351,249.756714 162.821732,249.644119 161.270203,249.262238 
z"/>
<path fill="#3B383B" opacity="1.000000" stroke="none" 
	d="
M162.822571,262.913452 
	C162.248779,263.070282 161.733780,262.849182 161.092285,262.375000 
	C161.179153,261.262939 161.392563,260.403992 161.605957,259.545044 
	C161.875427,259.549805 162.144913,259.554596 162.414383,259.559387 
	C162.570053,260.551422 162.725723,261.543488 162.822571,262.913452 
z"/>
<path fill="#3B383B" opacity="1.000000" stroke="none" 
	d="
M285.918976,252.464615 
	C284.934937,252.851135 283.863953,252.919952 282.394104,252.925690 
	C283.274139,252.624054 284.553101,252.385483 285.918976,252.464615 
z"/>
<path fill="#FAFAFA" opacity="1.000000" stroke="none" 
	d="
M24.038872,268.390320 
	C24.743055,268.525513 25.361084,269.053955 26.036606,269.909607 
	C26.102617,270.563110 26.035212,270.872925 25.570965,271.492950 
	C24.831484,271.880493 24.412912,271.941315 23.994339,272.002136 
	C23.980463,270.929291 23.966589,269.856476 24.038872,268.390320 
z"/>
<path fill="#3B383B" opacity="1.000000" stroke="none" 
	d="
M166.011414,265.405945 
	C165.012177,265.087280 164.013260,264.438507 162.873749,263.522705 
	C164.449127,262.739990 166.295975,261.988647 166.011414,265.405945 
z"/>
<path fill="#3B383B" opacity="1.000000" stroke="none" 
	d="
M205.454620,57.984367 
	C204.614685,58.345703 203.765381,58.411552 202.916077,58.477402 
	C202.930130,58.061119 202.944183,57.644836 202.958237,57.228550 
	C203.787231,57.381996 204.616241,57.535439 205.454620,57.984367 
z"/>
<path fill="#3B383B" opacity="1.000000" stroke="none" 
	d="
M386.946716,48.764793 
	C385.994995,48.315262 385.049164,47.479725 383.974670,46.352673 
	C384.881531,46.833702 385.917053,47.606243 386.946716,48.764793 
z"/>
<path fill="#3B383B" opacity="1.000000" stroke="none" 
	d="
M23.777687,272.208038 
	C24.412912,271.941315 24.831484,271.880493 25.558178,271.732178 
	C25.464701,272.360229 25.063097,273.075836 24.661499,273.791412 
	C24.294680,273.332245 23.927858,272.873077 23.777687,272.208038 
z"/>
<path fill="#3B383B" opacity="1.000000" stroke="none" 
	d="
M41.477432,271.982880 
	C41.139835,272.992310 40.424587,274.029968 39.423950,275.214478 
	C39.792301,274.244598 40.446037,273.127869 41.477432,271.982880 
z"/>
<path fill="#3B383B" opacity="1.000000" stroke="none" 
	d="
M234.001312,275.359802 
	C234.783737,275.006531 235.566025,275.011993 236.739197,275.033875 
	C236.269775,275.928497 235.409485,276.806702 234.253433,277.777771 
	C233.972183,277.153229 233.986679,276.435883 234.001312,275.359802 
z"/>
<path fill="#3B383B" opacity="1.000000" stroke="none" 
	d="
M139.929810,253.539124 
	C139.136490,253.817886 138.269318,253.775391 137.141815,253.532898 
	C137.872986,253.294571 138.864456,253.256210 139.929810,253.539124 
z"/>
<path fill="#363636" opacity="1.000000" stroke="none" 
	d="
M252.057602,248.316559 
	C252.471100,247.671738 252.937683,247.327393 253.702133,246.988144 
	C253.694687,247.816010 253.389374,248.638794 253.084061,249.461563 
	C252.759613,249.180054 252.435150,248.898544 252.057602,248.316559 
z"/>
<path fill="#3B383B" opacity="1.000000" stroke="none" 
	d="
M213.320435,137.997314 
	C213.688034,138.440567 213.751450,138.893799 213.719330,139.680222 
	C212.909241,139.775757 212.194672,139.538101 211.480118,139.300446 
	C211.992157,138.869400 212.504211,138.438354 213.320435,137.997314 
z"/>
<path fill="#363636" opacity="1.000000" stroke="none" 
	d="
M41.748043,34.047161 
	C41.298862,34.992466 40.465919,35.936062 39.342674,37.008987 
	C39.823006,36.107361 40.593647,35.076405 41.748043,34.047161 
z"/>
<path fill="#3B383B" opacity="1.000000" stroke="none" 
	d="
M190.553925,136.063110 
	C190.918549,136.751175 190.972839,137.505844 190.945511,138.631989 
	C190.657135,138.045563 190.450348,137.087631 190.553925,136.063110 
z"/>
<path fill="#3B383B" opacity="1.000000" stroke="none" 
	d="
M380.724854,42.338425 
	C379.806946,42.075954 378.997101,41.353622 378.073669,40.323128 
	C378.720032,40.010239 379.480011,40.005508 380.619995,40.000389 
	C381.000000,40.000000 381.000000,39.999542 381.000000,39.999542 
	C380.944305,40.625885 380.888611,41.252224 380.724854,42.338425 
z"/>
<path fill="#3B383B" opacity="1.000000" stroke="none" 
	d="
M217.140686,59.175617 
	C216.918671,59.795704 216.317780,60.413952 215.411057,61.151093 
	C215.657410,60.571247 216.209610,59.872513 217.140686,59.175617 
z"/>
<path fill="#3B383B" opacity="1.000000" stroke="none" 
	d="
M178.003937,42.890221 
	C177.337143,42.741405 176.929306,42.383987 176.374207,41.794441 
	C176.905594,41.935413 177.584259,42.308514 178.003937,42.890221 
z"/>
<path fill="#3B383B" opacity="1.000000" stroke="none" 
	d="
M378.511047,279.485840 
	C377.781067,279.245941 377.168030,278.576874 376.419403,277.592834 
	C377.065186,277.870789 377.846588,278.463715 378.511047,279.485840 
z"/>
<path fill="#3B383B" opacity="1.000000" stroke="none" 
	d="
M199.692062,54.050644 
	C199.297592,53.629738 199.184189,53.089138 199.121582,52.271774 
	C199.439301,52.640320 199.706207,53.285637 199.692062,54.050644 
z"/>
<path fill="#3B383B" opacity="1.000000" stroke="none" 
	d="
M60.013771,121.067841 
	C60.305862,121.443245 60.400311,121.901451 60.352909,122.688660 
	C60.079414,122.395332 59.947773,121.772987 60.013771,121.067841 
z"/>
<path fill="#363636" opacity="1.000000" stroke="none" 
	d="
M30.883339,44.883568 
	C31.064894,45.464905 30.922865,45.745834 30.374992,45.998726 
	C29.940319,45.580463 29.745399,45.106270 29.550482,44.632072 
	C29.942268,44.643757 30.334057,44.655441 30.883339,44.883568 
z"/>
<path fill="#3B383B" opacity="1.000000" stroke="none" 
	d="
M373.420532,273.051392 
	C373.108643,273.143402 372.857391,272.980469 372.838379,272.905884 
	C373.213593,272.410095 373.607788,271.988922 374.002014,271.567749 
	C373.912170,272.031647 373.822296,272.495514 373.420532,273.051392 
z"/>
<path fill="#3B383B" opacity="1.000000" stroke="none" 
	d="
M199.573669,248.353790 
	C199.680496,247.944473 199.941132,247.696625 200.201782,247.448792 
	C200.304214,247.556763 200.501648,247.753159 200.495346,247.759918 
	C200.250977,248.022491 199.988007,248.267746 199.573669,248.353790 
z"/>
<path fill="#3B383B" opacity="1.000000" stroke="none" 
	d="
M381.000000,40.000229 
	C381.293060,39.511375 381.586121,39.022293 381.879181,38.533211 
	C382.077606,38.703026 382.276031,38.872849 382.474457,39.042679 
	C382.164062,39.334831 381.853668,39.626972 381.271606,39.959328 
	C381.000000,39.999542 381.000000,40.000000 381.000000,40.000229 
z"/>
<path fill="#3B383B" opacity="1.000000" stroke="none" 
	d="
M196.584824,268.947235 
	C196.218979,268.563782 196.113953,268.119293 196.076691,267.335571 
	C196.378189,267.626282 196.611908,268.256226 196.584824,268.947235 
z"/>
<path fill="#3B383B" opacity="1.000000" stroke="none" 
	d="
M196.874725,36.998093 
	C196.433685,36.610603 196.251007,36.084190 196.118286,35.276428 
	C196.489883,35.616444 196.811478,36.237808 196.874725,36.998093 
z"/>
<path fill="#3B383B" opacity="1.000000" stroke="none" 
	d="
M179.385559,260.593353 
	C180.147018,260.683472 180.847321,261.223572 181.746948,262.029419 
	C181.072311,261.877899 180.198380,261.460632 179.385559,260.593353 
z"/>
<path fill="#3B383B" opacity="1.000000" stroke="none" 
	d="
M368.999847,27.999699 
	C369.293030,27.510656 369.586365,27.021917 369.879700,26.533176 
	C370.077972,26.703045 370.276276,26.872917 370.474548,27.042786 
	C370.164215,27.334925 369.853912,27.627068 369.272095,27.959894 
	C369.000580,28.000578 369.000000,28.000000 368.999847,27.999699 
z"/>
<path fill="#363636" opacity="1.000000" stroke="none" 
	d="
M138.942291,20.448891 
	C138.448929,20.667055 137.895828,20.615177 137.138901,20.370529 
	C137.584229,20.178122 138.233383,20.178486 138.942291,20.448891 
z"/>
<path fill="#3B383B" opacity="1.000000" stroke="none" 
	d="
M193.897858,21.969372 
	C193.378738,21.641661 193.123260,21.147928 192.800964,20.379013 
	C193.209930,20.670340 193.685730,21.236845 193.897858,21.969372 
z"/>
<path fill="#3B383B" opacity="1.000000" stroke="none" 
	d="
M383.859253,266.375732 
	C384.340332,266.529938 384.732452,266.932861 385.206116,267.612000 
	C384.781860,267.466919 384.276093,267.045654 383.859253,266.375732 
z"/>
<path fill="#3B383B" opacity="1.000000" stroke="none" 
	d="
M150.033554,243.382446 
	C150.608139,243.214539 151.220322,243.304413 152.021942,243.648560 
	C151.497955,243.815277 150.784561,243.727753 150.033554,243.382446 
z"/>
<path fill="#3B383B" opacity="1.000000" stroke="none" 
	d="
M159.212250,17.244255 
	C159.764633,17.007582 160.509705,17.003654 161.627686,16.998919 
	C161.135376,17.157740 160.270142,17.317369 159.212250,17.244255 
z"/>
<path fill="#3B383B" opacity="1.000000" stroke="none" 
	d="
M224.463684,283.490173 
	C224.105331,283.511017 223.888687,283.393188 223.672058,283.275330 
	C223.871552,283.081116 224.071014,282.886871 224.270477,282.692627 
	C224.382111,282.912231 224.493744,283.131897 224.463684,283.490173 
z"/>
<path fill="#3B383B" opacity="1.000000" stroke="none" 
	d="
M178.879761,249.052429 
	C178.545456,248.816208 178.230621,248.244965 177.968811,247.337830 
	C178.314316,247.573776 178.606781,248.145599 178.879761,249.052429 
z"/>
<path fill="#3B383B" opacity="1.000000" stroke="none" 
	d="
M183.549698,280.311859 
	C183.673508,280.107269 183.847229,279.920258 184.020935,279.733246 
	C184.010391,279.904572 183.999832,280.075867 183.805222,280.340088 
	C183.621155,280.433014 183.599594,280.329437 183.549698,280.311859 
z"/>
<path fill="#363636" opacity="1.000000" stroke="none" 
	d="
M171.479340,257.465942 
	C171.519913,257.444550 171.438766,257.487366 171.479340,257.465942 
z"/>
<path fill="#3B383B" opacity="1.000000" stroke="none" 
	d="
M233.120239,274.213623 
	C233.312744,274.121307 233.566696,274.312225 233.882080,274.786377 
	C233.689178,274.879181 233.435242,274.688263 233.120239,274.213623 
z"/>
<path fill="#3B383B" opacity="1.000000" stroke="none" 
	d="
M195.077057,239.979401 
	C195.158615,239.731354 195.328537,239.660934 195.754761,239.692719 
	C195.729172,239.915634 195.447296,240.036331 195.077057,239.979401 
z"/>
<path fill="#3B383B" opacity="1.000000" stroke="none" 
	d="
M250.378601,263.397827 
	C250.150681,263.304474 249.943497,263.154449 249.736298,263.004395 
	C249.905869,262.995453 250.075455,262.986511 250.375580,263.131287 
	C250.506119,263.285034 250.399323,263.341156 250.378601,263.397827 
z"/>
<path fill="#3B383B" opacity="1.000000" stroke="none" 
	d="
M176.479523,38.464569 
	C176.520920,38.442566 176.438126,38.486576 176.479523,38.464569 
z"/>
<path fill="#FAFAFA" opacity="1.000000" stroke="none" 
	d="
M23.828308,63.464668 
	C23.816523,62.554470 23.886389,62.106426 24.042290,61.327747 
	C24.752087,63.005859 25.917351,65.013687 25.920788,67.023499 
	C26.018631,124.253944 25.999617,181.484589 25.999613,238.715210 
	C25.999611,244.538086 26.075460,250.362625 25.948273,256.182709 
	C25.914751,257.716583 25.253738,259.236786 24.503471,260.882996 
	C24.061586,259.178619 23.941195,257.354462 23.940702,255.530319 
	C23.923468,191.662491 23.917513,127.794662 23.828308,63.464668 
z"/>
</svg>