<svg version="1.1" id="Layer_1" xmlns="http://www.w3.org/2000/svg" xmlns:xlink="http://www.w3.org/1999/xlink" x="0px" y="0px"
	 width="100%" viewBox="0 0 2200 2200" enable-background="new 0 0 2200 2200" xml:space="preserve">
<path fill="#000000" opacity="1.000000" stroke="none" 
	d="
M1452.000000,2202.000000 
	C968.054749,2202.000000 485.109467,2202.000000 2.082092,2202.000000 
	C2.082092,1468.804443 2.082092,735.609009 2.082092,2.206731 
	C735.112305,2.206731 1468.224731,2.206731 2201.668457,2.206731 
	C2201.668457,735.333191 2201.668457,1468.666626 2201.668457,2202.000000 
	C1952.274780,2202.000000 1702.637329,2202.000000 1452.000000,2202.000000 
M450.999695,1776.602661 
	C467.998413,1776.602417 485.001801,1776.375366 501.993225,1776.727051 
	C507.829041,1776.847778 511.835785,1774.986084 515.772339,1770.728394 
	C674.377075,1599.183472 833.080872,1427.730225 991.790833,1256.282715 
	C994.192566,1253.688232 996.832153,1251.313965 999.757568,1248.448242 
	C1002.008423,1251.308960 1004.097778,1253.850464 1006.066406,1256.482422 
	C1133.986938,1427.502563 1261.920288,1598.513184 1389.698730,1769.639526 
	C1393.470337,1774.690552 1397.205444,1776.767334 1403.632080,1776.757812 
	C1540.293945,1776.553223 1676.956299,1776.605591 1813.618530,1776.581055 
	C1816.418823,1776.580566 1819.219238,1776.259277 1823.552368,1775.993774 
	C1627.350708,1513.654175 1432.145142,1252.646484 1236.852295,991.522095 
	C1410.509644,803.907104 1583.340942,617.184570 1757.901733,428.593567 
	C1752.190918,428.593567 1749.000610,428.593567 1745.810303,428.593567 
	C1712.144775,428.593536 1678.473633,428.933044 1644.817383,428.375854 
	C1635.355957,428.219208 1628.985474,430.982880 1622.508423,437.998322 
	C1477.815430,594.717102 1332.867676,751.200500 1187.956055,907.717346 
	C1185.591797,910.270996 1183.078735,912.686829 1180.286011,915.521362 
	C1177.671387,912.162415 1175.604004,909.596863 1173.631714,906.960205 
	C1056.287720,750.081543 938.934143,593.210144 821.692871,436.254761 
	C817.854675,431.116394 814.142395,428.382996 807.114807,428.396606 
	C670.119812,428.661926 533.124146,428.590942 396.128632,428.615173 
	C393.668823,428.615601 391.209076,428.939056 387.366882,429.208832 
	C573.129883,677.598389 758.016113,924.815613 943.086792,1172.279419 
	C756.757629,1373.581665 571.068359,1574.192505 383.713684,1776.602661 
	C407.235352,1776.602661 428.117493,1776.602661 450.999695,1776.602661 
z"/>
<path fill="#FDFDFD" opacity="1.000000" stroke="none" 
	d="
M449.999664,1776.602661 
	C428.117493,1776.602661 407.235352,1776.602661 383.713684,1776.602661 
	C571.068359,1574.192505 756.757629,1373.581665 943.086792,1172.279419 
	C758.016113,924.815613 573.129883,677.598389 387.366882,429.208832 
	C391.209076,428.939056 393.668823,428.615601 396.128632,428.615173 
	C533.124146,428.590942 670.119812,428.661926 807.114807,428.396606 
	C814.142395,428.382996 817.854675,431.116394 821.692871,436.254761 
	C938.934143,593.210144 1056.287720,750.081543 1173.631714,906.960205 
	C1175.604004,909.596863 1177.671387,912.162415 1180.286011,915.521362 
	C1183.078735,912.686829 1185.591797,910.270996 1187.956055,907.717346 
	C1332.867676,751.200500 1477.815430,594.717102 1622.508423,437.998322 
	C1628.985474,430.982880 1635.355957,428.219208 1644.817383,428.375854 
	C1678.473633,428.933044 1712.144775,428.593536 1745.810303,428.593567 
	C1749.000610,428.593567 1752.190918,428.593567 1757.901733,428.593567 
	C1583.340942,617.184570 1410.509644,803.907104 1236.852295,991.522095 
	C1432.145142,1252.646484 1627.350708,1513.654175 1823.552368,1775.993774 
	C1819.219238,1776.259277 1816.418823,1776.580566 1813.618530,1776.581055 
	C1676.956299,1776.605591 1540.293945,1776.553223 1403.632080,1776.757812 
	C1397.205444,1776.767334 1393.470337,1774.690552 1389.698730,1769.639526 
	C1261.920288,1598.513184 1133.986938,1427.502563 1006.066406,1256.482422 
	C1004.097778,1253.850464 1002.008423,1251.308960 999.757568,1248.448242 
	C996.832153,1251.313965 994.192566,1253.688232 991.790833,1256.282715 
	C833.080872,1427.730225 674.377075,1599.183472 515.772339,1770.728394 
	C511.835785,1774.986084 507.829041,1776.847778 501.993225,1776.727051 
	C485.001801,1776.375366 467.998413,1776.602417 449.999664,1776.602661 
M925.875061,731.136292 
	C875.388672,663.647034 824.852905,596.194580 774.522827,528.588928 
	C771.018005,523.881104 767.591919,521.673340 761.521606,521.696533 
	C701.533997,521.926270 641.545105,521.826782 581.556580,521.867249 
	C579.180420,521.868835 576.804504,522.336731 573.754150,522.658386 
	C575.789429,525.528381 577.090088,527.450928 578.478638,529.307739 
	C650.099976,625.082764 721.733032,720.848999 793.355896,816.622864 
	C918.446960,983.894287 1043.529785,1151.171875 1168.620972,1318.443115 
	C1258.000366,1437.960693 1347.423706,1557.445435 1436.649780,1677.077393 
	C1440.492554,1682.229858 1444.385986,1684.011230 1450.715698,1683.984497 
	C1510.036621,1683.733765 1569.359009,1683.840576 1628.681030,1683.818237 
	C1631.172363,1683.817383 1633.663818,1683.562622 1637.969849,1683.326660 
	C1400.189819,1365.392822 1163.445923,1048.844482 925.875061,731.136292 
z"/>
<path fill="#010101" opacity="1.000000" stroke="none" 
	d="
M926.288574,731.716187 
	C1163.445923,1048.844482 1400.189819,1365.392822 1637.969849,1683.326660 
	C1633.663818,1683.562622 1631.172363,1683.817383 1628.681030,1683.818237 
	C1569.359009,1683.840576 1510.036621,1683.733765 1450.715698,1683.984497 
	C1444.385986,1684.011230 1440.492554,1682.229858 1436.649780,1677.077393 
	C1347.423706,1557.445435 1258.000366,1437.960693 1168.620972,1318.443115 
	C1043.529785,1151.171875 918.446960,983.894287 793.355896,816.622864 
	C721.733032,720.848999 650.099976,625.082764 578.478638,529.307739 
	C577.090088,527.450928 575.789429,525.528381 573.754150,522.658386 
	C576.804504,522.336731 579.180420,521.868835 581.556580,521.867249 
	C641.545105,521.826782 701.533997,521.926270 761.521606,521.696533 
	C767.591919,521.673340 771.018005,523.881104 774.522827,528.588928 
	C824.852905,596.194580 875.388672,663.647034 926.288574,731.716187 
z"/>
</svg>